<svg width="200" height="41" viewBox="0 0 200 41" fill="none" xmlns="http://www.w3.org/2000/svg">
<path d="M28.8589 9.62856V0H19.0157C18.3715 5.02143e-06 17.7536 0.257405 17.298 0.715576L0.711525 17.3965C0.255948 17.8547 4.993e-06 18.4761 0 19.124L0 28.9545H9.57405V15.0977C9.57405 13.6472 10.147 12.2561 11.1669 11.2304C12.1867 10.2048 13.57 9.62856 15.0123 9.62856H28.8589Z" fill="#000000"/>
<path d="M31.2622 25.9023C31.2622 27.3528 30.6892 28.7438 29.6694 29.7695C28.6496 30.7951 27.2664 31.3714 25.8241 31.3714H11.9773V40.9999H21.8205C22.1395 41 22.4554 40.9368 22.7501 40.814C23.0449 40.6912 23.3127 40.5112 23.5382 40.2844L40.1247 23.6034C40.3503 23.3766 40.5292 23.1072 40.6513 22.8108C40.7734 22.5144 40.8362 22.1967 40.8362 21.8759V12.0454H31.2622V25.9023Z" fill="#000000"/>
<path d="M36.629 4.33891L37.3843 6.60654H38.2708L39.0372 4.33891V6.60654H39.9784V2.86377H38.6432L37.8439 5.26376L37.0448 2.86377H35.6875V6.60654H36.629V4.33891Z" fill="#000000"/>
<path d="M33.0713 6.60654H34.0128V3.68935H35.1292V2.86377H31.9548V3.68935H33.0713V6.60654Z" fill="#000000"/>
<path d="M71.6189 11.8323C71.1023 11.7578 70.581 11.7203 70.0591 11.7202C67.6192 11.7202 65.1393 12.6554 64.1793 14.8999L63.7394 11.9821H59.4998V31.4348H64.5395V21.6336C64.5395 18.4911 66.3794 16.1344 69.8991 16.1344C70.4771 16.1411 71.053 16.2038 71.6191 16.3215L71.6189 11.8323Z" fill="#000000"/>
<path d="M80.8695 11.4961C78.0296 11.4961 75.7897 12.4689 74.2298 13.965C72.2298 15.8729 71.23 18.6412 71.23 21.7461C71.23 24.9259 72.3499 27.6567 74.4298 29.5271C76.0697 30.9861 78.1495 31.9213 80.9894 31.9213C83.6293 31.9213 86.229 31.1358 87.9888 29.1905C88.7888 28.2927 89.6288 26.759 89.7488 25.5992H84.9491C84.7764 26.2316 84.4299 26.8021 83.9492 27.2452C83.2293 27.9185 82.3492 28.1805 80.9093 28.1805C79.77 28.183 78.6711 27.7558 77.8296 26.9834C77.3186 26.4944 76.9184 25.9005 76.6562 25.2421C76.3939 24.5837 76.2757 23.8762 76.3096 23.1677H90.2287C90.2287 22.7562 90.2687 21.8583 90.2687 21.8583C90.3486 19.4267 89.9888 17.2196 88.4688 15.0873C86.749 12.6558 83.9492 11.4961 80.8695 11.4961ZM76.2697 19.7634C76.2508 18.6549 76.6348 17.5775 77.3495 16.7333C78.0695 15.8355 79.3095 15.2369 80.8292 15.2369C82.2693 15.2369 83.3091 15.6859 83.9892 16.3592C84.7891 17.1823 85.2291 18.3046 85.2692 19.7634H76.2697Z" fill="#000000"/>
<path d="M107.566 13.1796C106.114 12.0856 104.341 11.5068 102.527 11.5336C100.247 11.5336 97.927 12.3192 96.6871 14.1148L96.367 11.9825H92.0474V38.8795H97.047V30.0135C98.0069 31.0983 100.007 31.9213 102.487 31.9213C104.607 31.9213 106.286 31.3227 107.566 30.3502C110.046 28.4423 111.286 25.4871 111.286 21.6713C111.286 18.0052 110.046 15.0873 107.566 13.1796ZM104.887 26.4596C104.479 26.9547 103.964 27.3501 103.382 27.6158C102.8 27.8815 102.166 28.0106 101.527 27.9934C97.6071 27.9934 96.8071 24.5517 96.8071 21.7461C96.8071 18.9404 97.607 15.4615 101.527 15.4615C102.166 15.4443 102.8 15.5734 103.382 15.8391C103.964 16.1048 104.479 16.5002 104.887 16.9953C105.926 18.2672 106.207 20.0628 106.207 21.7461C106.207 23.4295 105.926 25.1877 104.887 26.4596Z" fill="#000000"/>
<path d="M125.781 11.9824H120.701V31.435H125.781V11.9824Z" fill="#000000"/>
<path d="M125.901 4.46289H120.541V9.28869H125.901V4.46289Z" fill="#000000"/>
<path d="M137.056 15.5362C138.576 15.5362 139.655 16.1348 140.255 16.9952C140.612 17.5289 140.819 18.1491 140.856 18.7909H145.775C145.702 17.2467 145.141 15.7662 144.175 14.5636C142.735 12.8802 140.216 11.4961 137.056 11.4961C133.896 11.4961 131.256 12.9177 129.816 14.5636C128.256 16.3967 127.536 18.8282 127.536 21.6713C127.536 24.5144 128.256 26.946 129.816 28.779C131.256 30.425 133.896 31.8465 137.056 31.8465C140.216 31.8465 142.735 30.4623 144.175 28.779C145.141 27.5765 145.702 26.0959 145.775 24.5517H140.856C140.819 25.1935 140.612 25.8137 140.255 26.3475C139.656 27.2078 138.576 27.8063 137.056 27.8063C136.493 27.8145 135.934 27.7095 135.412 27.4975C134.89 27.2855 134.415 26.9708 134.016 26.5719C132.816 25.3373 132.616 23.5044 132.616 21.6713C132.616 19.8382 132.816 17.9679 134.016 16.7332C134.418 16.3402 134.894 16.0319 135.416 15.8264C135.938 15.6208 136.495 15.5222 137.056 15.5362Z" fill="#000000"/>
<path d="M164.165 26.6091V19.3893C164.165 18.0799 164.085 16.6958 163.565 15.4614C162.365 12.5434 159.325 11.4961 155.765 11.4961C151.125 11.4961 147.406 13.4413 147.126 17.8182H151.965C152.085 16.0225 153.445 15.05 155.765 15.05C158.605 15.05 159.285 16.2844 159.285 18.1175V19.3146L153.165 19.7261C149.206 19.9879 146.126 22.1202 146.126 25.8238C146.126 29.0034 148.686 31.9213 153.645 31.9213C156.605 31.9213 159.005 30.5746 159.965 29.0034C160.125 30.4623 161.325 31.7342 163.485 31.7342C164.341 31.7612 165.191 31.5817 165.965 31.2106V27.7689C165.754 27.8151 165.54 27.8402 165.325 27.8437C164.485 27.8437 164.165 27.507 164.165 26.6091ZM159.285 23.6914C159.285 26.5718 157.085 28.1429 153.965 28.1429C152.405 28.1429 151.006 27.2076 151.006 25.7114C151.006 24.1401 152.485 23.2797 154.005 23.1676L159.285 22.7935V23.6914Z" fill="#000000"/>
<path d="M178.087 11.4961C175.687 11.4961 173.207 12.4313 171.967 14.4888L171.607 11.9825H167.407V31.4352H172.407V23.5046C172.407 21.8586 172.367 19.8386 173.087 18.3048C173.767 16.8832 174.927 15.8357 176.687 15.8357C179.326 15.8357 180.126 17.2198 180.126 19.5019V31.435H185.126V18.4543C185.126 14.414 182.526 11.4961 178.087 11.4961Z" fill="#000000"/>
<path d="M196.76 27.4323C195.16 27.4323 194.44 26.7963 194.44 25.3V15.8355H199.68V11.9825H194.44V5.88477L189.44 7.0444V11.9825H185.641V15.8355H189.44V25.7116C189.44 29.4524 191.52 31.697 195.72 31.697C197.162 31.6938 198.599 31.5179 200 31.1733V27.2452C198.925 27.3732 197.843 27.4357 196.76 27.4323Z" fill="#000000"/>
<path d="M118.128 4.38818H113.089V31.4348H118.128V4.38818Z" fill="#000000"/>
</svg>
