<?xml version="1.0" encoding="utf-8"?>
<!-- Generator: Adobe Illustrator 26.3.1, SVG Export Plug-In . SVG Version: 6.00 Build 0)  -->
<svg version="1.1" id="Layer_1" xmlns="http://www.w3.org/2000/svg" xmlns:xlink="http://www.w3.org/1999/xlink" x="0px" y="0px"
	 viewBox="0 0 206 47" style="enable-background:new 0 0 206 47;" xml:space="preserve">
<style type="text/css">
	.st0{fill:#FFFFFF;}
</style>
<g>
	<g>
		<path class="st0" d="M123,6.1c0-0.4,0.3-0.7,0.7-0.7h4v4.1c0,0.4-0.3,0.7-0.7,0.7h-4V6.1z"/>
		<path class="st0" d="M65.7,32.8v-9.9c0-2.8,1.6-4.7,4.5-4.7c0.6,0,1.2,0.1,1.7,0.3V14c-0.4-0.2-0.9-0.3-1.8-0.3
			c-1.8,0-3.8,0.9-4.6,3l-0.2-2.5H61v18.6H65.7z M73.1,23.5c0,6,4,9.8,9.7,9.8c4.1,0,7.4-1.9,8.6-5l-3.8-1.7
			c-0.7,1.7-2.5,2.7-4.6,2.7c-3.1,0-4.9-1.7-5-4.7h13.8c0.1-0.4,0.2-1.1,0.2-2c0-5.4-3.8-9-9.3-9C77,13.6,73.1,17.7,73.1,23.5z
			 M77.9,21.7c0.3-2.5,2.2-4.1,4.6-4.1c2.6,0,4.5,1.5,4.6,4.1H77.9z M94.3,40.5h4.8V30.3c1.2,1.9,3.5,3,6.2,3c5.3,0,8.7-4,8.7-9.8
			c0-5.7-3.4-9.8-8.7-9.8c-2.8,0-5.2,1.2-6.4,3.4l-0.4-2.8h-4.2V40.5z M104.1,29.1c-3.2,0-4.9-2.3-4.9-5.6c0-3.3,1.7-5.6,4.9-5.6
			c3.2,0,4.9,2.3,4.9,5.6C109,26.8,107.3,29.1,104.1,29.1z M120.7,32.8V5.4h-4.7v27.4H120.7z M123,32.8h4.7V13.6H123V32.8z
			 M129.9,23.5c0,5.9,4,9.8,9.8,9.8c4.3,0,8-2.3,9.1-5.9l-4.4-1.5c-0.6,1.9-2.3,3.1-4.6,3.1c-2.9,0-4.9-2.2-4.9-5.5
			c0-3.3,2-5.6,4.9-5.6c2.1,0,3.9,1.2,4.5,3.1l4.4-1.7c-1-3.4-4.6-5.7-9-5.7C133.8,13.6,129.9,17.6,129.9,23.5z M156.8,33.3
			c3,0,5.5-1.4,6.3-3.1c0,1,0.2,1.9,0.3,2.6l4.5,0c-0.2-0.6-0.4-2.8-0.4-4.5v-7.5c0-5.1-3.3-7.1-8-7.1c-4.2,0-7.7,1.9-8.4,5.6
			l4.2,0.9c0.2-1.7,1.6-2.7,3.9-2.7c2.1,0,3.5,1,3.5,3v1.5h-4.2c-4.6,0-8.1,1.9-8.1,6C150.4,31.1,152.9,33.3,156.8,33.3z M158.3,30
			c-2,0-3.2-1-3.2-2.5c0-1.8,1.4-2.7,4-2.7h3.5v1.8C162.6,28.6,160.8,30,158.3,30z M169.9,32.8h4.7v-9.9c0-3.2,1.7-5,4.2-5
			c2.5,0,3.4,1.6,3.4,4.3v10.5h4.8V21c0-4.6-2.4-7.4-6.8-7.4c-2.6,0-5,1.1-5.8,3.1l-0.3-2.5h-4.2V32.8z M193.5,32.8h4.7V18.3h4.8
			v-4.1h-4.8V8.7h-4.7v5.5h-5.1v4.1h5.1V32.8z"/>
	</g>
	<g>
		<path class="st0" d="M34.1,12V1.7H23.5c-0.7,0-1.4,0.3-1.8,0.8L3.8,20.4C3.3,20.8,3,21.5,3,22.2v10.6h10.3V17.9
			c0-3.2,2.6-5.9,5.9-5.9L34.1,12L34.1,12z"/>
		<path class="st0" d="M37,29.1c0,3.2-2.6,5.9-5.9,5.9H16.2v10.3h10.6c0.7,0,1.4-0.3,1.8-0.8l17.9-17.9c0.5-0.5,0.8-1.2,0.8-1.9
			V14.2H37L37,29.1L37,29.1z"/>
	</g>
</g>
</svg>
