<svg width="835" height="601" viewBox="0 0 835 601" fill="none" xmlns="http://www.w3.org/2000/svg">
<path fill-rule="evenodd" clip-rule="evenodd" d="M835 16.4455L815.06 36.383C813.562 37.881 812.375 39.6594 811.564 41.6165C810.754 43.5737 810.338 45.6712 810.338 47.7893V112.659H835V126.555H810.776V218.012C810.772 227.584 806.967 236.762 800.198 243.529C793.428 250.297 784.248 254.098 774.676 254.098H682.712L682.78 317.622L748.103 317.622C750.222 317.629 752.321 317.215 754.279 316.404C756.237 315.594 758.015 314.403 759.509 312.9L835 237.419V425.982L737.277 523.716C735.776 525.209 734.585 526.985 733.772 528.94C732.959 530.895 732.541 532.992 732.542 535.109V600.033H796.094V508.59C796.094 499.018 799.895 489.838 806.662 483.069C813.429 476.299 822.608 472.494 832.18 472.491H835V600.226L711.664 600.225V536.688H620.221C610.651 536.688 601.472 532.886 594.705 526.118C587.937 519.351 584.135 510.172 584.135 500.602V408.637L520.597 408.733V474.028C520.6 478.301 522.298 482.399 525.319 485.421L635.388 595.504C636.886 597.001 638.665 598.189 640.622 598.999C642.577 599.808 644.671 600.225 646.786 600.225L92.1365 600.226V553.066C92.1401 543.494 95.9449 534.315 102.715 527.548C109.484 520.781 118.664 516.98 128.236 516.98H220.201L220.132 453.456H154.81C152.691 453.449 150.591 453.863 148.633 454.673C146.675 455.484 144.898 456.675 143.403 458.177L33.3203 568.247C31.8228 569.745 30.6349 571.523 29.8247 573.48C29.0145 575.437 28.5978 577.535 28.5984 579.653V600.226H0V0.51416H835V16.4455ZM477.927 191.05V125.755L541.465 125.659V217.624C541.465 227.194 545.267 236.373 552.035 243.14C558.802 249.907 567.981 253.709 577.551 253.709L668.994 253.709V317.247H604.125C602.007 317.248 599.909 316.831 597.952 316.021C595.995 315.211 594.217 314.023 592.719 312.526L482.649 202.443C479.628 199.42 477.93 195.323 477.927 191.05ZM235.297 517.292H300.592C304.865 517.29 308.962 515.592 311.984 512.571L422.068 402.501C423.565 401.003 424.753 399.225 425.563 397.268C426.373 395.311 426.79 393.213 426.789 391.095V326.225H363.251V417.669C363.251 427.239 359.449 436.418 352.682 443.185C345.914 449.952 336.736 453.754 327.165 453.754H235.201L235.297 517.292ZM441.769 408.953H507.091L507.16 472.491H415.195C405.623 472.494 396.445 476.299 389.678 483.069C382.911 489.839 379.109 499.019 379.109 508.59V600.034H315.544V535.15C315.546 530.877 317.244 526.78 320.265 523.758L430.362 413.674C433.39 410.653 437.491 408.955 441.769 408.953ZM583.216 394.623V329.3C583.222 327.181 582.808 325.082 581.998 323.124C581.187 321.166 579.996 319.388 578.494 317.894L468.425 207.811C466.927 206.313 465.148 205.125 463.191 204.315C461.234 203.505 459.136 203.088 457.018 203.089H392.149V266.627H483.606C493.177 266.631 502.356 270.435 509.123 277.205C515.89 283.975 519.691 293.155 519.691 302.726V394.691L583.216 394.623Z" fill="black"/>
</svg>
