<svg width="193" height="398" viewBox="0 0 193 398" fill="none" xmlns="http://www.w3.org/2000/svg">
<path d="M64.0809 205L64.0809 270.664C64.0775 274.943 62.3868 279.049 59.3757 282.089L-51.2835 392.734C-52.7843 394.244 -54.5689 395.441 -56.5343 396.258C-58.4998 397.075 -60.6073 397.495 -62.7358 397.495L-128 397.495L-128 333.61L-36.0783 333.61C-26.4564 333.61 -17.2283 329.789 -10.4233 322.987C-3.61829 316.184 0.20663 306.958 0.210277 297.336L0.210281 205L64.0809 205Z" fill="url(#paint0_linear_444_2698)"/>
<path d="M193 1.52588e-05L127.163 9.50317e-06C122.873 0.00338132 118.757 1.70219 115.709 4.72767L4.77279 115.916C3.25957 117.424 2.05889 119.217 1.23978 121.192C0.420676 123.167 -0.000695984 125.285 -9.52591e-06 127.423L-1.52588e-05 193L64.052 193L64.052 100.638C64.052 90.9705 67.8834 81.6983 74.7037 74.8607C81.524 68.0231 90.7748 64.1799 100.422 64.1762L193 64.1762L193 1.52588e-05Z" fill="url(#paint1_linear_444_2698)"/>
<defs>
<linearGradient id="paint0_linear_444_2698" x1="-128" y1="170.912" x2="-117.322" y2="437.17" gradientUnits="userSpaceOnUse">
<stop stop-color="#112EFF"/>
<stop offset="0.595037" stop-color="#08EEFF"/>
<stop offset="0.973958" stop-color="#B8FD8E"/>
</linearGradient>
<linearGradient id="paint1_linear_444_2698" x1="227.177" y1="193" x2="-39.7808" y2="182.317" gradientUnits="userSpaceOnUse">
<stop stop-color="#112EFF"/>
<stop offset="0.595037" stop-color="#08EEFF"/>
<stop offset="0.973958" stop-color="#B8FD8E"/>
</linearGradient>
</defs>
</svg>
