<svg width="604" height="544" viewBox="0 0 604 544" fill="none" xmlns="http://www.w3.org/2000/svg">
<path fill-rule="evenodd" clip-rule="evenodd" d="M604 0.00292969H0.644531V544H91.1836H604V487.053L549.341 432.248C546.409 429.306 544.76 425.318 544.758 421.158V358L604 358V347H544.055V257.989C544.055 248.671 540.365 239.735 533.797 233.146C527.228 226.556 518.318 222.852 509.027 222.849H419.758L419.824 161H483.232C487.384 161.002 491.366 162.655 494.304 165.597L601.174 272.753C602.319 273.901 603.268 275.209 604 276.624V0.00292969ZM91.1836 544L30 543.933L30 480.526C30.0019 476.374 31.6371 472.392 34.5469 469.453L140.551 362.583C143.461 359.651 147.406 358.002 151.521 358H214L214 419.702H125.945C116.728 419.702 107.889 423.392 101.37 429.961C94.8511 436.53 91.187 445.439 91.1835 454.731L91.1836 544ZM407.758 295.474V232.067L346.574 232V321.269C346.571 330.561 342.907 339.47 336.388 346.039C329.869 352.608 321.029 356.298 311.812 356.298H223.758V418L286.237 418C290.351 417.998 294.297 416.349 297.207 413.417L403.211 306.547C406.121 303.608 407.756 299.626 407.758 295.474ZM344.271 222.86L407.547 223.172L407.918 161.57L318.834 161.131C309.562 161.082 300.689 157.349 294.166 150.754C287.644 144.158 284.005 135.24 284.051 125.96L284.488 37.3037L222.914 37.0001L222.604 99.9056C222.586 104.049 224.211 108.029 227.123 110.974L333.245 218.227C336.163 221.171 340.128 222.837 344.271 222.86Z" fill="black"/>
</svg>
