<svg width="504" height="473" viewBox="0 0 504 473" fill="none" xmlns="http://www.w3.org/2000/svg">
<path d="M193 473L193 407.163C192.997 402.873 191.298 398.757 188.272 395.709L77.0836 284.773C75.5756 283.26 73.7825 282.059 71.8076 281.24C69.8328 280.421 67.7151 279.999 65.5765 280L-8.4363e-06 280L-5.6365e-06 344.052L92.3615 344.052C102.029 344.052 111.302 347.883 118.139 354.704C124.977 361.524 128.82 370.775 128.824 380.422L128.824 473L193 473Z" fill="url(#paint0_linear_444_2698)"/>
<path d="M194 -8.43629e-06L194 65.8366C194.003 70.127 195.702 74.2429 198.728 77.2913L309.916 188.227C311.424 189.74 313.217 190.941 315.192 191.76C317.167 192.579 319.285 193.001 321.423 193L387 193L387 128.948L294.638 128.948C284.97 128.948 275.698 125.117 268.861 118.296C262.023 111.476 258.18 102.225 258.176 92.578L258.176 -5.63106e-06L194 -8.43629e-06Z" fill="url(#paint1_linear_444_2698)"/>
<path d="M600 323L600 257.163C599.997 252.873 598.298 248.757 595.272 245.709L484.084 134.773C482.576 133.26 480.782 132.059 478.808 131.24C476.833 130.421 474.715 129.999 472.576 130L407 130L407 194.052L499.362 194.052C509.03 194.052 518.302 197.883 525.139 204.704C531.977 211.524 535.82 220.775 535.824 230.422L535.824 323L600 323Z" fill="url(#paint2_linear_444_2698)"/>
<defs>
<linearGradient id="paint0_linear_444_2698" x1="8.43755e-07" y1="507.177" x2="10.6831" y2="240.219" gradientUnits="userSpaceOnUse">
<stop stop-color="#112EFF"/>
<stop offset="0.595037" stop-color="#08EEFF"/>
<stop offset="0.973958" stop-color="#B8FD8E"/>
</linearGradient>
<linearGradient id="paint1_linear_444_2698" x1="387" y1="-34.1771" x2="376.317" y2="232.781" gradientUnits="userSpaceOnUse">
<stop stop-color="#112EFF"/>
<stop offset="0.595037" stop-color="#08EEFF"/>
<stop offset="0.973958" stop-color="#B8FD8E"/>
</linearGradient>
<linearGradient id="paint2_linear_444_2698" x1="407" y1="259.672" x2="599.852" y2="263.369" gradientUnits="userSpaceOnUse">
<stop stop-color="#112EFF"/>
<stop offset="0.911458" stop-color="#08EEFF"/>
</linearGradient>
</defs>
</svg>
