<svg width="189" height="389" viewBox="0 0 189 389" fill="none" xmlns="http://www.w3.org/2000/svg">
<path d="M0 389H64.8133C69.0369 388.997 73.0889 387.324 76.0899 384.346L185.301 274.885C186.791 273.401 187.973 271.636 188.779 269.691C189.586 267.747 190.001 265.663 190 263.557V199H126.944V289.926C126.944 299.444 123.172 308.572 116.457 315.303C109.743 322.034 100.636 325.818 91.139 325.821H0L0 389Z" fill="url(#paint0_linear_444_2698)"/>
<path d="M316 1.52588e-05L251.528 9.62246e-06C247.326 0.00333567 243.296 1.67573 240.311 4.65418L131.674 114.115C130.192 115.599 129.016 117.364 128.214 119.309C127.412 121.253 126.999 123.337 127 125.443L127 190L189.725 190L189.725 99.0741C189.725 89.5564 193.477 80.4284 200.155 73.6971C206.834 66.9658 215.893 63.1823 225.341 63.1787L316 63.1787L316 1.52588e-05Z" fill="url(#paint1_linear_444_2698)"/>
<defs>
<linearGradient id="paint0_linear_444_2698" x1="-33.6458" y1="199" x2="229.162" y2="209.517" gradientUnits="userSpaceOnUse">
<stop stop-color="#112EFF"/>
<stop offset="0.595037" stop-color="#08EEFF"/>
<stop offset="0.973958" stop-color="#B8FD8E"/>
</linearGradient>
<linearGradient id="paint1_linear_444_2698" x1="349.469" y1="190" x2="88.0392" y2="179.593" gradientUnits="userSpaceOnUse">
<stop stop-color="#112EFF"/>
<stop offset="0.595037" stop-color="#08EEFF"/>
<stop offset="0.973958" stop-color="#B8FD8E"/>
</linearGradient>
</defs>
</svg>
