<svg width="309" height="381" viewBox="0 0 309 381" fill="none" xmlns="http://www.w3.org/2000/svg">
<path d="M-0.933397 0H62.4744C66.6264 0.00186157 70.6081 1.65485 73.5465 4.5963L180.417 111.752C183.349 114.694 184.998 118.683 185 122.842V186H123.298L123.298 96.9883C123.298 87.671 119.607 78.7351 113.039 72.1455C106.47 65.556 97.5606 61.8521 88.2694 61.8486L-1 61.8486L-0.933397 0Z" fill="url(#paint0_linear_444_2698)"/>
<path d="M123 195.067L123 258.474C123.002 262.626 124.655 266.608 127.596 269.547L234.752 376.417C237.694 379.349 241.683 380.998 245.842 381L309 381L309 319.298L219.988 319.298C210.671 319.298 201.735 315.607 195.146 309.039C188.556 302.47 184.852 293.561 184.849 284.269L184.849 195L123 195.067Z" fill="url(#paint1_linear_444_2698)"/>
<defs>
<linearGradient id="paint0_linear_444_2698" x1="-33.9375" y1="186" x2="223.338" y2="175.704" gradientUnits="userSpaceOnUse">
<stop stop-color="#112EFF"/>
<stop offset="0.595037" stop-color="#08EEFF"/>
<stop offset="0.973958" stop-color="#B8FD8E"/>
</linearGradient>
<linearGradient id="paint1_linear_444_2698" x1="309" y1="162.062" x2="298.704" y2="419.338" gradientUnits="userSpaceOnUse">
<stop stop-color="#112EFF"/>
<stop offset="0.595037" stop-color="#08EEFF"/>
<stop offset="0.973958" stop-color="#B8FD8E"/>
</linearGradient>
</defs>
</svg>
