<svg width="140" height="248" viewBox="0 0 140 248" fill="none" xmlns="http://www.w3.org/2000/svg">
<path d="M181.948 0L119.89 0C115.831 0.00241541 111.938 1.61116 109.067 4.47299L4.48578 108.756C1.61577 111.619 0.00242231 115.5 0 119.548L0 181H60.3624L60.3624 94.3878C60.3607 89.8987 61.2457 85.4531 62.967 81.305C64.6882 77.1569 67.212 73.3875 70.3942 70.2119C73.5764 67.0364 77.3547 64.5169 81.5134 62.7974C85.672 61.0779 90.1296 60.192 94.6317 60.1903L182 60.1903L181.948 0Z" fill="white"/>
<path d="M247 66.0521L247 128.11C246.998 132.169 245.389 136.062 242.527 138.933L138.244 243.514C135.381 246.384 131.5 247.998 127.452 248L66 248L66 187.638L152.612 187.638C157.101 187.639 161.547 186.754 165.695 185.033C169.843 183.312 173.613 180.788 176.788 177.606C179.964 174.424 182.483 170.645 184.203 166.487C185.922 162.328 186.808 157.87 186.81 153.368L186.81 66L247 66.0521Z" fill="white"/>
</svg>
