<svg width="415" height="473" viewBox="0 0 415 473" fill="none" xmlns="http://www.w3.org/2000/svg">
<path fill-rule="evenodd" clip-rule="evenodd" d="M344 88.5255V151.933L405.184 152V62.7306C405.187 53.6165 408.713 44.8698 415 38.3394V473H88.1836V383.731C88.187 374.439 91.8511 365.53 98.3698 358.961C104.889 352.393 113.728 348.702 122.945 348.702H211V287H148.521C144.406 287.002 140.461 288.651 137.551 291.583L31.5469 398.453C28.6371 401.392 27.0018 405.374 27 409.526V472.933L88.1836 473H0V0H415V10.4572L348.547 77.4535C345.637 80.3919 344.002 84.3736 344 88.5255ZM404.758 224.474V161.067L343.574 161V250.269C343.571 259.561 339.907 268.47 333.388 275.039C326.869 281.608 318.029 285.298 308.812 285.298H220.758V347H283.237C287.351 346.998 291.297 345.349 294.207 342.417L400.211 235.547C403.121 232.608 404.756 228.626 404.758 224.474Z" fill="#1E1E1E"/>
</svg>
