<svg width="268" height="319" viewBox="0 0 268 319" fill="none" xmlns="http://www.w3.org/2000/svg">
<path d="M191.493 191.081L126.17 191.081C121.913 191.078 117.83 189.396 114.805 186.4L4.73562 76.3174C3.23421 74.8244 2.04291 73.0491 1.2302 71.0939C0.417502 69.1387 -0.000573973 67.0421 9.72286e-05 64.9247L9.15527e-05 0.000260881L63.5518 0.000255326L63.5518 91.4434C63.5518 101.015 67.3533 110.195 74.1204 116.965C80.8874 123.734 90.0659 127.539 99.6378 127.543L191.493 127.543L191.493 191.081Z" fill="url(#paint0_linear_444_2698)"/>
<path d="M398 319L398 253.163C397.997 248.873 396.298 244.757 393.272 241.709L282.084 130.773C280.576 129.26 278.782 128.059 276.808 127.24C274.833 126.421 272.715 125.999 270.576 126L205 126L205 190.052L297.362 190.052C307.03 190.052 316.302 193.883 323.139 200.704C329.977 207.524 333.82 216.775 333.824 226.422L333.824 319L398 319Z" fill="url(#paint1_linear_444_2698)"/>
<defs>
<linearGradient id="paint0_linear_444_2698" x1="225.403" y1="0.000240532" x2="-39.4682" y2="10.6227" gradientUnits="userSpaceOnUse">
<stop stop-color="#112EFF"/>
<stop offset="0.595037" stop-color="#08EEFF"/>
<stop offset="0.973958" stop-color="#B8FD8E"/>
</linearGradient>
<linearGradient id="paint1_linear_444_2698" x1="205" y1="255.672" x2="397.852" y2="259.369" gradientUnits="userSpaceOnUse">
<stop stop-color="#112EFF"/>
<stop offset="0.911458" stop-color="#08EEFF"/>
</linearGradient>
</defs>
</svg>
