<svg width="432" height="366" viewBox="0 0 432 366" fill="none" xmlns="http://www.w3.org/2000/svg">
<path fill-rule="evenodd" clip-rule="evenodd" d="M432 0H0V106.993L102.345 209.338C105.366 212.36 107.065 216.458 107.067 220.731V286.053L43.5291 286.108L43.5291 194.143C43.5273 189.405 42.5921 184.712 40.777 180.335C38.9618 175.958 36.3022 171.98 32.9501 168.631C29.5979 165.281 25.6189 162.625 21.24 160.813C16.8612 159.001 12.1684 158.069 7.4295 158.071H0V366H432V0ZM394.143 334.524V269.201C394.141 264.928 392.443 260.831 389.422 257.809L279.338 147.725C276.316 144.704 272.219 143.006 267.946 143.004H203.076V206.542H294.506C299.245 206.54 303.937 207.471 308.316 209.283C312.695 211.095 316.674 213.752 320.026 217.101C323.378 220.451 326.038 224.428 327.853 228.805C329.668 233.183 330.603 237.875 330.605 242.614V334.579L394.143 334.524ZM0.181747 80.3911L0.18175 15.0686L63.7198 15L63.7198 106.965C63.7198 116.535 67.5217 125.714 74.2891 132.481C81.0565 139.249 90.2351 143.051 99.8057 143.051H191.249L191.249 206.589H126.379C124.261 206.592 122.162 206.177 120.205 205.366C118.247 204.556 116.469 203.367 114.973 201.867L4.90352 91.7974C1.88171 88.7703 0.183669 84.6685 0.181747 80.3911Z" fill="#F7F7FB"/>
</svg>
