<svg width="266" height="397" viewBox="0 0 266 397" fill="none" xmlns="http://www.w3.org/2000/svg">
<path d="M191.081 205L191.081 270.322C191.078 274.579 189.396 278.663 186.4 281.688L76.3171 391.757C74.8241 393.258 73.0488 394.45 71.0936 395.262C69.1384 396.075 67.0418 396.493 64.9244 396.493L-8.3704e-06 396.493L-5.59247e-06 332.941L91.4431 332.941C101.015 332.941 110.195 329.139 116.965 322.372C123.734 315.605 127.539 306.427 127.543 296.855L127.543 205L191.081 205Z" fill="url(#paint0_linear_444_2698)"/>
<path d="M319.809 1.52588e-05L253.972 9.50317e-06C249.682 0.00338132 245.566 1.70217 242.517 4.72767L131.581 115.916C130.068 117.424 128.867 119.217 128.048 121.192C127.229 123.167 126.808 125.285 126.809 127.423L126.809 193L190.861 193L190.861 100.638C190.861 90.9705 194.692 81.6983 201.512 74.8607C208.333 68.0231 217.583 64.1799 227.231 64.1762L319.809 64.1762L319.809 1.52588e-05Z" fill="url(#paint1_linear_444_2698)"/>
<defs>
<linearGradient id="paint0_linear_444_2698" x1="8.38551e-07" y1="171.09" x2="10.6224" y2="435.961" gradientUnits="userSpaceOnUse">
<stop stop-color="#112EFF"/>
<stop offset="0.595037" stop-color="#08EEFF"/>
<stop offset="0.973958" stop-color="#B8FD8E"/>
</linearGradient>
<linearGradient id="paint1_linear_444_2698" x1="353.986" y1="193" x2="87.0278" y2="182.317" gradientUnits="userSpaceOnUse">
<stop stop-color="#112EFF"/>
<stop offset="0.595037" stop-color="#08EEFF"/>
<stop offset="0.973958" stop-color="#B8FD8E"/>
</linearGradient>
</defs>
</svg>
