<svg width="139" height="415" viewBox="0 0 139 415" fill="none" xmlns="http://www.w3.org/2000/svg">
<path fill-rule="evenodd" clip-rule="evenodd" d="M0 0H139V415H14.6655L121.404 308.547C124.345 305.608 125.998 301.626 126 297.474L126 234.067L64.1514 234L64.1514 323.269C64.1479 332.561 60.444 341.47 53.8545 348.039C47.2649 354.607 38.329 358.298 29.0117 358.298H0V96.8486H29.2694C38.5606 96.8522 47.4701 100.556 54.0388 107.146C60.6075 113.735 64.2976 122.671 64.2976 131.988V221H126V157.842C125.998 153.683 124.349 149.694 121.417 146.752L14.5465 39.5963C11.6081 36.6548 7.62635 35.0019 3.47445 35H0V0Z" fill="white"/>
</svg>
