<svg width="273" height="652" viewBox="0 0 273 652" fill="none" xmlns="http://www.w3.org/2000/svg">
    <path d="M164 470.052L164 532.11C164.002 536.169 165.611 540.062 168.473 542.933L272.756 647.514C275.619 650.384 279.5 651.998 283.548 652L345 652L345 591.638L258.388 591.638C253.899 591.639 249.453 590.754 245.305 589.033C241.157 587.312 237.387 584.788 234.212 581.606C231.036 578.424 228.517 574.645 226.797 570.487C225.078 566.328 224.192 561.87 224.19 557.368L224.19 470L164 470.052Z" fill="white"/>
    <path d="M123 196.091L123 257.777C123.002 261.814 124.611 265.685 127.473 268.54L231.743 372.539C233.162 373.954 234.847 375.076 236.701 375.841C238.555 376.607 240.542 377.001 242.548 377L304 377L304 316.974L217.375 316.974C208.309 316.974 199.614 313.382 193.203 306.988C186.792 300.595 183.19 291.924 183.19 282.882L183.19 196L123 196.091Z" fill="white"/>
    <path d="M223 456.934L223 394.549C222.998 390.464 221.39 386.547 218.527 383.656L114.252 278.509C111.389 275.624 107.508 274.002 103.46 274L42 274L42 334.707L128.619 334.707C137.686 334.707 146.381 338.338 152.794 344.801C159.206 351.263 162.811 360.029 162.814 369.17L162.814 457L223 456.934Z" fill="white"/>
    <path d="M181 181.935L181 119.886C181.006 117.873 180.614 115.879 179.846 114.019C179.078 112.16 177.95 110.471 176.527 109.051L72.257 4.48522C70.8378 3.06275 69.1531 1.93444 67.2991 1.16488C65.4451 0.395315 63.4582 -0.000513816 61.4516 4.80753e-06L6.52155e-07 -5.64739e-07L-4.62414e-06 60.3538L86.6381 60.3538C95.7056 60.3573 104.401 63.9714 110.811 70.4018C117.222 76.8321 120.823 85.552 120.823 94.6442L120.823 182L181 181.935Z" fill="white"/>
</svg>
