<svg width="486" height="289" viewBox="0 0 486 289" fill="none" xmlns="http://www.w3.org/2000/svg">
<path fill-rule="evenodd" clip-rule="evenodd" d="M486 0H0V289H15L15 268.131C14.9994 266.013 15.4161 263.915 16.2263 261.958C17.0365 260.001 18.2243 258.223 19.7218 256.725L129.805 146.641C132.827 143.62 136.924 141.922 141.198 141.92L206.52 141.92L206.52 205.471L114.555 205.471C105.007 205.493 95.8566 209.297 89.1064 216.049C82.3562 222.802 78.5562 231.954 78.5381 241.502L78.5381 289H296.838V224.289C296.834 222.17 297.249 220.072 298.06 218.114C298.87 216.157 300.059 214.379 301.559 212.882L411.629 102.813C414.656 99.7911 418.758 98.093 423.035 98.0911L486 98.0911V0ZM486 161.629H396.462C386.891 161.629 377.712 165.431 370.945 172.198C364.178 178.966 360.376 188.144 360.376 197.715V289H486V161.629ZM282.7 205.978L217.378 205.978L217.323 142.44L309.288 142.44C314.027 142.438 318.719 141.503 323.096 139.688C327.474 137.873 331.451 135.213 334.8 131.861C338.15 128.509 340.807 124.53 342.618 120.151C344.43 115.772 345.362 111.079 345.36 106.34L345.36 14.9108L408.898 14.9108V79.7804C408.895 84.0535 407.197 88.1509 404.176 91.173L294.093 201.256C291.071 204.277 286.973 205.975 282.7 205.978Z" fill="#1E1E1E"/>
</svg>
