<svg width="253" height="270" viewBox="0 0 253 270" fill="none" xmlns="http://www.w3.org/2000/svg">
<path d="M-27.9703 191.563L37.4428 191.563C39.5648 191.57 41.6671 191.156 43.6278 190.344C45.5884 189.533 47.3686 188.341 48.8651 186.838L159.101 76.6799C160.601 75.1806 161.79 73.4008 162.601 71.4421C163.413 69.4834 163.83 67.3842 163.829 65.2644L163.829 0.342738L100.203 0.342744L100.203 91.8731C100.199 101.453 96.3894 110.639 89.6104 117.411C82.8314 124.184 73.6386 127.988 64.0535 127.988L-28.0389 127.988L-27.9703 191.563Z" fill="url(#paint0_linear_444_3294)"/>
<path d="M252.885 78.4061L187.472 78.4061C185.35 78.3995 183.247 78.8138 181.287 79.625C179.326 80.4362 177.546 81.628 176.049 83.1316L65.8133 193.29C64.3138 194.789 63.1243 196.569 62.313 198.527C61.5017 200.486 61.0844 202.585 61.0849 204.705L61.0849 269.627L124.711 269.627L124.711 178.096C124.715 168.517 128.525 159.331 135.304 152.558C142.083 145.786 151.276 141.981 160.861 141.981L252.953 141.981L252.885 78.4061Z" fill="url(#paint1_linear_444_3294)"/>
<defs>
<linearGradient id="paint0_linear_444_3294" x1="-28.0389" y1="225.425" x2="-17.49" y2="-39.0742" gradientUnits="userSpaceOnUse">
<stop stop-color="#112EFF"/>
<stop offset="0.595037" stop-color="#08EEFF"/>
<stop offset="0.973958" stop-color="#B8FD8E"/>
</linearGradient>
<linearGradient id="paint1_linear_444_3294" x1="252.953" y1="44.544" x2="242.404" y2="309.044" gradientUnits="userSpaceOnUse">
<stop stop-color="#112EFF"/>
<stop offset="0.595037" stop-color="#08EEFF"/>
<stop offset="0.973958" stop-color="#B8FD8E"/>
</linearGradient>
</defs>
</svg>
