<svg width="310" height="314" viewBox="0 0 310 314" fill="none" xmlns="http://www.w3.org/2000/svg">
<path fill-rule="evenodd" clip-rule="evenodd" d="M0 0H310V121H244.163C239.873 121.003 235.757 122.702 232.709 125.728L121.773 236.916C120.26 238.424 119.059 240.217 118.24 242.192C117.421 244.167 116.999 246.285 117 248.423V314H0V0ZM217.422 185.176H310V314H181.052V221.638C181.052 211.97 184.883 202.698 191.704 195.861C198.524 189.023 207.775 185.18 217.422 185.176ZM98.8367 236H33V171.824H125.578C135.225 171.82 144.476 167.977 151.296 161.139C158.117 154.302 161.948 145.03 161.948 135.362V43H226V108.576C226.001 110.715 225.579 112.833 224.76 114.808C223.941 116.783 222.74 118.576 221.227 120.084L110.291 231.272C107.243 234.298 103.127 235.997 98.8367 236Z" fill="#000000"/>
</svg>
