<svg width="589" height="522" viewBox="0 0 589 522" fill="none" xmlns="http://www.w3.org/2000/svg">
<path fill-rule="evenodd" clip-rule="evenodd" d="M589 0H0V522H76.1835H589V465.053L534.341 410.248C531.409 407.306 529.76 403.318 529.758 399.158V336L589 336V325H529.055V235.989C529.055 226.671 525.365 217.735 518.797 211.146C512.228 204.556 503.318 200.852 494.027 200.849H404.758L404.824 139H468.232C472.384 139.002 476.366 140.655 479.304 143.597L586.174 250.753C587.319 251.901 588.268 253.209 589 254.624V0ZM76.1835 522L15 521.933V458.526C15.0019 454.374 16.6371 450.392 19.5469 447.453L125.551 340.583C128.461 337.651 132.406 336.002 136.521 336H199V397.702H110.945C101.728 397.702 92.8885 401.393 86.3698 407.961C79.8511 414.53 76.1871 423.439 76.1835 432.731V522ZM392.758 273.474V210.067L331.574 210V299.269C331.571 308.561 327.907 317.47 321.388 324.039C314.869 330.608 306.029 334.298 296.812 334.298H208.758V396H271.237C275.351 395.998 279.297 394.349 282.207 391.417L388.211 284.547C391.121 281.608 392.756 277.626 392.758 273.474ZM329.271 200.86L392.547 201.172L392.918 139.57L303.834 139.131C294.562 139.082 285.689 135.349 279.166 128.754C272.644 122.158 269.005 113.24 269.051 103.96L269.488 15.3037L207.914 15.0001L207.604 77.9056C207.586 82.0485 209.211 86.0293 212.123 88.9736L318.245 196.227C321.163 199.171 325.128 200.837 329.271 200.86Z" fill="#1E1E1E"/>
</svg>
