<svg width="278" height="457" viewBox="0 0 278 457" fill="none" xmlns="http://www.w3.org/2000/svg">
<path d="M229 456.948L229 394.89C228.998 390.831 227.389 386.938 224.527 384.067L120.244 279.486C117.381 276.616 113.5 275.002 109.452 275L48 275L48 335.362L134.612 335.362C139.101 335.361 143.547 336.246 147.695 337.967C151.843 339.688 155.613 342.212 158.788 345.394C161.964 348.576 164.483 352.355 166.203 356.513C167.922 360.672 168.808 365.13 168.81 369.632L168.81 457L229 456.948Z" fill="white"/>
<path d="M123 196.091L123 257.777C123.002 261.814 124.611 265.685 127.473 268.54L231.743 372.539C233.162 373.954 234.847 375.076 236.701 375.841C238.555 376.607 240.542 377.001 242.548 377L304 377L304 316.974L217.375 316.974C208.309 316.974 199.614 313.382 193.203 306.988C186.792 300.595 183.19 291.924 183.19 282.882L183.19 196L123 196.091Z" fill="white"/>
<path d="M181 181.935L181 119.886C181.006 117.873 180.614 115.879 179.846 114.019C179.078 112.16 177.95 110.471 176.527 109.051L72.257 4.48522C70.8378 3.06275 69.1531 1.93444 67.2991 1.16488C65.4451 0.395315 63.4582 -0.000513816 61.4516 4.80753e-06L6.52155e-07 -5.64739e-07L-4.62414e-06 60.3538L86.6381 60.3538C95.7056 60.3573 104.401 63.9714 110.811 70.4018C117.222 76.8321 120.823 85.552 120.823 94.6442L120.823 182L181 181.935Z" fill="white"/>
</svg>

