<svg width="625" height="292" viewBox="0 0 625 292" fill="none" xmlns="http://www.w3.org/2000/svg">
<path fill-rule="evenodd" clip-rule="evenodd" d="M506.056 168.752H571.379C575.652 168.749 579.749 167.051 582.771 164.03L625 121.801V292H364.376V204.715C364.376 195.144 368.178 185.966 374.946 179.198C381.713 172.431 390.892 168.629 400.462 168.629H492.427L492.358 105.091L427.036 105.091C422.759 105.093 418.657 106.791 415.629 109.813L305.56 219.882C304.06 221.379 302.871 223.157 302.06 225.114C301.25 227.072 300.835 229.17 300.838 231.289V292H0V0H625V93.0155C624.51 93.5701 624.003 94.1101 623.479 94.6348C620.129 97.987 616.152 100.647 611.774 102.462C607.397 104.277 602.705 105.212 597.966 105.214L506.001 105.214L506.056 168.752ZM221.378 212.978L286.701 212.978C290.974 212.975 295.071 211.277 298.094 208.256L408.177 98.173C411.198 95.1509 412.896 91.0535 412.899 86.7804V21.9108L349.361 21.9108L349.361 113.34C349.362 118.079 348.431 122.772 346.619 127.151C344.807 131.53 342.15 135.509 338.801 138.861C335.451 142.213 331.474 144.873 327.097 146.688C322.719 148.503 318.027 149.438 313.288 149.44L221.324 149.44L221.378 212.978ZM145.198 150.607H210.521L210.521 214.158H118.556C109.008 214.18 99.8572 217.984 93.107 224.737C86.3567 231.489 82.5567 240.641 82.5386 250.189L82.5367 292H18.9986L19.0005 276.818C19 274.7 19.4167 272.602 20.2269 270.645C21.037 268.688 22.2249 266.91 23.7224 265.412L133.805 155.329C136.828 152.307 140.925 150.609 145.198 150.607Z" fill="#000000"/>
</svg>
