<svg xmlns="http://www.w3.org/2000/svg" version="1.1" xmlns:xlink="http://www.w3.org/1999/xlink" xmlns:svgjs="http://svgjs.dev/svgjs" width="1000" height="595" viewBox="0 0 1000 595"><g transform="matrix(1,0,0,1,-0.6060606060606233,0.3667261324185347)"><svg viewBox="0 0 396 236" data-background-color="#ffffff" preserveAspectRatio="xMidYMid meet" height="595" width="1000" xmlns="http://www.w3.org/2000/svg" xmlns:xlink="http://www.w3.org/1999/xlink"><g id="tight-bounds" transform="matrix(1,0,0,1,0.2400000000000091,-0.1454577600853355)"><svg viewBox="0 0 395.52 236.29091552017067" height="236.29091552017067" width="395.52"><g><svg viewBox="0 0 395.52 236.29091552017067" height="236.29091552017067" width="395.52"><g transform="matrix(1,0,0,1,0,174.9239485532037)"><svg viewBox="0 0 395.52 61.36696696696697" height="61.36696696696697" width="395.52"><g id="textblocktransform"><svg viewBox="0 0 395.52 61.36696696696697" height="61.36696696696697" width="395.52" id="textblock"><g><svg viewBox="0 0 395.52 61.36696696696697" height="61.36696696696697" width="395.52"><g transform="matrix(1,0,0,1,0,0)"><svg width="395.52" viewBox="2.75 -37.8 250.72 38.75" height="61.36696696696697" data-palette-color="#ff5858"><g class="wordmark-text-0" data-fill-palette-color="primary" id="text-0"><path d="M16.4-20.05L16.4-20.05 16.6-17.05Q16.6-16.2 16.4-15.9 16.2-15.6 15.83-15.6 15.45-15.6 15.03-16.32 14.6-17.05 14.08-17.9 13.55-18.75 12.38-19.48 11.2-20.2 9.7-20.2 8.2-20.2 7.25-19.48 6.3-18.75 6.3-17.9 6.3-17.05 6.45-16.53 6.6-16 6.98-15.6 7.35-15.2 7.63-14.93 7.9-14.65 8.55-14.35 9.2-14.05 9.53-13.93 9.85-13.8 10.6-13.5L10.6-13.5Q15.15-11.9 16.45-10.38 17.75-8.85 17.75-6 17.75-3.15 15.1-0.75L15.1-0.75Q13.3 0.8 10.15 0.8L10.15 0.8Q8 0.8 5.35-0.25L5.35-0.25Q4.6-0.55 4.48-0.58 4.35-0.6 4.08-0.7 3.8-0.8 3.68-0.83 3.55-0.85 3.35-0.95 3.15-1.05 3.08-1.13 3-1.2 2.9-1.35L2.9-1.35Q2.75-1.6 2.75-2.15L2.75-2.15 2.75-6.5Q2.75-7.05 2.98-7.43 3.2-7.8 3.6-7.8 4-7.8 4.17-7.58 4.35-7.35 4.5-6.65 4.65-5.95 4.8-5.65L4.8-5.65Q6.65-1.05 10-1.05L10-1.05Q11.55-1.05 12.95-1.88 14.35-2.7 14.35-4.48 14.35-6.25 13.2-7.35 12.05-8.45 10.4-9.08 8.75-9.7 7.1-10.38 5.45-11.05 4.3-12.38 3.15-13.7 3.15-15.7L3.15-15.7Q3.15-18.5 5.4-20.2 7.65-21.9 10.35-21.9 13.05-21.9 14.45-21.48 15.85-21.05 16.13-20.7 16.4-20.35 16.4-20.05ZM32.77 0.9Q27.65 0.9 24.62-2.38 21.6-5.65 21.6-10.2 21.6-14.75 24.72-18.15 27.85-21.55 32.97-21.55 38.1-21.55 41.57-18.6 45.05-15.65 45.05-10.4 45.05-5.15 41.47-2.13 37.9 0.9 32.77 0.9ZM32.2-20.2Q29.6-20.2 27.57-18.15 25.55-16.1 25.55-11.4 25.55-6.7 28.3-3.65 31.05-0.6 34.22-0.6 37.4-0.6 39.35-2.78 41.3-4.95 41.3-9.15 41.3-13.35 38.9-16.78 36.5-20.2 32.2-20.2L32.2-20.2ZM55.3 0.75L55.3 0.75Q49.4 0.75 49.4-4.25L49.4-4.25Q49.4-7.85 52.4-9.2L52.4-9.2Q54.9-10.25 60.05-11.1L60.05-11.1Q60.2-11.15 60.45-11.18 60.7-11.2 60.97-11.25 61.25-11.3 61.4-11.35L61.4-11.35Q61.75-11.5 61.75-12.05L61.75-12.05 61.85-14.65Q61.85-17.5 60.2-18.78 58.55-20.05 57-20.05L57-20.05Q53.4-20.05 53.4-17.05L53.4-17.05 53.6-15.25Q53.6-14.25 52.7-14.25L52.7-14.25Q52-14.25 51.15-14.5L51.15-14.5Q49.6-15 49.6-16.2L49.6-16.2Q49.6-18.15 52.22-19.93 54.85-21.7 57.5-21.7 60.15-21.7 61.65-21.2 63.15-20.7 63.87-20.08 64.59-19.45 65-18.4L65-18.4Q65.5-17.15 65.5-14.48 65.5-11.8 65.37-9.73 65.25-7.65 65.25-5.95 65.25-4.25 65.65-3.18 66.05-2.1 66.59-1.8 67.15-1.5 67.7-1.45L67.7-1.45Q69.05-1.35 69.05-0.65L69.05-0.65Q69.05 0.4 65.9 0.4L65.9 0.4Q64.59 0.4 63.67-0.3 62.75-1 62.35-1.68 61.95-2.35 61.9-2.35 61.85-2.35 61.5-2.02 61.15-1.7 60.52-1.25 59.9-0.8 59.1-0.35L59.1-0.35Q57.25 0.75 55.3 0.75ZM61.4-10.4L61.4-10.4 60.9-10.3Q59.75-10.1 59.45-10.05 59.15-10 58.05-9.75 56.95-9.5 56.52-9.3 56.1-9.1 55.32-8.68 54.55-8.25 54.2-7.8L54.2-7.8Q53.3-6.4 53.3-4.85 53.3-3.3 54.3-2.27 55.3-1.25 56.87-1.25 58.45-1.25 59.37-1.65 60.3-2.05 60.75-2.55 61.2-3.05 61.45-3.9L61.45-3.9Q61.75-4.85 61.75-6.35L61.75-6.35 61.75-9.95Q61.75-10.4 61.4-10.4ZM72.64-18.15L72.64-18.15 72.09-18.2Q71.14-18.2 71.14-19L71.14-19Q71.14-19.55 71.82-19.83 72.49-20.1 74.32-20.68 76.14-21.25 77.19-21.73 78.24-22.2 78.44-22.2L78.44-22.2Q79.09-22.2 79.09-21.2L79.09-21.2 79.04-19.85Q79.04-18.05 79.17-17.88 79.29-17.7 79.42-17.7 79.54-17.7 80.19-18.7 80.84-19.7 82.04-20.73 83.24-21.75 84.42-21.75 85.59-21.75 86.84-20.93 88.09-20.1 88.09-19.28 88.09-18.45 87.69-17.75L87.69-17.75Q86.99-16.55 86.39-16.55L86.39-16.55Q85.99-16.55 84.97-17.15 83.94-17.75 82.59-17.75 81.24-17.75 80.07-16.65 78.89-15.55 78.89-14.65L78.89-14.65 78.89-9.45 78.94-5.1 78.99-4.2Q78.99-3.15 79.69-2.4 80.39-1.65 81.02-1.55 81.64-1.45 82.09-1.4 82.54-1.35 82.79-1.33 83.04-1.3 83.34-1.2L83.34-1.2Q83.89-1.1 83.89-0.48 83.89 0.15 83.29 0.15L83.29 0.15 79.04-0.1 73.84 0.15Q72.94 0.15 72.84-0.05 72.74-0.25 72.74-0.45L72.74-0.45Q72.74-1.1 73.39-1.3L73.39-1.3Q74.69-1.6 74.97-2.58 75.24-3.55 75.24-6.75L75.24-6.75 75.19-14.8 75.14-16.3Q75.14-16.85 74.99-17.2L74.99-17.2Q74.59-18.15 72.64-18.15Z" fill="#ff5858" data-fill-palette-color="primary"></path><path d="M107.04 0.75L107.04 0.75Q101.14 0.75 101.14-4.25L101.14-4.25Q101.14-7.85 104.14-9.2L104.14-9.2Q106.64-10.25 111.79-11.1L111.79-11.1Q111.94-11.15 112.19-11.18 112.44-11.2 112.71-11.25 112.99-11.3 113.14-11.35L113.14-11.35Q113.49-11.5 113.49-12.05L113.49-12.05 113.59-14.65Q113.59-17.5 111.94-18.78 110.29-20.05 108.74-20.05L108.74-20.05Q105.14-20.05 105.14-17.05L105.14-17.05 105.34-15.25Q105.34-14.25 104.44-14.25L104.44-14.25Q103.74-14.25 102.89-14.5L102.89-14.5Q101.34-15 101.34-16.2L101.34-16.2Q101.34-18.15 103.96-19.93 106.59-21.7 109.24-21.7 111.89-21.7 113.39-21.2 114.89-20.7 115.61-20.08 116.34-19.45 116.74-18.4L116.74-18.4Q117.24-17.15 117.24-14.48 117.24-11.8 117.11-9.73 116.99-7.65 116.99-5.95 116.99-4.25 117.39-3.18 117.79-2.1 118.34-1.8 118.89-1.5 119.44-1.45L119.44-1.45Q120.79-1.35 120.79-0.65L120.79-0.65Q120.79 0.4 117.64 0.4L117.64 0.4Q116.34 0.4 115.41-0.3 114.49-1 114.09-1.68 113.69-2.35 113.64-2.35 113.59-2.35 113.24-2.02 112.89-1.7 112.26-1.25 111.64-0.8 110.84-0.35L110.84-0.35Q108.99 0.75 107.04 0.75ZM113.14-10.4L113.14-10.4 112.64-10.3Q111.49-10.1 111.19-10.05 110.89-10 109.79-9.75 108.69-9.5 108.26-9.3 107.84-9.1 107.06-8.68 106.29-8.25 105.94-7.8L105.94-7.8Q105.04-6.4 105.04-4.85 105.04-3.3 106.04-2.27 107.04-1.25 108.61-1.25 110.19-1.25 111.11-1.65 112.04-2.05 112.49-2.55 112.94-3.05 113.19-3.9L113.19-3.9Q113.49-4.85 113.49-6.35L113.49-6.35 113.49-9.95Q113.49-10.4 113.14-10.4ZM133.29 0.3L129.74 0.2 126.19 0.3Q124.19 0.3 124.19-0.38 124.19-1.05 124.94-1.3L124.94-1.3Q124.99-1.3 125.14-1.35L125.14-1.35Q126.29-1.75 126.64-2.55 126.99-3.35 126.99-10.3L126.99-10.3 126.99-14.7Q126.99-16.15 126.64-17 126.29-17.85 125.99-18.05 125.69-18.25 124.96-18.38 124.24-18.5 123.91-18.63 123.59-18.75 123.59-19.03 123.59-19.3 123.71-19.45 123.84-19.6 124.21-19.78 124.59-19.95 124.99-20.1L124.99-20.1Q126.39-20.5 127.29-20.9 128.19-21.3 128.66-21.5 129.14-21.7 129.29-21.8L129.29-21.8Q129.64-21.95 130.14-21.95L130.14-21.95Q130.89-21.95 130.89-21L130.89-21 130.59-18.6 130.59-4.9Q130.59-3.4 131.06-2.55 131.54-1.7 132.06-1.5 132.59-1.3 133.29-1.25 133.99-1.2 134.19-1.2L134.19-1.2Q134.89-1.1 134.89-0.5L134.89-0.5Q134.89 0.35 134.04 0.35L134.04 0.35 133.29 0.3ZM128.89-26.65Q127.89-26.65 127.16-27.7 126.44-28.75 126.44-29.43 126.44-30.1 127.31-31.18 128.19-32.25 128.96-32.25 129.74-32.25 130.49-31.23 131.24-30.2 131.24-29.4 131.24-28.6 130.29-27.63 129.34-26.65 128.89-26.65L128.89-26.65ZM138.58-18.15L138.58-18.15 138.03-18.2Q137.08-18.2 137.08-19L137.08-19Q137.08-19.55 137.76-19.83 138.43-20.1 140.26-20.68 142.08-21.25 143.13-21.73 144.18-22.2 144.38-22.2L144.38-22.2Q145.03-22.2 145.03-21.2L145.03-21.2 144.98-19.85Q144.98-18.05 145.11-17.88 145.23-17.7 145.36-17.7 145.48-17.7 146.13-18.7 146.78-19.7 147.98-20.73 149.18-21.75 150.36-21.75 151.53-21.75 152.78-20.93 154.03-20.1 154.03-19.28 154.03-18.45 153.63-17.75L153.63-17.75Q152.93-16.55 152.33-16.55L152.33-16.55Q151.93-16.55 150.91-17.15 149.88-17.75 148.53-17.75 147.18-17.75 146.01-16.65 144.83-15.55 144.83-14.65L144.83-14.65 144.83-9.45 144.88-5.1 144.93-4.2Q144.93-3.15 145.63-2.4 146.33-1.65 146.96-1.55 147.58-1.45 148.03-1.4 148.48-1.35 148.73-1.33 148.98-1.3 149.28-1.2L149.28-1.2Q149.83-1.1 149.83-0.48 149.83 0.15 149.23 0.15L149.23 0.15 144.98-0.1 139.78 0.15Q138.88 0.15 138.78-0.05 138.68-0.25 138.68-0.45L138.68-0.45Q138.68-1.1 139.33-1.3L139.33-1.3Q140.63-1.6 140.91-2.58 141.18-3.55 141.18-6.75L141.18-6.75 141.13-14.8 141.08-16.3Q141.08-16.85 140.93-17.2L140.93-17.2Q140.53-18.15 138.58-18.15ZM159.28-5.9L159.28-9.6 159.48-30.85Q159.48-32 159.11-32.93 158.73-33.85 158.28-34.05 157.83-34.25 156.28-34.25L156.28-34.25Q155.73-34.25 155.73-34.6 155.73-34.95 155.81-35.1 155.88-35.25 156.13-35.38 156.38-35.5 156.73-35.6L156.73-35.6Q158.18-35.9 159.73-36.65L159.73-36.65Q162.18-37.8 162.93-37.8L162.93-37.8Q163.53-37.8 163.53-36.85L163.53-36.85Q163.53-36.65 163.43-35.7L163.43-35.7Q163.13-32.75 163.13-29.25L163.13-29.25 163.13-26.45 163.03-19.8 163.03-4.9Q163.03-3.85 163.21-3.18 163.38-2.5 164.36-1.88 165.33-1.25 167.08-1.25L167.08-1.25Q167.33-1.25 167.53-1 167.73-0.75 167.73-0.5L167.73-0.5Q167.73 0.2 166.18 0.2L166.18 0.2 161.13-0.15Q159.83-0.15 158.66 0.05 157.48 0.25 157.11 0.25 156.73 0.25 156.51 0.08 156.28-0.1 156.28-0.38 156.28-0.65 156.51-0.83 156.73-1 157.23-1.1L157.23-1.1Q158.73-1.5 159.03-2.33 159.33-3.15 159.33-4.6L159.33-4.6 159.28-5.9ZM180.18 0.3L176.63 0.2 173.08 0.3Q171.08 0.3 171.08-0.38 171.08-1.05 171.83-1.3L171.83-1.3Q171.88-1.3 172.03-1.35L172.03-1.35Q173.18-1.75 173.53-2.55 173.88-3.35 173.88-10.3L173.88-10.3 173.88-14.7Q173.88-16.15 173.53-17 173.18-17.85 172.88-18.05 172.58-18.25 171.85-18.38 171.13-18.5 170.8-18.63 170.48-18.75 170.48-19.03 170.48-19.3 170.6-19.45 170.73-19.6 171.1-19.78 171.48-19.95 171.88-20.1L171.88-20.1Q173.28-20.5 174.18-20.9 175.08-21.3 175.55-21.5 176.03-21.7 176.18-21.8L176.18-21.8Q176.53-21.95 177.03-21.95L177.03-21.95Q177.78-21.95 177.78-21L177.78-21 177.48-18.6 177.48-4.9Q177.48-3.4 177.95-2.55 178.43-1.7 178.95-1.5 179.48-1.3 180.18-1.25 180.88-1.2 181.08-1.2L181.08-1.2Q181.78-1.1 181.78-0.5L181.78-0.5Q181.78 0.35 180.93 0.35L180.93 0.35 180.18 0.3ZM175.78-26.65Q174.78-26.65 174.05-27.7 173.33-28.75 173.33-29.43 173.33-30.1 174.2-31.18 175.08-32.25 175.85-32.25 176.63-32.25 177.38-31.23 178.13-30.2 178.13-29.4 178.13-28.6 177.18-27.63 176.23-26.65 175.78-26.65L175.78-26.65ZM195.28 0L195.28 0 191.63-0.2Q190.33-0.2 188.18-0.1L188.18-0.1 186.03 0Q185.28 0 185.28-0.45 185.28-0.9 185.53-1 185.78-1.1 186.15-1.15 186.53-1.2 186.88-1.45L186.88-1.45Q187.83-2.05 187.93-5.08 188.03-8.1 188.03-9.05L188.03-9.05 188.03-16.25Q188.03-17.85 187.45-18.4 186.88-18.95 185.88-18.95L185.88-18.95 185.38-18.95Q184.43-18.95 184.43-19.5L184.43-19.5Q184.43-20 185.5-20.15 186.58-20.3 187.2-20.48 187.83-20.65 188.85-21.08 189.88-21.5 190.5-21.8 191.13-22.1 191.33-22.1L191.33-22.1 191.43-22.1Q191.88-22.1 191.88-21.5L191.88-21.5 191.78-19.35Q191.78-18.05 191.98-18.05 192.18-18.05 192.38-18.3L192.38-18.3Q193.13-19.35 194.38-20.1L194.38-20.1Q196.63-21.5 198.68-21.5 200.73-21.5 202.33-20.88 203.93-20.25 204.83-19.33 205.73-18.4 206.33-17.2L206.33-17.2Q207.33-15.2 207.33-13.1L207.33-13.1 207.33-12.6 207.38-9.95 207.38-4.85Q207.38-2.95 207.9-2.23 208.43-1.5 210.43-1.2L210.43-1.2Q211.43-1.05 211.43-0.45L211.43-0.45Q211.43 0.05 210.43 0.05L210.43 0.05 206.33-0.2 202.48 0Q201.48 0 201.48-0.65L201.48-0.65Q201.48-1.1 202.08-1.25L202.08-1.25 202.73-1.4Q203.83-1.75 203.83-4.75L203.83-4.75 203.83-11.5Q203.83-15.35 201.93-17.32 200.03-19.3 197.63-19.3 195.23-19.3 193.63-18.15 192.03-17 191.68-16 191.33-15 191.33-8.35L191.33-8.35 191.33-6.45Q191.33-3.95 191.85-2.75 192.38-1.55 194.18-1.4L194.18-1.4Q194.68-1.4 195.45-1.23 196.23-1.05 196.23-0.65L196.23-0.65Q196.23 0 195.28 0ZM224.92 0.95Q220.52 0.95 217.45-1.75 214.37-4.45 214.37-9.58 214.37-14.7 217.2-18.15 220.02-21.6 224.52-21.6L224.52-21.6Q226.62-21.6 228.35-20.85 230.07-20.1 231.02-19.03 231.97-17.95 232.62-16.75L232.62-16.75Q233.72-14.7 233.72-13.65L233.72-13.65Q233.72-12.75 231.67-12.75L231.67-12.75 218.82-12.75Q218.42-12.75 218.35-12.68 218.27-12.6 218.27-12.2L218.27-12.2Q218.27-7.5 220.8-4.8 223.32-2.1 226.72-2.1L226.72-2.1Q228.82-2.1 231-3.23 233.17-4.35 233.27-4.35L233.27-4.35Q233.77-4.35 233.77-3.9L233.77-3.9Q233.77-3.3 232.67-2.27 231.57-1.25 230.57-0.6L230.57-0.6Q228.17 0.95 224.92 0.95L224.92 0.95ZM219.22-13.95L219.22-13.95 228.02-14.25Q228.72-14.25 228.9-14.38 229.07-14.5 229.07-14.85L229.07-14.85Q229.07-16.35 227.67-18.35 226.27-20.35 223.77-20.35 221.27-20.35 219.92-18.38 218.57-16.4 218.57-14.65L218.57-14.65Q218.57-13.95 219.22-13.95ZM252.12-20.05L252.12-20.05 252.32-17.05Q252.32-16.2 252.12-15.9 251.92-15.6 251.55-15.6 251.17-15.6 250.75-16.32 250.32-17.05 249.8-17.9 249.27-18.75 248.1-19.48 246.92-20.2 245.42-20.2 243.92-20.2 242.97-19.48 242.02-18.75 242.02-17.9 242.02-17.05 242.17-16.53 242.32-16 242.7-15.6 243.07-15.2 243.35-14.93 243.62-14.65 244.27-14.35 244.92-14.05 245.25-13.93 245.57-13.8 246.32-13.5L246.32-13.5Q250.87-11.9 252.17-10.38 253.47-8.85 253.47-6 253.47-3.15 250.82-0.75L250.82-0.75Q249.02 0.8 245.87 0.8L245.87 0.8Q243.72 0.8 241.07-0.25L241.07-0.25Q240.32-0.55 240.2-0.58 240.07-0.6 239.8-0.7 239.52-0.8 239.4-0.83 239.27-0.85 239.07-0.95 238.87-1.05 238.8-1.13 238.72-1.2 238.62-1.35L238.62-1.35Q238.47-1.6 238.47-2.15L238.47-2.15 238.47-6.5Q238.47-7.05 238.7-7.43 238.92-7.8 239.32-7.8 239.72-7.8 239.9-7.58 240.07-7.35 240.22-6.65 240.37-5.95 240.52-5.65L240.52-5.65Q242.37-1.05 245.72-1.05L245.72-1.05Q247.27-1.05 248.67-1.88 250.07-2.7 250.07-4.48 250.07-6.25 248.92-7.35 247.77-8.45 246.12-9.08 244.47-9.7 242.82-10.38 241.17-11.05 240.02-12.38 238.87-13.7 238.87-15.7L238.87-15.7Q238.87-18.5 241.12-20.2 243.37-21.9 246.07-21.9 248.77-21.9 250.17-21.48 251.57-21.05 251.85-20.7 252.12-20.35 252.12-20.05Z" fill="#ed2647" data-fill-palette-color="secondary"></path></g></svg></g></svg></g></svg></g></svg></g><g transform="matrix(1,0,0,1,124.78529381709184,0)"><svg viewBox="0 0 145.9494123658163 145.9494123658163" height="145.9494123658163" width="145.9494123658163"><g><svg></svg></g><g id="icon-0"><svg viewBox="0 0 145.9494123658163 145.9494123658163" height="145.9494123658163" width="145.9494123658163"><g><path d="M0 72.975c0-40.303 32.672-72.975 72.975-72.975 40.303 0 72.975 32.672 72.974 72.975 0 40.303-32.672 72.975-72.974 72.974-40.303 0-72.975-32.672-72.975-72.974zM72.975 140.415c37.246 0 67.441-30.194 67.44-67.44 0-37.246-30.194-67.441-67.44-67.441-37.246 0-67.441 30.194-67.441 67.441 0 37.246 30.194 67.441 67.441 67.44z" data-fill-palette-color="tertiary" fill="#ff5858" stroke="transparent"></path></g><g transform="matrix(1,0,0,1,34.002020314059926,33.928975580199236)"><svg viewBox="0 0 77.94537173769645 78.09146120541783" height="78.09146120541783" width="77.94537173769645"><g><svg xmlns="http://www.w3.org/2000/svg" xmlns:xlink="http://www.w3.org/1999/xlink" version="1.1" x="0" y="0" viewBox="-249.7 353.09625149148616 90.035 90.20374850851385" enable-background="new -255 347 100 100" xml:space="preserve" height="78.09146120541783" width="77.94537173769645" class="icon-z$-0" data-fill-palette-color="accent" id="z$-0"><g fill="#ed2647" data-fill-palette-color="accent"><path d="M-175.5 443l1.1-1.1c2.3-2.3 3.7-5 4.2-8.1 0.4-2.9 0-6.8-1.2-11.5l5.4-5.4c1.3-1.3 1.3-3.3 0-4.5-1.3-1.3-3.3-1.3-4.5 0l-2.1 2.1-1.6-10.8 5.3-5.3c1.3-1.3 1.3-3.3 0-4.5-1.3-1.3-3.3-1.3-4.5 0l-1.9 1.9-2.4-16.7c7.7-7.7 12.9-13.5 15.5-17.4 2.6-3.9 3.2-6.5 1.8-7.9-1.4-1.4-4.1-0.7-8 2-4 2.7-9.7 7.8-17.2 15.4l-16.7-2.4 1.9-1.9c1.3-1.3 1.3-3.3 0-4.5-1.3-1.3-3.3-1.3-4.5 0l-5.3 5.3-10.8-1.6 2.1-2.2c1.3-1.3 1.3-3.3 0-4.5-1.3-1.3-3.3-1.3-4.5 0l-5.4 5.4c-4.8-1.2-8.6-1.6-11.5-1.2-3.1 0.4-5.8 1.8-8.1 4.2l-1.1 1c11.2 4 20.6 7.7 28.2 11.1 7.6 3.4 12.3 6 14 7.7 1.9 1.9-0.3 6.3-6.5 13.2-4.5 5-8.2 9.4-11.2 13.1-1.1 0.2-3.1 0.1-6-0.3-2.9-0.4-6.9-1.1-11.9-2.1-0.1 0-0.2 0.1-0.4 0.2-2.5 1.6-4.6 3.1-6.4 4.5 3.2 1.3 6.1 2.7 8.9 4.1 2.5 1.3 4.7 2.6 6.9 4l-1.9 1.9c-0.9 0.9-0.9 2.3 0 3.2 0.9 0.9 2.3 0.9 3.2 0l1.9-1.9c1.3 2 2.6 4.3 3.9 6.7 1.4 2.7 2.8 5.7 4.2 9.1 0.9-1.1 1.7-2.3 2.5-3.4 0.8-1.1 1.5-2.2 2.2-3.4-1-5-1.6-8.9-2-11.8-0.4-2.9-0.5-5-0.3-6.1 4-3 8.6-6.9 13.8-11.6 6.5-5.8 10.7-7.8 12.5-6 1.7 1.7 4.3 6.5 7.8 14.2C-183 422.6-179.4 432-175.5 443" fill="#ed2647" data-fill-palette-color="accent"></path></g></svg></g></svg></g></svg></g></svg></g><g></g></svg></g><defs></defs></svg><rect width="395.52" height="236.29091552017067" fill="none" stroke="none" visibility="hidden"></rect></g></svg></g></svg>