<?xml version="1.0" encoding="UTF-8"?> <svg xmlns="http://www.w3.org/2000/svg" width="56" height="45" viewBox="0 0 56 45" fill="none"><path d="M42.1816 27.0724C41.3401 27.3709 40.4987 27.8398 39.8082 28.4153L37.9743 27.3709L35.4714 31.6552L37.2838 32.6996C37.1975 33.1472 37.1544 33.5948 37.1544 34.0425C37.1544 34.4901 37.1975 34.959 37.2838 35.3853L35.4714 36.4297L37.9743 40.7141L39.8082 39.6696C40.4987 40.2451 41.3617 40.7141 42.1816 41.0125V43.08H47.1873V41.0125C48.0287 40.7141 48.8486 40.2451 49.5391 39.6696L51.3515 40.7141L53.8543 36.4297L52.0419 35.3853C52.1282 34.9377 52.1713 34.4901 52.1713 34.0425C52.1713 33.5948 52.1282 33.1259 52.0419 32.6996L53.8543 31.6552L51.3515 27.3709L49.5391 28.4153C48.8486 27.8398 48.0072 27.3709 47.1873 27.0724V25.0049H42.1816V27.0724V27.0724Z" stroke="#2E56FF" stroke-width="3" stroke-linejoin="round"></path><path d="M44.6628 37.3464C46.5098 37.3464 48.0071 35.8673 48.0071 34.0426C48.0071 32.2179 46.5098 30.7388 44.6628 30.7388C42.8158 30.7388 41.3185 32.2179 41.3185 34.0426C41.3185 35.8673 42.8158 37.3464 44.6628 37.3464Z" stroke="#2E56FF" stroke-width="3" stroke-linejoin="round"></path><path d="M30.962 33.1051H7.35774C4.46654 33.1051 2.11475 30.7818 2.11475 27.9256V7.14342C2.11475 4.28721 4.46654 1.96387 7.35774 1.96387H41.448C44.3392 1.96387 46.691 4.28721 46.691 7.14342V17.5238" stroke="#2E56FF" stroke-width="3" stroke-linecap="round" stroke-linejoin="round"></path><path d="M2.11475 9.74316H46.7126" stroke="#2E56FF" stroke-width="3" stroke-linecap="round" stroke-linejoin="round"></path><path d="M2.11475 13.2607H46.7126" stroke="#2E56FF" stroke-width="3" stroke-linecap="round" stroke-linejoin="round"></path><path d="M23.0652 19.8047H9.9469" stroke="#2E56FF" stroke-width="3" stroke-linecap="round" stroke-linejoin="round"></path><path d="M41.4697 19.8047H36.2051" stroke="#2E56FF" stroke-width="3" stroke-linecap="round" stroke-linejoin="round"></path><path d="M17.8222 24.9844H9.9469" stroke="#2E56FF" stroke-width="3" stroke-linecap="round" stroke-linejoin="round"></path></svg> 