<?xml version="1.0" encoding="UTF-8"?> <svg xmlns="http://www.w3.org/2000/svg" width="55" height="55" viewBox="0 0 55 55" fill="none"><path d="M53.653 36.167V35.5425C53.5046 35.7527 53.4861 35.9568 53.653 36.167Z" fill="#0A3AF3"></path><path d="M53.5664 34.182C53.5664 34.182 53.6221 34.1882 53.653 34.1944V33.8853C53.4798 33.9409 53.5726 34.0769 53.5664 34.182Z" fill="#0A3AF3"></path><path d="M53.5664 34.1821C53.5479 34.2996 53.5231 34.4233 53.653 34.5037V34.1945C53.653 34.1945 53.5973 34.1883 53.5664 34.1821Z" fill="#0A3AF3"></path><path d="M22.6554 49.9065C22.4081 49.8694 22.1607 49.8694 21.9629 49.8694H17.6035C13.1391 49.8632 8.52624 49.8571 3.98141 49.888C3.50529 49.888 3.10955 49.7643 2.86221 49.517C2.61487 49.2696 2.48503 48.8924 2.48503 48.4039C2.50358 36.742 2.50358 25.08 2.50358 13.418V3.87699C2.50358 2.73924 2.84366 2.3868 3.96905 2.3868H34.7873C35.6344 2.3868 36.4754 2.3868 37.3225 2.3868C37.8729 2.3868 38.281 2.66503 38.4479 3.13497C38.5036 3.28956 38.4974 3.47507 38.4974 3.68531V7.99518C38.4974 10.2831 38.4974 12.5709 38.4974 14.8588C38.4974 15.3164 38.6334 15.6936 38.8869 15.9471C39.0972 16.1573 39.3692 16.2563 39.697 16.2624C40.3895 16.2501 40.8533 15.6997 40.8533 14.8959V13.0718C40.8533 9.89347 40.8533 6.70901 40.8533 3.53072C40.8533 1.95394 39.8825 0.636875 38.3923 0.173117C38.3737 0.173117 38.3551 0.166921 38.3366 0.160738L38.4417 0H2.47884L2.60252 0.216405C0.920619 0.779098 0.11676 1.92922 0.11676 3.80898C0.11676 18.7049 0.11676 33.5946 0.11676 48.5523C0.11676 48.812 0.116771 49.078 0.166238 49.35C0.487777 51.1309 1.8605 52.2315 3.75882 52.2377C6.47335 52.2377 9.18787 52.2377 11.9086 52.2377C14.011 52.2377 16.1071 52.2377 18.2095 52.2377H22.1916C22.3215 52.2377 22.4452 52.2377 22.5688 52.2191C23.1934 52.1449 23.5953 51.6935 23.6015 51.0628C23.6077 50.463 23.2305 50.0055 22.6307 49.9127L22.6554 49.9065Z" fill="#0A3AF3"></path><path d="M54.1168 33.3719L54.0797 33.2853C53.9498 32.9823 53.9065 32.6361 53.8633 32.2651C53.8385 32.0548 53.8138 31.8508 53.7767 31.6406C52.8121 26.5949 49.7204 22.1119 45.3116 19.3417C40.909 16.5777 35.5541 15.7491 30.6135 17.0662C21.1219 19.5952 15.2353 28.8395 16.9172 38.5598C18.2528 46.2644 24.5352 52.5158 32.2027 53.7649C32.3944 53.7958 32.586 53.8144 32.7777 53.8329C33.0127 53.8515 33.2415 53.8762 33.4517 53.9257L33.2106 54.0679H37.5142L37.236 53.9133C37.3967 53.8886 37.5637 53.8762 37.7369 53.8576C37.9718 53.8391 38.2006 53.8144 38.4294 53.7773C46.3504 52.3798 52.3978 46.3819 53.8262 38.5103C53.8509 38.3619 53.8694 38.2074 53.8756 38.0466C53.9003 37.7683 53.9127 37.5334 54.0364 37.354L54.1106 37.2366V36.1606L54.0982 35.9937L53.9931 35.8639C53.9931 35.8639 53.9931 35.8453 54.0302 35.802L54.1168 35.6845V34.2376L54.0859 34.219L54.1168 34.2067V33.3657V33.3719ZM51.7485 35.2455C51.7485 44.3042 44.4026 51.6749 35.3686 51.6749C31.0031 51.6749 26.8973 49.9621 23.7994 46.858C20.7015 43.7477 18.9948 39.6296 18.9887 35.2455C18.9887 26.193 26.3346 18.8223 35.3686 18.8161H35.3809C39.7403 18.8161 43.8523 20.5227 46.9502 23.6268C50.0481 26.7309 51.7547 30.8553 51.7547 35.2393L51.7485 35.2455Z" fill="#0A3AF3"></path><path d="M34.4102 10.4126C29.315 10.4126 24.226 10.4126 19.1309 10.4126C19.0072 10.4126 18.7846 10.4126 18.562 10.5363C18.2095 10.728 18.0302 11.1484 18.0611 11.6926C18.1106 12.4841 18.5496 12.6881 18.7351 12.7438C18.8773 12.7809 19.001 12.7809 19.1494 12.7747H34.4287C34.4287 12.7747 34.4843 12.7747 34.5214 12.7747C34.5956 12.7747 34.676 12.7747 34.7688 12.75C34.9605 12.7067 35.4119 12.515 35.4675 11.7173C35.5046 11.1484 35.3129 10.7156 34.9419 10.5177C34.7502 10.4188 34.5647 10.4126 34.4102 10.4126V10.4126Z" fill="#0A3AF3"></path><path d="M15.495 26.3291C15.5073 25.9025 15.3342 25.6428 15.192 25.4944C14.9508 25.247 14.5922 25.1234 14.1223 25.1172C11.7231 25.1172 9.33009 25.1172 6.93091 25.1172C6.47334 25.1172 6.09615 25.2532 5.84881 25.5006C5.63857 25.7108 5.53345 25.989 5.53345 26.3044C5.53963 27.0155 6.08996 27.4793 6.94327 27.4793C7.77804 27.4793 8.60662 27.4793 9.44139 27.4793H11.5747C11.9271 27.4793 12.2858 27.4793 12.6382 27.4793C13.1329 27.4793 13.6337 27.4793 14.1284 27.4793C15.1054 27.4793 15.4702 26.8794 15.4888 26.3229L15.495 26.3291Z" fill="#0A3AF3"></path><path d="M6.95561 42.1772C7.65434 42.1772 8.34689 42.1772 9.04562 42.1772H10.8883C11.1975 42.1772 11.5066 42.1772 11.8158 42.1772C12.2115 42.1772 12.6135 42.1772 13.0092 42.1772C14.0357 42.1772 14.4129 41.5712 14.4252 41.0147C14.4252 40.6993 14.3263 40.4149 14.116 40.2047C13.9429 40.0253 13.6152 39.8213 13.0278 39.8213C10.9934 39.8213 8.95906 39.8213 6.9247 39.8213C6.33728 39.8213 6.00955 40.0315 5.83641 40.2047C5.63236 40.4149 5.52725 40.6993 5.53343 41.0147C5.53343 41.2868 5.6571 42.1648 6.94944 42.171L6.95561 42.1772Z" fill="#0A3AF3"></path><path d="M6.832 34.8373C7.20919 34.8435 7.58638 34.8497 7.95739 34.8497C8.23565 34.8497 8.51389 34.8497 8.79833 34.8497H10.4802C11.1666 34.8497 11.8529 34.8497 12.5455 34.8373C12.9165 34.8312 13.238 34.6889 13.4545 34.4478C13.6585 34.219 13.7636 33.916 13.7389 33.5883C13.6894 32.9019 13.2257 32.4814 12.5269 32.4814H6.78252C6.16418 32.4814 5.84884 32.8092 5.69425 33.0874C5.48401 33.4584 5.47782 33.8665 5.68187 34.219C5.89829 34.6024 6.33115 34.8373 6.83819 34.8435L6.832 34.8373Z" fill="#0A3AF3"></path><path d="M46.2452 36.5379H44.1243C41.6324 36.5379 39.1343 36.5318 36.6423 36.5503C36.599 36.5503 36.562 36.5503 36.5372 36.5503C36.5372 36.5194 36.5372 36.4761 36.5372 36.4143C36.5496 32.9886 36.5496 29.5568 36.5496 26.1312V23.664C36.5496 23.4909 36.5496 23.2992 36.5125 23.0952C36.4012 22.5325 35.9931 22.1924 35.418 22.1738C34.812 22.1738 34.3668 22.4954 34.2432 23.089C34.1999 23.293 34.2061 23.4909 34.2061 23.664V37.3975C34.2061 38.5105 34.5956 38.9062 35.6901 38.9062H46.3009C46.338 38.9062 46.3751 38.9062 46.4183 38.9062C46.5111 38.9062 46.6039 38.9062 46.6966 38.8876C47.284 38.7887 47.655 38.3806 47.6983 37.7994C47.7416 37.2181 47.4077 36.7544 46.8326 36.5936C46.6286 36.538 46.4369 36.5379 46.2638 36.5379H46.2452Z" fill="#0A3AF3"></path><path d="M9.80621 18.1177H9.16312V16.7945C8.29126 16.6955 7.64199 16.5039 7.20915 16.2256C6.45477 15.7186 6.07759 14.8467 6.09614 13.6224H7.88934C7.95117 14.1789 8.03775 14.5561 8.14905 14.7478C8.32218 15.0446 8.66226 15.2363 9.16312 15.3228V12.4846L8.62517 12.3239C7.77804 12.0765 7.18443 11.7303 6.83816 11.2851C6.49189 10.8398 6.31874 10.3081 6.31874 9.68352C6.31874 9.26923 6.38677 8.89822 6.5228 8.55813C6.65884 8.22423 6.84433 7.93362 7.09167 7.68629C7.40702 7.37093 7.7533 7.15448 8.14286 7.03699C8.37783 6.96279 8.71793 6.90717 9.1755 6.87007V5.98584H9.81857V6.88241C10.5358 6.93806 11.0986 7.11741 11.5128 7.41421C12.2549 7.89034 12.6444 8.65707 12.6691 9.72062H10.9192C10.8821 9.32488 10.8203 9.04043 10.7214 8.85493C10.5544 8.53957 10.2514 8.36646 9.81857 8.33554V10.8645C10.8698 11.2294 11.5747 11.5509 11.9333 11.8292C12.5269 12.2929 12.8237 12.9484 12.8237 13.7955C12.8237 14.9085 12.4156 15.7248 11.5932 16.2256C11.0924 16.5348 10.4988 16.7141 9.8124 16.7698V18.1054L9.80621 18.1177ZM9.16312 8.36026C8.77975 8.36644 8.49532 8.47156 8.30363 8.66943C8.11813 8.8673 8.02537 9.13319 8.02537 9.47946C8.02537 9.85047 8.16759 10.1473 8.44584 10.3637C8.60043 10.4812 8.84158 10.5925 9.16312 10.6976V8.36645V8.36026ZM9.80621 15.3043C10.1525 15.261 10.406 15.1806 10.5606 15.0631C10.8388 14.8591 10.9749 14.5066 10.9749 14.0057C10.9749 13.6224 10.845 13.3256 10.5853 13.103C10.4307 12.9731 10.171 12.8433 9.80621 12.7072V15.3043V15.3043Z" fill="#0A3AF3"></path></svg> 