<?xml version="1.0" encoding="UTF-8"?> <svg xmlns="http://www.w3.org/2000/svg" width="54" height="49" viewBox="0 0 54 49" fill="none"><path d="M40.8584 36.5195C44.4709 36.5195 47.3994 33.591 47.3994 29.9785C47.3994 26.366 44.4709 23.4375 40.8584 23.4375C37.2459 23.4375 34.3174 26.366 34.3174 29.9785C34.3174 33.591 37.2459 36.5195 40.8584 36.5195Z" stroke="#2E56FF" stroke-width="3" stroke-linecap="square" stroke-linejoin="round"></path><path d="M51.7502 46.8602C50.635 44.9604 49.0423 43.3853 47.1302 42.2913C45.2181 41.1973 43.0531 40.6226 40.8501 40.624C38.6472 40.6255 36.483 41.2032 34.5723 42.2997C32.6617 43.3962 31.0711 44.9735 29.9585 46.8748" stroke="#2E56FF" stroke-width="3" stroke-linecap="square" stroke-linejoin="round"></path><path d="M22.9505 42.7158C20.3696 42.7158 17.7874 42.7104 15.2065 42.7227C14.8943 42.7241 14.7451 42.6761 14.7752 42.3159C14.8108 41.8913 14.7724 41.4613 14.7875 41.034C14.819 40.141 15.5036 39.4384 16.3976 39.4356C19.7371 39.4274 23.0778 39.4274 26.4173 39.4315V36.1417C25.9641 36.1431 25.5109 36.1458 25.0577 36.15C24.7414 36.1541 24.6154 36.0965 24.6277 35.7418C24.6565 34.8872 24.6524 34.0298 24.6291 33.1752C24.6195 32.8492 24.7195 32.7629 25.0412 32.7205C25.5095 32.6588 25.9668 32.578 26.4173 32.4822V29.1033C25.9202 29.2403 25.4123 29.354 24.8893 29.4389C17.9996 30.5455 11.1633 25.5807 10.0515 18.6697C9.92968 17.9082 9.85437 17.1453 9.85437 16.3729C9.85574 12.1641 9.86122 7.95664 9.84479 3.74785C9.84342 3.36436 9.93378 3.27396 10.3172 3.27533C14.541 3.2904 18.7649 3.28492 22.9902 3.28492C27.2155 3.28492 31.4038 3.29177 35.6112 3.27533C36.0247 3.27396 36.1466 3.35203 36.1439 3.79167C36.1247 7.94842 36.137 12.1052 36.1315 16.2633C36.1288 17.6082 35.9385 18.9012 35.5852 20.1187C36.7312 19.5599 37.9525 19.1326 39.23 18.8546C39.2409 18.7834 39.2532 18.7121 39.2628 18.6396C39.3669 17.8424 39.423 17.0426 39.4217 16.2373C39.4162 14.2541 39.4312 12.2709 39.4107 10.2877C39.4066 9.91929 39.5107 9.83574 39.8625 9.84807C40.6991 9.87546 41.537 9.86861 42.375 9.85081C42.6515 9.84533 42.7118 9.93298 42.7104 10.1946C42.6995 12.879 42.7323 15.5634 42.6912 18.2465C42.6912 18.3245 42.6871 18.4026 42.6817 18.4807C42.6926 18.4807 42.7022 18.4807 42.7131 18.4807C43.8222 18.4807 44.9066 18.5916 45.954 18.8039C45.9704 18.6067 45.9827 18.4081 45.9841 18.2068C46.0101 15.4347 45.9992 12.6626 45.9868 9.89052C45.9786 8.00595 44.5519 6.59252 42.6693 6.57334C41.7629 6.56375 40.8538 6.53773 39.9502 6.58567C39.4696 6.61169 39.3956 6.44323 39.4121 6.02002C39.4449 5.19963 39.423 4.37786 39.4217 3.5561C39.4162 1.36473 38.058 0.00197832 35.8728 0.000608713C31.579 -0.000760891 27.2853 0.000608713 22.9916 0.000608713C18.6979 0.000608713 14.4384 0.000608713 10.1611 0.000608713C7.92932 0.000608713 6.5752 1.34693 6.57247 3.56432C6.57247 4.45456 6.56288 5.34481 6.57794 6.23368C6.58205 6.49801 6.51496 6.58293 6.24113 6.57745C5.26628 6.56101 4.29142 6.56238 3.31657 6.57334C1.4367 6.59389 0.0141299 8.01417 0.00591482 9.90011C-0.00503855 12.6722 0.00180731 15.4443 0.00591482 18.2163C0.00591482 18.9915 0.138725 19.7476 0.368746 20.4858C1.46545 24.0125 4.62003 26.3107 8.42496 26.2669C9.38475 26.2559 10.0461 26.4532 10.7211 27.242C13.417 30.3935 16.8947 32.1849 21.0063 32.73C21.2924 32.7684 21.3664 32.8547 21.3595 33.1313C21.3417 33.9695 21.3349 34.8091 21.3623 35.6459C21.3746 36.0267 21.2979 36.1637 20.8748 36.1554C19.3523 36.1267 17.8298 36.1253 16.3073 36.1513C13.9646 36.191 11.9602 37.9181 11.5905 40.2245C11.3755 41.5654 11.5234 42.9226 11.5042 44.2717C11.4892 45.3126 12.1957 45.9974 13.2472 45.9988C17.6367 46.0015 22.0277 45.9988 26.4173 45.9988V42.7158C25.2617 42.7158 24.1061 42.7145 22.9491 42.7145L22.9505 42.7158ZM3.30288 18.2903C3.2577 15.5894 3.2933 12.8886 3.28098 10.1864C3.28098 9.90833 3.36723 9.8467 3.62601 9.85218C4.48037 9.86724 5.3361 9.87409 6.1891 9.84944C6.51359 9.83985 6.58205 9.93572 6.57931 10.2466C6.56425 12.1613 6.5889 14.076 6.56699 15.9907C6.54234 18.3081 6.93667 20.5419 7.81704 22.6881C7.84717 22.7621 7.87044 22.8388 7.90056 22.9251C5.4963 22.9045 3.34396 20.7638 3.30151 18.2917L3.30288 18.2903Z" fill="#2E56FF"></path></svg> 