<?xml version="1.0" encoding="UTF-8"?> <svg xmlns="http://www.w3.org/2000/svg" width="55" height="54" viewBox="0 0 55 54" fill="none"><path d="M48.2661 20.7531V8.25311C48.2661 7.42431 47.9369 6.62946 47.3508 6.0434C46.7648 5.45735 45.9699 5.12811 45.1411 5.12811H7.64111C6.81231 5.12811 6.01746 5.45735 5.4314 6.0434C4.84535 6.62946 4.51611 7.42431 4.51611 8.25311V42.6281C4.51611 43.4569 4.84535 44.2518 5.4314 44.8378C6.01746 45.4239 6.81231 45.7531 7.64111 45.7531H23.2661" stroke="#2E56FF" stroke-width="3" stroke-linecap="square" stroke-linejoin="round"></path><path d="M4.51611 14.5031H48.2661" stroke="#2E56FF" stroke-width="3" stroke-linecap="round" stroke-linejoin="round"></path><path d="M40.4536 36.3781C43.4739 36.3781 45.9224 33.9297 45.9224 30.9094C45.9224 27.8891 43.4739 25.4406 40.4536 25.4406C37.4333 25.4406 34.9849 27.8891 34.9849 30.9094C34.9849 33.9297 37.4333 36.3781 40.4536 36.3781Z" stroke="#2E56FF" stroke-width="3" stroke-linecap="round" stroke-linejoin="round"></path><path d="M29.5161 48.8719C29.5167 45.9713 30.6692 43.1896 32.7202 41.1385C34.7713 39.0875 37.553 37.9349 40.4536 37.9344C41.8899 37.9344 43.3122 38.2173 44.6392 38.767C45.9662 39.3166 47.172 40.1223 48.1876 41.1379C49.2032 42.1535 50.0089 43.3593 50.5585 44.6863C51.1082 46.0133 51.3911 47.4356 51.3911 48.8719" stroke="#2E56FF" stroke-width="3" stroke-linecap="square" stroke-linejoin="round"></path><path d="M10.7661 23.8781H10.8642" stroke="#2E56FF" stroke-width="3" stroke-linecap="round" stroke-linejoin="round"></path><path d="M10.7661 30.1281H10.8642" stroke="#2E56FF" stroke-width="3" stroke-linecap="round" stroke-linejoin="round"></path><path d="M10.7661 36.3781H10.8642" stroke="#2E56FF" stroke-width="3" stroke-linecap="round" stroke-linejoin="round"></path><path d="M17.1411 23.8781H28.0786" stroke="#2E56FF" stroke-width="3" stroke-linecap="square" stroke-linejoin="round"></path><path d="M17.1411 30.1281H26.5161" stroke="#2E56FF" stroke-width="3" stroke-linecap="square" stroke-linejoin="round"></path><path d="M17.1411 36.3781H24.9536" stroke="#2E56FF" stroke-width="3" stroke-linecap="square" stroke-linejoin="round"></path></svg> 