<?xml version="1.0" encoding="UTF-8"?> <svg xmlns="http://www.w3.org/2000/svg" width="54" height="55" viewBox="0 0 54 55" fill="none"><path d="M1.48447 15.2448H1.49756C2.35493 15.2382 2.96359 14.5641 2.97014 13.6086C2.97014 13.0915 2.97014 12.581 2.97014 12.064V11.0495C2.97014 10.539 2.98323 10.5194 3.5199 10.4932C5.39172 10.3885 7.28971 10.1071 9.15498 9.66204C13.6185 8.60178 17.7876 6.68415 21.8977 3.79789C22.2708 3.5361 22.4802 3.5361 22.8271 3.7848C24.1164 4.70762 25.5563 5.58462 27.2186 6.45508C31.7018 8.80467 36.3748 10.1594 41.1002 10.4801C41.5321 10.5107 41.7503 10.7419 41.7546 11.1739V14.8913C41.7546 19.0538 41.7612 23.2163 41.7546 27.3788C41.7546 28.0268 41.7154 28.7205 41.6303 29.6302C41.5387 30.6381 42.0361 31.3581 42.9065 31.4693C42.972 31.4759 43.0374 31.4824 43.1029 31.4824C43.4301 31.4824 43.7377 31.3777 43.9864 31.1813C44.3267 30.913 44.5427 30.4876 44.5951 29.9771C44.6933 29.0281 44.7325 28.2951 44.7325 27.6079C44.7325 25.7033 44.7325 23.7988 44.7325 21.9008V17.0773C44.7325 14.983 44.7325 12.8952 44.7325 10.8008C44.726 8.99447 43.4432 7.65278 41.6172 7.53498C39.9286 7.42371 38.2859 7.19464 36.7282 6.84122C32.5003 5.87914 28.508 4.07932 24.5091 1.33705C22.9514 0.270245 21.793 0.270245 20.2419 1.35014C14.6853 5.20503 9.02408 7.24046 2.92433 7.55461C1.3863 7.63315 0.0838813 8.98138 0.0249781 10.5521C-0.00774591 11.4291 -0.00120093 12.3192 0.00534387 13.1766V13.6151C0.0118887 14.0798 0.155875 14.479 0.424211 14.7735C0.692548 15.0746 1.07215 15.2382 1.48447 15.2382V15.2448Z" fill="#0A3AF3"></path><path d="M43.2599 33.1384H43.2469C37.3304 33.1384 32.5003 37.9619 32.4741 43.8915C32.461 46.7582 33.5802 49.4677 35.6156 51.5097C37.6576 53.5517 40.3606 54.6774 43.2403 54.6774H43.2599C49.183 54.6643 54.0065 49.8342 54 43.9112C54 37.975 49.1764 33.145 43.2534 33.1384H43.2599ZM51.0417 43.9308C51.0417 48.2242 47.5402 51.7126 43.2469 51.7126H43.2338C41.1525 51.7126 39.2022 50.8945 37.7361 49.4219C36.2701 47.9493 35.4651 45.9859 35.4651 43.9046C35.4651 41.8168 36.2832 39.8599 37.7492 38.3939C39.2153 36.9344 41.1656 36.1294 43.2403 36.1294H43.2599C47.5533 36.1425 51.0417 39.6374 51.0352 43.9308H51.0417Z" fill="#0A3AF3"></path><path d="M29.1166 47.609L28.9399 47.7399C26.9045 49.1863 24.8232 50.4691 22.7485 51.5555C22.4671 51.706 22.2838 51.706 21.9958 51.5555C19.7117 50.3512 17.565 49.0227 15.6343 47.609C11.3016 44.4413 8.25831 41.3129 6.04617 37.746C4.27907 34.9055 3.3039 32.0782 3.06174 29.1068C2.97011 27.9811 2.9832 26.8685 2.99629 25.7952C3.00283 25.1145 3.00938 24.4666 2.99629 23.8775V22.2413C2.99629 20.9258 2.99629 19.7281 2.99629 18.537C2.99629 17.8825 2.74759 17.4047 2.24364 17.1102C1.77896 16.8353 1.25537 16.8288 0.810325 17.0775C0.32601 17.3589 0.0314941 17.9021 0.0314941 18.5304C0.0314941 21.757 0.0314944 24.9836 0.044584 28.2102C0.0511288 29.8006 0.299831 31.4433 0.810325 33.2235C1.94258 37.2027 4.12854 40.8678 7.49911 44.4282C11.0726 48.2046 15.3791 51.3984 20.6542 54.193C21.2432 54.5072 21.8191 54.6577 22.3951 54.6577C22.971 54.6577 23.5339 54.5072 24.1098 54.1996C25.2486 53.5975 26.5772 52.871 27.8469 52.0529C28.9006 51.3722 29.9609 50.6458 30.8706 50.0109C31.3091 49.7033 31.5774 49.3237 31.656 48.8983C31.7214 48.5318 31.6363 48.1653 31.4007 47.8315C30.8837 47.0919 29.9871 47.0003 29.1297 47.6024L29.1166 47.609Z" fill="#0A3AF3"></path><path d="M28.4489 15.3366C28.1217 12.4569 25.7721 10.1401 22.9709 9.94373C19.8949 9.72121 17.205 11.5865 16.4523 14.4793C16.1709 15.5592 16.2036 16.6456 16.2363 17.6993C16.2429 17.9677 16.256 18.2425 16.256 18.5109C16.2821 21.2073 18.1409 23.5831 20.7719 24.2768C21.3086 24.4208 21.8452 24.4863 22.3754 24.4863C24.4828 24.4863 26.4724 23.4064 27.6112 21.528C28.5013 20.0685 28.5537 18.452 28.5013 17.2216V16.8223C28.5013 16.338 28.5013 15.8406 28.4489 15.3432V15.3366ZM19.2797 15.5264C19.4891 13.995 20.8177 12.8823 22.4015 12.8823C22.4539 12.8823 22.5063 12.8823 22.5521 12.8823C24.1294 12.9543 25.4252 14.2437 25.5038 15.8275C25.5169 16.1417 25.5169 16.4624 25.5103 16.7765V17.215C25.5038 17.4179 25.5103 17.6208 25.5103 17.8171C25.5234 18.2491 25.5365 18.6483 25.4383 19.041C25.0718 20.5856 23.7432 21.5738 22.1332 21.4822C20.6475 21.4037 19.4367 20.2518 19.26 18.7465C19.1291 17.6273 19.1357 16.5409 19.2731 15.5199L19.2797 15.5264Z" fill="#0A3AF3"></path><path d="M33.1221 32.1301C33.0632 29.0802 30.7464 26.5539 27.7227 26.2463C26.5904 26.1285 25.4385 26.1547 24.4241 26.1743C23.8154 26.1874 23.2395 26.1939 22.6962 26.1743H20.9946C19.8754 26.1678 18.861 26.1678 17.8531 26.1743C14.4171 26.2136 11.8515 28.6155 11.6159 32.0057C11.557 32.8107 11.8777 33.3998 12.5125 33.6681C12.7154 33.7532 12.9183 33.799 13.1212 33.799C13.3699 33.799 13.6055 33.7335 13.8149 33.6027C14.26 33.3278 14.5414 32.8042 14.5938 32.1628C14.7247 30.4153 16.0009 29.1849 17.7026 29.1718C20.831 29.1456 23.979 29.1456 27.042 29.1718C28.7764 29.1849 30.0591 30.4415 30.1573 32.2152C30.2097 33.1838 30.8053 33.7794 31.6888 33.7794C32.5724 33.7597 33.1352 33.1053 33.1156 32.1235L33.1221 32.1301Z" fill="#0A3AF3"></path><path d="M47.2719 40.3766C46.7614 40.1999 46.3556 40.3897 45.9956 40.7431C44.7652 41.9736 43.5282 43.1909 42.3174 44.441C42.0491 44.7158 41.9051 44.7093 41.6564 44.4279C41.2703 43.9959 40.8514 43.5967 40.4325 43.1909C39.8762 42.6542 39.1694 42.6346 38.6982 43.1255C38.24 43.6032 38.2662 44.2839 38.7898 44.8206C39.549 45.5994 40.3213 46.3651 41.0936 47.1243C41.6695 47.6872 42.2978 47.7003 42.8607 47.144C44.4707 45.5536 46.0611 43.9436 47.6645 42.3466C47.9067 42.1045 48.0441 41.823 48.0703 41.4434C48.0703 41.4107 48.0507 41.3387 48.0376 41.2667C47.9525 40.8217 47.6973 40.5206 47.2653 40.3701L47.2719 40.3766Z" fill="#0A3AF3"></path></svg> 