<?xml version="1.0" encoding="UTF-8"?> <svg xmlns="http://www.w3.org/2000/svg" width="55" height="54" viewBox="0 0 55 54" fill="none"><path d="M54.1099 52.3326C54.1373 51.8043 53.9864 51.3514 53.6707 51.0152C53.3071 50.631 52.7582 50.432 52.0857 50.432H48.2776C33.6901 50.432 19.1025 50.432 4.51496 50.4457C4.19247 50.4457 3.98663 50.4183 3.83568 50.2605C3.70531 50.1301 3.65041 49.9311 3.65041 49.6018C3.66413 36.2081 3.66414 22.8213 3.66414 9.42769V2.15448C3.66414 1.99666 3.66414 1.84572 3.66414 1.6879C3.58867 0.692984 2.84764 0 1.88017 0C1.84586 0 1.81154 0 1.77723 0C0.761729 0.054892 0.137323 0.837089 0.137323 2.04471V13.1672C0.137323 25.8267 0.137345 38.9184 0.11676 51.7906C0.11676 52.4699 0.31572 53.0256 0.693103 53.403C1.07049 53.7804 1.62628 53.9794 2.29184 53.9794H2.31245C8.48093 53.9451 14.7455 53.952 20.811 53.952C22.9106 53.952 25.0034 53.952 27.103 53.952H52.0446C52.2093 53.952 52.3739 53.952 52.5386 53.9451C53.3825 53.8765 54.0756 53.1629 54.1168 52.3189L54.1099 52.3326Z" fill="#0B44E9"></path><path d="M53.904 13.6273C53.5953 12.9617 52.9503 12.5638 52.2092 12.6118C51.6603 12.6393 51.2623 12.9343 50.8232 13.3734L44.4283 19.7684C40.1673 24.0293 35.8995 28.2972 31.6453 32.5719C31.4258 32.7915 31.2679 32.9356 31.0346 32.9218C30.8082 32.9218 30.6161 32.7366 30.4583 32.565C28.4273 30.2939 26.3414 28.009 24.3241 25.7927L22.7322 24.0431C22.3068 23.5765 21.8265 23.3157 21.3393 23.2951C21.3188 23.2951 21.2913 23.2951 21.2707 23.2951C20.8316 23.2951 20.3925 23.4873 20.0013 23.8509C17.8331 25.8339 15.6718 27.8169 13.5035 29.7999C11.8568 31.3094 10.21 32.8189 8.56324 34.3216C8.15155 34.6921 7.93886 35.0695 7.89083 35.4949C7.80163 36.2634 8.15155 36.9358 8.81711 37.2857C9.52385 37.6563 10.2649 37.5396 10.903 36.9633L11.2049 36.6819C14.2994 33.855 17.5038 30.932 20.6326 28.0365C20.7835 27.8924 20.9482 27.7483 21.1541 27.7757C21.3531 27.7826 21.5109 27.9404 21.655 28.0982C23.2194 29.8341 24.7838 31.5564 26.3551 33.2855C27.3912 34.4245 28.4341 35.5704 29.4702 36.7162C29.9642 37.2583 30.4034 37.4916 30.9454 37.4916C30.9592 37.4916 30.9729 37.4916 30.9935 37.4916C31.5012 37.4916 31.9267 37.2789 32.4207 36.7849C37.0453 32.1534 41.67 27.5287 46.2946 22.9041L51.6466 17.5521C52.2778 16.9208 52.9365 16.269 53.5678 15.6171C54.1167 15.0476 54.2402 14.3409 53.904 13.6342V13.6273Z" fill="#0B44E9"></path></svg> 