<?xml version="1.0" encoding="UTF-8"?> <svg xmlns="http://www.w3.org/2000/svg" width="37" height="50" viewBox="0 0 37 50" fill="none"><path d="M3.3609 0.607047C1.14123 1.15483 0 2.60418 0 4.88662C0 18.1647 0 31.4485 0 44.7265C0 47.3456 1.7061 49.0518 4.3309 49.0518C13.6033 49.0518 22.8757 49.0518 32.1481 49.0518C34.7444 49.0518 36.4562 47.3456 36.4562 44.7551C36.4562 33.8279 36.4562 22.9007 36.4619 11.9736C36.4619 11.46 36.3021 11.072 35.9427 10.7125C33.3179 8.11056 30.7102 5.48575 28.0797 2.88378C27.2751 2.09063 26.539 1.22331 25.6318 0.538574H3.41794C3.41794 0.538574 3.38372 0.601341 3.3609 0.607047V0.607047ZM26.3279 4.15053C28.5019 6.31884 30.6702 8.48716 32.8328 10.6384C31.315 10.6384 29.7401 10.6897 28.171 10.6212C27.1325 10.5756 26.3735 9.77103 26.345 8.73252C26.2994 7.19758 26.3336 5.65694 26.3336 4.15623L26.3279 4.15053ZM4.43364 2.55282C10.8872 2.55282 17.3408 2.55282 23.7944 2.54141C24.1995 2.54141 24.3251 2.6213 24.3136 3.04925C24.2851 4.84667 24.2965 6.6498 24.3022 8.44722C24.3079 10.9351 26.0483 12.6583 28.5476 12.664C30.3678 12.664 32.188 12.6754 34.0026 12.6526C34.3621 12.6526 34.442 12.7439 34.442 13.092C34.4305 23.6539 34.4362 34.2159 34.4305 44.7779C34.4305 46.2044 33.5917 47.0318 32.1481 47.0318C22.8643 47.0318 13.5748 47.0318 4.29099 47.0318C2.83023 47.0318 2.00856 46.2044 2.00856 44.7322C2.00856 38.0846 2.00856 31.4371 2.00856 24.7952C2.00856 18.1533 2.00856 11.5627 2.00856 4.94938C2.00856 3.32314 2.78457 2.54712 4.42222 2.54712L4.43364 2.55282Z" fill="#093AF2"></path><path d="M6.09412 24.6983H6.09983M6.09412 24.6983C5.69469 24.51 5.44931 24.0878 5.50637 23.6598C5.56343 23.2033 5.92293 22.8439 6.37942 22.7925L6.09983 24.6983M6.09412 24.6983V24.7107M6.09412 24.6983L5.98751 24.9245L6.03814 24.9483H6.04885C6.28888 25.0432 6.53875 25.0414 6.73116 25.04C6.75357 25.0398 6.77521 25.0396 6.79595 25.0396H6.81718H6.83842H6.85965H6.88088H6.90211H6.92334H6.94457H6.9658H6.98703H7.00825H7.02948H7.05071H7.07194H7.09317H7.1144H7.13563H7.15686H7.17809H7.19931H7.22054H7.24177H7.263H7.28423H7.30545H7.32668H7.34791H7.36914H7.39036H7.41159H7.43282H7.45405H7.47527H7.4965H7.51773H7.53895H7.56018H7.5814H7.60263H7.62386H7.64508H7.66631H7.68753H7.70876H7.72999H7.75121H7.77244H7.79366H7.81489H7.83611H7.85734H7.87856H7.89979H7.92101H7.94223H7.96346H7.98468H8.00591H8.02713H8.04835H8.06958H8.0908H8.11203H8.13325H8.15447H8.1757H8.19692H8.21814H8.23937H8.26059H8.28181H8.30303H8.32426H8.34548H8.3667H8.38792H8.40915H8.43037H8.45159H8.47281H8.49404H8.51526H8.53648H8.5577H8.57892H8.60014H8.62136H8.64259H8.66381H8.68503H8.70625H8.72747H8.74869H8.76991H8.79113H8.81235H8.83357H8.85479H8.87601H8.89724H8.91846H8.93968H8.9609H8.98212H9.00334H9.02456H9.04578H9.067H9.08821H9.10943H9.13065H9.15187H9.17309H9.19431H9.21553H9.23675H9.25797H9.27919H9.30041H9.32163H9.34284H9.36406H9.38528H9.4065H9.42772H9.44894H9.47016H9.49137H9.51259H9.53381H9.55503H9.57625H9.59746H9.61868H9.6399H9.66112H9.68234H9.70355H9.72477H9.74599H9.76721H9.78842H9.80964H9.83086H9.85208H9.87329H9.89451H9.91573H9.93694H9.95816H9.97938H10.0006H10.0218H10.043H10.0642H10.0855H10.1067H10.1279H10.1491H10.1703H10.1915H10.2128H10.234H10.2552H10.2764H10.2976H10.3188H10.3401H10.3613H10.3825H10.4037H10.4249H10.4461H10.4674H10.4886H10.5098H10.531H10.5522H10.5734H10.5946H10.6159H10.6371H10.6583H10.6795H10.7007H10.7219H10.7432H10.7644H10.7856H10.8068H10.828H10.8492H10.8704H10.8917H10.9129H10.9341H10.9553H10.9765H10.9977H11.0189H11.0402H11.0614H11.0826H11.1038H11.125H11.1462H11.1675H11.1887H11.2099H11.2311H11.2523H11.2735H11.2947H11.316H11.3372H11.3584H11.3796H11.4008H11.422H11.4432H11.4645H11.4857H11.5069H11.5281H11.5493H11.5705H11.5917H11.613H11.6342H11.6554H11.6766H11.6978H11.719H11.7402H11.7615H11.7827H11.8039H11.8251H11.8463H11.8675H11.8887H11.91H11.9312H11.9524H11.9736H11.9948H12.016H12.0372H12.0585H12.0797H12.1009H12.1221H12.1433H12.1645H12.1857H12.2069H12.2282H12.2494H12.2706H12.2918H12.313H12.3342H12.3554H12.3767H12.3979H12.4191H12.4403H12.4615H12.4827H12.5039H12.5252H12.5464H12.5676H12.5888H12.61H12.6312H12.6524H12.6737H12.6949H12.7161H12.7373H12.7585H12.7797H12.8009H12.8222H12.8434H12.8646H12.8858H12.907H12.9282H12.9494H12.9707H12.9919H13.0131H13.0343H13.0555H13.0767H13.0979H13.1192H13.1404H13.1616H13.1828H13.204H13.2252H13.2464H13.2677H13.2889H13.3101H13.3313H13.3525H13.3737H13.3949H13.4162H13.4374H13.4586H13.4798H13.501H13.5222H13.5435H13.5647H13.5859H13.6071H13.6283H13.6495H13.6707H13.692H13.7132H13.7344H13.7556H13.7768H13.798H13.8193H13.8405H13.8617H13.8829H13.9041H13.9253H13.9465H13.9678H13.989H14.0102H14.0314H14.0526H14.0738H14.0951H14.1163H14.1375H14.1587H14.1799H14.2011H14.2224H14.2436H14.2648H14.286H14.3072H14.3284H14.3497H14.3709H14.3921H14.4133H14.4345H14.4557H14.477H14.4982H14.5194H14.5406H14.5618H14.583H14.6043H14.6255H14.6467H14.6679H14.6891H14.7103H14.7316H14.7528H14.774H14.7952H14.8164H14.8376H14.8589H14.8801H14.9013H14.9225H14.9437H14.965H14.9862H15.0074H15.0286H15.0498H15.071H15.0923H15.1135H15.1347H15.1559H15.1771H15.1984H15.2196H15.2408H15.262H15.2832H15.3045H15.3257H15.3469H15.3681H15.3893H15.4106H15.4318H15.453H15.4742H15.4954H15.5167H15.5379H15.5591H15.5803H15.6015H15.6228H15.644H15.6652H15.6864H15.7076H15.7289H15.7501H15.7713H15.7925H15.8137H15.835H15.8562H15.8774H15.8986H15.9198H15.9411H15.9623H15.9835H16.0047H16.026H16.0472H16.0684H16.0896H16.1108H16.1321H16.1533H16.1745H16.1957H16.217H16.2382H16.2594H16.2806H16.3019H16.3231H16.3443H16.3655H16.3867H16.408H16.4292H16.4504H16.4716H16.4929H16.5141H16.5353H16.5565H16.5778H16.599H16.6202H16.6414H16.6627H16.6839H16.7051H16.7263H16.7476H16.7688H16.79H16.8112H16.8325H16.8537H16.8749H16.8961H16.9174H16.9386H16.9598H16.9811H17.0023H17.0235H17.0447H17.066H17.0872H17.1084H17.1296H17.1509H17.1721H17.1933H17.2146H17.2358H17.257H17.2782H17.2995H17.3207H17.3419H17.3632H17.3844H17.4056H17.4268H17.4481H17.4693H17.4905H17.5118H17.533H17.5542H17.5755H17.5967H17.6179H17.6391H17.6604H17.6816H17.7028H17.7241H17.7453H17.7665H17.7878H17.809H17.8302H17.8515H17.8727H17.8939H17.9152H17.9364H17.9577H17.9789H18.0001H18.0214H18.0426H18.0639H18.0851H18.1064H18.1276H18.1488H18.1701H18.1913H18.2126H18.2338H18.2551H18.2763H18.2976H18.3188H18.3401H18.3613H18.3826H18.4038H18.4251H18.4463H18.4676H18.4888H18.5101H18.5314H18.5526H18.5739H18.5951H18.6164H18.6376H18.6589H18.6802H18.7014H18.7227H18.7439H18.7652H18.7865H18.8077H18.829H18.8503H18.8715H18.8928H18.914H18.9353H18.9566H18.9778H18.9991H19.0204H19.0417H19.0629H19.0842H19.1055H19.1267H19.148H19.1693H19.1905H19.2118H19.2331H19.2544H19.2756H19.2969H19.3182H19.3395H19.3607H19.382H19.4033H19.4246H19.4459H19.4671H19.4884H19.5097H19.531H19.5522H19.5735H19.5948H19.6161H19.6374H19.6587H19.6799H19.7012H19.7225H19.7438H19.7651H19.7864H19.8077H19.8289H19.8502H19.8715H19.8928H19.9141H19.9354H19.9567H19.978H19.9992H20.0205H20.0418H20.0631H20.0844H20.1057H20.127H20.1483H20.1696H20.1909H20.2122H20.2335H20.2548H20.2761H20.2973H20.3186H20.3399H20.3612H20.3825H20.4038H20.4251H20.4464H20.4677H20.489H20.5103H20.5316H20.5529H20.5742H20.5955H20.6168H20.6381H20.6594H20.6807H20.702H20.7233H20.7446H20.766H20.7873H20.8086H20.8299H20.8512H20.8725H20.8938H20.9151H20.9364H20.9577H20.979H21.0003H21.0216H21.0429H21.0642H21.0856H21.1069H21.1282H21.1495H21.1708H21.1921H21.2134H21.2347H21.256H21.2774H21.2987H21.32H21.3413H21.3626H21.3839H21.4052H21.4265H21.4479H21.4692H21.4905H21.5118H21.5331H21.5544H21.5758H21.5971H21.6184H21.6397H21.661H21.6823H21.7037H21.725H21.7463H21.7676H21.7889H21.8102H21.8316H21.8529H21.8742H21.8955H21.9168H21.9382H21.9595H21.9808H22.0021H22.0235H22.0448H22.0661H22.0874H22.1087H22.1301H22.1514H22.1727H22.194H22.2154H22.2367H22.258H22.2793H22.3007H22.322H22.3433H22.3646H22.386H22.4073H22.4286H22.4499H22.4713H22.4926H22.5139H22.5352H22.5566H22.5779H22.5992H22.6205H22.6419H22.6632H22.6845H22.7059H22.7272H22.7485H22.7698H22.7912H22.8125H22.8338H22.8552H22.8765H22.8978H22.9191H22.9405H22.9618H22.9831H23.0045H23.0258H23.0471H23.0685H23.0898H23.1111H23.1324H23.1538H23.1751H23.1964H23.2178H23.2391H23.2604H23.2818H23.3031H23.3244H23.3458H23.3671H23.3884H23.4098H23.4311H23.4524H23.4738H23.4951H23.5164H23.5378H23.5591H23.5804H23.6018H23.6231H23.6444H23.6658H23.6871H23.7084H23.7298H23.7511H23.7724H23.7938H23.8151H23.8364H23.8578H23.8791H23.9004H23.9218H23.9431H23.9644H23.9858H24.0071H24.0284H24.0498H24.0711H24.0924H24.1138H24.1351H24.1565H24.1778H24.1991H24.2205H24.2418H24.2631H24.2845H24.3058H24.3271H24.3485H24.3698H24.3911H24.4125H24.4338H24.4551H24.4765H24.4978H24.5191H24.5405H24.5618H24.5832H24.6045H24.6258H24.6472H24.6685H24.6898H24.7112H24.7325H24.7538H24.7752H24.7965H24.8178H24.8392H24.8605H24.8818H24.9032H24.9245H24.9458H24.9672H24.9885H25.0098H25.0312H25.0525H25.0739H25.0952H25.1165H25.1379H25.1592H25.1805H25.2019H25.2232H25.2445H25.2659H25.2872H25.3085H25.3299H25.3512H25.3725H25.3939H25.4152H25.4365H25.4579H25.4792H25.5005H25.5219H25.5432H25.5645H25.5859H25.6072H25.6285H25.6499H25.6712H25.6925H25.7138H25.7352H25.7565H25.7778H25.7992H25.8205H25.8418H25.8632H25.8845H25.9058H25.9272H25.9485H25.9698H25.9911H26.0125H26.0338H26.0551H26.0765H26.0978H26.1191H26.1405H26.1618H26.1831H26.2044H26.2258H26.2471H26.2684H26.2898H26.3111H26.3324H26.3537H26.3751H26.3964H26.4177H26.439H26.4604H26.4817H26.503H26.5243H26.5457H26.567H26.5883H26.6097H26.631H26.6523H26.6736H26.6949H26.7163H26.7376H26.7589H26.7802H26.8016H26.8229H26.8442H26.8655H26.8869H26.9082H26.9295H26.9508H26.9721H26.9935H27.0148H27.0361H27.0574H27.0787H27.1001H27.1214H27.1427H27.164H27.1853H27.2067H27.228H27.2493H27.2706H27.2919H27.3133H27.3346H27.3559H27.3772H27.3985H27.4198H27.4411H27.4625H27.4838H27.5051H27.5264H27.5477H27.569H27.5903H27.6117H27.633H27.6543H27.6756H27.6969H27.7182H27.7395H27.7608H27.7822H27.8035H27.8248H27.8461H27.8674H27.8887H27.91H27.9313H27.9526H27.9739H27.9952H28.0166H28.0379H28.0592H28.0805H28.1018H28.1231H28.1444H28.1657H28.187H28.2083H28.2296H28.2509H28.2722H28.2935H28.3148H28.3361H28.3574H28.3787H28.4H28.4213H28.4426H28.4639H28.4852H28.5065H28.5278H28.5491H28.5704C28.99 25.0396 29.3583 24.9324 29.6275 24.712C29.902 24.4873 30.0494 24.1638 30.0529 23.7877V23.7854C30.0529 23.4078 29.9114 23.0844 29.6384 22.8587C29.3717 22.6383 29.005 22.5317 28.5855 22.5254V22.5254H28.5818H28.5815H28.5813H28.581H28.5807H28.5805H28.5802H28.5799H28.5797H28.5794H28.5791H28.5789H28.5786H28.5783H28.578H28.5778H28.5775H28.5772H28.577H28.5767H28.5764H28.5762H28.5759H28.5756H28.5753H28.5751H28.5748H28.5745H28.5743H28.574H28.5737H28.5735H28.5732H28.5729H28.5726H28.5724H28.5721H28.5718H28.5716H28.5713H28.571H28.5707H28.5705H28.5702H28.5699H28.5696H28.5694H28.5691H28.5688H28.5686H28.5683H28.568H28.5677H28.5675H28.5672H28.5669H28.5666H28.5664H28.5661H28.5658H28.5655H28.5653H28.565H28.5647H28.5644H28.5642H28.5639H28.5636H28.5633H28.5631H28.5628H28.5625H28.5622H28.562H28.5617H28.5614H28.5611H28.5609H28.5606H28.5603H28.56H28.5598H28.5595H28.5592H28.5589H28.5587H28.5584H28.5581H28.5578H28.5575H28.5573H28.557H28.5567H28.5564H28.5562H28.5559H28.5556H28.5553H28.555H28.5548H28.5545H28.5542H28.5539H28.5537H28.5534H28.5531H28.5528H28.5525H28.5523H28.552H28.5517H28.5514H28.5511H28.5509H28.5506H28.5503H28.55H28.5498H28.5495H28.5492H28.5489H28.5486H28.5484H28.5481H28.5478H28.5475H28.5472H28.547H28.5467H28.5464H28.5461H28.5458H28.5456H28.5453H28.545H28.5447H28.5444H28.5442H28.5439H28.5436H28.5433H28.543H28.5428H28.5425H28.5422H28.5419H28.5416H28.5413H28.5411H28.5408H28.5405H28.5402H28.5399H28.5397H28.5394H28.5391H28.5388H28.5385H28.5382H28.538H28.5377H28.5374H28.5371H28.5368H28.5366H28.5363H28.536H28.5357H28.5354H28.5351H28.5349H28.5346H28.5343H28.534H28.5337H28.5335H28.5332H28.5329H28.5326H28.5323H28.532H28.5318H28.5315H28.5312H28.5309H28.5306H28.5303H28.5301H28.5298H28.5295H28.5292H28.5289H28.5286H28.5284H28.5281H28.5278H28.5275H28.5272H28.5269H28.5267H28.5264H28.5261H28.5258H28.5255H28.5252H28.525H28.5247H28.5244H28.5241H28.5238H28.5235H28.5233H28.523H28.5227H28.5224H28.5221H28.5218H28.5216H28.5213H28.521H28.5207H28.5204H28.5201H28.5199H28.5196H28.5193H28.519H28.5187H28.5184H28.5182H28.5179H28.5176H28.5173H28.517H28.5167H28.5164H28.5162H28.5159H28.5156H28.5153H28.515H28.5147H28.5145H28.5142H28.5139H28.5136H28.5133H28.513H28.5128H28.5125H28.5122H28.5119H28.5116H28.5113H28.511H28.5108H28.5105H28.5102H28.5099H28.5096H28.5093H28.5091H28.5088H28.5085H28.5082H28.5079H28.5076H28.5074H28.5071H28.5068H28.5065H28.5062H28.5059H28.5056H28.5054H28.5051H28.5048H28.5045H28.5042H28.5039H28.5037H28.5034H28.5031H28.5028H28.5025H28.5022H28.502H28.5017H28.5014H28.5011H28.5008H28.5005H28.5003H28.5H28.4997H28.4994H28.4991H28.4988H28.4986H28.4983H28.498H28.4977H28.4974H28.4971H28.4968H28.4966H28.4963H28.496H28.4957H28.4954H28.4951H28.4949H28.4946H28.4943H28.494H28.4937H28.4934H28.4932H28.4929H28.4926H28.4923H28.492H28.4917H28.4915H28.4912H28.4909H28.4906H28.4903H28.49H28.4898H28.4895H28.4892H28.4889H28.4886H28.4884H28.4881H28.4878H28.4875H28.4872H28.4869H28.4867H28.4864H28.4861H28.4858H28.4855H28.4852H28.485H28.4847H28.4844H28.4841H28.4838H28.4836H28.4833H28.483H28.4827H28.4824H28.4821H28.4819H28.4816H28.4813H28.481H28.4807H28.4805H28.4802H28.4799H28.4796H28.4793H28.4791H28.4788H28.4785H28.4782H28.4779H28.4776H28.4774H28.4771H28.4768H28.4765H28.4762H28.476H28.4757H28.4754H28.4751H28.4748H28.4746H28.4743H28.474H28.4737H28.4734H28.4732H28.4729H28.4726H28.4723H28.472H28.4718H28.4715H28.4712H28.4709H28.4706H28.4704H28.4701H28.4698H28.4695H28.4693H28.469H28.4687H28.4684H28.4681H28.4679H28.4676H28.4673H28.467H28.4667H28.4665H28.4662H28.4659H28.4656H28.4654H28.4651H28.4648H28.4645H28.4642H28.464H28.4637H28.4634H28.4631H28.4629H28.4626H28.4623H28.462H28.4618H28.4615H28.4612H28.4609H28.4606H28.4604H28.4601H28.4598H28.4595H28.4593H28.459H28.4587H28.4584H28.4582H28.4579H28.4576H28.4573H28.4571H28.4568H28.4565H28.4562H28.456H28.4557H28.4554H28.4551H28.4549H28.4546H28.4543H28.454H28.4538H28.4535H28.4532H28.453H28.4527H28.4524H28.4521H28.4519H28.4516H28.4513H28.451H28.4508H28.4505H28.4502H28.45H28.4497H28.4494H28.4491H28.4489H28.4486H28.4483H28.448H28.4478H28.4475H28.4472H28.447H28.4467H28.4464H28.4461H28.4459H28.4456H28.4453H28.4451H28.4448H28.4445H28.4443H28.444H28.4437H28.4434H28.4432H28.4429H28.4426H28.4424H28.4421H28.4418H28.4416H28.4413H28.441H28.4408H28.4405H28.4402H28.44H28.4397H28.4394H28.4392H28.397H28.3548H28.3127H28.2705H28.2284H28.1862H28.144H28.1019H28.0597H28.0175H27.9754H27.9332H27.8911H27.8489H27.8067H27.7646H27.7224H27.6803H27.6381H27.5959H27.5538H27.5116H27.4695H27.4273H27.3851H27.343H27.3008H27.2587H27.2165H27.1743H27.1322H27.09H27.0479H27.0057H26.9635H26.9214H26.8792H26.8371H26.7949H26.7527H26.7106H26.6684H26.6263H26.5841H26.5419H26.4998H26.4576H26.4155H26.3733H26.3311H26.289H26.2468H26.2047H26.1625H26.1203H26.0782H26.036H25.9938H25.9517H25.9095H25.8674H25.8252H25.783H25.7409H25.6987H25.6566H25.6144H25.5722H25.5301H25.4879H25.4458H25.4036H25.3614H25.3193H25.2771H25.235H25.1928H25.1506H25.1085H25.0663H25.0242H24.982H24.9398H24.8977H24.8555H24.8134H24.7712H24.729H24.6869H24.6447H24.6026H24.5604H24.5182H24.4761H24.4339H24.3918H24.3496H24.3074H24.2653H24.2231H24.181H24.1388H24.0966H24.0545H24.0123H23.9701H23.928H23.8858H23.8437H23.8015H23.7593H23.7172H23.675H23.6329H23.5907H23.5485H23.5064H23.4642H23.4221H23.3799H23.3377H23.2956H23.2534H23.2113H23.1691H23.1269H23.0848H23.0426H23.0005H22.9583H22.9161H22.874H22.8318H22.7897H22.7475H22.7053H22.6632H22.621H22.5789H22.5367H22.4945H22.4524H22.4102H22.3681H22.3259H22.2837H22.2416H22.1994H22.1573H22.1151H22.0729H22.0308H21.9886H21.9465H21.9043H21.8621H21.82H21.7778H21.7357H21.6935H21.6513H21.6092H21.567H21.5248H21.4827H21.4405H21.3984H21.3562H21.314H21.2719H21.2297H21.1876H21.1454H21.1032H21.0611H21.0189H20.9768H20.9346H20.8924H20.8503H20.8081H20.766H20.7238H20.6816H20.6395H20.5973H20.5552H20.513H20.4708H20.4287H20.3865H20.3444H20.3022H20.26H20.2179H20.1757H20.1336H20.0914H20.0492H20.0071H19.9649H19.9228H19.8806H19.8384H19.7963H19.7541H19.712H19.6698H19.6276H19.5855H19.5433H19.5012H19.459H19.4168H19.3747H19.3325H19.2903H19.2482H19.206H19.1639H19.1217H19.0795H19.0374H18.9952H18.9531H18.9109H18.8687H18.8266H18.7844H18.7423H18.7001H18.6579H18.6158H18.5736H18.5315H18.4893H18.4471H18.405H18.3628H18.3207H18.2785H18.2363H18.1942H18.152H18.1099H18.0677H18.0255H17.9834H17.9412H17.8991H17.8569H17.8147H17.7726H17.7304H17.6883H17.6461H17.6039H17.5618H17.5196H17.4775H17.4353H17.3931H17.351H17.3088H17.2667H17.2245H17.1823H17.1402H17.098H17.0559H17.0137H16.9715H16.9294H16.8872H16.845H16.8029H16.7607H16.7186H16.6764H16.6342H16.5921H16.5499H16.5078H16.4656H16.4234H16.3813H16.3391H16.297H16.2548H16.2126H16.1705H16.1283H16.0862H16.044H16.0018H15.9597H15.9175H15.8754H15.8332H15.791H15.7489H15.7067H15.6646H15.6224H15.5802H15.5381H15.4959H15.4538H15.4116H15.3694H15.3273H15.2851H15.243H15.2008H15.1586H15.1165H15.0743H15.0322H14.99H14.9478H14.9057H14.8635H14.8214H14.7792H14.737H14.6949H14.6527H14.6105H14.5684H14.5262H14.4841H14.4419H14.3997H14.3576H14.3154H14.2733H14.2311H14.1889H14.1468H14.1046H14.0625H14.0203H13.9781H13.936H13.8938H13.8517H13.8095H13.7673H13.7252H13.683H13.6409H13.5987H13.5565H13.5144H13.4722H13.4301H13.3879H13.3457H13.3036H13.2614H13.2193H13.1771H13.1349H13.0928H13.0506H13.0085H12.9663H12.9241H12.882H12.8398H12.7977H12.7555H12.7133H12.6712H12.629H12.5869H12.5447H12.5025H12.4604H12.4182H12.376H12.3339H12.2917H12.2496H12.2074H12.1652H12.1231H12.0809H12.0388H11.9966H11.9544H11.9123H11.8701H11.828H11.7858H11.7436H11.7015H11.6593H11.6172H11.575H11.5328H11.4907H11.4485H11.4064H11.3642H11.322H11.2799H11.2377H11.1956H11.1534H11.1112H11.0691H11.0269H10.9848H10.9426H10.9004H10.8583H10.8161H10.774H10.7318H10.6896H10.6475H10.6053H10.5632H10.521H10.4788H10.4367H10.3945H10.3524H10.3102H10.268H10.2259H10.1837H10.1415H10.0994H10.0572H10.0151H9.97291H9.93075H9.88859H9.84643H9.80427H9.7621H9.71994H9.67778H9.63562H9.59346H9.5513H9.50914H9.46698H9.42482H9.38266H9.3405H9.29834H9.25618H9.21402H9.17186H9.1297H9.08754H9.04538H9.00322H8.96106H8.9189H8.87674H8.83458H8.79242H8.75026H8.70809H8.66593H8.62377H8.58161H8.53945H8.49729H8.45513H8.41297H8.37081H8.32865H8.28649H8.24433H8.20217H8.16001H8.11785H8.07569H8.03353H7.99137H7.94921H7.90705H7.86489H7.82273H7.78057H7.73841H7.69624H7.65408H7.61192H7.56976H7.5276H7.48544H7.44328H7.40112H7.35896H7.3168H7.27464H7.23248H7.19032H7.14816H7.106H7.06384H7.02168H6.97952H6.93736H6.8952H6.85304L6.09412 24.7107M6.09983 24.6983L6.09412 24.7107M6.09983 24.6983L6.09412 24.7107" fill="#093AF2" stroke="#2E56FF" stroke-width="0.5"></path><path d="M28.8856 31.0983L28.8856 31.0984L28.891 31.0979C29.5525 31.0345 30.0529 30.4901 30.0529 29.839C30.0529 29.1673 29.5425 28.6581 28.8706 28.6027L28.8706 28.6027L28.8678 28.6025C28.7372 28.5932 28.6063 28.5944 28.4861 28.5955C28.4484 28.5958 28.4117 28.5962 28.3764 28.5962H28.3345H28.2926H28.2507H28.2088H28.167H28.1251H28.0832H28.0413H27.9994H27.9575H27.9156H27.8737H27.8318H27.7899H27.748H27.7061H27.6643H27.6224H27.5805H27.5386H27.4967H27.4548H27.4129H27.371H27.3291H27.2872H27.2454H27.2035H27.1616H27.1197H27.0778H27.0359H26.994H26.9521H26.9102H26.8683H26.8265H26.7846H26.7427H26.7008H26.6589H26.617H26.5751H26.5332H26.4914H26.4495H26.4076H26.3657H26.3238H26.2819H26.24H26.1981H26.1563H26.1144H26.0725H26.0306H25.9887H25.9468H25.9049H25.8631H25.8212H25.7793H25.7374H25.6955H25.6536H25.6117H25.5699H25.528H25.4861H25.4442H25.4023H25.3604H25.3185H25.2767H25.2348H25.1929H25.151H25.1091H25.0672H25.0254H24.9835H24.9416H24.8997H24.8578H24.8159H24.774H24.7322H24.6903H24.6484H24.6065H24.5646H24.5227H24.4809H24.439H24.3971H24.3552H24.3133H24.2715H24.2296H24.1877H24.1458H24.1039H24.062H24.0202H23.9783H23.9364H23.8945H23.8526H23.8107H23.7689H23.727H23.6851H23.6432H23.6013H23.5595H23.5176H23.4757H23.4338H23.3919H23.3501H23.3082H23.2663H23.2244H23.1825H23.1406H23.0988H23.0569H23.015H22.9731H22.9312H22.8894H22.8475H22.8056H22.7637H22.7218H22.68H22.6381H22.5962H22.5543H22.5124H22.4706H22.4287H22.3868H22.3449H22.303H22.2612H22.2193H22.1774H22.1355H22.0937H22.0518H22.0099H21.968H21.9261H21.8843H21.8424H21.8005H21.7586H21.7167H21.6749H21.633H21.5911H21.5492H21.5073H21.4655H21.4236H21.3817H21.3398H21.298H21.2561H21.2142H21.1723H21.1304H21.0886H21.0467H21.0048H20.9629H20.9211H20.8792H20.8373H20.7954H20.7535H20.7117H20.6698H20.6279H20.586H20.5442H20.5023H20.4604H20.4185H20.3766H20.3348H20.2929H20.251H20.2091H20.1673H20.1254H20.0835H20.0416H19.9998H19.9579H19.916H19.8741H19.8322H19.7904H19.7485H19.7066H19.6647H19.6229H19.581H19.5391H19.4972H19.4554H19.4135H19.3716H19.3297H19.2878H19.246H19.2041H19.1622H19.1203H19.0785H19.0366H18.9947H18.9528H18.911H18.8691H18.8272H18.7853H18.7435H18.7016H18.6597H18.6178H18.5759H18.5341H18.4922H18.4503H18.4084H18.3666H18.3247H18.2828H18.2409H18.1991H18.1572H18.1153H18.0734H18.0316H17.9897H17.9478H17.9059H17.864H17.8222H17.7803H17.7384H17.6965H17.6547H17.6128H17.5709H17.529H17.4872H17.4453H17.4034H17.3615H17.3197H17.2778H17.2359H17.194H17.1522H17.1103H17.0684H17.0265H16.9846H16.9428H16.9009H16.859H16.8171H16.7753H16.7334H16.6915H16.6496H16.6078H16.5659H16.524H16.4821H16.4403H16.3984H16.3565H16.3146H16.2727H16.2309H16.189H16.1471H16.1052H16.0634H16.0215H15.9796H15.9377H15.8959H15.854H15.8121H15.7702H15.7283H15.6865H15.6446H15.6027H15.5608H15.519H15.4771H15.4352H15.3933H15.3515H15.3096H15.2677H15.2258H15.1839H15.1421H15.1002H15.0583H15.0164H14.9746H14.9327H14.8908H14.8489H14.8071H14.7652H14.7233H14.6814H14.6395H14.5977H14.5558H14.5139H14.472H14.4302H14.3883H14.3464H14.3045H14.2626H14.2208H14.1789H14.137H14.0951H14.0533H14.0114H13.9695H13.9276H13.8857H13.8439H13.802H13.7601H13.7182H13.6763H13.6345H13.5926H13.5507H13.5088H13.467H13.4251H13.3832H13.3413H13.2994H13.2576H13.2157H13.1738H13.1319H13.09H13.0482H13.0063H12.9644H12.9225H12.8806H12.8388H12.7969H12.755H12.7131H12.6712H12.6294H12.5875H12.5456H12.5037H12.4618H12.42H12.3781H12.3362H12.2943H12.2524H12.2106H12.1687H12.1268H12.0849H12.043H12.0012H11.9593H11.9174H11.8755H11.8336H11.7918H11.7499H11.708H11.6661H11.6242H11.5823H11.5405H11.4986H11.4567H11.4148H11.3729H11.3311H11.2892H11.2473H11.2054H11.1635H11.1216H11.0798H11.0379H10.996H10.9541H10.9122H10.8703H10.8285H10.7866H10.7447H10.7028H10.6609H10.6191H10.5772H10.5353H10.4934H10.4515H10.4096H10.3677H10.3259H10.284H10.2421H10.2002H10.1583H10.1164H10.0746H10.0327H9.99079H9.9489H9.90702H9.86513H9.82325H9.78136H9.73948H9.69759H9.65571H9.61382H9.57194H9.53005H9.48816H9.44628H9.40439H9.36251H9.32062H9.27873H9.23685H9.19496H9.15307H9.11119H9.0693H9.02741H8.98553H8.94364H8.90175H8.85986H8.81798H8.77609H8.7342H8.69231H8.65042H8.60854H8.56665H8.52476H8.48287H8.44098H8.39909H8.35721H8.31532H8.27343H8.23154H8.18965H8.14776H8.10587H8.06398H8.02209H7.9802H7.93831H7.89642H7.85453H7.81264H7.77075H7.72886H7.68697H7.64508H7.60319H7.5613H7.51941H7.47751H7.43562H7.39373H7.35184H7.30995H7.26806H7.22616H7.18427H7.14238H7.10049H7.0586H7.0167H6.97481H6.93292H6.92889C6.76032 28.5962 6.57653 28.5962 6.39705 28.6081L6.39704 28.608L6.39025 28.6087C5.78643 28.6655 5.32912 29.1234 5.25819 29.7121L5.25818 29.7121L5.258 29.7137C5.19279 30.2861 5.53491 30.8019 6.06118 31.0172C6.29496 31.1152 6.53713 31.11 6.71975 31.1061C6.75298 31.1054 6.78423 31.1047 6.81311 31.1047H6.83424H6.85537H6.8765H6.89763H6.91876H6.93989H6.96102H6.98215H7.00328H7.02442H7.04555H7.06668H7.08781H7.10894H7.13007H7.1512H7.17233H7.19346H7.21459H7.23572H7.25685H7.27798H7.29911H7.32024H7.34137H7.3625H7.38363H7.40476H7.42589H7.44702H7.46815H7.48928H7.51041H7.53154H7.55267H7.5738H7.59493H7.61606H7.63719H7.65832H7.67945H7.70058H7.72171H7.74284H7.76397H7.7851H7.80623H7.82736H7.84849H7.86962H7.89075H7.91188H7.93301H7.95414H7.97527H7.9964H8.01753H8.03866H8.05979H8.08092H8.10205H8.12318H8.14431H8.16544H8.18657H8.2077H8.22883H8.24996H8.27109H8.29222H8.31335H8.33448H8.35561H8.37674H8.39787H8.419H8.44013H8.46126H8.48239H8.50352H8.52465H8.54578H8.56691H8.58804H8.60917H8.6303H8.65143H8.67256H8.69368H8.71481H8.73594H8.75707H8.7782H8.79933H8.82046H8.84159H8.86272H8.88385H8.90498H8.92611H8.94724H8.96836H8.98949H9.01062H9.03175H9.05288H9.07401H9.09514H9.11627H9.1374H9.15852H9.17965H9.20078H9.22191H9.24304H9.26417H9.2853H9.30643H9.32755H9.34868H9.36981H9.39094H9.41207H9.4332H9.45433H9.47545H9.49658H9.51771H9.53884H9.55997H9.58109H9.60222H9.62335H9.64448H9.66561H9.68674H9.70786H9.72899H9.75012H9.77125H9.79238H9.8135H9.83463H9.85576H9.87689H9.89801H9.91914H9.94027H9.9614H9.98252H10.0037H10.0248H10.0459H10.067H10.0882H10.1093H10.1304H10.1515H10.1727H10.1938H10.2149H10.2361H10.2572H10.2783H10.2994H10.3206H10.3417H10.3628H10.3839H10.4051H10.4262H10.4473H10.4684H10.4896H10.5107H10.5318H10.553H10.5741H10.5952H10.6163H10.6375H10.6586H10.6797H10.7008H10.722H10.7431H10.7642H10.7853H10.8065H10.8276H10.8487H10.8698H10.891H10.9121H10.9332H10.9543H10.9755H10.9966H11.0177H11.0388H11.06H11.0811H11.1022H11.1233H11.1445H11.1656H11.1867H11.2078H11.229H11.2501H11.2712H11.2923H11.3135H11.3346H11.3557H11.3768H11.398H11.4191H11.4402H11.4613H11.4825H11.5036H11.5247H11.5458H11.567H11.5881H11.6092H11.6303H11.6515H11.6726H11.6937H11.7148H11.736H11.7571H11.7782H11.7993H11.8204H11.8416H11.8627H11.8838H11.9049H11.9261H11.9472H11.9683H11.9894H12.0106H12.0317H12.0528H12.0739H12.095H12.1162H12.1373H12.1584H12.1795H12.2007H12.2218H12.2429H12.264H12.2851H12.3063H12.3274H12.3485H12.3696H12.3907H12.4119H12.433H12.4541H12.4752H12.4964H12.5175H12.5386H12.5597H12.5808H12.602H12.6231H12.6442H12.6653H12.6864H12.7076H12.7287H12.7498H12.7709H12.792H12.8132H12.8343H12.8554H12.8765H12.8976H12.9188H12.9399H12.961H12.9821H13.0032H13.0244H13.0455H13.0666H13.0877H13.1088H13.13H13.1511H13.1722H13.1933H13.2144H13.2356H13.2567H13.2778H13.2989H13.32H13.3411H13.3623H13.3834H13.4045H13.4256H13.4467H13.4679H13.489H13.5101H13.5312H13.5523H13.5734H13.5946H13.6157H13.6368H13.6579H13.679H13.7001H13.7213H13.7424H13.7635H13.7846H13.8057H13.8268H13.848H13.8691H13.8902H13.9113H13.9324H13.9535H13.9747H13.9958H14.0169H14.038H14.0591H14.0802H14.1013H14.1225H14.1436H14.1647H14.1858H14.2069H14.228H14.2492H14.2703H14.2914H14.3125H14.3336H14.3547H14.3758H14.397H14.4181H14.4392H14.4603H14.4814H14.5025H14.5236H14.5447H14.5659H14.587H14.6081H14.6292H14.6503H14.6714H14.6925H14.7136H14.7348H14.7559H14.777H14.7981H14.8192H14.8403H14.8614H14.8825H14.9037H14.9248H14.9459H14.967H14.9881H15.0092H15.0303H15.0514H15.0725H15.0937H15.1148H15.1359H15.157H15.1781H15.1992H15.2203H15.2414H15.2625H15.2837H15.3048H15.3259H15.347H15.3681H15.3892H15.4103H15.4314H15.4525H15.4736H15.4947H15.5159H15.537H15.5581H15.5792H15.6003H15.6214H15.6425H15.6636H15.6847H15.7058H15.7269H15.748H15.7692H15.7903H15.8114H15.8325H15.8536H15.8747H15.8958H15.9169H15.938H15.9591H15.9802H16.0013H16.0224H16.0435H16.0646H16.0858H16.1069H16.128H16.1491H16.1702H16.1913H16.2124H16.2335H16.2546H16.2757H16.2968H16.3179H16.339H16.3601H16.3812H16.4023H16.4234H16.4445H16.4656H16.4867H16.5078H16.5289H16.5501H16.5712H16.5923H16.6134H16.6345H16.6556H16.6767H16.6978H16.7189H16.74H16.7611H16.7822H16.8033H16.8244H16.8455H16.8666H16.8877H16.9088H16.9299H16.951H16.9721H16.9932H17.0143H17.0354H17.0565H17.0776H17.0987H17.1198H17.1409H17.162H17.1831H17.2042H17.2253H17.2464H17.2675H17.2886H17.3097H17.3308H17.3519H17.373H17.3941H17.4152H17.4363H17.4574H17.4785H17.4996H17.5207H17.5418H17.5629H17.584H17.6051H17.6262H17.6473H17.6684H17.6894H17.7105H17.7316H17.7527H17.7738H17.7949H17.816H17.8371H17.8582H17.8793H17.9004H17.9215H17.9426H17.9636H17.9847H18.0058H18.0269H18.048H18.0691H18.0902H18.1113H18.1323H18.1534H18.1745H18.1956H18.2167H18.2378H18.2588H18.2799H18.301H18.3221H18.3432H18.3642H18.3853H18.4064H18.4275H18.4486H18.4696H18.4907H18.5118H18.5329H18.5539H18.575H18.5961H18.6172H18.6382H18.6593H18.6804H18.7015H18.7225H18.7436H18.7647H18.7857H18.8068H18.8279H18.849H18.87H18.8911H18.9122H18.9332H18.9543H18.9754H18.9964H19.0175H19.0386H19.0596H19.0807H19.1018H19.1228H19.1439H19.1649H19.186H19.2071H19.2281H19.2492H19.2703H19.2913H19.3124H19.3334H19.3545H19.3756H19.3966H19.4177H19.4387H19.4598H19.4808H19.5019H19.523H19.544H19.5651H19.5861H19.6072H19.6282H19.6493H19.6703H19.6914H19.7124H19.7335H19.7545H19.7756H19.7967H19.8177H19.8388H19.8598H19.8809H19.9019H19.923H19.944H19.965H19.9861H20.0071H20.0282H20.0492H20.0703H20.0913H20.1124H20.1334H20.1545H20.1755H20.1966H20.2176H20.2386H20.2597H20.2807H20.3018H20.3228H20.3439H20.3649H20.3859H20.407H20.428H20.4491H20.4701H20.4912H20.5122H20.5332H20.5543H20.5753H20.5963H20.6174H20.6384H20.6595H20.6805H20.7015H20.7226H20.7436H20.7646H20.7857H20.8067H20.8278H20.8488H20.8698H20.8909H20.9119H20.9329H20.954H20.975H20.996H21.0171H21.0381H21.0591H21.0802H21.1012H21.1222H21.1432H21.1643H21.1853H21.2063H21.2274H21.2484H21.2694H21.2905H21.3115H21.3325H21.3535H21.3746H21.3956H21.4166H21.4377H21.4587H21.4797H21.5007H21.5218H21.5428H21.5638H21.5848H21.6059H21.6269H21.6479H21.6689H21.69H21.711H21.732H21.753H21.7741H21.7951H21.8161H21.8371H21.8582H21.8792H21.9002H21.9212H21.9422H21.9633H21.9843H22.0053H22.0263H22.0474H22.0684H22.0894H22.1104H22.1314H22.1525H22.1735H22.1945H22.2155H22.2365H22.2576H22.2786H22.2996H22.3206H22.3416H22.3626H22.3837H22.4047H22.4257H22.4467H22.4677H22.4888H22.5098H22.5308H22.5518H22.5728H22.5938H22.6149H22.6359H22.6569H22.6779H22.6989H22.7199H22.7409H22.762H22.783H22.804H22.825H22.846H22.867H22.8881H22.9091H22.9301H22.9511H22.9721H22.9931H23.0141H23.0351H23.0562H23.0772H23.0982H23.1192H23.1402H23.1612H23.1822H23.2032H23.2243H23.2453H23.2663H23.2873H23.3083H23.3293H23.3503H23.3713H23.3924H23.4134H23.4344H23.4554H23.4764H23.4974H23.5184H23.5394H23.5604H23.5815H23.6025H23.6235H23.6445H23.6655H23.6865H23.7075H23.7285H23.7495H23.7705H23.7916H23.8126H23.8336H23.8546H23.8756H23.8966H23.9176H23.9386H23.9596H23.9806H24.0016H24.0227H24.0437H24.0647H24.0857H24.1067H24.1277H24.1487H24.1697H24.1907H24.2117H24.2327H24.2537H24.2748H24.2958H24.3168H24.3378H24.3588H24.3798H24.4008H24.4218H24.4428H24.4638H24.4848H24.5058H24.5269H24.5479H24.5689H24.5899H24.6109H24.6319H24.6529H24.6739H24.6949H24.7159H24.7369H24.7579H24.7789H24.8H24.821H24.842H24.863H24.884H24.905H24.926H24.947H24.968H24.989H25.01H25.031H25.052H25.0731H25.0941H25.1151H25.1361H25.1571H25.1781H25.1991H25.2201H25.2411H25.2621H25.2831H25.3041H25.3252H25.3462H25.3672H25.3882H25.4092H25.4302H25.4512H25.4722H25.4932H25.5142H25.5352H25.5562H25.5773H25.5983H25.6193H25.6403H25.6613H25.6823H25.7033H25.7243H25.7453H25.7663H25.7873H25.8084H25.8294H25.8504H25.8714H25.8924H25.9134H25.9344H25.9554H25.9764H25.9974H26.0185H26.0395H26.0605H26.0815H26.1025H26.1235H26.1445H26.1655H26.1865H26.2076H26.2286H26.2496H26.2706H26.2916H26.3126H26.3336H26.3546H26.3756H26.3967H26.4177H26.4387H26.4597H26.4807H26.5017H26.5227H26.5437H26.5648H26.5858H26.6068H26.6278H26.6488H26.6698H26.6908H26.7119H26.7329H26.7539H26.7749H26.7959H26.8169H26.8379H26.859H26.88H26.901H26.922H26.943H26.964H26.985H27.0061H27.0271H27.0481H27.0691H27.0901H27.1111H27.1322H27.1532H27.1742H27.1952H27.2162H27.2372H27.2583H27.2793H27.3003H27.3213H27.3423H27.3634H27.3844H27.4054H27.4264H27.4474H27.4685H27.4895H27.5105H27.5315H27.5525H27.5736H27.5946H27.6156H27.6366H27.6576H27.6787H27.6997H27.7207H27.7417H27.7628H27.7838H27.8048H27.8258H27.8469H27.8679H27.8889H27.9099H27.931H27.952H27.973H27.994H28.015H28.0361H28.0571H28.0781H28.0992H28.1202H28.1412H28.1622H28.1833H28.2043H28.2253H28.2463H28.2674H28.2884H28.3094H28.3305H28.3515H28.3725H28.3936C28.4286 31.1047 28.4653 31.105 28.5033 31.1054C28.625 31.1065 28.7588 31.1077 28.8856 31.0983Z" fill="#093AF2" stroke="#2E56FF" stroke-width="0.5"></path><path d="M30.0586 35.9022C30.0516 35.2578 29.5705 34.7498 28.9254 34.6788L28.8443 34.9177C28.7246 34.9092 28.6082 34.9102 28.4901 34.9113C28.4505 34.9117 28.4108 34.912 28.3707 34.912H17.6489H9.25525C9.02293 34.912 8.79026 34.9113 8.5574 34.9106C7.85803 34.9085 7.15706 34.9063 6.45929 34.9234L6.45414 34.6735C6.45397 34.6735 6.45381 34.6735 6.45365 34.6735C5.7554 34.6882 5.26341 35.2469 5.25636 35.9022L5.25635 35.9022V35.9049C5.25635 36.5611 5.74998 37.099 6.41 37.1692L6.40999 37.1693L6.41651 37.1698C6.53585 37.1793 6.65912 37.1781 6.76838 37.177C6.80188 37.1766 6.83406 37.1763 6.8644 37.1763H6.90656H6.94872H6.99088H7.03304H7.0752H7.11736H7.15952H7.20168H7.24384H7.286H7.32816H7.37033H7.41249H7.45465H7.49681H7.53897H7.58113H7.62329H7.66545H7.70761H7.74977H7.79193H7.83409H7.87625H7.91841H7.96057H8.00273H8.04489H8.08705H8.12921H8.17137H8.21353H8.25569H8.29785H8.34002H8.38218H8.42434H8.4665H8.50866H8.55082H8.59298H8.63514H8.6773H8.71946H8.76162H8.80378H8.84594H8.8881H8.93026H8.97242H9.01458H9.05674H9.0989H9.14106H9.18322H9.22538H9.26754H9.30971H9.35187H9.39403H9.43619H9.47835H9.52051H9.56267H9.60483H9.64699H9.68915H9.73131H9.77347H9.81563H9.85779H9.89995H9.94211H9.98427H10.0264H10.0686H10.1108H10.1529H10.1951H10.2372H10.2794H10.3216H10.3637H10.4059H10.448H10.4902H10.5324H10.5745H10.6167H10.6588H10.701H10.7432H10.7853H10.8275H10.8696H10.9118H10.954H10.9961H11.0383H11.0804H11.1226H11.1648H11.2069H11.2491H11.2912H11.3334H11.3756H11.4177H11.4599H11.502H11.5442H11.5864H11.6285H11.6707H11.7129H11.755H11.7972H11.8393H11.8815H11.9237H11.9658H12.008H12.0501H12.0923H12.1345H12.1766H12.2188H12.2609H12.3031H12.3453H12.3874H12.4296H12.4717H12.5139H12.5561H12.5982H12.6404H12.6825H12.7247H12.7669H12.809H12.8512H12.8933H12.9355H12.9777H13.0198H13.062H13.1041H13.1463H13.1885H13.2306H13.2728H13.3149H13.3571H13.3993H13.4414H13.4836H13.5258H13.5679H13.6101H13.6522H13.6944H13.7366H13.7787H13.8209H13.863H13.9052H13.9474H13.9895H14.0317H14.0738H14.116H14.1582H14.2003H14.2425H14.2846H14.3268H14.369H14.4111H14.4533H14.4954H14.5376H14.5798H14.6219H14.6641H14.7062H14.7484H14.7906H14.8327H14.8749H14.917H14.9592H15.0014H15.0435H15.0857H15.1278H15.17H15.2122H15.2543H15.2965H15.3387H15.3808H15.423H15.4651H15.5073H15.5495H15.5916H15.6338H15.6759H15.7181H15.7603H15.8024H15.8446H15.8867H15.9289H15.9711H16.0132H16.0554H16.0975H16.1397H16.1819H16.224H16.2662H16.3083H16.3505H16.3927H16.4348H16.477H16.5191H16.5613H16.6035H16.6456H16.6878H16.7299H16.7721H16.8143H16.8564H16.8986H16.9407H16.9829H17.0251H17.0672H17.1094H17.1516H17.1937H17.2359H17.278H17.3202H17.3624H17.4045H17.4467H17.4888H17.531H17.5732H17.6153H17.6575H17.6996H17.7418H17.784H17.8261H17.8683H17.9104H17.9526H17.9948H18.0369H18.0791H18.1212H18.1634H18.2056H18.2477H18.2899H18.332H18.3742H18.4164H18.4585H18.5007H18.5428H18.585H18.6272H18.6693H18.7115H18.7536H18.7958H18.838H18.8801H18.9223H18.9644H19.0066H19.0488H19.0909H19.1331H19.1753H19.2174H19.2596H19.3017H19.3439H19.3861H19.4282H19.4704H19.5125H19.5547H19.5969H19.639H19.6812H19.7233H19.7655H19.8077H19.8498H19.892H19.9341H19.9763H20.0185H20.0606H20.1028H20.1449H20.1871H20.2293H20.2714H20.3136H20.3557H20.3979H20.4401H20.4822H20.5244H20.5665H20.6087H20.6509H20.693H20.7352H20.7774H20.8195H20.8617H20.9038H20.946H20.9882H21.0303H21.0725H21.1146H21.1568H21.199H21.2411H21.2833H21.3254H21.3676H21.4098H21.4519H21.4941H21.5362H21.5784H21.6206H21.6627H21.7049H21.747H21.7892H21.8314H21.8735H21.9157H21.9578H22H22.0422H22.0843H22.1265H22.1686H22.2108H22.253H22.2951H22.3373H22.3794H22.4216H22.4638H22.5059H22.5481H22.5903H22.6324H22.6746H22.7167H22.7589H22.8011H22.8432H22.8854H22.9275H22.9697H23.0119H23.054H23.0962H23.1383H23.1805H23.2227H23.2648H23.307H23.3491H23.3913H23.4335H23.4756H23.5178H23.5599H23.6021H23.6443H23.6864H23.7286H23.7707H23.8129H23.8551H23.8972H23.9394H23.9815H24.0237H24.0659H24.108H24.1502H24.1923H24.2345H24.2767H24.3188H24.361H24.4031H24.4453H24.4875H24.5296H24.5718H24.614H24.6561H24.6983H24.7404H24.7826H24.8248H24.8669H24.9091H24.9512H24.9934H25.0356H25.0777H25.1199H25.162H25.2042H25.2464H25.2885H25.3307H25.3728H25.415H25.4572H25.4993H25.5415H25.5836H25.6258H25.668H25.7101H25.7523H25.7944H25.8366H25.8788H25.9209H25.9631H26.0052H26.0474H26.0896H26.1317H26.1739H26.216H26.2582H26.3004H26.3425H26.3847H26.4269H26.469H26.5112H26.5533H26.5955H26.6377H26.6798H26.722H26.7641H26.8063H26.8485H26.8906H26.9328H26.9749H27.0171H27.0593H27.1014H27.1436H27.1857H27.2279H27.2701H27.3122H27.3544H27.3965H27.4387H27.4809H27.523H27.5652H27.6073H27.6495H27.6917H27.7338H27.776H27.8181H27.8603H27.9025H27.9446H27.9868H28.0289H28.0711H28.1133H28.1554H28.1976H28.2397H28.2819H28.3241H28.3662H28.4084H28.4506C28.4809 37.1763 28.5131 37.1766 28.5466 37.177C28.6558 37.1781 28.7791 37.1793 28.8984 37.1698L28.8985 37.1699L28.905 37.1692C29.5626 37.0992 30.0658 36.5628 30.0586 35.9022Z" fill="#093AF2" stroke="#2E56FF" stroke-width="0.5"></path><path d="M18.5974 43.2361L18.5983 43.2361C18.9961 43.2328 19.3443 43.0973 19.5861 42.8454C19.829 42.5924 19.9431 42.244 19.9124 41.8593L19.9124 41.8588C19.8848 41.5203 19.745 41.2288 19.4954 41.025C19.2491 40.8239 18.9199 40.7275 18.5449 40.7275H18.5333H18.5217H18.5102H18.4986H18.487H18.4754H18.4639H18.4523H18.4407H18.4292H18.4176H18.406H18.3945H18.3829H18.3713H18.3598H18.3482H18.3366H18.325H18.3135H18.3019H18.2903H18.2788H18.2672H18.2556H18.244H18.2325H18.2209H18.2093H18.1978H18.1862H18.1746H18.163H18.1515H18.1399H18.1283H18.1167H18.1052H18.0936H18.082H18.0705H18.0589H18.0473H18.0357H18.0242H18.0126H18.001H17.9894H17.9779H17.9663H17.9547H17.9431H17.9316H17.92H17.9084H17.8968H17.8853H17.8737H17.8621H17.8505H17.839H17.8274H17.8158H17.8042H17.7927H17.7811H17.7695H17.7579H17.7464H17.7348H17.7232H17.7116H17.7001H17.6885H17.6769H17.6653H17.6538H17.6422H17.6306H17.619H17.6074H17.5959H17.5843H17.5727H17.5611H17.5496H17.538H17.5264H17.5148H17.5033H17.4917H17.4801H17.4685H17.4569H17.4454H17.4338H17.4222H17.4106H17.399H17.3875H17.3759H17.3643H17.3527H17.3412H17.3296H17.318H17.3064H17.2948H17.2833H17.2717H17.2601H17.2485H17.2369H17.2254H17.2138H17.2022H17.1906H17.179H17.1675H17.1559H17.1443H17.1327H17.1211H17.1096H17.098H17.0864H17.0748H17.0632H17.0517H17.0401H17.0285H17.0169H17.0053H16.9937H16.9822H16.9706H16.959H16.9474H16.9358H16.9243H16.9127H16.9011H16.8895H16.8779H16.8664H16.8548H16.8432H16.8316H16.82H16.8084H16.7969H16.7853H16.7737H16.7621H16.7505H16.7389H16.7274H16.7158H16.7042H16.6926H16.681H16.6695H16.6579H16.6463H16.6347H16.6231H16.6115H16.6H16.5884H16.5768H16.5652H16.5536H16.542H16.5305H16.5189H16.5073H16.4957H16.4841H16.4725H16.461H16.4494H16.4378H16.4262H16.4146H16.403H16.3915H16.3799H16.3683H16.3567H16.3451H16.3335H16.322H16.3104H16.2988H16.2872H16.2756H16.264H16.2524H16.2409H16.2293H16.2177H16.2061H16.1945H16.1829H16.1714H16.1598H16.1482H16.1366H16.125H16.1134H16.1019H16.0903H16.0787H16.0671H16.0555H16.0439H16.0323H16.0208H16.0092H15.9976H15.986H15.9744H15.9628H15.9513H15.9397H15.9281H15.9165H15.9049H15.8933H15.8817H15.8702H15.8586H15.847H15.8354H15.8238H15.8122H15.8007H15.7891H15.7775H15.7659H15.7543H15.7427H15.7311H15.7196H15.708H15.6964H15.6848H15.6732H15.6616H15.6501H15.6385H15.6269H15.6153H15.6037H15.5921H15.5805H15.569H15.5574H15.5458H15.5342H15.5226H15.511H15.4994H15.4879H15.4763H15.4647H15.4531H15.4415H15.4299H15.4184H15.4068H15.3952H15.3836H15.372H15.3604H15.3488H15.3373H15.3257H15.3141H15.3025H15.2909H15.2793H15.2677H15.2562H15.2446H15.233H15.2214H15.2098H15.1982H15.1867H15.1751H15.1635H15.1519H15.1403H15.1287H15.1171H15.1056H15.094H15.0824H15.0708H15.0592H15.0476H15.0361H15.0245H15.0129H15.0013H14.9897H14.9781H14.9666H14.955H14.9434H14.9318H14.9202H14.9086H14.897H14.8855H14.8739H14.8623H14.8507H14.8391H14.8275H14.816H14.8044H14.7928H14.7812H14.7696H14.758H14.7465H14.7349H14.7233H14.7117H14.7001H14.6885H14.677H14.6654H14.6538H14.6422H14.6306H14.619H14.6075H14.5959H14.5843H14.5727H14.5611H14.5495H14.538H14.5264H14.5148H14.5032H14.4916H14.48H14.4685H14.4569H14.4453H14.4337H14.4221H14.4105H14.399H14.3874H14.3758H14.3642H14.3526H14.3411H14.3295H14.3179H14.3063H14.2947H14.2831H14.2716H14.26H14.2484H14.2368H14.2252H14.2137H14.2021H14.1905H14.1789H14.1673H14.1558H14.1442H14.1326H14.121H14.1094H14.0978H14.0863H14.0747H14.0631H14.0515H14.0399H14.0284H14.0168H14.0052H13.9936H13.982H13.9705H13.9589H13.9473H13.9357H13.9241H13.9126H13.901H13.8894H13.8778H13.8662H13.8547H13.8431H13.8315H13.8199H13.8083H13.7968H13.7852H13.7736H13.762H13.7505H13.7389H13.7273H13.7157H13.7041H13.6926H13.681H13.6694H13.6578H13.6463H13.6347H13.6231H13.6115H13.5999H13.5884H13.5768H13.5652H13.5536H13.5421H13.5305H13.5189H13.5073H13.4957H13.4842H13.4726H13.461H13.4494H13.4379H13.4263H13.4147H13.4031H13.3916H13.38H13.3684H13.3568H13.3453H13.3337H13.3221H13.3105H13.299H13.2874H13.2758H13.2642H13.2527H13.2411H13.2295H13.2179H13.2064H13.1948H13.1832H13.1716H13.1601H13.1485H13.1369H13.1253H13.1138H13.1022H13.0906H13.079H13.0675H13.0559H13.0443H13.0328H13.0212H13.0096H12.998H12.9865H12.9749H12.9633H12.9518H12.9402H12.9286H12.917H12.9055H12.8939H12.8823H12.8708H12.8592H12.8476H12.836H12.8245H12.8129H12.8013H12.7898H12.7782H12.7666H12.755H12.7435H12.7319H12.7203H12.7088H12.6972H12.6856H12.6741H12.6625H12.6509H12.6394H12.6278H12.6162H12.6046H12.5929H12.5812H12.5695H12.5579H12.5462H12.5345H12.5229H12.5112H12.4995H12.4879H12.4762H12.4645H12.4529H12.4412H12.4295H12.4179H12.4062H12.3945H12.3829H12.3712H12.3595H12.3478H12.3362H12.3245H12.3128H12.3012H12.2895H12.2778H12.2662H12.2545H12.2428H12.2312H12.2195H12.2078H12.1962H12.1845H12.1728H12.1611H12.1495H12.1378H12.1261H12.1145H12.1028H12.0911H12.0795H12.0678H12.0561H12.0445H12.0328H12.0211H12.0095H11.9978H11.9861H11.9744H11.9628H11.9511H11.9394H11.9278H11.9161H11.9044H11.8928H11.8811H11.8694H11.8578H11.8461H11.8344H11.8228H11.8111H11.7994H11.7877H11.7761H11.7644H11.7527H11.7411H11.7294H11.7177H11.7061H11.6944H11.6827H11.6711H11.6594H11.6477H11.636H11.6244H11.6127H11.601H11.5894H11.5777H11.566H11.5544H11.5427H11.531H11.5193H11.5077H11.496H11.4843H11.4727H11.461H11.4493H11.4377H11.426H11.4143H11.4027H11.391H11.3793H11.3676H11.356H11.3443H11.3326H11.321H11.3093H11.2976H11.286H11.2743H11.2626H11.2509H11.2393H11.2276H11.2159H11.2043H11.1926H11.1809H11.1692H11.1576H11.1459H11.1342H11.1226H11.1109H11.0992H11.0876H11.0759H11.0642H11.0525H11.0409H11.0292H11.0175H11.0059H10.9942H10.9825H10.9708H10.9592H10.9475H10.9358H10.9242H10.9125H10.9008H10.8891H10.8775H10.8658H10.8541H10.8425H10.8308H10.8191H10.8074H10.7958H10.7841H10.7724H10.7608H10.7491H10.7374H10.7257H10.7141H10.7024H10.6907H10.6791H10.6674H10.6557H10.644H10.6324H10.6207H10.609H10.5974H10.5857H10.574H10.5623H10.5507H10.539H10.5273H10.5156H10.504H10.4923H10.4806H10.469H10.4573H10.4456H10.4339H10.4223H10.4106H10.3989H10.3872H10.3756H10.3639H10.3522H10.3406H10.3289H10.3172H10.3055H10.2939H10.2822H10.2705H10.2588H10.2472H10.2355H10.2238H10.2121H10.2005H10.1888H10.1771H10.1654H10.1538H10.1421H10.1304H10.1187H10.1071H10.0954H10.0837H10.0721H10.0604H10.0487H10.037H10.0254H10.0137H10.002H9.99033H9.97865H9.96698H9.9553H9.94363H9.93195H9.92028H9.9086H9.89693H9.88525H9.87358H9.8619H9.85022H9.83855H9.82687H9.8152H9.80352H9.79185H9.78017H9.76849H9.75682H9.74514H9.73346H9.72179H9.71011H9.69844H9.68676H9.67508H9.66341H9.65173H9.64005H9.62838H9.6167H9.60502H9.59335H9.58167H9.56999H9.55831H9.54664H9.53496H9.52328H9.5116H9.49993H9.48825H9.47657H9.46489H9.45322H9.44154H9.42986H9.41818H9.4065H9.39483H9.38315H9.37147H9.35979H9.34811H9.33643H9.32476H9.31308H9.3014H9.28972H9.27804H9.26636H9.25468H9.243H9.23132H9.21964H9.20797H9.19629H9.18461H9.17293H9.16125H9.14957H9.13789H9.12621H9.11453H9.10285H9.09117H9.07949H9.06781H9.05613H9.04445H9.03277H9.02109H9.00941H8.99772H8.98604H8.97436H8.96268H8.951H8.93932H8.92764H8.91596H8.90428H8.8926H8.88091H8.86923H8.85755H8.84587H8.83419H8.8225H8.81082H8.79914H8.78746H8.77578H8.76409H8.75241H8.74073H8.72905H8.71736H8.70568H8.694H8.68232H8.67063H8.65895H8.64727H8.63558H8.6239H8.61222H8.60053H8.58885H8.57717H8.56548H8.5538H8.54211H8.53043H8.51875H8.50706H8.49538H8.48369H8.47201H8.46032H8.44864H8.43695H8.42527H8.41358H8.4019H8.39021H8.37853H8.36684H8.35516H8.34347H8.33179H8.3201H8.30841H8.29673H8.28504H8.27336H8.26167H8.24998H8.2383H8.22661H8.21493H8.20324H8.19155H8.17986H8.16818H8.15649H8.1448H8.13312H8.12143H8.10974H8.09805H8.08637H8.07468H8.06299H8.0513H8.03961H8.02793H8.01624H8.00455H7.99286H7.98117H7.96948H7.9578H7.94611H7.93442H7.92273H7.91104H7.89935H7.88766H7.87597H7.86428H7.85259H7.8409H7.82921H7.81752H7.80583H7.79414H7.78245H7.77076H7.75907H7.74738H7.73569H7.724H7.71231H7.70062H7.68893H7.67723H7.66554H7.65385H7.64216H7.63047H7.61878H7.60709H7.59539H7.5837H7.57201H7.56032H7.54862H7.53693H7.52524H7.51355H7.50185H7.49016H7.47847H7.46677H7.45508H7.44339H7.43169H7.42H7.40831H7.39661H7.38492H7.37322H7.36153H7.34983H7.33814H7.32645H7.31475H7.30306H7.29136H7.27967H7.26797H7.25628H7.24458H7.23288H7.22119H7.20949H7.1978H7.1861H7.17441H7.16271H7.15101H7.13932H7.12762H7.11592H7.10423H7.09253H7.08083H7.06913H7.05744H7.04574H7.03404H7.02234H7.01065H6.99895H6.98725H6.97555H6.96385H6.95216H6.94046H6.92876H6.91706H6.90536H6.89366H6.88196H6.87026H6.85856H6.84686H6.83516H6.82346H6.81176H6.80006H6.78836H6.77666H6.76496H6.75326H6.74156H6.72986H6.71816H6.70646H6.69476H6.68306H6.67136H6.65965H6.64795H6.63625C6.2766 40.7275 5.95799 40.8218 5.71325 41.0119C5.46628 41.2038 5.31355 41.4789 5.26492 41.8019L5.26491 41.8019L5.26464 41.8038C5.20815 42.1992 5.33255 42.564 5.59031 42.8272C5.84608 43.0884 6.21893 43.2361 6.64196 43.2361H6.65818H6.67439H6.69061H6.70682H6.72304H6.73926H6.75547H6.77169H6.7879H6.80412H6.82033H6.83655H6.85276H6.86898H6.8852H6.90141H6.91763H6.93384H6.95006H6.96627H6.98249H6.9987H7.01492H7.03113H7.04735H7.06357H7.07978H7.096H7.11221H7.12843H7.14464H7.16086H7.17707H7.19329H7.20951H7.22572H7.24194H7.25815H7.27437H7.29058H7.3068H7.32301H7.33923H7.35545H7.37166H7.38788H7.40409H7.42031H7.43652H7.45274H7.46895H7.48517H7.50139H7.5176H7.53382H7.55003H7.56625H7.58246H7.59868H7.61489H7.63111H7.64733H7.66354H7.67976H7.69597H7.71219H7.7284H7.74462H7.76083H7.77705H7.79327H7.80948H7.8257H7.84191H7.85813H7.87434H7.89056H7.90677H7.92299H7.93921H7.95542H7.97164H7.98785H8.00407H8.02028H8.0365H8.05271H8.06893H8.08515H8.10136H8.11758H8.13379H8.15001H8.16622H8.18244H8.19865H8.21487H8.23109H8.2473H8.26352H8.27973H8.29595H8.31216H8.32838H8.34459H8.36081H8.37702H8.39324H8.40946H8.42567H8.44189H8.4581H8.47432H8.49053H8.50675H8.52296H8.53918H8.5554H8.57161H8.58783H8.60404H8.62026H8.63647H8.65269H8.6689H8.68512H8.70134H8.71755H8.73377H8.74998H8.7662H8.78241H8.79863H8.81484H8.83106H8.84728H8.86349H8.87971H8.89592H8.91214H8.92835H8.94457H8.96078H8.977H8.99322H9.00943H9.02565H9.04186H9.05808H9.07429H9.09051H9.10672H9.12294H9.13916H9.15537H9.17159H9.1878H9.20402H9.22023H9.23645H9.25266H9.26888H9.28509H9.30131H9.31753H9.33374H9.34996H9.36617H9.38239H9.3986H9.41482H9.43103H9.44725H9.46347H9.47968H9.4959H9.51211H9.52833H9.54454H9.56076H9.57697H9.59319H9.60941H9.62562H9.64184H9.65805H9.67427H9.69048H9.7067H9.72291H9.73913H9.75535H9.77156H9.78778H9.80399H9.82021H9.83642H9.85264H9.86885H9.88507H9.90129H9.9175H9.93372H9.94993H9.96615H9.98236H9.99858H10.0148H10.031H10.0472H10.0634H10.0797H10.0959H10.1121H10.1283H10.1445H10.1607H10.1769H10.1932H10.2094H10.2256H10.2418H10.258H10.2742H10.2905H10.3067H10.3229H10.3391H10.3553H10.3715H10.3878H10.404H10.4202H10.4364H10.4526H10.4688H10.485H10.5013H10.5175H10.5337H10.5499H10.5661H10.5823H10.5986H10.6148H10.631H10.6472H10.6634H10.6796H10.6958H10.7121H10.7283H10.7445H10.7607H10.7769H10.7931H10.8094H10.8256H10.8418H10.858H10.8742H10.8904H10.9066H10.9229H10.9391H10.9553H10.9715H10.9877H11.0039H11.0202H11.0364H11.0526H11.0688H11.085H11.1012H11.1174H11.1337H11.1499H11.1661H11.1823H11.1985H11.2147H11.231H11.2472H11.2634H11.2796H11.2958H11.312H11.3283H11.3445H11.3607H11.3769H11.3931H11.4093H11.4255H11.4418H11.458H11.4742H11.4904H11.5066H11.5228H11.5391H11.5553H11.5715H11.5877H11.6039H11.6201H11.6363H11.6526H11.6688H11.685H11.7012H11.7174H11.7336H11.7499H11.7661H11.7823H11.7985H11.8147H11.8309H11.8471H11.8634H11.8796H11.8958H11.912H11.9282H11.9444H11.9607H11.9769H11.9931H12.0093H12.0255H12.0417H12.058H12.0742H12.0904H12.1066H12.1228H12.139H12.1552H12.1715H12.1877H12.2039H12.2201H12.2363H12.2525H12.2688H12.285H12.3012H12.3174H12.3336H12.3498H12.366H12.3823H12.3985H12.4147H12.4309H12.4471H12.4633H12.4796H12.4958H12.512H12.5282H12.5444H12.5606H12.5768H12.5931H12.6093H12.6255H12.6417H12.6579H12.6741H12.6904H12.7066H12.7228H12.739H12.7552H12.7714H12.7876H12.8039H12.8201H12.8363H12.8525H12.8687H12.8849H12.9012H12.9174H12.9336H12.9498H12.966H12.9822H12.9985H13.0147H13.0309H13.0471H13.0633H13.0795H13.0957H13.112H13.1282H13.1444H13.1606H13.1768H13.193H13.2093H13.2255H13.2417H13.2579H13.2741H13.2903H13.3065H13.3228H13.339H13.3552H13.3714H13.3876H13.4038H13.4201H13.4363H13.4525H13.4687H13.4849H13.5011H13.5173H13.5336H13.5498H13.566H13.5822H13.5984H13.6146H13.6309H13.6471H13.6633H13.6795H13.6957H13.7119H13.7282H13.7444H13.7606H13.7768H13.793H13.8092H13.8254H13.8417H13.8579H13.8741H13.8903H13.9065H13.9227H13.939H13.9552H13.9714H13.9876H14.0038H14.02H14.0362H14.0525H14.0687H14.0849H14.1011H14.1173H14.1335H14.1498H14.166H14.1822H14.1984H14.2146H14.2308H14.247H14.2633H14.2795H14.2957H14.3119H14.3281H14.3443H14.3606H14.3768H14.393H14.4092H14.4254H14.4416H14.4579H14.4741H14.4903H14.5065H14.5227H14.5389H14.5551H14.5714H14.5876H14.6038H14.62H14.6362H14.6524H14.6687H14.6849H14.7011H14.7173H14.7335H14.7497H14.7659H14.7822H14.7984H14.8146H14.8308H14.847H14.8632H14.8795H14.8957H14.9119H14.9281H14.9443C15.3484 43.2361 15.7535 43.2367 16.1591 43.2374C16.9717 43.2386 17.7861 43.2399 18.5974 43.2361Z" fill="#093AF2" stroke="#2E56FF" stroke-width="0.5"></path><path d="M9.55768 18.7403H9.71211L9.78123 18.6022L9.78695 18.5908L9.81339 18.5379V18.4789V17.4717C10.3845 17.3989 10.8944 17.2307 11.3374 16.9574C12.1843 16.4413 12.5923 15.5981 12.5923 14.5017C12.5923 13.6539 12.291 12.9718 11.6745 12.4902L11.6738 12.4897C11.3284 12.2217 10.6998 11.9333 9.8191 11.6199V9.762C9.9948 9.81991 10.1087 9.9226 10.1812 10.0595L10.1816 10.0602C10.2481 10.1849 10.3021 10.4049 10.3359 10.7647L10.3571 10.9914H10.5848H12.1996H12.4555L12.4495 10.7356C12.4253 9.6915 12.0379 8.89946 11.2729 8.40606C10.8918 8.13465 10.4039 7.9677 9.8191 7.89602V7.29492V7.04492H9.5691H8.97565H8.72565V7.29492V7.88308C8.40589 7.917 8.14708 7.96371 7.94901 8.02607C7.54575 8.14799 7.19183 8.37141 6.87592 8.68732C6.62165 8.94159 6.43294 9.23875 6.29622 9.57433L6.29622 9.57433L6.29563 9.57581C6.15701 9.92236 6.08944 10.2967 6.08944 10.7072C6.08944 11.3331 6.26425 11.8793 6.62142 12.3385C6.98654 12.808 7.59122 13.1481 8.397 13.3834C8.39724 13.3835 8.39749 13.3836 8.39773 13.3836L8.71422 13.4782V15.5925C8.47049 15.51 8.32406 15.3909 8.24452 15.2547C8.21176 15.1982 8.17292 15.0954 8.13511 14.9313C8.09806 14.7706 8.06514 14.5654 8.03724 14.3143L8.01253 14.0919H7.78877H6.13402H5.88778L5.88405 14.3382C5.86613 15.5214 6.23285 16.4215 7.02166 16.9517L7.02163 16.9517L7.02592 16.9545C7.43119 17.215 7.99887 17.3899 8.71422 17.4896V18.4903V18.7403H8.96422H9.55768ZM10.106 15.4699L10.1059 15.4698L10.1025 15.4724C10.0451 15.5161 9.94996 15.5596 9.80768 15.5952V13.8715C9.94941 13.9381 10.0497 13.9987 10.1149 14.0533C10.2924 14.2059 10.3861 14.407 10.3861 14.6957C10.3861 15.1179 10.2722 15.348 10.106 15.4699ZM8.35207 9.94387C8.43272 9.86124 8.54821 9.79592 8.71422 9.76181V11.2816C8.60107 11.2313 8.51541 11.1826 8.4547 11.1366C8.26253 10.9867 8.16432 10.7874 8.16432 10.5189C8.16432 10.2471 8.23546 10.0691 8.35207 9.94387Z" fill="#093AF2" stroke="#2E56FF" stroke-width="0.5"></path></svg> 