<?xml version="1.0" encoding="UTF-8"?> <svg xmlns="http://www.w3.org/2000/svg" width="56" height="55" viewBox="0 0 56 55" fill="none"><path d="M9.02307 15.3013H19.1205" stroke="#2E56FF" stroke-width="3" stroke-linecap="round" stroke-linejoin="round"></path><path d="M9.02307 22.0327H26.974" stroke="#2E56FF" stroke-width="3" stroke-linecap="round" stroke-linejoin="round"></path><path d="M9.02307 28.7642H22.4863" stroke="#2E56FF" stroke-width="3" stroke-linecap="round" stroke-linejoin="round"></path><path d="M9.02307 35.4961H20.2424" stroke="#2E56FF" stroke-width="3" stroke-linecap="round" stroke-linejoin="round"></path><path d="M40.4821 53.4469C47.9176 53.4469 53.9453 47.4192 53.9453 39.9837C53.9453 32.5482 47.9176 26.5205 40.4821 26.5205C33.0466 26.5205 27.0189 32.5482 27.0189 39.9837C27.0189 47.4192 33.0466 53.4469 40.4821 53.4469Z" stroke="#2E56FF" stroke-width="3" stroke-linejoin="round"></path><path d="M37.3632 42.9463C37.3632 44.674 38.7544 46.0652 40.4821 46.0652C42.2099 46.0652 43.6011 44.674 43.6011 42.9463C43.6011 41.2185 42.2099 39.8273 40.4821 39.8273C38.7544 39.8273 37.3632 38.4361 37.3632 36.7083C37.3632 34.9806 38.7544 33.5894 40.4821 33.5894C42.2099 33.5894 43.6011 34.9806 43.6011 36.7083" stroke="#2E56FF" stroke-width="3" stroke-linecap="round" stroke-linejoin="round"></path><path d="M40.4822 46.0654V48.1522" stroke="#2E56FF" stroke-width="3" stroke-linecap="round" stroke-linejoin="round"></path><path d="M40.4822 31.5024V33.5892" stroke="#2E56FF" stroke-width="3" stroke-linecap="round" stroke-linejoin="round"></path><path d="M25.897 48.9591H2.33643V1.83789H27.0189L38.2383 13.0572V23.1546" stroke="#2E56FF" stroke-width="3" stroke-linejoin="round"></path><path d="M27.0189 1.83789V13.0572H38.2382" stroke="#2E56FF" stroke-width="3" stroke-linecap="round" stroke-linejoin="round"></path></svg> 