<?xml version="1.0" encoding="UTF-8"?> <svg xmlns="http://www.w3.org/2000/svg" width="54" height="73" viewBox="0 0 54 73" fill="none"><path d="M4.97748 0.639982C1.69015 1.45125 0 3.59773 0 6.97802C0 26.6428 0 46.3161 0 65.9809C0 69.8597 2.52673 72.3865 6.41406 72.3865C20.1465 72.3865 33.8789 72.3865 47.6113 72.3865C51.4563 72.3865 53.9916 69.8597 53.9916 66.0231C53.9916 49.84 53.9916 33.6569 54 17.4738C54 16.7132 53.7634 16.1386 53.231 15.6062C49.3437 11.7527 45.4817 7.86534 41.5859 4.01182C40.3944 2.83717 39.3042 1.55266 37.9606 0.538574H5.06197C5.06197 0.538574 5.01128 0.631531 4.97748 0.639982ZM38.9916 5.88787C42.2113 9.09914 45.4225 12.3104 48.6254 15.4963C46.3775 15.4963 44.0451 15.5724 41.7211 15.471C40.1831 15.4034 39.0592 14.2118 39.0169 12.6738C38.9493 10.4006 39 8.11886 39 5.89632L38.9916 5.88787ZM6.56622 3.52167C16.124 3.52167 25.6817 3.52167 35.2395 3.50477C35.8395 3.50477 36.0254 3.62308 36.0085 4.25688C35.9662 6.91886 35.9831 9.58928 35.9915 12.2513C36 15.9358 38.5775 18.4879 42.2789 18.4963C44.9746 18.4963 47.6704 18.5132 50.3577 18.4794C50.8901 18.4794 51.0085 18.6146 51.0085 19.1301C50.9916 34.7724 51 50.4147 50.9916 66.0569C50.9916 68.1696 49.7493 69.395 47.6113 69.395C33.862 69.395 20.1043 69.395 6.35495 69.395C4.19157 69.395 2.97467 68.1696 2.97467 65.9893C2.97467 56.1442 2.97467 46.2992 2.97467 36.4625C2.97467 26.6259 2.97467 16.8653 2.97467 7.07097C2.97467 4.66252 4.12395 3.51322 6.5493 3.51322L6.56622 3.52167Z" fill="#093AF2"></path><path d="M9.03376 36.3191C9.36333 36.4712 9.71824 36.4543 10.0647 36.4543C15.4309 36.4543 20.7887 36.4543 26.1549 36.4543C31.5211 36.4543 36.9296 36.4543 42.3127 36.4543C43.4366 36.4543 44.1295 35.8796 44.138 34.967C44.138 34.0458 43.4619 33.4881 42.3295 33.4712C42.2619 33.4712 42.1859 33.4712 42.1183 33.4712C31.4619 33.4712 20.8056 33.4712 10.1493 33.4712C9.91264 33.4712 9.676 33.4712 9.44783 33.4965C8.77178 33.5726 8.23936 34.105 8.15485 34.781C8.07034 35.4149 8.43375 36.0402 9.0253 36.3191H9.03376Z" fill="#093AF2"></path><path d="M9.11831 45.3356C9.43944 45.4708 9.76059 45.437 10.0902 45.437C15.431 45.437 20.7719 45.437 26.1043 45.437C31.4367 45.437 36.7353 45.437 42.0508 45.437C42.2874 45.437 42.524 45.4454 42.7521 45.4285C43.5465 45.3525 44.1381 44.7018 44.1381 43.9327C44.1381 43.1468 43.5465 42.5384 42.7268 42.4708C42.4902 42.4539 42.262 42.4623 42.0254 42.4623C31.4366 42.4623 20.8563 42.4623 10.2676 42.4623C10.0141 42.4623 9.75213 42.4623 9.4986 42.4792C8.78029 42.5468 8.23943 43.0877 8.15492 43.7891C8.07886 44.4567 8.47606 45.0736 9.11831 45.3356Z" fill="#093AF2"></path><path d="M42.7183 51.4543C42.4817 51.4374 42.2535 51.4459 42.0169 51.4459C36.7268 51.4459 31.4282 51.4459 26.138 51.4459C21.9972 51.4459 17.8479 51.4459 13.707 51.4459C12.3296 51.4459 10.9437 51.429 9.56621 51.4628C8.74649 51.4797 8.16336 52.1304 8.15491 52.9163C8.15491 53.6938 8.73801 54.336 9.53238 54.4205C9.74364 54.4374 9.95491 54.429 10.1662 54.429C20.8225 54.429 31.4789 54.429 42.1352 54.429C42.3465 54.429 42.5578 54.4374 42.769 54.4205C43.5634 54.336 44.155 53.6938 44.1465 52.9163C44.1381 52.1388 43.5465 51.5219 42.7352 51.4628L42.7183 51.4543Z" fill="#093AF2"></path><path d="M9.83665 63.4034C13.9352 63.4034 18.0338 63.4034 22.1324 63.4034C23.9324 63.4034 25.7408 63.4118 27.5408 63.4034C28.5549 63.3949 29.1972 62.7189 29.1211 61.7639C29.0535 60.9358 28.4536 60.4287 27.4648 60.4287C24.5409 60.4287 21.6085 60.4287 18.6845 60.4287C15.7352 60.4287 12.7859 60.4287 9.82819 60.4287C8.89016 60.4287 8.28169 60.9189 8.16338 61.7048C8.02817 62.6513 8.75496 63.4034 9.83665 63.4034Z" fill="#093AF2"></path><path d="M24.8874 27.4792C28.4451 27.4792 32.0028 27.4792 35.569 27.4792C37.8676 27.4792 40.1578 27.4792 42.4564 27.4792C43.124 27.4792 43.6564 27.2595 43.969 26.6595C44.5099 25.637 43.7831 24.5046 42.5409 24.5046C39.5662 24.4877 36.5916 24.5046 33.6169 24.5046C30.6676 24.5046 27.7183 24.4961 24.769 24.5046C23.662 24.5046 22.986 25.3159 23.1972 26.3215C23.3493 27.0398 23.9746 27.4792 24.8958 27.4792H24.8874Z" fill="#093AF2"></path><path d="M14.1549 27.1247H13.276V25.3163C12.0845 25.1811 11.1972 24.9191 10.6056 24.5388C9.57464 23.8459 9.05916 22.6543 9.08451 20.9811H11.5352C11.6197 21.7416 11.738 22.2571 11.8902 22.5191C12.1268 22.9247 12.5915 23.1867 13.276 23.305V19.4261L12.5408 19.2064C11.3831 18.8684 10.5718 18.3951 10.0986 17.7867C9.62537 17.1782 9.38872 16.4515 9.38872 15.598C9.38872 15.0318 9.4817 14.5247 9.66761 14.0599C9.85353 13.6036 10.107 13.2064 10.4451 12.8684C10.876 12.4374 11.3493 12.1416 11.8817 11.9811C12.2028 11.8796 12.6676 11.8036 13.2929 11.7529V10.5444H14.1719V11.7698C15.1521 11.8458 15.9211 12.0909 16.4873 12.4966C17.5014 13.1473 18.0338 14.1951 18.0676 15.6487H15.6761C15.6253 15.1078 15.5408 14.7191 15.4056 14.4656C15.1775 14.0346 14.7634 13.798 14.1719 13.7557V17.212C15.6085 17.7106 16.5718 18.1501 17.062 18.5304C17.8732 19.1642 18.2789 20.0599 18.2789 21.2177C18.2789 22.7388 17.7211 23.8543 16.5972 24.5388C15.9127 24.9613 15.1014 25.2064 14.1634 25.2825V27.1078L14.1549 27.1247ZM13.276 13.7895C12.7521 13.798 12.3634 13.9416 12.1014 14.212C11.8479 14.4825 11.7211 14.8458 11.7211 15.3191C11.7211 15.8261 11.9155 16.2318 12.2958 16.5275C12.507 16.6881 12.8366 16.8402 13.276 16.9839V13.798V13.7895ZM14.1549 23.2797C14.6282 23.2205 14.9746 23.1106 15.1859 22.9501C15.5662 22.6712 15.7521 22.1895 15.7521 21.505C15.7521 20.9811 15.5747 20.5754 15.2197 20.2712C15.0085 20.0937 14.6535 19.9163 14.1549 19.7304V23.2797Z" fill="#093AF2"></path></svg> 