<?xml version="1.0" encoding="UTF-8"?> <svg xmlns="http://www.w3.org/2000/svg" width="57" height="43" viewBox="0 0 57 43" fill="none"><path d="M42.1411 17.1875V4.6875C42.1411 3.8587 41.8119 3.06384 41.2258 2.47779C40.6398 1.89174 39.8449 1.5625 39.0161 1.5625H4.64111C3.81231 1.5625 3.01746 1.89174 2.4314 2.47779C1.84535 3.06384 1.51611 3.8587 1.51611 4.6875V29.6875C1.51611 30.5163 1.84535 31.3112 2.4314 31.8972C3.01746 32.4833 3.81231 32.8125 4.64111 32.8125H17.1411" stroke="#2E56FF" stroke-width="3" stroke-linecap="square" stroke-linejoin="round"></path><path d="M1.51611 10.9375H42.1411" stroke="#2E56FF" stroke-width="3" stroke-linecap="square" stroke-linejoin="round"></path><path d="M7.76611 18.75H20.2661" stroke="#2E56FF" stroke-width="3" stroke-linecap="square" stroke-linejoin="round"></path><path d="M7.76611 25H14.0161" stroke="#2E56FF" stroke-width="3" stroke-linecap="square" stroke-linejoin="round"></path><path d="M55 21.3076V40.8173" stroke="#2E56FF" stroke-width="3" stroke-linecap="square" stroke-linejoin="round"></path><path d="M55 37.5655H25C25 35.8408 25.6321 34.1866 26.7574 32.9671C27.8826 31.7475 29.4087 31.0623 31 31.0623H38.5C38.5 29.3375 39.1321 27.6834 40.2574 26.4638C41.3826 25.2442 42.9087 24.5591 44.5 24.5591H55" stroke="#2E56FF" stroke-width="3" stroke-linecap="square" stroke-linejoin="round"></path><path d="M39.2578 31.0625H45.0242" stroke="#2E56FF" stroke-width="3" stroke-linecap="square" stroke-linejoin="round"></path></svg> 