<?xml version="1.0" encoding="UTF-8"?> <svg xmlns="http://www.w3.org/2000/svg" width="44" height="51" viewBox="0 0 44 51" fill="none"><path d="M42.2661 45.9043C42.2661 46.7331 41.9369 47.528 41.3508 48.114C40.7648 48.7001 39.9699 49.0293 39.1411 49.0293H4.76611C3.93731 49.0293 3.14246 48.7001 2.5564 48.114C1.97035 47.528 1.64111 46.7331 1.64111 45.9043V5.2793C1.64111 4.4505 1.97035 3.65564 2.5564 3.06959C3.14246 2.48354 3.93731 2.1543 4.76611 2.1543H26.9099C27.7381 2.15447 28.5324 2.48343 29.1182 3.06888L41.3515 15.3022C41.937 15.888 42.2659 16.6823 42.2661 17.5105V45.9043Z" stroke="#2E56FF" stroke-width="3" stroke-linecap="square" stroke-linejoin="round"></path><path d="M41.311 17.7793H29.5751C28.797 17.7793 28.0507 17.4702 27.5005 16.9199C26.9502 16.3697 26.6411 15.6234 26.6411 14.8453V3.10938" stroke="#2E56FF" stroke-width="3" stroke-linecap="square" stroke-linejoin="round"></path><path d="M9 34.4053H35" stroke="#2E56FF" stroke-width="3" stroke-linecap="square" stroke-linejoin="round"></path><path d="M9 40.9053H35" stroke="#2E56FF" stroke-width="3" stroke-linecap="square" stroke-linejoin="round"></path><path d="M20.4722 14.084L15.6384 22.9458L12.4159 19.7233L8.38782 27.7796H24.5003L20.4722 14.084Z" stroke="#2E56FF" stroke-width="3" stroke-linecap="round" stroke-linejoin="round"></path><path d="M10.8046 13.2781C12.1394 13.2781 13.2214 12.196 13.2214 10.8612C13.2214 9.52641 12.1394 8.44434 10.8046 8.44434C9.46976 8.44434 8.3877 9.52641 8.3877 10.8612C8.3877 12.196 9.46976 13.2781 10.8046 13.2781Z" stroke="#2E56FF" stroke-width="3" stroke-linecap="round" stroke-linejoin="round"></path></svg> 