<?xml version="1.0" encoding="UTF-8"?> <svg xmlns="http://www.w3.org/2000/svg" width="44" height="44" viewBox="0 0 44 44" fill="none"><path d="M28.8727 12.9115C30.005 12.9203 31.1384 12.9137 32.2708 12.9137C33.3757 12.9137 34.4818 12.9148 35.5868 12.9137C35.7761 12.9137 35.9675 12.9257 36.1502 12.847C36.5277 12.6818 36.7268 12.3032 36.6535 11.8744C36.5824 11.4521 36.2334 11.1753 35.7323 11.1742C33.4534 11.1698 31.1745 11.1698 28.8946 11.1742C28.3027 11.1742 27.934 11.5254 27.9384 12.056C27.9428 12.5756 28.2918 12.9093 28.8716 12.9137L28.8727 12.9115Z" fill="#2E56FF"></path><path d="M28.8727 30.8539C30.005 30.8626 31.1384 30.8561 32.2708 30.8561C33.3757 30.8561 34.4818 30.8572 35.5868 30.8561C35.7761 30.8561 35.9675 30.8681 36.1502 30.7893C36.5277 30.6241 36.7268 30.2456 36.6535 29.8167C36.5824 29.3944 36.2334 29.1177 35.7323 29.1166C33.4534 29.1122 31.1745 29.1122 28.8946 29.1166C28.3027 29.1166 27.934 29.4677 27.9384 29.9984C27.9428 30.518 28.2918 30.8517 28.8716 30.8561L28.8727 30.8539Z" fill="#2E56FF"></path><path d="M28.8727 35.2299C30.005 35.2386 31.1384 35.2321 32.2708 35.2321C33.3757 35.2321 34.4818 35.2331 35.5868 35.2321C35.7761 35.2321 35.9675 35.2441 36.1502 35.1653C36.5277 35.0001 36.7268 34.6216 36.6535 34.1927C36.5824 33.7704 36.2334 33.4936 35.7323 33.4925C33.4534 33.4882 31.1745 33.4882 28.8946 33.4925C28.3027 33.4925 27.934 33.8437 27.9384 34.3743C27.9428 34.894 28.2918 35.2277 28.8716 35.2321L28.8727 35.2299Z" fill="#2E56FF"></path><path d="M16.5232 11.8733C16.4521 11.451 16.1031 11.1742 15.602 11.1731C14.7487 11.172 13.8964 11.1731 13.0431 11.1731C13.0431 10.3274 13.0442 9.48063 13.0431 8.63494C13.0431 8.04306 12.6919 7.67437 12.1613 7.67875C11.6416 7.68313 11.308 8.03212 11.3036 8.61196C11.297 9.46531 11.2992 10.3197 11.3003 11.1731C10.4546 11.1731 9.61002 11.172 8.76433 11.1731C8.17246 11.1731 7.80377 11.5243 7.80814 12.0549C7.81252 12.5746 8.16152 12.9082 8.74136 12.9126C9.5947 12.9192 10.4481 12.917 11.3014 12.9159C11.3014 13.72 11.3014 14.523 11.3014 15.3271C11.3014 15.5164 11.2894 15.7079 11.3681 15.8906C11.5333 16.268 11.9119 16.4671 12.3407 16.3938C12.763 16.3227 13.0398 15.9737 13.0409 15.4727C13.042 14.6204 13.0409 13.7671 13.0409 12.9148C13.845 12.9148 14.6491 12.9148 15.4544 12.9148C15.6436 12.9148 15.8351 12.9268 16.0178 12.8481C16.3952 12.6829 16.5943 12.3043 16.521 11.8755L16.5232 11.8733Z" fill="#2E56FF"></path><path d="M15.3691 35.02C15.6174 34.671 15.566 34.2279 15.2137 33.8734C14.612 33.2695 14.007 32.6678 13.4042 32.0639C14.0026 31.4655 14.6022 30.8681 15.1984 30.2697C15.6163 29.8507 15.6295 29.3419 15.252 28.97C14.8811 28.6057 14.3998 28.6166 13.9862 29.0236C13.3779 29.6231 12.7751 30.2281 12.1723 30.832C11.5739 30.2347 10.9776 29.6351 10.3792 29.0389C9.96017 28.621 9.45144 28.6078 9.07947 28.9853C8.71515 29.3562 8.72609 29.8375 9.13307 30.2511C9.73151 30.8594 10.3365 31.4611 10.9415 32.0639C10.3726 32.6317 9.80481 33.1995 9.23701 33.7695C9.10354 33.9041 8.95912 34.0299 8.88582 34.2159C8.73594 34.5999 8.86285 35.0079 9.21732 35.2596C9.56631 35.5079 10.0094 35.4565 10.3639 35.1042C10.9678 34.5025 11.5695 33.8975 12.1734 33.2958C12.7423 33.8647 13.3101 34.4336 13.8801 35.0014C14.0147 35.1349 14.1405 35.2793 14.3265 35.3526C14.7105 35.5025 15.1185 35.3755 15.3702 35.0211L15.3691 35.02Z" fill="#2E56FF"></path><path d="M38.8295 1H5.17046C2.86752 1 1 2.86752 1 5.17046V38.8295C1 41.1325 2.86752 43 5.17046 43H38.8295C41.1325 43 43 41.1325 43 38.8295V5.17046C43 2.86752 41.1325 1 38.8295 1ZM41.2495 5.17046V20.4684H22.8752V2.75046H38.8295C40.1643 2.75046 41.2495 3.83574 41.2495 5.17046V5.17046ZM5.17046 2.75046H21.1248V20.4684H2.75046V5.17046C2.75046 3.83574 3.83574 2.75046 5.17046 2.75046V2.75046ZM2.75046 38.8295V22.2188H21.1248V41.2495H5.17046C3.83574 41.2495 2.75046 40.1643 2.75046 38.8295V38.8295ZM38.8295 41.2495H22.8752V22.2188H41.2495V38.8295C41.2495 40.1643 40.1643 41.2495 38.8295 41.2495Z" fill="#2E56FF" stroke="#2E56FF" stroke-width="1.2"></path></svg> 