<?xml version="1.0" encoding="UTF-8"?> <svg xmlns="http://www.w3.org/2000/svg" width="698" height="402" viewBox="0 0 698 402" fill="none"><path d="M87.0575 325.13C87.0575 326.975 88.2875 328.235 90.2525 328.235C92.1875 328.25 93.4775 327.035 93.4775 325.13V317.18H92.1425V325.115C92.1425 326.255 91.4675 327.035 90.2525 327.035C89.1125 327.035 88.3475 326.345 88.3475 325.115V324.425H87.0575V325.13ZM95.0398 325.25C95.0398 327.335 96.3148 328.25 97.7998 328.25C98.9248 328.25 99.8248 327.74 100.185 326.96C100.215 327.335 100.245 327.71 100.32 328.055H101.565C101.49 327.755 101.43 327.17 101.43 326.585V320.765H100.14V324.89C100.14 326.105 99.4498 327.08 98.1448 327.08C97.1848 327.08 96.3298 326.54 96.3298 325.085V320.765H95.0398V325.25ZM104.329 328.055V317.18H103.039V328.055H104.329ZM106.267 331.265C107.422 331.265 108.322 330.86 109.042 329.3L112.942 320.765H111.532L109.147 326.285L106.762 320.765H105.322L108.442 327.515L107.887 328.775C107.467 329.75 106.897 330.14 106.102 330.14C105.712 330.14 105.337 330.065 105.157 329.915V331.01C105.337 331.175 105.802 331.265 106.267 331.265ZM84.2618 348.055H91.3718V346.84H87.1868C86.6318 346.84 86.0318 346.87 85.7318 346.9C85.8968 345.76 86.6018 345.25 88.3718 344.005C90.4118 342.565 91.1618 341.5 91.1618 340.075C91.1618 338.2 89.7968 337.03 87.7568 337.03C85.6868 337.03 84.2318 338.35 84.1868 340.33L85.5218 340.51C85.4618 339.175 86.3618 338.26 87.6818 338.26C89.0768 338.26 89.7668 339.07 89.7668 340.18C89.7668 341.41 88.7768 342.22 87.5468 343.105C85.4468 344.65 84.2618 345.475 84.2618 347.575V348.055ZM92.5938 342.625C92.5938 346.135 94.0188 348.25 96.5538 348.235C99.0438 348.235 100.529 346.195 100.529 342.625C100.529 339.07 99.0888 336.97 96.5538 336.985C94.0638 337 92.5938 339.04 92.5938 342.625ZM93.9588 342.625C93.9588 339.985 94.7538 338.245 96.5538 338.245C98.1138 338.245 99.1638 339.58 99.1638 342.625C99.1638 345.235 98.3538 347.005 96.5538 347.005C94.9938 347.005 93.9588 345.64 93.9588 342.625ZM104.489 348.055H105.809V337.18H105.059L101.624 338.665V339.91L104.489 338.635V348.055ZM107.63 340.615C107.63 342.64 109.1 344.02 111.14 344.02C112.535 344.02 113.63 343.285 114.11 342.19C114.155 345.145 112.895 346.99 110.39 346.99C109.67 346.99 108.92 346.855 108.215 346.39L107.885 347.545C108.47 347.95 109.4 348.205 110.48 348.205C113.51 348.205 115.415 346.075 115.415 342.295C115.415 338.98 113.915 337.03 111.395 337.03C109.16 337.03 107.63 338.545 107.63 340.615ZM108.995 340.6C108.995 339.22 109.94 338.26 111.38 338.26C112.775 338.26 113.72 339.19 113.72 340.585C113.72 341.995 112.745 342.91 111.335 342.895C109.955 342.895 108.995 341.98 108.995 340.6Z" fill="#5D6282"></path><path d="M168.368 325.13C168.368 326.975 169.598 328.235 171.563 328.235C173.498 328.25 174.788 327.035 174.788 325.13V317.18H173.453V325.115C173.453 326.255 172.778 327.035 171.563 327.035C170.423 327.035 169.658 326.345 169.658 325.115V324.425H168.368V325.13ZM178.645 328.25C179.875 328.25 180.91 327.65 181.225 326.915C181.24 327.365 181.285 327.785 181.345 328.055H182.575C182.485 327.8 182.425 327.065 182.425 326.525V323.165C182.425 321.35 181.21 320.57 179.47 320.57C177.895 320.57 176.62 321.29 176.335 322.61L177.505 322.88C177.625 322.13 178.36 321.635 179.425 321.635C180.445 321.635 181.135 322.145 181.135 323.075V323.81H179.215C177.34 323.81 176.08 324.56 176.08 326.12C176.08 327.395 177.07 328.25 178.645 328.25ZM178.975 327.305C177.955 327.305 177.385 326.795 177.385 326.015C177.385 325.1 178.06 324.65 179.35 324.65H181.135V325.55C181.135 326.6 180.235 327.305 178.975 327.305ZM183.894 328.055H185.184V324.215C185.184 322.64 186.054 321.74 187.284 321.74C188.514 321.74 188.994 322.49 188.994 323.87V328.055H190.284V323.555C190.284 321.59 189.309 320.57 187.599 320.57C186.504 320.57 185.514 321.08 185.139 321.965L185.034 320.765H183.894V328.055ZM191.579 325.25C191.579 327.335 192.854 328.25 194.339 328.25C195.464 328.25 196.364 327.74 196.724 326.96C196.754 327.335 196.784 327.71 196.859 328.055H198.104C198.029 327.755 197.969 327.17 197.969 326.585V320.765H196.679V324.89C196.679 326.105 195.989 327.08 194.684 327.08C193.724 327.08 192.869 326.54 192.869 325.085V320.765H191.579V325.25ZM201.678 328.25C202.908 328.25 203.943 327.65 204.258 326.915C204.273 327.365 204.318 327.785 204.378 328.055H205.608C205.518 327.8 205.458 327.065 205.458 326.525V323.165C205.458 321.35 204.243 320.57 202.503 320.57C200.928 320.57 199.653 321.29 199.368 322.61L200.538 322.88C200.658 322.13 201.393 321.635 202.458 321.635C203.478 321.635 204.168 322.145 204.168 323.075V323.81H202.248C200.373 323.81 199.113 324.56 199.113 326.12C199.113 327.395 200.103 328.25 201.678 328.25ZM202.008 327.305C200.988 327.305 200.418 326.795 200.418 326.015C200.418 325.1 201.093 324.65 202.383 324.65H204.168V325.55C204.168 326.6 203.268 327.305 202.008 327.305ZM208.218 328.055V323.9C208.218 322.655 208.953 321.83 210.168 321.83C210.438 321.83 210.678 321.86 210.843 321.95V320.705C210.693 320.63 210.498 320.585 210.168 320.585C209.358 320.585 208.518 321.02 208.173 321.875L208.113 320.765H206.928V328.055H208.218ZM212.515 331.265C213.67 331.265 214.57 330.86 215.29 329.3L219.19 320.765H217.78L215.395 326.285L213.01 320.765H211.57L214.69 327.515L214.135 328.775C213.715 329.75 213.145 330.14 212.35 330.14C211.96 330.14 211.585 330.065 211.405 329.915V331.01C211.585 331.175 212.05 331.265 212.515 331.265ZM176.701 348.055H183.811V346.84H179.626C179.071 346.84 178.471 346.87 178.171 346.9C178.336 345.76 179.041 345.25 180.811 344.005C182.851 342.565 183.601 341.5 183.601 340.075C183.601 338.2 182.236 337.03 180.196 337.03C178.126 337.03 176.671 338.35 176.626 340.33L177.961 340.51C177.901 339.175 178.801 338.26 180.121 338.26C181.516 338.26 182.206 339.07 182.206 340.18C182.206 341.41 181.216 342.22 179.986 343.105C177.886 344.65 176.701 345.475 176.701 347.575V348.055ZM185.033 342.625C185.033 346.135 186.458 348.25 188.993 348.235C191.483 348.235 192.968 346.195 192.968 342.625C192.968 339.07 191.528 336.97 188.993 336.985C186.503 337 185.033 339.04 185.033 342.625ZM186.398 342.625C186.398 339.985 187.193 338.245 188.993 338.245C190.553 338.245 191.603 339.58 191.603 342.625C191.603 345.235 190.793 347.005 188.993 347.005C187.433 347.005 186.398 345.64 186.398 342.625ZM194.244 348.055H201.354V346.84H197.169C196.614 346.84 196.014 346.87 195.714 346.9C195.879 345.76 196.584 345.25 198.354 344.005C200.394 342.565 201.144 341.5 201.144 340.075C201.144 338.2 199.779 337.03 197.739 337.03C195.669 337.03 194.214 338.35 194.169 340.33L195.504 340.51C195.444 339.175 196.344 338.26 197.664 338.26C199.059 338.26 199.749 339.07 199.749 340.18C199.749 341.41 198.759 342.22 197.529 343.105C195.429 344.65 194.244 345.475 194.244 347.575V348.055ZM202.576 342.625C202.576 346.135 204.001 348.25 206.536 348.235C209.026 348.235 210.511 346.195 210.511 342.625C210.511 339.07 209.071 336.97 206.536 336.985C204.046 337 202.576 339.04 202.576 342.625ZM203.941 342.625C203.941 339.985 204.736 338.245 206.536 338.245C208.096 338.245 209.146 339.58 209.146 342.625C209.146 345.235 208.336 347.005 206.536 347.005C204.976 347.005 203.941 345.64 203.941 342.625Z" fill="#5D6282"></path><path d="M356.364 325.13C356.364 326.975 357.594 328.235 359.559 328.235C361.494 328.25 362.784 327.035 362.784 325.13V317.18H361.449V325.115C361.449 326.255 360.774 327.035 359.559 327.035C358.419 327.035 357.654 326.345 357.654 325.115V324.425H356.364V325.13ZM366.641 328.25C367.871 328.25 368.906 327.65 369.221 326.915C369.236 327.365 369.281 327.785 369.341 328.055H370.571C370.481 327.8 370.421 327.065 370.421 326.525V323.165C370.421 321.35 369.206 320.57 367.466 320.57C365.891 320.57 364.616 321.29 364.331 322.61L365.501 322.88C365.621 322.13 366.356 321.635 367.421 321.635C368.441 321.635 369.131 322.145 369.131 323.075V323.81H367.211C365.336 323.81 364.076 324.56 364.076 326.12C364.076 327.395 365.066 328.25 366.641 328.25ZM366.971 327.305C365.951 327.305 365.381 326.795 365.381 326.015C365.381 325.1 366.056 324.65 367.346 324.65H369.131V325.55C369.131 326.6 368.231 327.305 366.971 327.305ZM371.891 328.055H373.181V324.215C373.181 322.64 374.051 321.74 375.281 321.74C376.511 321.74 376.991 322.49 376.991 323.87V328.055H378.281V323.555C378.281 321.59 377.306 320.57 375.596 320.57C374.501 320.57 373.511 321.08 373.136 321.965L373.031 320.765H371.891V328.055ZM379.575 325.25C379.575 327.335 380.85 328.25 382.335 328.25C383.46 328.25 384.36 327.74 384.72 326.96C384.75 327.335 384.78 327.71 384.855 328.055H386.1C386.025 327.755 385.965 327.17 385.965 326.585V320.765H384.675V324.89C384.675 326.105 383.985 327.08 382.68 327.08C381.72 327.08 380.865 326.54 380.865 325.085V320.765H379.575V325.25ZM389.674 328.25C390.904 328.25 391.939 327.65 392.254 326.915C392.269 327.365 392.314 327.785 392.374 328.055H393.604C393.514 327.8 393.454 327.065 393.454 326.525V323.165C393.454 321.35 392.239 320.57 390.499 320.57C388.924 320.57 387.649 321.29 387.364 322.61L388.534 322.88C388.654 322.13 389.389 321.635 390.454 321.635C391.474 321.635 392.164 322.145 392.164 323.075V323.81H390.244C388.369 323.81 387.109 324.56 387.109 326.12C387.109 327.395 388.099 328.25 389.674 328.25ZM390.004 327.305C388.984 327.305 388.414 326.795 388.414 326.015C388.414 325.1 389.089 324.65 390.379 324.65H392.164V325.55C392.164 326.6 391.264 327.305 390.004 327.305ZM396.214 328.055V323.9C396.214 322.655 396.949 321.83 398.164 321.83C398.434 321.83 398.674 321.86 398.839 321.95V320.705C398.689 320.63 398.494 320.585 398.164 320.585C397.354 320.585 396.514 321.02 396.169 321.875L396.109 320.765H394.924V328.055H396.214ZM400.511 331.265C401.666 331.265 402.566 330.86 403.286 329.3L407.186 320.765H405.776L403.391 326.285L401.006 320.765H399.566L402.686 327.515L402.131 328.775C401.711 329.75 401.141 330.14 400.346 330.14C399.956 330.14 399.581 330.065 399.401 329.915V331.01C399.581 331.175 400.046 331.265 400.511 331.265ZM366.323 348.055H373.433V346.84H369.248C368.693 346.84 368.093 346.87 367.793 346.9C367.958 345.76 368.663 345.25 370.433 344.005C372.473 342.565 373.223 341.5 373.223 340.075C373.223 338.2 371.858 337.03 369.818 337.03C367.748 337.03 366.293 338.35 366.248 340.33L367.583 340.51C367.523 339.175 368.423 338.26 369.743 338.26C371.138 338.26 371.828 339.07 371.828 340.18C371.828 341.41 370.838 342.22 369.608 343.105C367.508 344.65 366.323 345.475 366.323 347.575V348.055ZM374.655 342.625C374.655 346.135 376.08 348.25 378.615 348.235C381.105 348.235 382.59 346.195 382.59 342.625C382.59 339.07 381.15 336.97 378.615 336.985C376.125 337 374.655 339.04 374.655 342.625ZM376.02 342.625C376.02 339.985 376.815 338.245 378.615 338.245C380.175 338.245 381.225 339.58 381.225 342.625C381.225 345.235 380.415 347.005 378.615 347.005C377.055 347.005 376.02 345.64 376.02 342.625ZM383.866 348.055H390.976V346.84H386.791C386.236 346.84 385.636 346.87 385.336 346.9C385.501 345.76 386.206 345.25 387.976 344.005C390.016 342.565 390.766 341.5 390.766 340.075C390.766 338.2 389.401 337.03 387.361 337.03C385.291 337.03 383.836 338.35 383.791 340.33L385.126 340.51C385.066 339.175 385.966 338.26 387.286 338.26C388.681 338.26 389.371 339.07 389.371 340.18C389.371 341.41 388.381 342.22 387.151 343.105C385.051 344.65 383.866 345.475 383.866 347.575V348.055ZM394.956 348.055H396.276V337.18H395.526L392.091 338.665V339.91L394.956 338.635V348.055Z" fill="#5D6282"></path><path d="M543.485 325.13C543.485 326.975 544.715 328.235 546.68 328.235C548.615 328.25 549.905 327.035 549.905 325.13V317.18H548.57V325.115C548.57 326.255 547.895 327.035 546.68 327.035C545.54 327.035 544.775 326.345 544.775 325.115V324.425H543.485V325.13ZM553.762 328.25C554.992 328.25 556.027 327.65 556.342 326.915C556.357 327.365 556.402 327.785 556.462 328.055H557.692C557.602 327.8 557.542 327.065 557.542 326.525V323.165C557.542 321.35 556.327 320.57 554.587 320.57C553.012 320.57 551.737 321.29 551.452 322.61L552.622 322.88C552.742 322.13 553.477 321.635 554.542 321.635C555.562 321.635 556.252 322.145 556.252 323.075V323.81H554.332C552.457 323.81 551.197 324.56 551.197 326.12C551.197 327.395 552.187 328.25 553.762 328.25ZM554.092 327.305C553.072 327.305 552.502 326.795 552.502 326.015C552.502 325.1 553.177 324.65 554.467 324.65H556.252V325.55C556.252 326.6 555.352 327.305 554.092 327.305ZM559.012 328.055H560.302V324.215C560.302 322.64 561.172 321.74 562.402 321.74C563.632 321.74 564.112 322.49 564.112 323.87V328.055H565.402V323.555C565.402 321.59 564.427 320.57 562.717 320.57C561.622 320.57 560.632 321.08 560.257 321.965L560.152 320.765H559.012V328.055ZM566.696 325.25C566.696 327.335 567.971 328.25 569.456 328.25C570.581 328.25 571.481 327.74 571.841 326.96C571.871 327.335 571.901 327.71 571.976 328.055H573.221C573.146 327.755 573.086 327.17 573.086 326.585V320.765H571.796V324.89C571.796 326.105 571.106 327.08 569.801 327.08C568.841 327.08 567.986 326.54 567.986 325.085V320.765H566.696V325.25ZM576.795 328.25C578.025 328.25 579.06 327.65 579.375 326.915C579.39 327.365 579.435 327.785 579.495 328.055H580.725C580.635 327.8 580.575 327.065 580.575 326.525V323.165C580.575 321.35 579.36 320.57 577.62 320.57C576.045 320.57 574.77 321.29 574.485 322.61L575.655 322.88C575.775 322.13 576.51 321.635 577.575 321.635C578.595 321.635 579.285 322.145 579.285 323.075V323.81H577.365C575.49 323.81 574.23 324.56 574.23 326.12C574.23 327.395 575.22 328.25 576.795 328.25ZM577.125 327.305C576.105 327.305 575.535 326.795 575.535 326.015C575.535 325.1 576.21 324.65 577.5 324.65H579.285V325.55C579.285 326.6 578.385 327.305 577.125 327.305ZM583.335 328.055V323.9C583.335 322.655 584.07 321.83 585.285 321.83C585.555 321.83 585.795 321.86 585.96 321.95V320.705C585.81 320.63 585.615 320.585 585.285 320.585C584.475 320.585 583.635 321.02 583.29 321.875L583.23 320.765H582.045V328.055H583.335ZM587.632 331.265C588.787 331.265 589.687 330.86 590.407 329.3L594.307 320.765H592.897L590.512 326.285L588.127 320.765H586.687L589.807 327.515L589.252 328.775C588.832 329.75 588.262 330.14 587.467 330.14C587.077 330.14 586.702 330.065 586.522 329.915V331.01C586.702 331.175 587.167 331.265 587.632 331.265ZM552.265 348.055H559.375V346.84H555.19C554.635 346.84 554.035 346.87 553.735 346.9C553.9 345.76 554.605 345.25 556.375 344.005C558.415 342.565 559.165 341.5 559.165 340.075C559.165 338.2 557.8 337.03 555.76 337.03C553.69 337.03 552.235 338.35 552.19 340.33L553.525 340.51C553.465 339.175 554.365 338.26 555.685 338.26C557.08 338.26 557.77 339.07 557.77 340.18C557.77 341.41 556.78 342.22 555.55 343.105C553.45 344.65 552.265 345.475 552.265 347.575V348.055ZM560.597 342.625C560.597 346.135 562.022 348.25 564.557 348.235C567.047 348.235 568.532 346.195 568.532 342.625C568.532 339.07 567.092 336.97 564.557 336.985C562.067 337 560.597 339.04 560.597 342.625ZM561.962 342.625C561.962 339.985 562.757 338.245 564.557 338.245C566.117 338.245 567.167 339.58 567.167 342.625C567.167 345.235 566.357 347.005 564.557 347.005C562.997 347.005 561.962 345.64 561.962 342.625ZM569.808 348.055H576.918V346.84H572.733C572.178 346.84 571.578 346.87 571.278 346.9C571.443 345.76 572.148 345.25 573.918 344.005C575.958 342.565 576.708 341.5 576.708 340.075C576.708 338.2 575.343 337.03 573.303 337.03C571.233 337.03 569.778 338.35 569.733 340.33L571.068 340.51C571.008 339.175 571.908 338.26 573.228 338.26C574.623 338.26 575.313 339.07 575.313 340.18C575.313 341.41 574.323 342.22 573.093 343.105C570.993 344.65 569.808 345.475 569.808 347.575V348.055ZM578.14 348.055H585.25V346.84H581.065C580.51 346.84 579.91 346.87 579.61 346.9C579.775 345.76 580.48 345.25 582.25 344.005C584.29 342.565 585.04 341.5 585.04 340.075C585.04 338.2 583.675 337.03 581.635 337.03C579.565 337.03 578.11 338.35 578.065 340.33L579.4 340.51C579.34 339.175 580.24 338.26 581.56 338.26C582.955 338.26 583.645 339.07 583.645 340.18C583.645 341.41 582.655 342.22 581.425 343.105C579.325 344.65 578.14 345.475 578.14 347.575V348.055Z" fill="#5D6282"></path><path d="M274.616 325.13C274.616 326.975 275.846 328.235 277.811 328.235C279.746 328.25 281.036 327.035 281.036 325.13V317.18H279.701V325.115C279.701 326.255 279.026 327.035 277.811 327.035C276.671 327.035 275.906 326.345 275.906 325.115V324.425H274.616V325.13ZM282.598 325.25C282.598 327.335 283.873 328.25 285.358 328.25C286.483 328.25 287.383 327.74 287.743 326.96C287.773 327.335 287.803 327.71 287.878 328.055H289.123C289.048 327.755 288.988 327.17 288.988 326.585V320.765H287.698V324.89C287.698 326.105 287.008 327.08 285.703 327.08C284.743 327.08 283.888 326.54 283.888 325.085V320.765H282.598V325.25ZM291.887 328.055V317.18H290.597V328.055H291.887ZM293.825 331.265C294.98 331.265 295.88 330.86 296.6 329.3L300.5 320.765H299.09L296.705 326.285L294.32 320.765H292.88L296 327.515L295.445 328.775C295.025 329.75 294.455 330.14 293.66 330.14C293.27 330.14 292.895 330.065 292.715 329.915V331.01C292.895 331.175 293.36 331.265 293.825 331.265ZM270.48 348.055H277.59V346.84H273.405C272.85 346.84 272.25 346.87 271.95 346.9C272.115 345.76 272.82 345.25 274.59 344.005C276.63 342.565 277.38 341.5 277.38 340.075C277.38 338.2 276.015 337.03 273.975 337.03C271.905 337.03 270.45 338.35 270.405 340.33L271.74 340.51C271.68 339.175 272.58 338.26 273.9 338.26C275.295 338.26 275.985 339.07 275.985 340.18C275.985 341.41 274.995 342.22 273.765 343.105C271.665 344.65 270.48 345.475 270.48 347.575V348.055ZM278.812 342.625C278.812 346.135 280.237 348.25 282.772 348.235C285.262 348.235 286.747 346.195 286.747 342.625C286.747 339.07 285.307 336.97 282.772 336.985C280.282 337 278.812 339.04 278.812 342.625ZM280.177 342.625C280.177 339.985 280.972 338.245 282.772 338.245C284.332 338.245 285.382 339.58 285.382 342.625C285.382 345.235 284.572 347.005 282.772 347.005C281.212 347.005 280.177 345.64 280.177 342.625ZM288.023 348.055H295.133V346.84H290.948C290.393 346.84 289.793 346.87 289.493 346.9C289.658 345.76 290.363 345.25 292.133 344.005C294.173 342.565 294.923 341.5 294.923 340.075C294.923 338.2 293.558 337.03 291.518 337.03C289.448 337.03 287.993 338.35 287.948 340.33L289.283 340.51C289.223 339.175 290.123 338.26 291.443 338.26C292.838 338.26 293.528 339.07 293.528 340.18C293.528 341.41 292.538 342.22 291.308 343.105C289.208 344.65 288.023 345.475 288.023 347.575V348.055ZM296.355 342.625C296.355 346.135 297.78 348.25 300.315 348.235C302.805 348.235 304.29 346.195 304.29 342.625C304.29 339.07 302.85 336.97 300.315 336.985C297.825 337 296.355 339.04 296.355 342.625ZM297.72 342.625C297.72 339.985 298.515 338.245 300.315 338.245C301.875 338.245 302.925 339.58 302.925 342.625C302.925 345.235 302.115 347.005 300.315 347.005C298.755 347.005 297.72 345.64 297.72 342.625Z" fill="#5D6282"></path><path d="M462.175 325.13C462.175 326.975 463.405 328.235 465.37 328.235C467.305 328.25 468.595 327.035 468.595 325.13V317.18H467.26V325.115C467.26 326.255 466.585 327.035 465.37 327.035C464.23 327.035 463.465 326.345 463.465 325.115V324.425H462.175V325.13ZM470.157 325.25C470.157 327.335 471.432 328.25 472.917 328.25C474.042 328.25 474.942 327.74 475.302 326.96C475.332 327.335 475.362 327.71 475.437 328.055H476.682C476.607 327.755 476.547 327.17 476.547 326.585V320.765H475.257V324.89C475.257 326.105 474.567 327.08 473.262 327.08C472.302 327.08 471.447 326.54 471.447 325.085V320.765H470.157V325.25ZM479.446 328.055V317.18H478.156V328.055H479.446ZM481.384 331.265C482.539 331.265 483.439 330.86 484.159 329.3L488.059 320.765H486.649L484.264 326.285L481.879 320.765H480.439L483.559 327.515L483.004 328.775C482.584 329.75 482.014 330.14 481.219 330.14C480.829 330.14 480.454 330.065 480.274 329.915V331.01C480.454 331.175 480.919 331.265 481.384 331.265ZM459.665 348.055H466.775V346.84H462.59C462.035 346.84 461.435 346.87 461.135 346.9C461.3 345.76 462.005 345.25 463.775 344.005C465.815 342.565 466.565 341.5 466.565 340.075C466.565 338.2 465.2 337.03 463.16 337.03C461.09 337.03 459.635 338.35 459.59 340.33L460.925 340.51C460.865 339.175 461.765 338.26 463.085 338.26C464.48 338.26 465.17 339.07 465.17 340.18C465.17 341.41 464.18 342.22 462.95 343.105C460.85 344.65 459.665 345.475 459.665 347.575V348.055ZM467.997 342.625C467.997 346.135 469.422 348.25 471.957 348.235C474.447 348.235 475.932 346.195 475.932 342.625C475.932 339.07 474.492 336.97 471.957 336.985C469.467 337 467.997 339.04 467.997 342.625ZM469.362 342.625C469.362 339.985 470.157 338.245 471.957 338.245C473.517 338.245 474.567 339.58 474.567 342.625C474.567 345.235 473.757 347.005 471.957 347.005C470.397 347.005 469.362 345.64 469.362 342.625ZM477.208 348.055H484.318V346.84H480.133C479.578 346.84 478.978 346.87 478.678 346.9C478.843 345.76 479.548 345.25 481.318 344.005C483.358 342.565 484.108 341.5 484.108 340.075C484.108 338.2 482.743 337.03 480.703 337.03C478.633 337.03 477.178 338.35 477.133 340.33L478.468 340.51C478.408 339.175 479.308 338.26 480.628 338.26C482.023 338.26 482.713 339.07 482.713 340.18C482.713 341.41 481.723 342.22 480.493 343.105C478.393 344.65 477.208 345.475 477.208 347.575V348.055ZM488.298 348.055H489.618V337.18H488.868L485.433 338.665V339.91L488.298 338.635V348.055Z" fill="#5D6282"></path><path d="M649.296 325.13C649.296 326.975 650.526 328.235 652.491 328.235C654.426 328.25 655.716 327.035 655.716 325.13V317.18H654.381V325.115C654.381 326.255 653.706 327.035 652.491 327.035C651.351 327.035 650.586 326.345 650.586 325.115V324.425H649.296V325.13ZM657.278 325.25C657.278 327.335 658.553 328.25 660.038 328.25C661.163 328.25 662.063 327.74 662.423 326.96C662.453 327.335 662.483 327.71 662.558 328.055H663.803C663.728 327.755 663.668 327.17 663.668 326.585V320.765H662.378V324.89C662.378 326.105 661.688 327.08 660.383 327.08C659.423 327.08 658.568 326.54 658.568 325.085V320.765H657.278V325.25ZM666.567 328.055V317.18H665.277V328.055H666.567ZM668.505 331.265C669.66 331.265 670.56 330.86 671.28 329.3L675.18 320.765H673.77L671.385 326.285L669 320.765H667.56L670.68 327.515L670.125 328.775C669.705 329.75 669.135 330.14 668.34 330.14C667.95 330.14 667.575 330.065 667.395 329.915V331.01C667.575 331.175 668.04 331.265 668.505 331.265ZM645.607 348.055H652.717V346.84H648.532C647.977 346.84 647.377 346.87 647.077 346.9C647.242 345.76 647.947 345.25 649.717 344.005C651.757 342.565 652.507 341.5 652.507 340.075C652.507 338.2 651.142 337.03 649.102 337.03C647.032 337.03 645.577 338.35 645.532 340.33L646.867 340.51C646.807 339.175 647.707 338.26 649.027 338.26C650.422 338.26 651.112 339.07 651.112 340.18C651.112 341.41 650.122 342.22 648.892 343.105C646.792 344.65 645.607 345.475 645.607 347.575V348.055ZM653.939 342.625C653.939 346.135 655.364 348.25 657.899 348.235C660.389 348.235 661.874 346.195 661.874 342.625C661.874 339.07 660.434 336.97 657.899 336.985C655.409 337 653.939 339.04 653.939 342.625ZM655.304 342.625C655.304 339.985 656.099 338.245 657.899 338.245C659.459 338.245 660.509 339.58 660.509 342.625C660.509 345.235 659.699 347.005 657.899 347.005C656.339 347.005 655.304 345.64 655.304 342.625ZM663.149 348.055H670.259V346.84H666.074C665.519 346.84 664.919 346.87 664.619 346.9C664.784 345.76 665.489 345.25 667.259 344.005C669.299 342.565 670.049 341.5 670.049 340.075C670.049 338.2 668.684 337.03 666.644 337.03C664.574 337.03 663.119 338.35 663.074 340.33L664.409 340.51C664.349 339.175 665.249 338.26 666.569 338.26C667.964 338.26 668.654 339.07 668.654 340.18C668.654 341.41 667.664 342.22 666.434 343.105C664.334 344.65 663.149 345.475 663.149 347.575V348.055ZM671.482 348.055H678.592V346.84H674.407C673.852 346.84 673.252 346.87 672.952 346.9C673.117 345.76 673.822 345.25 675.592 344.005C677.632 342.565 678.382 341.5 678.382 340.075C678.382 338.2 677.017 337.03 674.977 337.03C672.907 337.03 671.452 338.35 671.407 340.33L672.742 340.51C672.682 339.175 673.582 338.26 674.902 338.26C676.297 338.26 676.987 339.07 676.987 340.18C676.987 341.41 675.997 342.22 674.767 343.105C672.667 344.65 671.482 345.475 671.482 347.575V348.055Z" fill="#5D6282"></path><path d="M63.0182 291.243C63.0182 294.753 64.4432 296.868 66.9782 296.853C69.4682 296.853 70.9532 294.813 70.9532 291.243C70.9532 287.688 69.5132 285.588 66.9782 285.603C64.4882 285.618 63.0182 287.658 63.0182 291.243ZM64.3832 291.243C64.3832 288.603 65.1782 286.863 66.9782 286.863C68.5382 286.863 69.5882 288.198 69.5882 291.243C69.5882 293.853 68.7782 295.623 66.9782 295.623C65.4182 295.623 64.3832 294.258 64.3832 291.243Z" fill="#5D6282"></path><path d="M55.3307 241.453H62.4407V240.238H58.2557C57.7007 240.238 57.1007 240.268 56.8007 240.298C56.9657 239.158 57.6707 238.648 59.4407 237.403C61.4807 235.963 62.2307 234.898 62.2307 233.473C62.2307 231.598 60.8657 230.428 58.8257 230.428C56.7557 230.428 55.3007 231.748 55.2557 233.728L56.5907 233.908C56.5307 232.573 57.4307 231.658 58.7507 231.658C60.1457 231.658 60.8357 232.468 60.8357 233.578C60.8357 234.808 59.8457 235.618 58.6157 236.503C56.5157 238.048 55.3307 238.873 55.3307 240.973V241.453ZM64.8028 238.003L63.4828 238.258C63.6178 240.193 65.1328 241.573 67.2328 241.573C69.4528 241.573 71.0128 240.088 71.0128 237.928C71.0128 235.888 69.5878 234.373 67.4428 234.373C66.6328 234.373 65.8828 234.628 65.3428 235.063L65.7028 231.778H70.7428V230.578H64.5778L63.9178 236.353L65.0428 236.518C65.5378 235.873 66.3178 235.498 67.2328 235.498C68.6878 235.498 69.6628 236.458 69.6628 237.898C69.6628 239.353 68.6878 240.328 67.2478 240.328C65.8378 240.328 64.8478 239.428 64.8028 238.003Z" fill="#5D6282"></path><path d="M55.5918 182.783L54.2718 183.038C54.4068 184.973 55.9218 186.353 58.0218 186.353C60.2418 186.353 61.8018 184.868 61.8018 182.708C61.8018 180.668 60.3768 179.153 58.2318 179.153C57.4218 179.153 56.6718 179.408 56.1318 179.843L56.4918 176.558H61.5318V175.358H55.3668L54.7068 181.133L55.8318 181.298C56.3268 180.653 57.1068 180.278 58.0218 180.278C59.4768 180.278 60.4518 181.238 60.4518 182.678C60.4518 184.133 59.4768 185.108 58.0368 185.108C56.6268 185.108 55.6368 184.208 55.5918 182.783ZM63.0182 180.803C63.0182 184.313 64.4432 186.428 66.9782 186.413C69.4682 186.413 70.9532 184.373 70.9532 180.803C70.9532 177.248 69.5132 175.148 66.9782 175.163C64.4882 175.178 63.0182 177.218 63.0182 180.803ZM64.3832 180.803C64.3832 178.163 65.1782 176.423 66.9782 176.423C68.5382 176.423 69.5882 177.758 69.5882 180.803C69.5882 183.413 68.7782 185.183 66.9782 185.183C65.4182 185.183 64.3832 183.818 64.3832 180.803Z" fill="#5D6282"></path><path d="M55.0479 121.354H61.1379C58.1979 125.809 57.2829 126.874 57.2979 131.014H58.7229C58.6929 126.994 59.5779 126.094 62.7279 121.204V120.139H55.0479V121.354ZM64.8028 127.564L63.4828 127.819C63.6178 129.754 65.1328 131.134 67.2328 131.134C69.4528 131.134 71.0128 129.649 71.0128 127.489C71.0128 125.449 69.5878 123.934 67.4428 123.934C66.6328 123.934 65.8828 124.189 65.3428 124.624L65.7028 121.339H70.7428V120.139H64.5778L63.9178 125.914L65.0428 126.079C65.5378 125.434 66.3178 125.059 67.2328 125.059C68.6878 125.059 69.6628 126.019 69.6628 127.459C69.6628 128.914 68.6878 129.889 67.2478 129.889C65.8378 129.889 64.8478 128.989 64.8028 127.564Z" fill="#5D6282"></path><path d="M50.5183 75.7939H51.8383V64.9189H51.0883L47.6533 66.4039V67.6489L50.5183 66.3739V75.7939ZM53.8513 70.3639C53.8513 73.8739 55.2763 75.9889 57.8113 75.9739C60.3013 75.9739 61.7863 73.9339 61.7863 70.3639C61.7863 66.8089 60.3463 64.7089 57.8113 64.7239C55.3213 64.7389 53.8513 66.7789 53.8513 70.3639ZM55.2163 70.3639C55.2163 67.7239 56.0113 65.9839 57.8113 65.9839C59.3713 65.9839 60.4213 67.3189 60.4213 70.3639C60.4213 72.9739 59.6113 74.7439 57.8113 74.7439C56.2513 74.7439 55.2163 73.3789 55.2163 70.3639ZM63.0182 70.3639C63.0182 73.8739 64.4432 75.9889 66.9782 75.9739C69.4682 75.9739 70.9532 73.9339 70.9532 70.3639C70.9532 66.8089 69.5132 64.7089 66.9782 64.7239C64.4882 64.7389 63.0182 66.7789 63.0182 70.3639ZM64.3832 70.3639C64.3832 67.7239 65.1782 65.9839 66.9782 65.9839C68.5382 65.9839 69.5882 67.3189 69.5882 70.3639C69.5882 72.9739 68.7782 74.7439 66.9782 74.7439C65.4182 74.7439 64.3832 73.3789 64.3832 70.3639Z" fill="#5D6282"></path><path d="M52.115 20.5742H53.435V9.69922H52.685L49.25 11.1842V12.4292L52.115 11.1542V20.5742ZM55.3307 20.5742H62.4407V19.3592H58.2557C57.7007 19.3592 57.1007 19.3892 56.8007 19.4192C56.9657 18.2792 57.6707 17.7692 59.4407 16.5242C61.4807 15.0842 62.2307 14.0192 62.2307 12.5942C62.2307 10.7192 60.8657 9.54922 58.8257 9.54922C56.7557 9.54922 55.3007 10.8692 55.2557 12.8492L56.5907 13.0292C56.5307 11.6942 57.4307 10.7792 58.7507 10.7792C60.1457 10.7792 60.8357 11.5892 60.8357 12.6992C60.8357 13.9292 59.8457 14.7392 58.6157 15.6242C56.5157 17.1692 55.3307 17.9942 55.3307 20.0942V20.5742ZM64.8028 17.1242L63.4828 17.3792C63.6178 19.3142 65.1328 20.6942 67.2328 20.6942C69.4528 20.6942 71.0128 19.2092 71.0128 17.0492C71.0128 15.0092 69.5878 13.4942 67.4428 13.4942C66.6328 13.4942 65.8828 13.7492 65.3428 14.1842L65.7028 10.8992H70.7428V9.69922H64.5778L63.9178 15.4742L65.0428 15.6392C65.5378 14.9942 66.3178 14.6192 67.2328 14.6192C68.6878 14.6192 69.6628 15.5792 69.6628 17.0192C69.6628 18.4742 68.6878 19.4492 67.2478 19.4492C65.8378 19.4492 64.8478 18.5492 64.8028 17.1242Z" fill="#5D6282"></path><path d="M291.488 242.21C216.417 261.266 132.684 273.73 100.201 277.58V289.058H674.784V9.77832C614.15 75.4655 570.883 98.1001 477.722 131.047C418.532 151.98 385.327 218.389 291.488 242.21Z" fill="url(#paint0_linear_1241_3305)"></path><path opacity="0.5" d="M674.783 289.058L99.8283 289.058" stroke="#ADAFC4"></path><path opacity="0.5" d="M674.783 234.075L99.8283 234.075" stroke="#ADAFC4"></path><path opacity="0.5" d="M674.783 179.092L99.8283 179.092" stroke="#ADAFC4"></path><path opacity="0.5" d="M674.783 124.109L99.8283 124.109" stroke="#ADAFC4"></path><path opacity="0.5" d="M674.783 69.126L99.8283 69.126" stroke="#ADAFC4"></path><path d="M291.488 241.604L291.734 242.574L291.488 241.604ZM477.722 130.442L478.056 131.385L477.722 130.442ZM682.279 1.17744C682.248 0.626006 681.776 0.203815 681.225 0.23445L672.239 0.73368C671.687 0.764315 671.265 1.23618 671.296 1.78761C671.327 2.33905 671.798 2.76124 672.35 2.7306L680.338 2.28684L680.781 10.2745C680.812 10.826 681.284 11.2481 681.835 11.2175C682.387 11.1869 682.809 10.715 682.778 10.1636L682.279 1.17744ZM100.319 277.967C132.829 274.114 216.608 261.644 291.734 242.574L291.242 240.635C216.226 259.677 132.539 272.135 100.083 275.981L100.319 277.967ZM291.734 242.574C338.86 230.611 370.754 207.95 398.228 185.718C425.751 163.446 448.669 141.777 478.056 131.385L477.389 129.499C447.585 140.039 424.306 162.042 396.969 184.163C369.584 206.324 337.956 228.777 291.242 240.635L291.734 242.574ZM478.056 131.385C524.618 114.918 557.197 103.157 587.338 85.1999C617.499 67.2308 645.176 43.0851 682.026 1.8997L680.535 0.566115C643.758 41.6702 616.236 65.6554 586.315 83.4817C556.374 101.32 523.988 113.019 477.389 129.499L478.056 131.385Z" fill="url(#paint1_linear_1241_3305)"></path><path opacity="0.5" d="M674.783 14.1431L99.8283 14.1431" stroke="#ADAFC4"></path><path d="M99.8277 283.913C103.826 283.913 107.067 280.671 107.067 276.673C107.067 272.674 103.826 269.433 99.8277 269.433C95.8292 269.433 92.5879 272.674 92.5879 276.673C92.5879 280.671 95.8292 283.913 99.8277 283.913Z" fill="white" stroke="#2E56FF" stroke-width="7" stroke-miterlimit="10"></path><path d="M193.607 269.433C197.605 269.433 200.847 266.192 200.847 262.193C200.847 258.195 197.605 254.954 193.607 254.954C189.609 254.954 186.367 258.195 186.367 262.193C186.367 266.192 189.609 269.433 193.607 269.433Z" fill="white" stroke="#2E56FF" stroke-width="7" stroke-miterlimit="10"></path><path d="M289.826 248.554C293.824 248.554 297.065 245.313 297.065 241.314C297.065 237.316 293.824 234.075 289.826 234.075C285.827 234.075 282.586 237.316 282.586 241.314C282.586 245.313 285.827 248.554 289.826 248.554Z" fill="white" stroke="#2E56FF" stroke-width="7" stroke-miterlimit="10"></path><path d="M388.595 193.227C387.56 189.364 383.59 187.072 379.728 188.107C375.866 189.142 373.574 193.112 374.609 196.974C375.643 200.836 379.613 203.128 383.476 202.093C387.338 201.059 389.63 197.089 388.595 193.227Z" fill="white" stroke="#2E56FF" stroke-width="7" stroke-miterlimit="10"></path><path d="M481.217 125.478C479.217 122.015 474.79 120.829 471.327 122.828C467.864 124.827 466.678 129.255 468.677 132.717C470.676 136.18 475.104 137.367 478.567 135.367C482.029 133.368 483.216 128.94 481.217 125.478Z" fill="white" stroke="#2E56FF" stroke-width="7" stroke-miterlimit="10"></path><path d="M574.994 89.2531C572.995 85.7904 568.567 84.604 565.104 86.6032C561.642 88.6024 560.455 93.0301 562.454 96.4929C564.454 99.9556 568.881 101.142 572.344 99.1428C575.807 97.1436 576.993 92.7158 574.994 89.2531Z" fill="white" stroke="#2E56FF" stroke-width="7" stroke-miterlimit="10"></path><path d="M668.336 19.5539C666.337 16.0912 661.909 14.9047 658.446 16.9039C654.983 18.9031 653.797 23.3309 655.796 26.7937C657.795 30.2564 662.223 31.4428 665.686 29.4436C669.149 27.4444 670.335 23.0166 668.336 19.5539Z" fill="white" stroke="#2E56FF" stroke-width="7" stroke-miterlimit="10"></path><path opacity="0.34" d="M23.8926 174.367L22.6926 174.367L22.6926 179.962L18.8676 179.962L18.8676 175.072L17.7426 175.072L17.7426 179.962L14.2026 179.962L14.2026 174.412L13.0176 174.412L13.0176 181.297L23.8926 181.297L23.8926 174.367ZM23.8926 172.987L23.8926 171.682L20.0526 171.682C18.4476 171.682 17.5776 170.842 17.5776 169.657C17.5776 168.502 18.2826 168.007 19.6926 168.007L23.8926 168.007L23.8926 166.717L20.0526 166.717C18.4476 166.717 17.5776 165.877 17.5776 164.677C17.5776 163.507 18.3126 163.042 19.6926 163.042L23.8926 163.042L23.8926 161.737L19.4076 161.737C17.4126 161.737 16.4076 162.712 16.4076 164.362C16.4076 165.517 16.9926 166.507 18.0876 166.912C16.9626 167.272 16.4076 168.112 16.4076 169.342C16.4076 170.407 16.9326 171.352 17.8176 171.727L16.6026 171.832L16.6026 172.987L23.8926 172.987ZM26.9676 160.304L26.9676 159.014L22.6326 159.014C23.5776 158.519 24.0876 157.529 24.0876 156.404C24.0876 154.289 22.4526 153.029 20.2476 153.029C18.0426 153.029 16.4076 154.289 16.4076 156.404C16.4076 157.589 16.9776 158.609 18.0126 159.089L16.6026 159.194L16.6026 160.304L26.9676 160.304ZM22.9476 156.659C22.9476 158.144 21.8226 158.969 20.2476 158.969C18.6726 158.969 17.5626 158.144 17.5626 156.659C17.5626 155.174 18.6726 154.349 20.2476 154.349C21.8226 154.349 22.9476 155.174 22.9476 156.659ZM23.8926 150.564L13.0176 150.564L13.0176 151.854L23.8926 151.854L23.8926 150.564ZM20.2476 149.392C22.4226 149.392 24.0876 147.862 24.0876 145.552C24.0876 143.227 22.4226 141.697 20.2476 141.697C18.0726 141.697 16.4076 143.227 16.4076 145.552C16.4076 147.862 18.0726 149.392 20.2476 149.392ZM20.2476 148.072C18.7176 148.072 17.5626 147.097 17.5626 145.552C17.5626 143.992 18.7176 143.032 20.2476 143.032C21.7776 143.032 22.9326 143.992 22.9326 145.552C22.9326 147.097 21.7776 148.072 20.2476 148.072ZM27.1026 140.558C27.1026 139.403 26.6976 138.503 25.1376 137.783L16.6026 133.883L16.6026 135.293L22.1226 137.678L16.6026 140.063L16.6026 141.503L23.3526 138.383L24.6126 138.938C25.5876 139.358 25.9776 139.928 25.9776 140.723C25.9776 141.113 25.9026 141.488 25.7526 141.668L26.8476 141.668C27.0126 141.488 27.1026 141.023 27.1026 140.558ZM20.2776 133.489C22.5876 133.489 24.0876 131.959 24.0876 129.754C24.0876 128.239 23.3226 126.934 22.1076 126.469L21.6426 127.519C22.4526 127.834 22.9926 128.734 22.9926 129.724C22.9926 131.209 22.1676 132.109 20.5476 132.184L20.5476 126.289C20.3976 126.259 20.1726 126.229 19.9176 126.229C17.8176 126.229 16.4076 127.669 16.4076 129.799C16.4076 132.034 18.0126 133.489 20.2776 133.489ZM19.6776 132.169C18.3426 132.019 17.5176 131.104 17.5176 129.844C17.5176 128.494 18.3576 127.564 19.6776 127.504L19.6776 132.169ZM20.2776 125.494C22.5876 125.494 24.0876 123.964 24.0876 121.759C24.0876 120.244 23.3226 118.939 22.1076 118.474L21.6426 119.524C22.4526 119.839 22.9926 120.739 22.9926 121.729C22.9926 123.214 22.1676 124.114 20.5476 124.189L20.5476 118.294C20.3976 118.264 20.1726 118.234 19.9176 118.234C17.8176 118.234 16.4076 119.674 16.4076 121.804C16.4076 124.039 18.0126 125.494 20.2776 125.494ZM19.6776 124.174C18.3426 124.024 17.5176 123.109 17.5176 121.849C17.5176 120.499 18.3576 119.569 19.6776 119.509L19.6776 124.174ZM18.4476 113.965C21.8076 113.965 24.0426 111.79 24.0426 108.64C24.0426 106.42 22.9476 104.545 21.0426 103.84L20.5926 105.16C21.9276 105.67 22.7976 106.96 22.7976 108.655C22.7976 110.935 21.0726 112.54 18.4476 112.54C15.8226 112.54 14.1126 110.935 14.1126 108.655C14.1126 106.99 14.9826 105.625 16.5126 105.145L16.0626 103.81C14.1126 104.455 12.8526 106.33 12.8526 108.67C12.8526 111.79 15.0726 113.965 18.4476 113.965ZM20.2476 102.944C22.4226 102.944 24.0876 101.414 24.0876 99.1043C24.0876 96.7793 22.4226 95.2493 20.2476 95.2493C18.0726 95.2493 16.4076 96.7793 16.4076 99.1043C16.4076 101.414 18.0726 102.944 20.2476 102.944ZM20.2476 101.624C18.7176 101.624 17.5626 100.649 17.5626 99.1043C17.5626 97.5443 18.7176 96.5843 20.2476 96.5843C21.7776 96.5843 22.9326 97.5443 22.9326 99.1043C22.9326 100.649 21.7776 101.624 20.2476 101.624ZM21.0876 94.2987C23.1726 94.2987 24.0876 93.0237 24.0876 91.5387C24.0876 90.4137 23.5776 89.5137 22.7976 89.1537C23.1726 89.1237 23.5476 89.0937 23.8926 89.0187L23.8926 87.7737C23.5926 87.8487 23.0076 87.9087 22.4226 87.9087L16.6026 87.9087L16.6026 89.1987L20.7276 89.1987C21.9426 89.1987 22.9176 89.8887 22.9176 91.1937C22.9176 92.1537 22.3776 93.0087 20.9226 93.0087L16.6026 93.0087L16.6026 94.2987L21.0876 94.2987ZM23.8926 86.3297L23.8926 85.0397L20.0526 85.0397C18.4776 85.0397 17.5776 84.1697 17.5776 82.9397C17.5776 81.7097 18.3276 81.2297 19.7076 81.2297L23.8926 81.2297L23.8926 79.9397L19.3926 79.9397C17.4276 79.9397 16.4076 80.9147 16.4076 82.6247C16.4076 83.7197 16.9176 84.7097 17.8026 85.0847L16.6026 85.1897L16.6026 86.3297L23.8926 86.3297ZM23.8926 77.0679L23.8926 75.7779L17.7126 75.7779L17.7126 73.8129L16.6026 73.8129L16.6026 75.7779L14.3676 75.7779L14.3676 77.0679L16.6026 77.0679L16.6026 79.1229L17.7126 79.1229L17.7126 77.0679L23.8926 77.0679Z" fill="black"></path><path opacity="0.34" d="M334.373 391.055H335.678V381.755L339.488 390.905H340.553L344.348 381.755V391.055H345.668V380.18H343.688L340.058 388.91L336.383 380.18H334.373V391.055ZM347.112 387.41C347.112 389.585 348.642 391.25 350.952 391.25C353.277 391.25 354.807 389.585 354.807 387.41C354.807 385.235 353.277 383.57 350.952 383.57C348.642 383.57 347.112 385.235 347.112 387.41ZM348.432 387.41C348.432 385.88 349.407 384.725 350.952 384.725C352.512 384.725 353.472 385.88 353.472 387.41C353.472 388.94 352.512 390.095 350.952 390.095C349.407 390.095 348.432 388.94 348.432 387.41ZM355.952 391.055H357.242V387.215C357.242 385.64 358.112 384.74 359.342 384.74C360.572 384.74 361.052 385.49 361.052 386.87V391.055H362.342V386.555C362.342 384.59 361.367 383.57 359.657 383.57C358.562 383.57 357.572 384.08 357.197 384.965L357.092 383.765H355.952V391.055ZM365.213 391.055H366.503V384.875H368.468V383.765H366.503V381.53H365.213V383.765H363.158V384.875H365.213V391.055ZM369.496 391.055H370.786V387.215C370.786 385.64 371.656 384.74 372.886 384.74C374.116 384.74 374.596 385.49 374.596 386.87V391.055H375.886V386.555C375.886 384.59 374.911 383.57 373.201 383.57C372.136 383.57 371.176 384.05 370.786 384.905V380.18H369.496V391.055ZM382.708 391.25C383.938 391.25 384.973 390.65 385.288 389.915C385.303 390.365 385.348 390.785 385.408 391.055H386.638C386.548 390.8 386.488 390.065 386.488 389.525V386.165C386.488 384.35 385.273 383.57 383.533 383.57C381.958 383.57 380.683 384.29 380.398 385.61L381.568 385.88C381.688 385.13 382.423 384.635 383.488 384.635C384.508 384.635 385.198 385.145 385.198 386.075V386.81H383.278C381.403 386.81 380.143 387.56 380.143 389.12C380.143 390.395 381.133 391.25 382.708 391.25ZM383.038 390.305C382.018 390.305 381.448 389.795 381.448 389.015C381.448 388.1 382.123 387.65 383.413 387.65H385.198V388.55C385.198 389.6 384.298 390.305 383.038 390.305ZM387.958 391.055H389.248V387.215C389.248 385.64 390.118 384.74 391.348 384.74C392.578 384.74 393.058 385.49 393.058 386.87V391.055H394.348V386.555C394.348 384.59 393.373 383.57 391.663 383.57C390.568 383.57 389.578 384.08 389.203 384.965L389.098 383.765H387.958V391.055ZM398.748 391.25C399.963 391.25 400.983 390.695 401.448 389.66C401.448 390.14 401.493 390.56 401.553 391.055H402.843C402.753 390.695 402.678 389.825 402.678 389.135V380.18H401.388V385.085C400.923 384.095 399.933 383.57 398.778 383.57C396.648 383.57 395.373 385.205 395.373 387.41C395.373 389.615 396.633 391.25 398.748 391.25ZM399.003 390.11C397.518 390.11 396.708 388.985 396.708 387.41C396.708 385.85 397.518 384.725 399.003 384.725C400.503 384.725 401.313 385.85 401.313 387.41C401.313 388.985 400.503 390.11 399.003 390.11ZM411.179 386.255V391.055H412.514V386.255L416.444 380.18H414.914L411.854 384.98L408.779 380.18H407.234L411.179 386.255ZM415.872 387.44C415.872 389.75 417.402 391.25 419.607 391.25C421.122 391.25 422.427 390.485 422.892 389.27L421.842 388.805C421.527 389.615 420.627 390.155 419.637 390.155C418.152 390.155 417.252 389.33 417.177 387.71H423.072C423.102 387.56 423.132 387.335 423.132 387.08C423.132 384.98 421.692 383.57 419.562 383.57C417.327 383.57 415.872 385.175 415.872 387.44ZM417.192 386.84C417.342 385.505 418.257 384.68 419.517 384.68C420.867 384.68 421.797 385.52 421.857 386.84H417.192ZM426.373 391.25C427.603 391.25 428.638 390.65 428.953 389.915C428.968 390.365 429.013 390.785 429.073 391.055H430.303C430.213 390.8 430.153 390.065 430.153 389.525V386.165C430.153 384.35 428.938 383.57 427.198 383.57C425.623 383.57 424.348 384.29 424.063 385.61L425.233 385.88C425.353 385.13 426.088 384.635 427.153 384.635C428.173 384.635 428.863 385.145 428.863 386.075V386.81H426.943C425.068 386.81 423.808 387.56 423.808 389.12C423.808 390.395 424.798 391.25 426.373 391.25ZM426.703 390.305C425.683 390.305 425.113 389.795 425.113 389.015C425.113 388.1 425.788 387.65 427.078 387.65H428.863V388.55C428.863 389.6 427.963 390.305 426.703 390.305ZM432.912 391.055V386.9C432.912 385.655 433.647 384.83 434.862 384.83C435.132 384.83 435.372 384.86 435.537 384.95V383.705C435.387 383.63 435.192 383.585 434.862 383.585C434.052 383.585 433.212 384.02 432.867 384.875L432.807 383.765H431.622V391.055H432.912Z" fill="black"></path><defs><linearGradient id="paint0_linear_1241_3305" x1="-1.54787" y1="9.77832" x2="789.129" y2="74.8764" gradientUnits="userSpaceOnUse"><stop stop-color="#112EFF"></stop><stop offset="0.595037" stop-color="#08EEFF"></stop><stop offset="0.973958" stop-color="#B8FD8E"></stop></linearGradient><linearGradient id="paint1_linear_1241_3305" x1="290.868" y1="1.23291" x2="288.361" y2="276.841" gradientUnits="userSpaceOnUse"><stop stop-color="#112EFF"></stop><stop offset="0.911458" stop-color="#08EEFF"></stop></linearGradient></defs></svg> 