<?xml version="1.0" encoding="UTF-8"?> <svg xmlns="http://www.w3.org/2000/svg" width="49" height="49" viewBox="0 0 49 49" fill="none"><path d="M49.0001 15.4073V14.9286C48.9819 14.9085 48.9714 14.8874 48.9637 14.8654C48.7891 14.5361 48.8217 14.156 48.7344 13.8057C47.8989 10.4311 44.9051 8.05689 41.4298 8.04253C39.6907 8.03487 37.9516 8.03775 36.2125 8.04541C35.9468 8.04636 35.8048 8.02051 35.729 7.69885C35.6082 7.18572 35.2235 6.82864 34.6988 6.75301C34.3247 6.69844 34.3017 6.52899 34.3074 6.22935C34.3237 5.38594 34.3228 4.54158 34.3113 3.69817C34.2854 1.83329 33.1084 0.432713 31.2772 0.0679705C31.2369 0.0603118 31.2024 0.0229759 31.164 0H17.6454C17.3413 0.121581 17.0267 0.224015 16.7331 0.368572C15.4554 1.00041 14.7322 2.02475 14.6669 3.45405C14.6238 4.39223 14.6497 5.33424 14.6545 6.2753C14.6554 6.52995 14.6621 6.69078 14.3082 6.73865C13.7499 6.81428 13.3441 7.17328 13.207 7.73523C13.137 8.02434 12.9902 8.04828 12.7446 8.04636C11.0516 8.03775 9.3585 8.04062 7.66544 8.04158C3.33158 8.04541 0.00492867 11.3664 0.00301019 15.7069C-0.00178602 24.6972 0.000132462 33.6885 0.00205095 42.6787C0.00205095 45.8236 1.99823 48.2638 5.0774 48.9004C5.15318 48.9158 5.23951 48.9052 5.275 48.999H43.5353C43.5593 48.9761 43.5862 48.956 43.6169 48.955C43.6591 48.9531 43.7003 48.9512 43.7416 48.9483C43.991 48.888 44.2413 48.8315 44.484 48.753C46.9541 47.9556 48.4073 46.2659 48.8908 43.7299C48.91 43.6322 48.8495 43.4963 49.0011 43.4484V43.0655C48.816 42.9554 48.91 42.7764 48.91 42.6347C48.9052 33.7028 48.9052 24.7719 48.91 15.84C48.91 15.6973 48.8198 15.5183 49.0011 15.4073H49.0001ZM9.79687 46.1376C8.61508 46.1079 7.43234 46.1328 6.25055 46.1261C4.3148 46.1136 2.8817 44.7016 2.88074 42.7764C2.87498 33.7354 2.87306 24.6943 2.88074 15.6533C2.88361 12.946 4.9316 10.926 7.64817 10.9126C8.39926 10.9088 9.15034 10.9308 9.90047 10.904C10.2458 10.8915 10.3149 11.0055 10.3139 11.33C10.3024 15.3001 10.3062 19.2711 10.3062 23.2411V28.5505C10.3062 34.2428 10.3005 39.935 10.3177 45.6273C10.3187 46.0572 10.2045 46.1472 9.79591 46.1366L9.79687 46.1376ZM17.5293 3.77188C17.5341 3.1343 17.7922 2.87295 18.431 2.87199C20.4425 2.8672 22.455 2.87008 24.4666 2.87008C26.4464 2.87008 28.4263 2.86912 30.4062 2.87008C31.1928 2.87008 31.4345 3.11324 31.4364 3.89729C31.4383 4.71007 31.4297 5.52284 31.4412 6.33561C31.445 6.57303 31.4153 6.68504 31.1295 6.72812C30.5491 6.81428 30.1386 7.1637 29.988 7.7448C29.9227 7.99562 29.8105 8.04828 29.5649 8.04828C26.1798 8.0387 22.7946 8.04062 19.4094 8.04541C19.1706 8.04541 19.0267 8.03679 18.9538 7.73044C18.8224 7.17519 18.4128 6.82959 17.8507 6.7329C17.5917 6.68887 17.5149 6.61515 17.5207 6.3538C17.538 5.49316 17.5226 4.63252 17.5284 3.77188H17.5293ZM35.2024 46.1385C28.0282 46.1232 20.855 46.1251 13.6808 46.1366C13.2991 46.1366 13.1744 46.0706 13.1744 45.6551C13.1868 34.237 13.1868 22.8199 13.1753 11.4018C13.1753 11.0093 13.2607 10.9002 13.6665 10.9021H34.5242V10.9117C34.8369 10.9107 35.1487 10.9088 35.4614 10.9059C35.7309 10.904 35.7866 11.0016 35.7683 11.2371C35.7511 11.4592 35.7645 11.6833 35.7645 11.9063C35.7645 23.1329 35.7607 34.3595 35.777 45.5852C35.777 46.0648 35.6427 46.1385 35.2014 46.1376L35.2024 46.1385ZM46.0658 42.5801C46.0658 44.2765 45.2428 45.4856 43.7867 45.9624C43.4346 46.0773 43.0749 46.1299 42.7037 46.129C41.4893 46.1261 40.2749 46.1079 39.0614 46.1395C38.671 46.15 38.6355 46.0103 38.6365 45.6829C38.6461 39.958 38.6432 34.2341 38.6432 28.5093C38.6432 22.7845 38.6499 17.1238 38.6317 11.4315C38.6298 10.9768 38.7669 10.881 39.1832 10.905C40.1857 10.9643 41.1957 10.8293 42.1962 10.993C44.3056 11.3367 45.9248 13.1336 46.0476 15.2656C46.0581 15.4561 46.0677 15.6476 46.0677 15.839C46.0677 24.7527 46.0696 33.6664 46.0677 42.5801H46.0658Z" fill="#2E56FF"></path></svg> 