<?xml version="1.0" encoding="UTF-8"?> <svg xmlns="http://www.w3.org/2000/svg" width="54" height="55" viewBox="0 0 54 55" fill="none"><path d="M53.9931 52.8712C54.0206 52.3429 53.8696 51.89 53.554 51.5538C53.1903 51.1696 52.6414 50.9706 51.969 50.9706H48.1609C33.5733 50.9706 18.9857 50.9706 4.3982 50.9843C4.07571 50.9843 3.86987 50.9569 3.71892 50.799C3.58855 50.6687 3.53365 50.4697 3.53365 50.1403C3.54737 36.7467 3.54738 23.3599 3.54738 9.96627V2.69305C3.54738 2.53524 3.54738 2.38429 3.54738 2.22648C3.47191 1.23156 2.73088 0.538574 1.76341 0.538574C1.7291 0.538574 1.69478 0.538574 1.66047 0.538574C0.644969 0.593466 0.0205627 1.37566 0.0205627 2.58329V13.7058C0.0205627 26.3653 0.0205845 39.457 0 52.3292C0 53.0084 0.19896 53.5642 0.576342 53.9416C0.953725 54.319 1.50952 54.518 2.17508 54.518H2.19569C8.36417 54.4837 14.6287 54.4905 20.6943 54.4905C22.7939 54.4905 24.8867 54.4905 26.9863 54.4905H51.9278C52.0925 54.4905 52.2571 54.4905 52.4218 54.4837C53.2658 54.4151 53.9588 53.7015 54 52.8575L53.9931 52.8712Z" fill="#0B44E9"></path><path d="M53.7873 14.1659C53.4785 13.5003 52.8335 13.1024 52.0925 13.1504C51.5436 13.1778 51.1456 13.4729 50.7065 13.912L44.3116 20.3069C40.0506 24.5679 35.7827 28.8358 31.5286 33.1105C31.309 33.33 31.1512 33.4741 30.9179 33.4604C30.6915 33.4604 30.4993 33.2751 30.3415 33.1036C28.3105 30.8324 26.2246 28.5476 24.2074 26.3313L22.6155 24.5816C22.1901 24.115 21.7098 23.8543 21.2226 23.8337C21.202 23.8337 21.1746 23.8337 21.154 23.8337C20.7149 23.8337 20.2757 24.0258 19.8846 24.3895C17.7164 26.3725 15.555 28.3555 13.3868 30.3384C11.74 31.848 10.0933 33.3575 8.44651 34.8601C8.03482 35.2307 7.82213 35.6081 7.7741 36.0335C7.6849 36.802 8.03482 37.4744 8.70038 37.8243C9.40712 38.1948 10.1481 38.0782 10.7863 37.5018L11.0882 37.2205C14.1827 34.3936 17.387 31.4706 20.5159 28.575C20.6668 28.4309 20.8315 28.2868 21.0373 28.3143C21.2363 28.3211 21.3942 28.4789 21.5383 28.6368C23.1027 30.3727 24.6671 32.095 26.2384 33.824C27.2745 34.9631 28.3174 36.1089 29.3535 37.2548C29.8475 37.7969 30.2867 38.0301 30.8287 38.0301C30.8424 38.0301 30.8562 38.0301 30.8767 38.0301C31.3845 38.0301 31.8099 37.8175 32.304 37.3234C36.9286 32.6919 41.5532 28.0673 46.1779 23.4426L51.5298 18.0906C52.1611 17.4594 52.8198 16.8075 53.4511 16.1557C54 15.5862 54.1235 14.8795 53.7873 14.1727V14.1659Z" fill="#0B44E9"></path></svg> 