<?xml version="1.0" encoding="UTF-8"?> <svg xmlns="http://www.w3.org/2000/svg" width="62" height="57" viewBox="0 0 62 57" fill="none"><path d="M29.7129 32.1291H7.08582C4.31413 32.1291 2.04639 29.8726 2.04639 27.1146V7.05651C2.04639 4.29853 4.31413 2.04199 7.08582 2.04199H39.7918C42.5635 2.04199 44.8312 4.29853 44.8312 7.05651V17.0856" stroke="#2E56FF" stroke-width="3" stroke-linecap="round" stroke-linejoin="round"></path><path d="M2.04639 9.56396H44.8312" stroke="#2E56FF" stroke-width="3" stroke-linecap="round" stroke-linejoin="round"></path><path d="M22.1538 14.5781H9.55518" stroke="#2E56FF" stroke-width="3" stroke-linecap="round" stroke-linejoin="round"></path><path d="M39.7918 14.5781H34.7523" stroke="#2E56FF" stroke-width="3" stroke-linecap="round" stroke-linejoin="round"></path><path d="M17.1143 19.5928H9.55518" stroke="#2E56FF" stroke-width="3" stroke-linecap="round" stroke-linejoin="round"></path><path d="M60 33.4829V39.7511H53.7007" stroke="#2E56FF" stroke-width="3" stroke-linecap="round" stroke-linejoin="round"></path><path d="M37.3226 52.288V47.2734H42.3621" stroke="#2E56FF" stroke-width="3" stroke-linecap="round" stroke-linejoin="round"></path><path d="M37.9775 39.7264C39.5398 35.3387 43.7477 32.2046 48.6611 32.2046C53.5746 32.2046 58.3369 35.2885 59.8991 39.6762" stroke="#2E56FF" stroke-width="3" stroke-linecap="round" stroke-linejoin="round"></path><path d="M59.345 47.2734C57.7828 51.6611 53.5748 54.7952 48.6614 54.7952C43.7479 54.7952 38.9353 51.7113 37.373 47.3236" stroke="#2E56FF" stroke-width="3" stroke-linecap="round" stroke-linejoin="round"></path></svg> 