<?xml version="1.0" encoding="UTF-8"?> <svg xmlns="http://www.w3.org/2000/svg" width="62" height="57" viewBox="0 0 62 57" fill="none"><path d="M29.3184 32.0979H6.69129C3.9196 32.0979 1.65186 29.8413 1.65186 27.0834V7.02526C1.65186 4.26728 3.9196 2.01074 6.69129 2.01074H39.3972C42.1689 2.01074 44.4367 4.26728 44.4367 7.02526V17.0543" stroke="#2E56FF" stroke-width="3" stroke-linecap="round" stroke-linejoin="round"></path><path d="M1.65186 9.53271H44.4367" stroke="#2E56FF" stroke-width="3" stroke-linecap="round" stroke-linejoin="round"></path><path d="M21.7592 14.5469H9.16064" stroke="#2E56FF" stroke-width="3" stroke-linecap="round" stroke-linejoin="round"></path><path d="M39.3972 14.5469H34.3578" stroke="#2E56FF" stroke-width="3" stroke-linecap="round" stroke-linejoin="round"></path><path d="M16.7198 19.5615H9.16064" stroke="#2E56FF" stroke-width="3" stroke-linecap="round" stroke-linejoin="round"></path><path d="M59.6054 33.4517V39.7198H53.3062" stroke="#2E56FF" stroke-width="3" stroke-linecap="round" stroke-linejoin="round"></path><path d="M36.9281 52.2567V47.2422H41.9675" stroke="#2E56FF" stroke-width="3" stroke-linecap="round" stroke-linejoin="round"></path><path d="M37.583 39.6951C39.1452 35.3074 43.3532 32.1733 48.2666 32.1733C53.1801 32.1733 57.9423 35.2573 59.5046 39.645" stroke="#2E56FF" stroke-width="3" stroke-linecap="round" stroke-linejoin="round"></path><path d="M58.9505 47.2422C57.3882 51.6299 53.1803 54.764 48.2669 54.764C43.3534 54.764 38.5407 51.68 36.9785 47.2923" stroke="#2E56FF" stroke-width="3" stroke-linecap="round" stroke-linejoin="round"></path></svg> 