<?xml version="1.0" encoding="UTF-8"?> <svg xmlns="http://www.w3.org/2000/svg" width="54" height="55" viewBox="0 0 54 55" fill="none"><path d="M52.3275 40.3846C48.7955 37.7302 45.2064 35.1615 41.6529 32.5428C39.8905 31.2442 38.3064 31.4796 36.8151 33.0209C35.6663 34.2125 34.4676 35.3613 33.3045 36.5386C32.0059 37.8444 30.6216 37.9871 29.0589 36.9667C24.4423 33.9413 20.6249 30.1239 17.5709 25.5287C16.5006 23.9161 16.6362 22.4391 18.0419 21.0762C19.1764 19.9773 20.2467 18.8143 21.3955 17.7368C23.0509 16.1813 23.215 14.5544 21.8522 12.7206C19.2692 9.23856 16.7504 5.70653 14.1459 2.23873C12.5333 0.0981042 10.7209 -0.0160764 8.76584 1.86767C6.72511 3.83704 4.71292 5.84923 2.73642 7.88996C-0.267589 10.9867 -0.817015 14.2405 1.1809 18.0294C9.27245 33.4062 21.0316 45.1439 36.3941 53.2711C37.6571 53.9347 38.9629 54.4699 40.2401 54.4342C42.502 54.4628 44.3572 53.8063 45.8485 52.422C48.2674 50.1601 50.6293 47.834 52.9126 45.4293C54.5537 43.7026 54.3183 41.883 52.3346 40.3917L52.3275 40.3846ZM49.7302 44.2877C47.8821 46.0002 46.1768 47.8625 44.3501 49.6036C42.3522 51.5016 40.3115 51.8227 37.8712 50.5383C23.1009 42.7393 11.777 31.4582 3.97798 16.6808C2.66506 14.1977 2.93621 12.1926 4.81996 10.1947C6.60381 8.30382 8.5375 6.55564 10.2999 4.64335C11.1847 3.68007 11.6057 3.97975 12.2336 4.85741C14.4385 7.92563 16.6647 10.9796 18.9481 13.9979C19.5546 14.8042 19.5046 15.3251 18.7911 15.9886C17.6922 17.0019 16.6362 18.0722 15.6087 19.1568C13.3824 21.5186 13.0542 24.2158 14.7738 26.9058C18.0847 32.0861 22.3659 36.3317 27.5248 39.6853C28.5309 40.3418 29.6084 40.7913 30.8428 40.7414C32.8978 40.8199 34.4176 39.8209 35.8162 38.4295C38.2517 36.013 40.8704 35.8322 43.6722 37.8872C45.6416 39.3286 47.5753 40.827 49.5946 42.197C50.6721 42.9319 50.6649 43.4243 49.7302 44.2948V44.2877Z" fill="#0C45E9"></path><path d="M31.2709 4.1723C32.1272 4.14376 33.0048 4.27933 33.8468 4.45771C42.6947 6.35573 48.5743 12.8632 49.8515 22.3034C50.0513 23.7519 50.4866 24.3155 52.0136 24.2157C53.5477 24.1158 52.9483 23.1097 53.0482 22.4461C52.67 11.5289 42.5306 1.45371 31.5278 0.982774C30.6787 0.947097 29.7368 0.683076 29.8296 2.13156C29.8938 3.15906 29.6512 4.23652 31.2781 4.1723H31.2709Z" fill="#0C45E9"></path><path d="M30.807 13.3844C36.4654 14.2763 39.7976 17.5657 40.6682 23.2455C40.9179 24.8795 42.1024 24.009 42.8659 24.1446C43.8077 24.3087 43.8363 23.6166 43.7221 22.9672C43.5509 16.8379 37.4786 10.6587 31.3493 10.359C30.7071 10.3304 29.7438 10.0022 29.8723 11.1938C29.9508 11.9716 29.1944 13.1204 30.8142 13.3773L30.807 13.3844Z" fill="#0C45E9"></path></svg> 