<?xml version="1.0" encoding="UTF-8"?> <svg xmlns="http://www.w3.org/2000/svg" width="44" height="46" viewBox="0 0 44 46" fill="none"><path d="M1.521 36.9395C1.52258 34.6147 2.10025 32.3266 3.20237 30.2796C4.30448 28.2326 5.89668 26.4907 7.8366 25.2095C9.77653 23.9283 12.0037 23.1479 14.319 22.9379C16.6343 22.7279 18.9656 23.0949 21.1043 24.0062" stroke="#2E56FF" stroke-width="3" stroke-linecap="square" stroke-linejoin="round"></path><path d="M15.5835 18.752C20.3297 18.752 24.1772 14.9044 24.1772 10.1582C24.1772 5.41201 20.3297 1.56445 15.5835 1.56445C10.8373 1.56445 6.98975 5.41201 6.98975 10.1582C6.98975 14.9044 10.8373 18.752 15.5835 18.752Z" stroke="#2E56FF" stroke-width="3" stroke-linecap="round" stroke-linejoin="round"></path><path d="M42 24.3076V43.8173" stroke="#2E56FF" stroke-width="3" stroke-linecap="square" stroke-linejoin="round"></path><path d="M42 40.5655H12C12 38.8408 12.6321 37.1866 13.7574 35.9671C14.8826 34.7475 16.4087 34.0623 18 34.0623H25.5C25.5 32.3375 26.1321 30.6834 27.2574 29.4638C28.3826 28.2442 29.9087 27.5591 31.5 27.5591H42" stroke="#2E56FF" stroke-width="3" stroke-linecap="square" stroke-linejoin="round"></path><path d="M26.2578 34.0625H32.0242" stroke="#2E56FF" stroke-width="3" stroke-linecap="square" stroke-linejoin="round"></path></svg> 