<?xml version="1.0" encoding="UTF-8"?> <svg xmlns="http://www.w3.org/2000/svg" width="44" height="51" viewBox="0 0 44 51" fill="none"><path d="M22 40V31.6132L15 25" stroke="#2E56FF" stroke-width="3" stroke-linecap="square" stroke-linejoin="round"></path><path d="M26 30L31 25" stroke="#2E56FF" stroke-width="3" stroke-linecap="square" stroke-linejoin="round"></path><path d="M13 28V23H18" stroke="#2E56FF" stroke-width="3" stroke-linecap="square" stroke-linejoin="round"></path><path d="M28 23H33V28" stroke="#2E56FF" stroke-width="3" stroke-linecap="square" stroke-linejoin="round"></path><path d="M14.7412 2.5625L23.912 8.67708L15.76 15.8104" stroke="#2E56FF" stroke-width="3" stroke-linecap="square" stroke-linejoin="round"></path><path d="M39.1411 39.9059C37.2543 42.9071 34.6172 45.3643 31.4904 47.0347C28.3636 48.7052 24.8552 49.5312 21.3115 49.4311C17.7679 49.3311 14.3116 48.3085 11.284 46.4643C8.25639 44.6201 5.76217 42.0181 4.04763 38.9153C2.33308 35.8124 1.45752 32.316 1.50739 28.7713C1.55726 25.2266 2.53084 21.7562 4.332 18.7028C6.13315 15.6494 8.69959 13.1186 11.7779 11.3603C14.8562 9.60202 18.3398 8.67706 21.8849 8.67676" stroke="#2E56FF" stroke-width="3" stroke-linecap="square" stroke-linejoin="round"></path><path d="M42.2662 29.0562C42.2674 30.7757 42.0518 32.4885 41.6245 34.1541" stroke="#2E56FF" stroke-width="3" stroke-linecap="square" stroke-linejoin="round"></path><path d="M39.1411 18.208C40.0714 19.6871 40.8066 21.2801 41.3286 22.9476" stroke="#2E56FF" stroke-width="3" stroke-linecap="square" stroke-linejoin="round"></path><path d="M31.3162 10.9854C32.6823 11.6989 33.9627 12.5656 35.1328 13.5687" stroke="#2E56FF" stroke-width="3" stroke-linecap="square" stroke-linejoin="round"></path></svg> 