<?xml version="1.0" encoding="UTF-8"?> <svg xmlns="http://www.w3.org/2000/svg" width="51" height="51" viewBox="0 0 51 51" fill="none"><path d="M38.8086 11.9083H11.8478V9.83435C11.8478 7.55304 13.7143 5.68652 15.9956 5.68652H34.6608C36.9421 5.68652 38.8086 7.55304 38.8086 9.83435V11.9083Z" stroke="#2E56FF" stroke-width="3" stroke-linejoin="round"></path><path d="M25.3282 25.3884C27.619 25.3884 29.4761 23.5314 29.4761 21.2406C29.4761 18.9498 27.619 17.0928 25.3282 17.0928C23.0375 17.0928 21.1804 18.9498 21.1804 21.2406C21.1804 23.5314 23.0375 25.3884 25.3282 25.3884Z" stroke="#2E56FF" stroke-width="3" stroke-linejoin="round"></path><path d="M32.587 28.4995H18.0696C18.0696 36.7952 20.1435 38.3713 22.2174 40.1756V49.2386H28.4391V40.1756C30.6375 38.3921 32.587 36.7952 32.587 28.4995Z" stroke="#2E56FF" stroke-width="3" stroke-linejoin="round"></path><path d="M38.8086 10.8711V50.2754" stroke="#2E56FF" stroke-width="3" stroke-linejoin="round"></path><path d="M11.8478 10.8711V50.2754" stroke="#2E56FF" stroke-width="3" stroke-linejoin="round"></path><path d="M42.9979 32.6475H49.1367" stroke="#2E56FF" stroke-width="3" stroke-linecap="round" stroke-linejoin="round"></path><path d="M42.9564 24.9941L48.4315 22.5469" stroke="#2E56FF" stroke-width="3" stroke-linecap="round" stroke-linejoin="round"></path><path d="M42.9564 40.2168L48.4315 42.664" stroke="#2E56FF" stroke-width="3" stroke-linecap="round" stroke-linejoin="round"></path><path d="M7.65855 32.6475H1.51978" stroke="#2E56FF" stroke-width="3" stroke-linecap="round" stroke-linejoin="round"></path><path d="M7.70009 24.9941L2.20422 22.5469" stroke="#2E56FF" stroke-width="3" stroke-linecap="round" stroke-linejoin="round"></path><path d="M7.70009 40.2168L2.20422 42.664" stroke="#2E56FF" stroke-width="3" stroke-linecap="round" stroke-linejoin="round"></path><path d="M28.439 1.53857H22.2173V5.6864H28.439V1.53857Z" stroke="#2E56FF" stroke-width="3" stroke-linejoin="round"></path></svg> 