<?xml version="1.0" encoding="UTF-8"?> <svg xmlns="http://www.w3.org/2000/svg" width="50" height="48" viewBox="0 0 50 48" fill="none"><path d="M28.9613 27.153L21.0013 24.3044V19.6577" stroke="#2E56FF" stroke-width="3" stroke-linejoin="round"></path><path d="M12.9201 19.9004V24.3046L4.96014 27.1533C3.06106 27.8402 1.80847 29.6382 1.80847 31.6585V34.6688H23.0216" stroke="#2E56FF" stroke-width="3" stroke-linejoin="round"></path><path d="M24.7388 11.5562C24.7388 16.8494 21.1629 21.1324 16.7586 21.1324C12.3544 21.1324 8.77844 16.8494 8.77844 11.5562C8.77844 6.26302 12.3544 1.97998 16.7586 1.97998C21.1629 1.97998 24.7388 6.26302 24.7388 11.5562V11.5562Z" stroke="#2E56FF" stroke-width="3" stroke-linejoin="round"></path><path d="M24.6783 10.687C24.4156 10.7274 24.1934 10.687 23.9308 10.7476C21.2236 11.2729 19.4659 10.2829 17.9709 7.67676C17.0819 9.39401 14.2737 10.7476 11.9706 10.7476C10.8392 10.7476 9.86946 10.5254 8.87952 10.0001" stroke="#2E56FF" stroke-width="3" stroke-linejoin="round"></path><path d="M34.1333 22.2841V19.6577" stroke="#2E56FF" stroke-width="3" stroke-linecap="round" stroke-linejoin="round"></path><path d="M29.8906 1.97998C34.2949 1.97998 37.8708 6.26302 37.8708 11.5562C37.8708 16.8494 34.2949 21.1324 29.8906 21.1324" stroke="#2E56FF" stroke-width="3" stroke-linecap="round" stroke-linejoin="round"></path><path d="M37.8103 10.687C37.5477 10.7274 37.3254 10.687 37.0628 10.7476C34.3556 11.2729 32.5979 10.2829 31.1029 7.67676" stroke="#2E56FF" stroke-width="3" stroke-linecap="round" stroke-linejoin="round"></path><path d="M47.7905 28.6875V33.7383H42.7397" stroke="#2E56FF" stroke-width="3" stroke-linecap="round" stroke-linejoin="round"></path><path d="M30.1129 33.7191C31.3655 30.1836 34.7394 27.6582 38.679 27.6582C42.6186 27.6582 46.4369 30.1432 47.6895 33.6787" stroke="#2E56FF" stroke-width="3" stroke-linecap="round" stroke-linejoin="round"></path><path d="M30.618 44.7705V39.7197H35.6688" stroke="#2E56FF" stroke-width="3" stroke-linecap="round" stroke-linejoin="round"></path><path d="M48.2755 39.7197C47.0229 43.2553 43.649 45.7806 39.7094 45.7806C35.7698 45.7806 31.9514 43.2957 30.6989 39.7601" stroke="#2E56FF" stroke-width="3" stroke-linecap="round" stroke-linejoin="round"></path></svg> 