<?xml version="1.0" encoding="UTF-8"?> <svg xmlns="http://www.w3.org/2000/svg" width="51" height="51" viewBox="0 0 51 51" fill="none"><path d="M1.88574 29.9717V48.7217" stroke="#2E56FF" stroke-width="3" stroke-linecap="square" stroke-linejoin="round"></path><path d="M1.88574 45.5967H33.1357C33.1357 43.9391 32.4773 42.3494 31.3052 41.1773C30.1331 40.0052 28.5433 39.3467 26.8857 39.3467H19.0732C19.0732 37.6891 18.4148 36.0994 17.2427 34.9273C16.0706 33.7552 14.4808 33.0967 12.8232 33.0967H1.88574" stroke="#2E56FF" stroke-width="3" stroke-linecap="square" stroke-linejoin="round"></path><path d="M12.8232 39.3467H19.0732" stroke="#2E56FF" stroke-width="3" stroke-linecap="square" stroke-linejoin="round"></path><path d="M37.467 32.2648C37.918 32.8583 38.5056 33.334 39.1799 33.6517C39.8542 33.9695 40.5951 34.1198 41.3399 34.0898C43.7107 34.0898 45.6357 32.6461 45.6357 30.8648C45.6357 29.0836 43.7107 27.644 41.3399 27.644C38.9691 27.644 37.042 26.2003 37.042 24.419C37.042 22.6378 38.967 21.1961 41.3399 21.1961C42.0839 21.1663 42.824 21.3164 43.4975 21.6338C44.171 21.9511 44.758 22.4263 45.2087 23.019" stroke="#2E56FF" stroke-width="3" stroke-linecap="square" stroke-linejoin="round"></path><path d="M41.3398 34.0898V36.2357" stroke="#2E56FF" stroke-width="3" stroke-linecap="square" stroke-linejoin="round"></path><path d="M41.3398 19.0488V21.1967" stroke="#2E56FF" stroke-width="3" stroke-linecap="square" stroke-linejoin="round"></path><path d="M31.5731 28.4238H23.4481C23.0728 28.4181 22.7024 28.3385 22.3579 28.1896C22.0134 28.0406 21.7016 27.8252 21.4404 27.5557C21.1792 27.2862 20.9737 26.9678 20.8356 26.6188C20.6975 26.2698 20.6296 25.897 20.6356 25.5217V11.0134C20.6239 10.2557 20.9136 9.52429 21.441 8.98008C21.9684 8.43587 22.6904 8.12339 23.4481 8.11133H45.9481C46.7059 8.12339 47.4278 8.43587 47.9552 8.98008C48.4826 9.52429 48.7723 10.2557 48.7606 11.0134V19.0488" stroke="#2E56FF" stroke-width="3" stroke-linecap="square" stroke-linejoin="round"></path><path d="M30.0107 8.11102V5.9631C30.0936 4.79954 30.6326 3.71578 31.5105 2.94758C32.3883 2.17937 33.534 1.78887 34.6982 1.86102V1.86102C35.8625 1.78887 37.0082 2.17937 37.886 2.94758C38.7639 3.71578 39.3028 4.79954 39.3857 5.9631V8.11102" stroke="#2E56FF" stroke-width="3" stroke-linecap="square" stroke-linejoin="round"></path></svg> 