<?xml version="1.0" encoding="UTF-8"?> <svg xmlns="http://www.w3.org/2000/svg" width="51" height="48" viewBox="0 0 51 48" fill="none"><path d="M11.4276 29.3623H3.98596V34.3234H11.4276V29.3623Z" stroke="#2E56FF" stroke-width="3" stroke-linecap="round" stroke-linejoin="round"></path><path d="M48.6359 19.4401L43.6748 14.479H6.46648L1.50537 19.4401V29.3623H22.4909" stroke="#2E56FF" stroke-width="3" stroke-linecap="round" stroke-linejoin="round"></path><path d="M38.7137 2.07617H11.4275L6.46643 14.479H43.6748L38.7137 2.07617Z" stroke="#2E56FF" stroke-width="3" stroke-linecap="round" stroke-linejoin="round"></path><path d="M1.50537 24.4009H12.6679" stroke="#2E56FF" stroke-width="3" stroke-linecap="round" stroke-linejoin="round"></path><path d="M43.6748 25.9878C41.6904 25.9878 39.9044 25.0948 38.7385 23.6064C37.5726 25.0948 35.7866 25.9878 33.8022 25.9878C32.0658 25.9878 30.4783 25.2684 28.8163 24.1274V38.8123C28.8163 38.8123 30.255 44.0462 38.7385 46.4276C47.222 44.0462 48.6607 38.8123 48.6607 38.8123V24.1274C47.0236 25.2684 45.436 25.9878 43.6996 25.9878H43.6748Z" stroke="#2E56FF" stroke-width="3" stroke-linecap="round" stroke-linejoin="round"></path><path d="M38.7137 38.9867V29.0645" stroke="#2E56FF" stroke-width="3" stroke-linecap="round" stroke-linejoin="round"></path><path d="M33.8022 34.0254H43.6749" stroke="#2E56FF" stroke-width="3" stroke-linecap="round" stroke-linejoin="round"></path></svg> 