<?xml version="1.0" encoding="UTF-8"?> <svg xmlns="http://www.w3.org/2000/svg" width="50" height="50" viewBox="0 0 50 50" fill="none"><path d="M1.51611 29.6875V48.4375" stroke="#2E56FF" stroke-width="3" stroke-linecap="square" stroke-linejoin="round"></path><path d="M1.51611 45.3125H32.7661C32.7661 43.6549 32.1076 42.0652 30.9355 40.8931C29.7634 39.721 28.1737 39.0625 26.5161 39.0625H18.7036C18.7036 37.4049 18.0451 35.8152 16.873 34.6431C15.7009 33.471 14.1112 32.8125 12.4536 32.8125H1.51611" stroke="#2E56FF" stroke-width="3" stroke-linecap="square" stroke-linejoin="round"></path><path d="M12.4536 39.0625H18.7036" stroke="#2E56FF" stroke-width="3" stroke-linecap="square" stroke-linejoin="round"></path><path d="M37.0974 31.9807C37.5484 32.5741 38.136 33.0498 38.8103 33.3676C39.4845 33.6853 40.2255 33.8356 40.9703 33.8057C43.3411 33.8057 45.2661 32.3619 45.2661 30.5807C45.2661 28.7994 43.3411 27.3598 40.9703 27.3598C38.5994 27.3598 36.6724 25.9161 36.6724 24.1348C36.6724 22.3536 38.5974 20.9119 40.9703 20.9119C41.7142 20.8821 42.4544 21.0322 43.1279 21.3496C43.8014 21.6669 44.3884 22.1421 44.839 22.7348" stroke="#2E56FF" stroke-width="3" stroke-linecap="square" stroke-linejoin="round"></path><path d="M40.9702 33.8057V35.9515" stroke="#2E56FF" stroke-width="3" stroke-linecap="square" stroke-linejoin="round"></path><path d="M40.9702 18.7646V20.9126" stroke="#2E56FF" stroke-width="3" stroke-linecap="square" stroke-linejoin="round"></path><path d="M31.2035 28.1396H23.0785C22.7032 28.1339 22.3327 28.0543 21.9882 27.9054C21.6438 27.7564 21.332 27.541 21.0708 27.2715C20.8096 27.002 20.6041 26.6836 20.466 26.3346C20.3279 25.9856 20.2599 25.6128 20.266 25.2376V10.7292C20.2543 9.97148 20.544 9.24011 21.0714 8.6959C21.5988 8.1517 22.3208 7.83921 23.0785 7.82715H45.5785C46.3362 7.83921 47.0582 8.1517 47.5856 8.6959C48.113 9.24011 48.4027 9.97148 48.391 10.7292V18.7646" stroke="#2E56FF" stroke-width="3" stroke-linecap="square" stroke-linejoin="round"></path><path d="M29.6411 7.82684V5.67892C29.724 4.51536 30.263 3.4316 31.1408 2.6634C32.0187 1.89519 33.1643 1.50469 34.3286 1.57684V1.57684C35.4929 1.50469 36.6386 1.89519 37.5164 2.6634C38.3942 3.4316 38.9332 4.51536 39.0161 5.67892V7.82684" stroke="#2E56FF" stroke-width="3" stroke-linecap="square" stroke-linejoin="round"></path></svg> 