<?xml version="1.0" encoding="UTF-8"?> <svg xmlns="http://www.w3.org/2000/svg" width="55" height="52" viewBox="0 0 55 52" fill="none"><path d="M18.0813 30.481C24.8579 30.5824 31.6411 30.5351 38.4176 30.5081C41.0053 30.5013 42.2349 29.4744 42.2552 27.0759C42.316 19.3467 42.3025 11.6176 42.2552 3.88848C42.2417 1.72648 41.0728 0.54413 38.8433 0.54413C27.1009 0.54413 15.3518 0.523861 3.60946 0.564398C1.3799 0.571154 0.31918 1.7062 0.305667 3.98306C0.26513 11.7122 0.292142 19.4413 0.292142 27.1705C0.292142 28.9001 1.17046 29.9608 2.79196 30.4608C3.93376 30.8121 5.58905 29.7987 6.19711 31.1364C6.67681 32.1836 6.31196 33.6159 6.33222 34.8794C6.33222 35.2577 6.37951 35.6293 6.43356 36.386C8.80501 34.805 10.8859 33.5349 12.8317 32.0823C14.4262 30.8932 16.0882 30.454 18.0746 30.481H18.0813ZM9.31173 30.4337C10.1022 27.1097 7.91319 27.2718 5.812 27.5421C3.6973 27.8191 3.15679 27.0218 3.20408 24.9409C3.34596 18.563 3.30542 12.1716 3.22435 5.79372C3.20408 4.15196 3.45406 3.46283 5.35932 3.4831C15.9937 3.58444 26.628 3.56417 37.2623 3.49661C38.8162 3.48985 39.2419 3.92225 39.2216 5.46267C39.1405 12.1581 39.1405 18.8603 39.2216 25.5557C39.2419 27.1299 38.7622 27.5623 37.2285 27.5421C30.8506 27.4678 24.466 27.6029 18.0881 27.4678C15.5342 27.4137 13.2844 27.7785 11.3116 29.4946C10.8251 29.9203 10.2981 30.4946 9.31173 30.427V30.4337Z" fill="#0C45E9"></path><path d="M46.6941 15.4623C46.613 15.4623 46.5319 15.4691 46.4576 15.4623C45.3023 15.3137 45.2145 16.0163 45.2145 16.9149C45.2145 17.8675 45.2212 18.6648 46.5387 18.5499C47.3967 18.4756 48.2818 18.6175 49.1398 18.5229C50.7613 18.3405 51.3153 18.908 51.2951 20.6038C51.2005 26.9952 51.1599 33.3866 51.3086 39.778C51.3559 41.94 50.7883 42.771 48.5993 42.4738C46.4103 42.1765 44.3497 42.2305 45.2955 45.4938C44.2888 45.5073 43.7551 44.9668 43.2484 44.5344C41.2148 42.8116 38.9176 42.3386 36.2692 42.4062C29.9656 42.5616 23.6485 42.3927 17.3449 42.494C15.6491 42.5211 15.1694 42.0008 15.2843 40.3726C15.4194 38.4403 15.3181 36.4945 15.3181 34.4744C13.2642 35.3392 12.235 36.7062 12.2305 38.5754C12.2305 39.4402 12.2305 40.3118 12.2305 41.1766C12.2575 44.575 13.1831 45.5073 16.6153 45.5208C21.9797 45.5411 27.3577 45.7776 32.7019 45.4465C37.2691 45.1695 41.208 46.0749 44.6942 49.0881C45.6401 49.9124 46.7008 50.7637 48.1804 51.115C48.1804 49.9124 48.2818 48.8787 48.1602 47.872C47.9372 46.0343 48.5723 45.4195 50.4776 45.4668C53.2476 45.5343 54.207 44.379 54.2205 41.5076C54.2408 35.1973 54.0786 28.8802 54.2611 22.5699C54.4908 14.6854 53.0112 15.4826 46.6941 15.4691V15.4623Z" fill="#0C45E9"></path><path d="M29 16L17 22.9282L17 9.0718L29 16Z" fill="#2E56FF"></path></svg> 