<?xml version="1.0" encoding="UTF-8"?> <svg xmlns="http://www.w3.org/2000/svg" width="55" height="54" viewBox="0 0 55 54" fill="none"><path d="M4.51611 31.6875V50.4375" stroke="#2E56FF" stroke-width="3" stroke-linecap="square" stroke-linejoin="round"></path><path d="M4.51611 47.3125H35.7661C35.7661 45.6549 35.1076 44.0652 33.9355 42.8931C32.7634 41.721 31.1737 41.0625 29.5161 41.0625H21.7036C21.7036 39.4049 21.0451 37.8152 19.873 36.6431C18.7009 35.471 17.1112 34.8125 15.4536 34.8125H4.51611" stroke="#2E56FF" stroke-width="3" stroke-linecap="square" stroke-linejoin="round"></path><path d="M15.4536 41.0625H21.7036" stroke="#2E56FF" stroke-width="3" stroke-linecap="square" stroke-linejoin="round"></path><path d="M40.0974 33.9807C40.5484 34.5741 41.136 35.0498 41.8103 35.3676C42.4845 35.6853 43.2255 35.8356 43.9703 35.8057C46.3411 35.8057 48.2661 34.3619 48.2661 32.5807C48.2661 30.7994 46.3411 29.3598 43.9703 29.3598C41.5994 29.3598 39.6724 27.9161 39.6724 26.1348C39.6724 24.3536 41.5974 22.9119 43.9703 22.9119C44.7142 22.8821 45.4544 23.0322 46.1279 23.3496C46.8014 23.6669 47.3884 24.1421 47.839 24.7348" stroke="#2E56FF" stroke-width="3" stroke-linecap="square" stroke-linejoin="round"></path><path d="M43.9702 35.8057V37.9515" stroke="#2E56FF" stroke-width="3" stroke-linecap="square" stroke-linejoin="round"></path><path d="M43.9702 20.7646V22.9126" stroke="#2E56FF" stroke-width="3" stroke-linecap="square" stroke-linejoin="round"></path><path d="M34.2035 30.1396H26.0785C25.7032 30.1339 25.3327 30.0543 24.9882 29.9054C24.6438 29.7564 24.332 29.541 24.0708 29.2715C23.8096 29.002 23.6041 28.6836 23.466 28.3346C23.3279 27.9856 23.2599 27.6128 23.266 27.2376V12.7292C23.2543 11.9715 23.544 11.2401 24.0714 10.6959C24.5988 10.1517 25.3208 9.83921 26.0785 9.82715H48.5785C49.3362 9.83921 50.0582 10.1517 50.5856 10.6959C51.113 11.2401 51.4027 11.9715 51.391 12.7292V20.7646" stroke="#2E56FF" stroke-width="3" stroke-linecap="square" stroke-linejoin="round"></path><path d="M32.6411 9.82684V7.67892C32.724 6.51536 33.263 5.4316 34.1408 4.6634C35.0187 3.89519 36.1643 3.50469 37.3286 3.57684V3.57684C38.4929 3.50469 39.6386 3.89519 40.5164 4.6634C41.3942 5.4316 41.9332 6.51536 42.0161 7.67892V9.82684" stroke="#2E56FF" stroke-width="3" stroke-linecap="square" stroke-linejoin="round"></path></svg> 