<?xml version="1.0" encoding="UTF-8"?> <svg xmlns="http://www.w3.org/2000/svg" width="53" height="52" viewBox="0 0 53 52" fill="none"><path d="M50.6712 30.0832C48.695 41.3748 38.665 49.9582 26.595 49.9582C13.1012 49.9582 2.15747 39.229 2.15747 25.9998C2.15747 12.7707 13.1012 2.0415 26.595 2.0415C34.9462 2.0415 42.32 6.14567 46.7187 12.4165" stroke="#2E56FF" stroke-width="3" stroke-linecap="round" stroke-linejoin="round"></path><path d="M32.5237 2.75L22.5362 8.29167L24.4912 11.6667L20.2412 18.7083L9.61621 21.8333L13.8662 35.375L25.5537 39.5417V44.75" stroke="#2E56FF" stroke-width="3" stroke-linecap="round" stroke-linejoin="round"></path><path d="M44.6575 9.854L40.4287 14.5415" stroke="#2E56FF" stroke-width="3" stroke-linecap="round" stroke-linejoin="round"></path><path d="M25.9999 26.7919L20.3474 24.3127L16.0974 26.7086L25.7874 32.8336L35.4349 29.1044L31.3337 39.5211L36.1574 37.0627L42.0437 26.5211L49.3962 23.3544C50.0549 23.0627 50.5862 22.5419 50.8412 21.8752C51.0962 21.2086 51.0749 20.4794 50.7774 19.8336C50.1824 18.5419 48.6524 17.9169 47.2924 18.4586L25.9787 26.7919H25.9999Z" stroke="#2E56FF" stroke-width="3" stroke-linecap="round" stroke-linejoin="round"></path><path d="M39.4936 21.521L30.8449 16.2085L26.5311 18.396L34.3724 23.521" stroke="#2E56FF" stroke-width="3" stroke-linecap="round" stroke-linejoin="round"></path></svg> 