<?xml version="1.0" encoding="UTF-8"?> <svg xmlns="http://www.w3.org/2000/svg" width="59" height="50" viewBox="0 0 59 50" fill="none"><path d="M52.7036 10.9375C55.2924 10.9375 57.3911 8.83883 57.3911 6.25C57.3911 3.66116 55.2924 1.5625 52.7036 1.5625C50.1148 1.5625 48.0161 3.66116 48.0161 6.25C48.0161 8.83883 50.1148 10.9375 52.7036 10.9375Z" stroke="#2E56FF" stroke-width="3" stroke-linecap="square" stroke-linejoin="round"></path><path d="M52.7036 29.6875C55.2924 29.6875 57.3911 27.5888 57.3911 25C57.3911 22.4112 55.2924 20.3125 52.7036 20.3125C50.1148 20.3125 48.0161 22.4112 48.0161 25C48.0161 27.5888 50.1148 29.6875 52.7036 29.6875Z" stroke="#2E56FF" stroke-width="3" stroke-linecap="square" stroke-linejoin="round"></path><path d="M38.6411 25H48.0161" stroke="#2E56FF" stroke-width="3" stroke-linecap="square" stroke-linejoin="round"></path><path d="M38.6411 15.6249L48.8119 8.86035" stroke="#2E56FF" stroke-width="3" stroke-linecap="square" stroke-linejoin="round"></path><path d="M52.7036 48.4375C55.2924 48.4375 57.3911 46.3388 57.3911 43.75C57.3911 41.1612 55.2924 39.0625 52.7036 39.0625C50.1148 39.0625 48.0161 41.1612 48.0161 43.75C48.0161 46.3388 50.1148 48.4375 52.7036 48.4375Z" stroke="#2E56FF" stroke-width="3" stroke-linecap="square" stroke-linejoin="round"></path><path d="M38.6411 34.375L48.8119 41.1375" stroke="#2E56FF" stroke-width="3" stroke-linecap="square" stroke-linejoin="round"></path><path d="M27.9259 8H4.07407C2.92859 8 2 8.92256 2 10.0606V39.9394C2 41.0774 2.92859 42 4.07407 42H27.9259C29.0714 42 30 41.0774 30 39.9394V10.0606C30 8.92256 29.0714 8 27.9259 8Z" stroke="#2E56FF" stroke-width="3" stroke-linecap="square" stroke-linejoin="round"></path><rect x="8" y="14" width="6" height="6" fill="#2E56FF"></rect><rect x="18" y="14" width="6" height="6" fill="#2E56FF"></rect><rect x="8" y="24" width="6" height="6" fill="#2E56FF"></rect><rect x="18" y="24" width="6" height="6" fill="#2E56FF"></rect><rect x="13" y="34" width="6" height="8" fill="#2E56FF"></rect></svg> 