<?xml version="1.0" encoding="UTF-8"?> <svg xmlns="http://www.w3.org/2000/svg" width="55" height="54" viewBox="0 0 55 54" fill="none"><path d="M20.1328 42.625L28.4036 34.3542C28.5487 34.209 28.721 34.0938 28.9107 34.0152C29.1003 33.9366 29.3036 33.8962 29.5089 33.8962C29.7141 33.8962 29.9174 33.9366 30.107 34.0152C30.2967 34.0938 30.469 34.209 30.6141 34.3542L34.6536 38.3937C34.7987 38.5389 34.971 38.6541 35.1607 38.7327C35.3503 38.8113 35.5536 38.8517 35.7589 38.8517C35.9641 38.8517 36.1674 38.8113 36.357 38.7327C36.5467 38.6541 36.719 38.5389 36.8641 38.3937L45.1328 30.125" stroke="#2E56FF" stroke-width="3" stroke-linecap="square" stroke-linejoin="round"></path><path d="M48.2578 3.5625H7.63281C5.90692 3.5625 4.50781 4.96161 4.50781 6.6875V47.3125C4.50781 49.0384 5.90692 50.4375 7.63281 50.4375H48.2578C49.9837 50.4375 51.3828 49.0384 51.3828 47.3125V6.6875C51.3828 4.96161 49.9837 3.5625 48.2578 3.5625Z" stroke="#2E56FF" stroke-width="3" stroke-linecap="square" stroke-linejoin="round"></path><path d="M20.1328 28.5625C25.3105 28.5625 29.5078 24.3652 29.5078 19.1875C29.5078 14.0098 25.3105 9.8125 20.1328 9.8125C14.9551 9.8125 10.7578 14.0098 10.7578 19.1875C10.7578 24.3652 14.9551 28.5625 20.1328 28.5625Z" stroke="#2E56FF" stroke-width="3" stroke-linecap="square" stroke-linejoin="round"></path><path d="M20.1328 10.436V19.0804L26.5036 25.1929" stroke="#2E56FF" stroke-width="3" stroke-linecap="square" stroke-linejoin="round"></path><path d="M37.3203 12.9375H43.5703" stroke="#2E56FF" stroke-width="3" stroke-linecap="square" stroke-linejoin="round"></path><path d="M37.3203 19.1875H43.5703" stroke="#2E56FF" stroke-width="3" stroke-linecap="square" stroke-linejoin="round"></path></svg> 