<?xml version="1.0" encoding="UTF-8"?> <svg xmlns="http://www.w3.org/2000/svg" width="49" height="50" viewBox="0 0 49 50" fill="none"><path d="M47.5 25.5C47.5 38.2025 37.2025 48.5 24.5 48.5C11.7975 48.5 1.5 38.2025 1.5 25.5C1.5 12.7975 11.7975 2.5 24.5 2.5C37.2025 2.5 47.5 12.7975 47.5 25.5Z" stroke="#2E56FF" stroke-width="3"></path><path d="M22.6 24.08H15.08V27.84H22.6V35.68H26.48V27.84H34V24.08H26.48V16.28H22.6V24.08Z" fill="#2E56FF"></path><path d="M22.6 24.08V24.58H23.1V24.08H22.6ZM15.08 24.08V23.58H14.58V24.08H15.08ZM15.08 27.84H14.58V28.34H15.08V27.84ZM22.6 27.84H23.1V27.34H22.6V27.84ZM22.6 35.68H22.1V36.18H22.6V35.68ZM26.48 35.68V36.18H26.98V35.68H26.48ZM26.48 27.84V27.34H25.98V27.84H26.48ZM34 27.84V28.34H34.5V27.84H34ZM34 24.08H34.5V23.58H34V24.08ZM26.48 24.08H25.98V24.58H26.48V24.08ZM26.48 16.28H26.98V15.78H26.48V16.28ZM22.6 16.28V15.78H22.1V16.28H22.6ZM22.6 23.58H15.08V24.58H22.6V23.58ZM14.58 24.08V27.84H15.58V24.08H14.58ZM15.08 28.34H22.6V27.34H15.08V28.34ZM22.1 27.84V35.68H23.1V27.84H22.1ZM22.6 36.18H26.48V35.18H22.6V36.18ZM26.98 35.68V27.84H25.98V35.68H26.98ZM26.48 28.34H34V27.34H26.48V28.34ZM34.5 27.84V24.08H33.5V27.84H34.5ZM34 23.58H26.48V24.58H34V23.58ZM26.98 24.08V16.28H25.98V24.08H26.98ZM26.48 15.78H22.6V16.78H26.48V15.78ZM22.1 16.28V24.08H23.1V16.28H22.1Z" fill="#2E56FF"></path></svg> 