<?xml version="1.0" encoding="UTF-8"?> <svg xmlns="http://www.w3.org/2000/svg" width="52" height="48" viewBox="0 0 52 48" fill="none"><path d="M42.5001 17.875V5.375C42.5001 4.5462 42.1709 3.75134 41.5848 3.16529C40.9988 2.57924 40.2039 2.25 39.3751 2.25H5.00012C4.17132 2.25 3.37646 2.57924 2.79041 3.16529C2.20436 3.75134 1.87512 4.5462 1.87512 5.375V30.375C1.87512 31.2038 2.20436 31.9987 2.79041 32.5847C3.37646 33.1708 4.17132 33.5 5.00012 33.5H17.5001" stroke="#2E56FF" stroke-width="3" stroke-linecap="square" stroke-linejoin="round"></path><path d="M1.87512 11.625H42.5001" stroke="#2E56FF" stroke-width="3" stroke-linecap="square" stroke-linejoin="round"></path><path d="M8.12512 19.4375H20.6251" stroke="#2E56FF" stroke-width="3" stroke-linecap="square" stroke-linejoin="round"></path><path d="M8.12512 25.6875H14.3751" stroke="#2E56FF" stroke-width="3" stroke-linecap="square" stroke-linejoin="round"></path><path d="M42.4735 23.7713C40.6744 24.0376 39.1504 24.8762 37.8904 26.2248C37.7254 26.4004 37.5603 26.6894 37.3788 26.7007C37.1697 26.7177 37.0156 26.4061 36.8451 26.2248C35.4971 24.7969 33.8796 23.9073 31.9374 23.743C28.8124 23.471 26.32 24.6892 24.5924 27.375C22.8208 30.1231 22.9859 33.7041 24.906 36.4862C25.6983 37.6307 26.7051 38.577 27.6955 39.5289C30.4849 42.209 33.4174 44.7248 36.3609 47.2236C37.0927 47.8468 37.6374 47.8412 38.3801 47.2122C40.0417 45.807 41.6922 44.3905 43.3153 42.9399C45.2904 41.1778 47.2711 39.4213 49.0592 37.4494C50.0441 36.3615 50.7373 35.1036 51.0949 33.6531C51.194 33.2395 51.271 32.8258 51.359 32.4065V31.3923C51.2875 31.279 51.2655 31.1657 51.359 31.0523V30.769C51.2325 30.4404 51.227 30.0834 51.1444 29.7491C50.2531 25.9188 46.5944 23.165 42.4735 23.7713ZM43.3703 39.5176C41.4667 41.2514 39.5245 42.9399 37.5713 44.6115C37.4393 44.7248 37.3513 44.7814 37.1862 44.6398C34.2317 42.0957 31.2662 39.5572 28.4932 36.8035C27.7395 36.0555 26.9967 35.2963 26.5071 34.3217C24.928 31.1996 26.342 27.4996 29.5386 26.5024C31.5523 25.8735 33.3514 26.3381 34.8864 27.8226C35.3981 28.3156 35.8823 28.8425 36.3774 29.3525C36.9881 29.9814 37.7474 29.9814 38.3526 29.3581C38.8808 28.8142 39.4035 28.2589 39.9426 27.732C42.7706 24.9612 47.5187 26.2304 48.6576 30.0607C48.8061 30.565 48.8722 31.0863 48.8832 31.6643C48.8612 33.1998 48.3 34.571 47.2601 35.7326C46.0497 37.0868 44.7128 38.305 43.3758 39.5289L43.3703 39.5176Z" fill="#2E56FF" stroke="#2E56FF" stroke-width="0.5"></path></svg> 