<?xml version="1.0" encoding="UTF-8"?> <svg xmlns="http://www.w3.org/2000/svg" width="46" height="51" viewBox="0 0 46 51" fill="none"><path d="M19.0474 43.1875H1.85986" stroke="#2E56FF" stroke-width="3" stroke-linecap="square" stroke-linejoin="round"></path><path d="M1.85986 27.5626H9.67236C10.3812 27.482 11.0343 27.1395 11.5036 26.6022L19.9411 18.2917L27.9182 19.8876C28.185 19.9404 28.4382 20.0469 28.6626 20.2007C28.8869 20.3544 29.0777 20.5521 29.2232 20.7819C29.3688 21.0116 29.4661 21.2685 29.5093 21.537C29.5525 21.8056 29.5406 22.08 29.4744 22.3438L29.3078 23.0063C29.2112 23.3943 29.001 23.7445 28.7041 24.0121C28.4071 24.2798 28.037 24.4526 27.6411 24.5084L23.7328 25.0751C23.4977 25.0986 23.2698 25.1694 23.0627 25.2831C22.8557 25.3969 22.6737 25.5513 22.5278 25.7371C22.3819 25.9229 22.275 26.1363 22.2136 26.3644C22.1521 26.5925 22.1374 26.8307 22.1703 27.0647V32.3917C22.0395 32.9989 21.7184 33.5485 21.2536 33.9605L16.9265 37.3834" stroke="#2E56FF" stroke-width="3" stroke-linecap="square" stroke-linejoin="round"></path><path d="M44.0474 39.5417C44.0569 40.0841 43.8507 40.6082 43.4742 40.9988C43.0977 41.3894 42.5815 41.6146 42.0391 41.625H39.0245C37.5662 41.625 36.6474 41.5187 36.012 39.5417C35.0536 34.7247 34.383 29.855 34.0037 24.9583C34.0037 23.9167 35.0078 22.875 37.0162 22.875H42.0391C42.5815 22.8854 43.0977 23.1106 43.4742 23.5012C43.8507 23.8918 44.0569 24.4159 44.0474 24.9583V39.5417Z" stroke="#2E56FF" stroke-width="3" stroke-linecap="square" stroke-linejoin="round"></path><path d="M40.9224 41.625V46.3125C40.9224 47.1413 40.5931 47.9362 40.0071 48.5222C39.421 49.1083 38.6262 49.4375 37.7974 49.4375H22.1724C21.3436 49.4375 20.5487 49.1083 19.9627 48.5222C19.3766 47.9362 19.0474 47.1413 19.0474 46.3125V43.1875" stroke="#2E56FF" stroke-width="3" stroke-linecap="square" stroke-linejoin="round"></path><path d="M19.0474 17.9936L19.0474 13.5C19.0474 12.6712 19.3766 11.8763 19.9627 11.2903C20.5487 10.7042 21.3436 10.375 22.1724 10.375H37.7974C38.6262 10.375 39.421 10.7042 40.0071 11.2903C40.5931 11.8763 40.9224 12.6712 40.9224 13.5V22.875" stroke="#2E56FF" stroke-width="3" stroke-linecap="square" stroke-linejoin="round"></path><path d="M10.5203 2.5625C8.24829 3.78011 6.38787 5.64352 5.17392 7.91754C3.95998 10.1916 3.44692 12.7742 3.69951 15.3396" stroke="#2E56FF" stroke-width="3" stroke-linecap="square" stroke-linejoin="round"></path><path d="M13.7994 6.83325C12.2253 7.67612 10.9365 8.96677 10.0958 10.542C9.25517 12.1173 8.90043 13.9064 9.07646 15.6833" stroke="#2E56FF" stroke-width="3" stroke-linecap="square" stroke-linejoin="round"></path></svg> 