<?xml version="1.0" encoding="UTF-8"?> <svg xmlns="http://www.w3.org/2000/svg" width="51" height="51" viewBox="0 0 51 51" fill="none"><path d="M12.2076 30.5524C12.2076 30.5524 35.8091 6.88629 37.3394 5.37753C39.6241 3.09282 48.7629 1.5625 48.7629 1.5625C48.7629 1.5625 47.2326 10.7013 44.9479 12.986C41.9088 16.0251 19.7946 38.1393 19.7946 38.1393L12.2076 30.5524V30.5524Z" stroke="#B8FD8E" stroke-width="3" stroke-linecap="round" stroke-linejoin="round"></path><path d="M15.2684 27.4918L22.8554 35.1003" stroke="#B8FD8E" stroke-width="3" stroke-linecap="round" stroke-linejoin="round"></path><path d="M31.2399 26.7158C31.2399 28.2461 31.2399 34.3243 30.4855 36.609C30.0113 38.0531 28.481 40.1438 27.4249 41.1784C24.4289 44.1744 19.7948 48.8084 19.7948 48.8084L21.2174 36.7167" stroke="#B8FD8E" stroke-width="3" stroke-linecap="round" stroke-linejoin="round"></path><path d="M23.6098 19.0857C22.0794 19.0857 15.9366 19.021 13.6303 19.7754C12.1862 20.2496 10.1602 21.8446 9.12559 22.8792L1.51709 30.5092L13.6734 29.022" stroke="#B8FD8E" stroke-width="3" stroke-linecap="round" stroke-linejoin="round"></path><path d="M15.2252 38.1393C16.7555 39.6696 16.1089 41.825 14.4708 43.4846C12.3586 45.5969 2.27136 48.0971 2.27136 48.0971C2.27136 48.0971 4.75005 37.9668 6.84077 35.8761C8.52197 34.1949 10.6558 33.5914 12.1861 35.1217" stroke="#B8FD8E" stroke-width="3" stroke-linecap="round" stroke-linejoin="round"></path></svg> 