<?xml version="1.0" encoding="UTF-8"?> <svg xmlns="http://www.w3.org/2000/svg" width="55" height="45" viewBox="0 0 55 45" fill="none"><path d="M11.96 23.814C10.605 23.814 9.24497 23.814 7.89 23.814C7.13611 23.814 6.62162 24.2469 6.61144 24.8888C6.60634 25.1791 6.70312 25.4389 6.89669 25.6325C7.13101 25.8719 7.48249 25.9992 7.90528 26.0043C8.36373 26.0043 8.81708 26.0043 9.27553 26.0043H10.5337C10.7477 26.0043 10.9565 26.0043 11.1704 26.0043C11.4404 26.0043 11.7104 26.0043 11.9804 26.0043C12.7088 25.9992 13.2029 25.5612 13.2131 24.9244C13.2182 24.6341 13.1163 24.3743 12.9227 24.1756C12.6986 23.9464 12.3522 23.8191 11.96 23.8191V23.814Z" fill="#0B44E9"></path><path d="M11.9956 30.2832C10.6101 30.2832 9.22458 30.2832 7.83905 30.2832C7.131 30.2832 6.61652 30.7416 6.61143 31.3733C6.61143 32.0151 7.11063 32.4685 7.82886 32.4736C8.31278 32.4736 8.7916 32.4736 9.27552 32.4736H10.5439C10.7578 32.4736 10.9667 32.4736 11.1806 32.4736C11.4506 32.4736 11.7206 32.4736 11.9905 32.4736C12.7088 32.4685 13.2131 32.0151 13.2131 31.3784C13.2131 31.0625 13.0908 30.7824 12.8616 30.5837C12.6375 30.3902 12.3369 30.2883 11.9956 30.2832V30.2832Z" fill="#0B44E9"></path><path d="M23.1766 18.43C23.1766 17.7882 22.6978 17.3552 21.9949 17.3501C21.5161 17.3501 21.0321 17.3501 20.5482 17.3501H19.2544C18.7654 17.3501 18.2713 17.3501 17.7823 17.3501C17.0793 17.3501 16.6056 17.7831 16.5954 18.4198C16.5954 18.7305 16.6922 18.9954 16.8857 19.1992C17.0946 19.4131 17.3951 19.5303 17.7517 19.5354C18.4292 19.5404 19.1219 19.5455 19.8351 19.5455C20.5482 19.5455 21.2715 19.5455 22.0102 19.5354C22.7029 19.5303 23.1817 19.0769 23.1766 18.4351V18.43Z" fill="#0B44E9"></path><path d="M11.96 17.3501C10.605 17.3501 9.24496 17.3501 7.88999 17.3501C7.12591 17.3501 6.62162 17.7729 6.61143 18.4198C6.61143 18.7101 6.70821 18.9699 6.89668 19.1686C7.12081 19.3978 7.4672 19.5303 7.86452 19.5303C8.33825 19.5303 8.81197 19.5303 9.2857 19.5303H10.5235C10.7324 19.5303 10.9412 19.5303 11.145 19.5303C11.4251 19.5303 11.7002 19.5303 11.9804 19.5303C12.7088 19.5201 13.2029 19.0871 13.2131 18.4504C13.2131 18.16 13.1163 17.9002 12.9278 17.7067C12.6986 17.4724 12.3675 17.3501 11.96 17.3501V17.3501Z" fill="#0B44E9"></path><path d="M39.6604 12.3071C39.6604 10.7688 39.6604 9.23042 39.6604 7.69207V4.26392C39.6604 3.15855 39.3191 2.81725 38.1934 2.81725H32.4984C32.3252 2.81725 32.147 2.81726 32.1368 2.83254C32.1215 2.79179 32.1215 2.61858 32.1215 2.46067V2.07356C32.1215 1.76284 32.1215 1.44701 32.1215 1.13628C32.1011 0.46389 31.6732 0.00545303 31.0518 0.000359171C30.3896 -0.0149224 29.9668 0.45879 29.9566 1.16174C29.9464 1.70169 29.9464 2.24674 29.9566 2.78669C29.9566 2.80197 29.9566 2.81216 29.9566 2.82235C29.9515 2.82235 29.9464 2.82235 29.9362 2.82235C26.9461 2.81216 23.956 2.81725 20.9659 2.82235C20.9761 2.35371 20.9761 1.89017 20.9659 1.42663V1.23816C20.9608 0.489366 20.5533 0.0156457 19.9064 0.005458C19.6059 0.005458 19.341 0.0971413 19.1474 0.285614C18.9233 0.50465 18.801 0.835753 18.7959 1.24326C18.7908 1.77302 18.7858 2.29768 18.7959 2.82744C18.7959 2.82744 18.7909 2.82744 18.7858 2.82744C15.7957 2.82235 12.8056 2.82235 9.81547 2.82744C9.82566 2.2824 9.82566 1.74245 9.81547 1.1974C9.81038 0.484263 9.39268 0.0156457 8.75595 0.005458C8.45032 0.005458 8.18034 0.0971413 7.98168 0.285614C7.75755 0.499556 7.6353 0.810265 7.6302 1.1923V1.35531C7.62001 1.7832 7.60983 2.22127 7.6353 2.65934C7.64039 2.76631 7.6353 2.81215 7.6353 2.81725C7.62002 2.81725 7.57926 2.83254 7.4621 2.83254C5.98998 2.81726 4.51785 2.81725 3.04573 2.82235H1.50739C0.483524 2.82235 0.11676 3.18909 0.11676 4.21296V39.6204C0.11676 40.7359 0.458052 41.0772 1.56851 41.0772H5.59266C13.0857 41.0772 20.5788 41.0772 28.0668 41.0721C30.8073 43.2116 34.2456 44.4952 37.9845 44.4952C46.8784 44.4952 54.1168 37.2568 54.1168 28.363C54.1168 20.0294 47.7647 13.1527 39.6502 12.3173L39.6604 12.3071ZM2.30712 5.11968C2.30712 5.04837 2.30712 5.01272 2.30712 5.00253C2.3224 5.00253 2.35806 4.99743 2.4141 4.99743C3.91678 5.01271 5.50097 5.01271 7.55889 4.99743C7.59964 4.99743 7.62002 4.99743 7.64039 4.99743C7.64039 5.01271 7.64039 5.02798 7.64039 5.04836C7.62002 5.50681 7.62511 5.97035 7.6302 6.42371V6.55615C7.64548 7.28967 8.07337 7.76339 8.73048 7.76339H8.73557C9.39777 7.76339 9.81547 7.29475 9.82056 6.54596V6.46447C9.82056 5.98055 9.83075 5.49662 9.82056 5.0127C12.8107 5.0127 15.8008 5.0127 18.7858 5.0127H18.7959V5.0229C18.7858 5.53738 18.7858 6.05187 18.7959 6.56125C18.8112 7.31005 19.2238 7.77359 19.886 7.77359C20.5482 7.77359 20.9659 7.31005 20.971 6.56125V6.2505C20.9812 5.88884 20.9863 5.5119 20.9659 5.14005C20.9659 5.06364 20.9659 5.02799 20.9659 5.0178C20.9863 5.0178 21.0118 5.00251 21.1035 5.0076C22.7844 5.01779 24.4603 5.0178 26.1413 5.0178H28.3979C28.8716 5.02289 29.3504 5.02798 29.8241 5.0076C29.8445 5.0076 29.8649 5.0076 29.8802 5.0076C29.9311 5.0076 29.9617 5.0076 29.9668 5.0076C29.9668 5.02288 29.977 5.05856 29.9668 5.12988C29.9362 5.56795 29.9464 6.00602 29.9566 6.43391V6.63764C29.9719 7.31003 30.4048 7.7685 31.0314 7.77359C31.6681 7.7685 32.1062 7.33043 32.1266 6.65804C32.1418 6.14865 32.1418 5.63415 32.1266 5.07382C32.1266 5.04835 32.1266 5.02798 32.1266 5.0127C32.1368 5.0127 32.152 5.0127 32.1724 5.0127C33.9298 5.02289 35.6872 5.02289 37.4446 5.0127H37.47C37.47 5.0127 37.47 5.03307 37.47 5.04326C37.4598 6.91271 37.4548 8.60389 37.47 10.3154C37.47 10.3307 37.47 10.3409 37.47 10.3511C37.4548 10.3511 37.4395 10.3511 37.4242 10.3511C37.3885 10.3511 37.358 10.3511 37.3223 10.3511H16.5546C11.8785 10.3511 7.19723 10.3511 2.51597 10.3613C2.39881 10.3816 2.33769 10.3511 2.3275 10.3511C2.3275 10.3511 2.30712 10.3103 2.30712 10.1626C2.33259 8.41542 2.3224 6.64273 2.30712 5.14005V5.11968ZM23.1716 38.8767C16.2847 38.8767 9.39777 38.8767 2.51597 38.8869C2.39372 38.8869 2.34787 38.8767 2.33259 38.8767C2.33259 38.8767 2.31221 38.8359 2.31221 38.6882C2.3224 30.2732 2.32749 21.5372 2.31221 12.7146C2.31221 12.5618 2.3275 12.521 2.3224 12.5261C2.3275 12.5261 2.36825 12.5058 2.51597 12.5058C13.3404 12.516 24.1598 12.516 34.9842 12.5058C27.5268 13.9219 21.8726 20.4878 21.8726 28.3528C21.8726 32.3718 23.3549 36.0496 25.7949 38.8767H23.1818H23.1716ZM37.9998 42.4475C30.2266 42.4475 23.9051 36.126 23.9051 28.3528C23.9051 20.5795 30.2266 14.2581 37.9998 14.2581C45.773 14.2581 52.0945 20.5795 52.0945 28.3528C52.0945 36.126 45.773 42.4475 37.9998 42.4475Z" fill="#0B44E9"></path><path d="M47.1331 23.5031C47.0669 23.1771 46.8682 22.9581 46.5728 22.8766C46.3792 22.8256 46.0838 22.8205 45.7934 23.116L45.121 23.7884C44.7899 24.1195 44.4537 24.4557 44.1226 24.7868C43.6285 24.6849 43.1293 24.583 42.6301 24.4913C42.5333 23.987 42.4366 23.4827 42.3245 23.0039L43.0478 22.2806C43.3535 21.9699 43.6642 21.6642 43.9749 21.3586C44.0717 21.2618 44.3671 20.9715 44.2398 20.5385C44.1787 20.3296 44.0157 20.0597 43.5725 19.9781C43.435 19.9527 43.2974 19.9221 43.1599 19.8916L41.9832 19.8457L41.9221 19.8814C41.9221 19.8814 41.8559 19.8916 41.8151 19.8967C41.7744 19.8967 41.7336 19.9017 41.6929 19.9068C40.3124 20.1259 39.1001 20.9409 38.3615 22.1379C37.6229 23.335 37.4497 24.7868 37.8979 26.1366C37.8979 26.1366 37.8878 26.1468 37.8623 26.1723C36.7773 27.1503 35.6923 28.1334 34.6073 29.1114L32.8092 30.7415C31.9992 31.475 31.1842 32.2085 30.3794 32.9471C29.6204 33.6399 29.3301 34.5262 29.5389 35.5093C29.7631 36.5637 30.4303 37.2667 31.4644 37.5469C31.7242 37.6182 31.9789 37.6538 32.2285 37.6538C32.9518 37.6538 33.6038 37.3533 34.1438 36.7675C34.8111 36.0442 35.4682 35.3158 36.1253 34.5873L37.7044 32.8401C38.7894 31.6431 39.8693 30.446 40.9695 29.2286C41.5859 29.4324 42.2328 29.5037 42.895 29.4476C44.9682 29.2643 46.6696 27.787 47.1382 25.775C47.1739 25.6323 47.1993 25.4846 47.2299 25.342L47.2706 25.1535V24.9141L47.2503 24.8784L47.2757 24.8377V24.5983L47.235 24.4658L47.2757 24.4047L47.1331 23.5082V23.5031ZM39.4465 25.9787C39.039 25.0211 39.0848 23.9666 39.5738 23.0752C40.0221 22.2551 40.7963 21.6744 41.7183 21.4554C41.484 21.6897 41.2548 21.9189 41.0205 22.1532C40.7862 22.3825 40.7047 22.6524 40.776 22.9835C40.888 23.5133 40.995 24.0482 41.0969 24.583L41.2242 25.2248C41.3006 25.6069 41.5095 25.8157 41.9017 25.8921L42.0494 25.9227C42.7473 26.0602 43.4451 26.1978 44.143 26.3455C44.4588 26.4117 44.7339 26.3302 44.958 26.101C45.1822 25.8718 45.4063 25.6476 45.6304 25.4235C45.4521 26.2691 44.9886 26.9364 44.25 27.4101C43.2822 28.0316 42.2379 28.1232 41.1478 27.6801C40.6996 27.4967 40.4245 27.5578 40.1036 27.9144L33.1148 35.6418C32.692 36.1104 32.1877 36.253 31.6936 36.0391C31.3218 35.8761 31.0671 35.5603 31.0009 35.1731C30.9346 34.7707 31.0722 34.3734 31.388 34.0881C31.8821 33.6348 32.3813 33.1865 32.8805 32.7332L39.2122 27.0077C39.5585 26.6969 39.6197 26.4117 39.4414 25.9889L39.4465 25.9787Z" fill="#0B44E9"></path><path d="M32.2336 34.3838C31.9585 34.3838 31.7293 34.6079 31.7242 34.883C31.7242 35.158 31.9636 35.4026 32.2387 35.3975C32.5137 35.3975 32.7379 35.1631 32.7328 34.8881C32.7328 34.6079 32.5086 34.3889 32.2285 34.3889L32.2336 34.3838Z" fill="#0B44E9"></path></svg> 