<?xml version="1.0" encoding="UTF-8"?> <svg xmlns="http://www.w3.org/2000/svg" width="52" height="48" viewBox="0 0 52 48" fill="none"><path d="M42.1411 17.1875V4.6875C42.1411 3.8587 41.8119 3.06384 41.2258 2.47779C40.6398 1.89174 39.8449 1.5625 39.0161 1.5625H4.64111C3.81231 1.5625 3.01746 1.89174 2.4314 2.47779C1.84535 3.06384 1.51611 3.8587 1.51611 4.6875V29.6875C1.51611 30.5163 1.84535 31.3112 2.4314 31.8972C3.01746 32.4833 3.81231 32.8125 4.64111 32.8125H17.1411" stroke="#2E56FF" stroke-width="3" stroke-linecap="square" stroke-linejoin="round"></path><path d="M1.51611 10.9375H42.1411" stroke="#2E56FF" stroke-width="3" stroke-linecap="square" stroke-linejoin="round"></path><path d="M7.76611 18.75H20.2661" stroke="#2E56FF" stroke-width="3" stroke-linecap="square" stroke-linejoin="round"></path><path d="M7.76611 25H14.0161" stroke="#2E56FF" stroke-width="3" stroke-linecap="square" stroke-linejoin="round"></path><path d="M42.1145 23.0838C40.3154 23.3501 38.7914 24.1887 37.5314 25.5373C37.3664 25.7129 37.2013 26.0019 37.0198 26.0132C36.8107 26.0302 36.6566 25.7186 36.4861 25.5373C35.1381 24.1094 33.5206 23.2198 31.5784 23.0555C28.4533 22.7835 25.961 24.0017 24.2334 26.6875C22.4618 29.4356 22.6269 33.0166 24.547 35.7987C25.3393 36.9432 26.3461 37.8895 27.3365 38.8414C30.1259 41.5215 33.0584 44.0373 36.0019 46.5361C36.7337 47.1593 37.2783 47.1537 38.0211 46.5247C39.6827 45.1195 41.3332 43.703 42.9563 42.2524C44.9314 40.4903 46.9121 38.7338 48.7002 36.7619C49.6851 35.674 50.3783 34.4161 50.7359 32.9656C50.8349 32.552 50.912 32.1383 51 31.719V30.7048C50.9285 30.5915 50.9065 30.4782 51 30.3648V30.0815C50.8735 29.7529 50.868 29.3959 50.7854 29.0616C49.8941 25.2313 46.2354 22.4775 42.1145 23.0838ZM43.0113 38.8301C41.1076 40.5639 39.1655 42.2524 37.2123 43.924C37.0803 44.0373 36.9922 44.0939 36.8272 43.9523C33.8727 41.4082 30.9072 38.8697 28.1342 36.116C27.3805 35.368 26.6377 34.6088 26.1481 33.6342C24.569 30.5121 25.983 26.8121 29.1796 25.8149C31.1933 25.186 32.9924 25.6506 34.5274 27.1351C35.0391 27.6281 35.5232 28.155 36.0184 28.665C36.6291 29.2939 37.3884 29.2939 37.9936 28.6706C38.5218 28.1267 39.0444 27.5714 39.5836 27.0445C42.4116 24.2737 47.1597 25.5429 48.2986 29.3732C48.4471 29.8775 48.5132 30.3988 48.5242 30.9768C48.5022 32.5123 47.941 33.8835 46.9011 35.0451C45.6907 36.3993 44.3537 37.6175 43.0168 38.8414L43.0113 38.8301Z" fill="#2E56FF" stroke="#2E56FF" stroke-width="0.5"></path></svg> 