<?xml version="1.0" encoding="UTF-8"?> <svg xmlns="http://www.w3.org/2000/svg" width="42" height="56" viewBox="0 0 42 56" fill="none"><path d="M39.9352 2.33691H2.15747V54.0869H39.9352V2.33691Z" stroke="#2E56FF" stroke-width="3" stroke-linecap="round" stroke-linejoin="round"></path><path d="M22.1575 9.08691H33.2686" stroke="#2E56FF" stroke-width="3" stroke-linecap="round" stroke-linejoin="round"></path><path d="M22.1575 13.5869H33.2686" stroke="#2E56FF" stroke-width="3" stroke-linecap="round" stroke-linejoin="round"></path><path d="M22.1575 18.0869H33.2686" stroke="#2E56FF" stroke-width="3" stroke-linecap="round" stroke-linejoin="round"></path><path d="M7.71313 23.7119H33.2687" stroke="#2E56FF" stroke-width="3" stroke-linecap="round" stroke-linejoin="round"></path><path d="M7.71313 28.2119H33.2687" stroke="#2E56FF" stroke-width="3" stroke-linecap="round" stroke-linejoin="round"></path><path d="M7.71313 39.4619H22.1576" stroke="#2E56FF" stroke-width="3" stroke-linecap="round" stroke-linejoin="round"></path><path d="M7.71313 43.9619H22.1576" stroke="#2E56FF" stroke-width="3" stroke-linecap="round" stroke-linejoin="round"></path><path d="M12.713 19.2119C16.0881 19.2119 18.8242 16.4417 18.8242 13.0244C18.8242 9.60715 16.0881 6.83691 12.713 6.83691C9.33797 6.83691 6.60193 9.60715 6.60193 13.0244C6.60193 16.4417 9.33797 19.2119 12.713 19.2119Z" stroke="#2E56FF" stroke-width="3" stroke-linecap="round" stroke-linejoin="round"></path><path d="M29.5575 46.5044V48.1919" stroke="#2E56FF" stroke-width="3" stroke-linecap="round" stroke-linejoin="round"></path><path d="M29.5575 34.6919V36.3794" stroke="#2E56FF" stroke-width="3" stroke-linecap="round" stroke-linejoin="round"></path><path d="M27.0464 43.9843C27.0464 45.3793 28.1575 46.5043 29.5353 46.5043C30.9131 46.5043 32.0242 45.3793 32.0242 43.9843C32.0242 42.5893 30.9131 41.4643 29.5353 41.4643C28.1575 41.4643 27.0464 40.3393 27.0464 38.9443C27.0464 37.5493 28.1575 36.4243 29.5353 36.4243C30.9131 36.4243 32.0242 37.5493 32.0242 38.9443" stroke="#2E56FF" stroke-width="3" stroke-linecap="round" stroke-linejoin="round"></path></svg> 