<?xml version="1.0" encoding="UTF-8"?> <svg xmlns="http://www.w3.org/2000/svg" width="57" height="51" viewBox="0 0 57 51" fill="none"><path d="M40.0181 19.0182L50.2092 23.0331L54.224 12.842" stroke="#2E56FF" stroke-width="3.5" stroke-linecap="square" stroke-linejoin="round"></path><path d="M49 19.6282C47.6557 14.5014 44.5916 9.97155 40.3042 6.7729C36.0168 3.57425 30.7574 1.89424 25.3785 2.00516C19.9996 2.11608 14.8163 4.01143 10.6688 7.38402C6.52134 10.7566 3.65269 15.4088 2.5278 20.5865C1.40291 25.7643 2.08771 31.1642 4.47122 35.911C6.85472 40.6578 10.7972 44.4734 15.6598 46.7393C20.5223 49.0052 26.0199 49.5887 31.2616 48.3951C36.5032 47.2015 41.1816 44.3009 44.5387 40.1633" stroke="#2E56FF" stroke-width="3.5" stroke-linecap="square" stroke-linejoin="round"></path><path d="M25.5 29C26.8807 29 28 27.8807 28 26.5C28 25.1193 26.8807 24 25.5 24C24.1193 24 23 25.1193 23 26.5C23 27.8807 24.1193 29 25.5 29Z" stroke="#2E56FF" stroke-width="3.5" stroke-linecap="square" stroke-linejoin="round"></path><path d="M27.7308 16.6902L28.5047 19.2717C28.6321 19.7008 28.9153 20.0646 29.297 20.2894C29.6788 20.5142 30.1304 20.5833 30.5604 20.4825L33.1379 19.8762C33.6264 19.7645 34.1373 19.8144 34.5959 20.0188C35.0544 20.2233 35.4364 20.5714 35.686 21.0122C35.9356 21.4531 36.0396 21.9635 35.9828 22.4687C35.926 22.9739 35.7114 23.4473 35.3704 23.8197L33.5651 25.795C33.2638 26.124 33.0963 26.5566 33.0963 27.0058C33.0963 27.455 33.2638 27.8876 33.5651 28.2166L35.3704 30.1919C35.7122 30.5641 35.9275 31.0378 35.9847 31.5434C36.0419 32.049 35.938 32.5599 35.6883 33.0012C35.4386 33.4425 35.0562 33.7909 34.5972 33.9953C34.1382 34.1997 33.6267 34.2494 33.1379 34.1371L30.5604 33.529C30.1306 33.4313 29.6803 33.5017 29.2993 33.7261C28.9183 33.9505 28.6346 34.3125 28.5047 34.7398L27.7308 37.3143C27.587 37.8015 27.2922 38.2287 26.8904 38.5323C26.4885 38.836 26.0009 39 25.5 39C24.9991 39 24.5115 38.836 24.1096 38.5323C23.7078 38.2287 23.413 37.8015 23.2692 37.3143L22.4953 34.7309C22.3654 34.3036 22.0817 33.9416 21.7007 33.7172C21.3197 33.4928 20.8694 33.4225 20.4396 33.5202L17.8621 34.1282C17.3733 34.2405 16.8618 34.1909 16.4028 33.9864C15.9438 33.782 15.5614 33.4336 15.3117 32.9923C15.062 32.551 14.9581 32.0401 15.0153 31.5345C15.0725 31.0289 15.2878 30.5552 15.6296 30.183L17.4349 28.2077C17.7362 27.8787 17.9037 27.4461 17.9037 26.9969C17.9037 26.5477 17.7362 26.1151 17.4349 25.7861L15.6296 23.8108C15.2886 23.4384 15.074 22.965 15.0172 22.4598C14.9604 21.9546 15.0644 21.4442 15.314 21.0033C15.5636 20.5625 15.9456 20.2144 16.4041 20.01C16.8626 19.8055 17.3736 19.7556 17.8621 19.8674L20.4396 20.4736C20.8696 20.5744 21.3212 20.5053 21.703 20.2805C22.0847 20.0557 22.3679 19.6919 22.4953 19.2629L23.2692 16.6813C23.414 16.1944 23.7095 15.7678 24.112 15.4649C24.5144 15.162 25.0023 14.999 25.5033 15C26.0042 15.001 26.4915 15.166 26.8927 15.4705C27.294 15.7749 27.5879 16.2027 27.7308 16.6902V16.6902Z" stroke="#2E56FF" stroke-width="3.5" stroke-linecap="square" stroke-linejoin="round"></path></svg> 