<?xml version="1.0" encoding="UTF-8"?> <svg xmlns="http://www.w3.org/2000/svg" width="50" height="51" viewBox="0 0 50 51" fill="none"><path d="M8.20605 32.7998H18.6206" stroke="#2E56FF" stroke-width="3" stroke-linecap="round" stroke-linejoin="round"></path><path d="M47.781 31.7588V36.966H42.5737" stroke="#2E56FF" stroke-width="3" stroke-linecap="round" stroke-linejoin="round"></path><path d="M29.5765 36.966C30.8679 33.3209 34.3464 30.7173 38.408 30.7173C42.4697 30.7173 46.4064 33.2793 47.6978 36.9243" stroke="#2E56FF" stroke-width="3" stroke-linecap="round" stroke-linejoin="round"></path><path d="M30.0764 48.3586V43.1514H35.2837" stroke="#2E56FF" stroke-width="3" stroke-linecap="round" stroke-linejoin="round"></path><path d="M48.281 43.1514C46.9896 46.7964 43.5112 49.4001 39.4495 49.4001C35.3879 49.4001 31.4512 46.8381 30.1598 43.193" stroke="#2E56FF" stroke-width="3" stroke-linecap="round" stroke-linejoin="round"></path><path d="M23.8277 45.2976H1.95728V1.55664H24.8692L35.2837 11.9711V23.4271" stroke="#2E56FF" stroke-width="3" stroke-linejoin="round"></path><path d="M24.8691 1.55664V11.9711H35.2836" stroke="#2E56FF" stroke-width="3" stroke-linecap="round" stroke-linejoin="round"></path><path d="M9.78906 20.3444C9.78906 21.9274 11.0596 23.198 12.6426 23.198C14.2256 23.198 15.4962 21.9274 15.4962 20.3444C15.4962 18.7614 14.2256 17.4908 12.6426 17.4908C11.0596 17.4908 9.78906 16.2203 9.78906 14.6373C9.78906 13.0543 11.0596 11.7837 12.6426 11.7837C14.2256 11.7837 15.4962 13.0543 15.4962 14.6373" stroke="#2E56FF" stroke-width="3" stroke-linecap="round" stroke-linejoin="round"></path><path d="M12.6426 23.1968V25.0922" stroke="#2E56FF" stroke-width="3" stroke-linecap="round" stroke-linejoin="round"></path><path d="M12.6426 9.88818V11.7836" stroke="#2E56FF" stroke-width="3" stroke-linecap="round" stroke-linejoin="round"></path></svg> 