<?xml version="1.0" encoding="UTF-8"?> <svg xmlns="http://www.w3.org/2000/svg" width="51" height="47" viewBox="0 0 51 47" fill="none"><path d="M46.0786 17.3232V4.82324C46.0786 3.99444 45.7494 3.19958 45.1633 2.61353C44.5773 2.02748 43.7824 1.69824 42.9536 1.69824H5.45361C4.62481 1.69824 3.82996 2.02748 3.2439 2.61353C2.65785 3.19958 2.32861 3.99444 2.32861 4.82324V39.1982C2.32861 40.027 2.65785 40.8219 3.2439 41.4079C3.82996 41.994 4.62481 42.3232 5.45361 42.3232H21.0786" stroke="#2E56FF" stroke-width="3" stroke-linecap="square" stroke-linejoin="round"></path><path d="M2.32861 11.0732H46.0786" stroke="#2E56FF" stroke-width="3" stroke-linecap="round" stroke-linejoin="round"></path><path d="M38.2661 32.9482C41.2864 32.9482 43.7349 30.4998 43.7349 27.4795C43.7349 24.4592 41.2864 22.0107 38.2661 22.0107C35.2458 22.0107 32.7974 24.4592 32.7974 27.4795C32.7974 30.4998 35.2458 32.9482 38.2661 32.9482Z" stroke="#2E56FF" stroke-width="3" stroke-linecap="round" stroke-linejoin="round"></path><path d="M27.3286 45.4419C27.3292 42.5413 28.4817 39.7596 30.5327 37.7085C32.5838 35.6575 35.3655 34.5049 38.2661 34.5044C39.7024 34.5044 41.1247 34.7873 42.4517 35.337C43.7787 35.8866 44.9845 36.6923 46.0001 37.7079C47.0157 38.7236 47.8214 39.9293 48.371 41.2563C48.9207 42.5833 49.2036 44.0056 49.2036 45.4419" stroke="#2E56FF" stroke-width="3" stroke-linecap="square" stroke-linejoin="round"></path><path d="M8.57861 20.4482H8.6767" stroke="#2E56FF" stroke-width="3" stroke-linecap="round" stroke-linejoin="round"></path><path d="M8.57861 26.6982H8.6767" stroke="#2E56FF" stroke-width="3" stroke-linecap="round" stroke-linejoin="round"></path><path d="M8.57861 32.9482H8.6767" stroke="#2E56FF" stroke-width="3" stroke-linecap="round" stroke-linejoin="round"></path><path d="M14.9536 20.4482H25.8911" stroke="#2E56FF" stroke-width="3" stroke-linecap="square" stroke-linejoin="round"></path><path d="M14.9536 26.6982H24.3286" stroke="#2E56FF" stroke-width="3" stroke-linecap="square" stroke-linejoin="round"></path><path d="M14.9536 32.9482H22.7661" stroke="#2E56FF" stroke-width="3" stroke-linecap="square" stroke-linejoin="round"></path></svg> 