<?xml version="1.0" encoding="UTF-8"?> <svg xmlns="http://www.w3.org/2000/svg" width="55" height="44" viewBox="0 0 55 44" fill="none"><path d="M53.8051 17.8337C52.0885 7.65753 43.0728 0 32.8217 0H32.7682C31.9287 0 31.4046 0.438482 31.3672 1.16039C31.3298 1.91438 31.8592 2.42774 32.7094 2.47052L33.2174 2.4919C33.6666 2.51329 34.1372 2.53469 34.5864 2.57747C39.8375 3.10152 44.677 5.86079 47.8694 10.1494C51.0672 14.4434 52.3292 19.8871 51.3292 25.0795C49.7624 33.213 43.2385 39.3839 35.0944 40.4374C26.9609 41.4962 19.0681 37.245 15.4532 29.8708L15.357 29.673C15.2553 29.4698 15.1537 29.2719 15.0735 29.0687C15.2874 29.165 15.4853 29.2559 15.6938 29.3361C16.3944 29.6195 17.0895 29.3789 17.3783 28.7586C17.6777 28.1115 17.3997 27.4164 16.7205 27.1009C15.5495 26.5554 14.3837 26.0474 13.496 25.6624C12.8009 25.3629 12.1859 25.5661 11.8597 26.1971C11.3196 27.2399 10.817 28.2666 10.3624 29.2612C10.0683 29.9029 10.325 30.5821 10.9667 30.8869C11.5763 31.1703 12.2287 30.9403 12.587 30.3093C12.6511 30.2024 12.7046 30.0901 12.7634 29.9724C16.1965 37.999 24.0679 43.0844 32.5864 43.0844C33.6078 43.0844 34.6398 43.0095 35.6773 42.8598C41.4578 42.0202 46.5326 38.9615 49.9656 34.2504C53.4254 29.5019 54.789 23.6678 53.8051 17.8284V17.8337Z" fill="#0B44E9"></path><path d="M23.6241 17.9994C24.8166 17.9994 25.2444 17.5769 25.2444 16.3738C25.2444 12.5236 25.2444 8.67342 25.2444 4.82326C25.2444 3.5773 24.8433 3.17627 23.6027 3.17627H9.68867C7.02564 3.17627 4.36262 3.17627 1.70494 3.17627C0.549888 3.17627 0.11676 3.60404 0.11676 4.75374C0.11676 8.62529 0.11676 12.4969 0.11676 16.3631C0.11676 17.5555 0.555261 17.994 1.7317 17.994C5.38401 17.994 9.03096 17.994 12.6833 17.994C16.3356 17.994 19.9825 17.994 23.6348 17.994L23.6241 17.9994ZM2.06324 5.90881C2.06324 5.69491 2.08462 5.44894 2.25039 5.28317C2.41616 5.11739 2.65145 5.10133 2.89209 5.09598C5.38934 5.11203 7.89193 5.10669 10.3892 5.10669H15.1217C17.5708 5.10669 20.0146 5.11202 22.4637 5.09063C22.6937 5.09063 22.9504 5.11205 23.1215 5.28317C23.2819 5.44359 23.314 5.66818 23.314 5.9516C23.2926 9.22958 23.2926 12.2402 23.314 15.1652C23.314 15.4005 23.2926 15.6679 23.1108 15.8497C22.9343 16.0315 22.6723 16.0529 22.4209 16.0529H22.4103C16.1431 16.0369 9.59779 16.0369 2.96161 16.0529C2.73167 16.0369 2.44291 16.0369 2.26109 15.8497C2.07928 15.6679 2.05789 15.3952 2.06324 15.1759C2.08998 12.2937 2.08998 9.26165 2.06324 5.8981V5.90881Z" fill="#0B44E9"></path><path d="M24.3621 29.1276L23.3247 30.165C23.1696 30.3147 23.0146 30.4751 22.8916 30.6676C22.5975 31.1329 22.6242 31.6516 22.9771 32.0901C23.2178 32.3895 23.5386 32.55 23.9022 32.55C24.0252 32.55 24.1482 32.5339 24.2766 32.4965C24.5814 32.4109 24.7899 32.2077 25.0038 31.9938L26.7845 30.2078C29.223 27.764 31.6614 25.3256 34.1105 22.8925C34.5276 22.4807 34.7094 22.0262 34.7041 21.4112C34.6934 19.8016 34.6934 18.1974 34.6934 16.5878V10.0372C34.6987 9.34736 34.7041 8.65219 34.6827 7.96237C34.6667 7.2565 34.1533 6.74316 33.4635 6.74316C32.795 6.74316 32.287 7.24048 32.2336 7.95169C32.2229 8.08003 32.2282 8.20835 32.2282 8.33669V11.0799C32.2282 14.3365 32.2282 17.5931 32.2389 20.8497C32.2389 21.1492 32.164 21.331 31.9608 21.5395C29.4208 24.0635 26.8915 26.5982 24.3621 29.1329V29.1276Z" fill="#0B44E9"></path><path d="M12.6565 14.3258H12.6833C13.6618 14.3258 14.5923 13.9408 15.2982 13.2403C16.0147 12.5291 16.4104 11.5826 16.4158 10.5772C16.4158 9.57191 16.0308 8.63076 15.3302 7.93024C14.6297 7.22973 13.6886 6.84473 12.6779 6.84473H12.6672C11.6619 6.84473 10.7207 7.24044 10.0149 7.95165C9.31437 8.66286 8.92934 9.60399 8.93469 10.604C8.95073 12.6413 10.6191 14.3098 12.6565 14.3258V14.3258ZM14.4853 10.5772C14.4853 11.5558 13.6779 12.3579 12.6886 12.3633H12.6779C11.6993 12.3633 10.8919 11.5772 10.8758 10.5986C10.8598 9.63076 11.6619 8.79653 12.6351 8.76979C13.1164 8.7591 13.587 8.94628 13.9399 9.29387C14.2928 9.6361 14.496 10.1067 14.4907 10.5826L14.4853 10.5772Z" fill="#0B44E9"></path></svg> 