<?xml version="1.0" encoding="UTF-8"?> <svg xmlns="http://www.w3.org/2000/svg" width="49" height="50" viewBox="0 0 49 50" fill="none"><path d="M22.4312 35.9375H5.20361C4.37481 35.9375 3.57996 35.6083 2.9939 35.0222C2.40785 34.4362 2.07861 33.6413 2.07861 32.8125V7.8125C2.07861 6.9837 2.40785 6.18884 2.9939 5.60279C3.57996 5.01674 4.37481 4.6875 5.20361 4.6875H33.3286C34.1574 4.6875 34.9523 5.01674 35.5383 5.60279C36.1244 6.18884 36.4536 6.9837 36.4536 7.8125V21.1738" stroke="#2E56FF" stroke-width="3" stroke-linecap="square" stroke-linejoin="round"></path><path d="M2.07861 14.0625H36.4536" stroke="#2E56FF" stroke-width="3" stroke-linecap="square" stroke-linejoin="round"></path><path d="M11.4536 7.8125V1.5625" stroke="#2E56FF" stroke-width="3" stroke-linecap="square" stroke-linejoin="round"></path><path d="M27.0786 7.8125V1.5625" stroke="#2E56FF" stroke-width="3" stroke-linecap="square" stroke-linejoin="round"></path><path d="M40.9202 40.4405L38.8265 42.5342C36.9231 44.4377 34.8169 46.1271 32.5456 47.572H32.5336C31.4716 48.2479 30.2109 48.5415 28.9596 48.4043C27.7083 48.2672 26.5411 47.7074 25.6508 46.8175L24.8757 46.0425C24.5301 45.6965 24.3359 45.2275 24.3359 44.7384C24.3359 44.2494 24.5301 43.7804 24.8757 43.4344L28.1337 40.1765C28.4796 39.8308 28.9487 39.6367 29.4377 39.6367C29.9267 39.6367 30.3958 39.8308 30.7417 40.1765V40.1765C31.088 40.5222 31.5573 40.7164 32.0466 40.7164C32.5359 40.7164 33.0052 40.5222 33.3515 40.1765L38.5676 34.9604C38.7392 34.7892 38.8754 34.5858 38.9682 34.3619C39.0611 34.1379 39.109 33.8979 39.109 33.6555C39.109 33.4131 39.0611 33.173 38.9682 32.9491C38.8754 32.7252 38.7392 32.5218 38.5676 32.3506V32.3506C38.2219 32.0046 38.0278 31.5356 38.0278 31.0466C38.0278 30.5575 38.2219 30.0885 38.5676 29.7425L41.8255 26.4846C42.1715 26.139 42.6405 25.9448 43.1295 25.9448C43.6186 25.9448 44.0876 26.139 44.4336 26.4846L45.2086 27.2597C46.0988 28.1498 46.6587 29.317 46.7959 30.5684C46.9331 31.8198 46.6393 33.0806 45.9631 34.1425V34.1562C44.5164 36.4286 42.8253 38.536 40.9202 40.4405V40.4405Z" stroke="#2E56FF" stroke-width="3" stroke-linecap="square" stroke-linejoin="round"></path><path d="M20.4473 21.5227L30.5781 31.6535" stroke="#2E56FF" stroke-width="3" stroke-linecap="square" stroke-linejoin="round"></path><path d="M26.3441 20.6453H19.5698V27.4195" stroke="#2E56FF" stroke-width="3" stroke-linecap="square" stroke-linejoin="round"></path></svg> 