<?xml version="1.0" encoding="UTF-8"?> <svg xmlns="http://www.w3.org/2000/svg" width="48" height="52" viewBox="0 0 48 52" fill="none"><path d="M39.9202 42.4405L37.8265 44.5342C35.9231 46.4377 33.8169 48.1271 31.5456 49.572H31.5336C30.4716 50.2479 29.2109 50.5415 27.9596 50.4043C26.7083 50.2672 25.5411 49.7074 24.6508 48.8175L23.8757 48.0425C23.5301 47.6965 23.3359 47.2275 23.3359 46.7384C23.3359 46.2494 23.5301 45.7804 23.8757 45.4344L27.1337 42.1765C27.4796 41.8308 27.9487 41.6367 28.4377 41.6367C28.9267 41.6367 29.3958 41.8308 29.7417 42.1765V42.1765C30.088 42.5222 30.5573 42.7164 31.0466 42.7164C31.5359 42.7164 32.0052 42.5222 32.3515 42.1765L37.5676 36.9604C37.7392 36.7892 37.8754 36.5858 37.9682 36.3619C38.0611 36.1379 38.109 35.8979 38.109 35.6555C38.109 35.4131 38.0611 35.173 37.9682 34.9491C37.8754 34.7252 37.7392 34.5218 37.5676 34.3506V34.3506C37.2219 34.0046 37.0278 33.5356 37.0278 33.0466C37.0278 32.5575 37.2219 32.0885 37.5676 31.7425L40.8255 28.4846C41.1715 28.139 41.6405 27.9448 42.1295 27.9448C42.6186 27.9448 43.0876 28.139 43.4336 28.4846L44.2086 29.2597C45.0988 30.1498 45.6587 31.317 45.7959 32.5684C45.9331 33.8198 45.6393 35.0806 44.9631 36.1425V36.1562C43.5164 38.4286 41.8253 40.536 39.9202 42.4405V42.4405Z" stroke="#2E56FF" stroke-width="3" stroke-linecap="square" stroke-linejoin="round"></path><path d="M19.4473 23.5225L29.5781 33.6532" stroke="#2E56FF" stroke-width="3" stroke-linecap="square" stroke-linejoin="round"></path><path d="M25.3441 22.6455H18.5698V29.4198" stroke="#2E56FF" stroke-width="3" stroke-linecap="square" stroke-linejoin="round"></path><g clip-path="url(#clip0_1094_3216)"><path d="M8.08714 46.128C4.75912 46.1244 2.5369 43.551 2.87195 40.1867C3.12768 37.6193 3.28632 35.0412 3.48877 32.4679C3.76226 28.9896 4.03575 25.5101 4.30923 22.0319C4.53773 19.1254 4.76623 16.2176 4.99354 13.3111C5.0409 12.7022 5.19126 12.5464 5.77138 12.544C6.99911 12.5404 8.22802 12.556 9.45575 12.5344C9.78252 12.5284 9.83698 12.6411 9.83224 12.9359C9.81567 13.8924 9.82514 14.8489 9.82632 15.8053C9.8275 16.8493 10.3911 17.5181 11.2565 17.5109C12.1089 17.5025 12.6583 16.8469 12.6606 15.8293C12.663 14.8405 12.6677 13.8528 12.6559 12.864C12.6535 12.6291 12.6985 12.5368 12.9602 12.5368C17.1015 12.5452 21.2417 12.5464 25.3831 12.5368C25.6755 12.5368 25.7063 12.6495 25.7039 12.8964C25.6921 13.9008 25.6956 14.9052 25.7004 15.9096C25.7039 16.8672 26.2959 17.5241 27.1353 17.5109C27.9558 17.4989 28.5288 16.8517 28.5335 15.9168C28.5394 14.8968 28.543 13.8756 28.5288 12.8556C28.5252 12.6063 28.5915 12.5344 28.8413 12.5368C30.1164 12.55 31.3915 12.5452 32.6678 12.5416C33.1117 12.5404 33.3272 12.7525 33.3615 13.1996C33.6185 16.5257 33.8789 19.8505 34.1406 23.1753C34.3939 23.1645 34.6473 23.1574 34.903 23.1574C35.6134 23.1574 36.3131 23.2005 37.0021 23.2832C36.7334 19.9032 36.454 16.5233 36.203 13.1409C36.0467 11.029 34.6686 9.67821 32.5813 9.67102C31.3524 9.66743 30.1247 9.66143 28.8958 9.67702C28.6152 9.68061 28.5205 9.62308 28.5205 9.31744C28.5217 8.50242 28.3796 7.70536 28.1736 6.91431C26.8381 1.78202 21.102 -1.28033 16.1662 0.517532C12.3812 1.89709 9.98852 5.19676 9.83934 9.27549C9.82751 9.61349 9.73397 9.6866 9.41313 9.68061C8.1854 9.65904 6.95649 9.66623 5.72758 9.67342C3.69951 9.68541 2.30248 11.0518 2.15923 13.0965C1.98046 15.6399 1.76735 18.1821 1.56727 20.7242C1.29496 24.1881 1.02148 27.652 0.750358 31.1159C0.517125 34.0871 0.332433 37.0632 0.0423717 40.0284C-0.355427 44.1024 2.04676 47.6873 5.96199 48.7504C6.27218 48.8343 6.61078 48.8104 6.89374 48.9986H19.1178C18.6655 48.084 18.289 47.124 17.9954 46.128C14.6922 46.128 11.3891 46.1304 8.08595 46.128H8.08714ZM12.6571 9.22635C12.7802 5.88713 15.4961 3.0573 18.7661 2.8919C22.2066 2.71811 25.1427 5.13803 25.6163 8.53957C25.7213 9.29467 25.3981 9.67222 24.6467 9.67222H19.1663C17.1501 9.67222 15.135 9.66503 13.1188 9.67941C12.7731 9.68181 12.6417 9.62907 12.6571 9.22635Z" fill="#2E56FF"></path></g><defs><clipPath id="clip0_1094_3216"><rect width="37" height="49" fill="white"></rect></clipPath></defs></svg> 