<?xml version="1.0" encoding="UTF-8"?> <svg xmlns="http://www.w3.org/2000/svg" width="58" height="60" viewBox="0 0 58 60" fill="none"><path d="M9 9.8H8.8V10V12V12.2H9H27H27.2V12V10V9.8H27H9Z" fill="#2E56FF" stroke="#2E56FF" stroke-width="0.4"></path><path d="M9 17.8H8.8V18V20V20.2H9H37H37.2V20V18V17.8H37H9Z" fill="#2E56FF" stroke="#2E56FF" stroke-width="0.4"></path><path d="M9 25.8H8.8V26V28V28.2H9H37H37.2V28V26V25.8H37H9Z" fill="#2E56FF" stroke="#2E56FF" stroke-width="0.4"></path><path d="M42.7912 30.5393V30.9129L43.1648 30.9143C43.7698 30.9165 44.3657 30.9578 44.9503 31.0359L45.375 31.0926V30.6642V5.36905C45.375 2.74934 43.2507 0.625 40.6309 0.625H5.36905C2.74934 0.625 0.625 2.74934 0.625 5.36905V40.6309C0.625 43.2507 2.74934 45.375 5.36905 45.375H29.0676H29.4524L29.4425 44.9904C29.4391 44.8584 29.4369 44.7265 29.4369 44.5966C29.4369 44.1265 29.4603 43.6625 29.5072 43.2043L29.5494 42.7912H29.1341H29.133H5.36905C4.17788 42.7912 3.20881 41.8221 3.20881 40.6309V5.36905C3.20881 4.17788 4.17788 3.20881 5.36905 3.20881H40.6309C41.8221 3.20881 42.7912 4.17788 42.7912 5.36905V30.5393Z" fill="#2E56FF" stroke="#2E56FF" stroke-width="0.75"></path><path d="M56.2368 57.2297H56.7379L56.3112 56.8029L50.2038 50.6955C51.5557 49.0146 52.3679 46.8793 52.3679 44.559C52.3679 39.1494 47.9673 34.75 42.559 34.75C37.1506 34.75 32.75 39.1506 32.75 44.559C32.75 49.9673 37.1506 54.3679 42.559 54.3679C44.7034 54.3679 46.6883 53.6748 48.3038 52.5033L54.4567 58.6562L54.6335 58.833L54.8103 58.6562L56.2368 57.2297ZM35.2998 44.559C35.2998 40.5564 38.5564 37.2998 42.559 37.2998C46.5615 37.2998 49.8181 40.5564 49.8181 44.559C49.8181 48.5615 46.5615 51.8181 42.559 51.8181C38.5564 51.8181 35.2998 48.5615 35.2998 44.559Z" fill="#2E56FF" stroke="#2E56FF" stroke-width="0.5"></path><path d="M9 32.8H8.8V33V35V35.2H9H27H27.2V35V33V32.8H27H9Z" fill="#2E56FF" stroke="#2E56FF" stroke-width="0.4"></path></svg> 