<?xml version="1.0" encoding="UTF-8"?> <svg xmlns="http://www.w3.org/2000/svg" width="55" height="56" viewBox="0 0 55 56" fill="none"><path d="M8.50793 15.521H18.6053" stroke="#2E56FF" stroke-width="3" stroke-linecap="round" stroke-linejoin="round"></path><path d="M8.50793 22.2524H26.4589" stroke="#2E56FF" stroke-width="3" stroke-linecap="round" stroke-linejoin="round"></path><path d="M8.50793 28.9839H21.9711" stroke="#2E56FF" stroke-width="3" stroke-linecap="round" stroke-linejoin="round"></path><path d="M8.50793 35.7158H19.7273" stroke="#2E56FF" stroke-width="3" stroke-linecap="round" stroke-linejoin="round"></path><path d="M39.967 53.6666C47.4025 53.6666 53.4302 47.6389 53.4302 40.2034C53.4302 32.7679 47.4025 26.7402 39.967 26.7402C32.5315 26.7402 26.5038 32.7679 26.5038 40.2034C26.5038 47.6389 32.5315 53.6666 39.967 53.6666Z" stroke="#2E56FF" stroke-width="3" stroke-linejoin="round"></path><path d="M36.848 43.166C36.848 44.8938 38.2392 46.285 39.967 46.285C41.6948 46.285 43.086 44.8938 43.086 43.166C43.086 41.4382 41.6948 40.047 39.967 40.047C38.2392 40.047 36.848 38.6558 36.848 36.9281C36.848 35.2003 38.2392 33.8091 39.967 33.8091C41.6948 33.8091 43.086 35.2003 43.086 36.9281" stroke="#2E56FF" stroke-width="3" stroke-linecap="round" stroke-linejoin="round"></path><path d="M39.967 46.2852V48.372" stroke="#2E56FF" stroke-width="3" stroke-linecap="round" stroke-linejoin="round"></path><path d="M39.967 31.7222V33.809" stroke="#2E56FF" stroke-width="3" stroke-linecap="round" stroke-linejoin="round"></path><path d="M25.3819 49.1788H1.82129V2.05762H26.5038L37.7231 13.2769V23.3743" stroke="#2E56FF" stroke-width="3" stroke-linejoin="round"></path><path d="M26.5038 2.05762V13.2769H37.7231" stroke="#2E56FF" stroke-width="3" stroke-linecap="round" stroke-linejoin="round"></path></svg> 