<?xml version="1.0" encoding="UTF-8"?> <svg xmlns="http://www.w3.org/2000/svg" width="56" height="57" viewBox="0 0 56 57" fill="none"><path d="M8.45251 15.625H18.765" stroke="#2E56FF" stroke-width="3" stroke-linecap="round" stroke-linejoin="round"></path><path d="M8.45251 22.625H26.7858" stroke="#2E56FF" stroke-width="3" stroke-linecap="round" stroke-linejoin="round"></path><path d="M8.45251 29.625H22.2025" stroke="#2E56FF" stroke-width="3" stroke-linecap="round" stroke-linejoin="round"></path><path d="M8.45251 36.625H19.9108" stroke="#2E56FF" stroke-width="3" stroke-linecap="round" stroke-linejoin="round"></path><path d="M40.5817 55.292C48.1756 55.292 54.3317 49.024 54.3317 41.292C54.3317 33.56 48.1756 27.292 40.5817 27.292C32.9878 27.292 26.8317 33.56 26.8317 41.292C26.8317 49.024 32.9878 55.292 40.5817 55.292Z" stroke="#2E56FF" stroke-width="3" stroke-linejoin="round"></path><path d="M37.3962 44.3721C37.3962 46.1688 38.8171 47.6154 40.5817 47.6154C42.3462 47.6154 43.7671 46.1688 43.7671 44.3721C43.7671 42.5754 42.3462 41.1288 40.5817 41.1288C38.8171 41.1288 37.3962 39.6821 37.3962 37.8854C37.3962 36.0888 38.8171 34.6421 40.5817 34.6421C42.3462 34.6421 43.7671 36.0888 43.7671 37.8854" stroke="#2E56FF" stroke-width="3" stroke-linecap="round" stroke-linejoin="round"></path><path d="M40.5817 47.6157V49.7857" stroke="#2E56FF" stroke-width="3" stroke-linecap="round" stroke-linejoin="round"></path><path d="M40.5817 32.4722V34.6422" stroke="#2E56FF" stroke-width="3" stroke-linecap="round" stroke-linejoin="round"></path><path d="M25.6859 50.625H1.62341V1.625H26.8317L38.2901 13.2917V23.7917" stroke="#2E56FF" stroke-width="3" stroke-linejoin="round"></path><path d="M26.8318 1.625V13.2917H38.2901" stroke="#2E56FF" stroke-width="3" stroke-linecap="round" stroke-linejoin="round"></path></svg> 