<?xml version="1.0" encoding="UTF-8"?> <svg xmlns="http://www.w3.org/2000/svg" width="44" height="50" viewBox="0 0 44 50" fill="none"><path d="M42.2661 45.3125C42.2661 46.1413 41.9369 46.9362 41.3508 47.5222C40.7648 48.1083 39.9699 48.4375 39.1411 48.4375H4.76611C3.93731 48.4375 3.14246 48.1083 2.5564 47.5222C1.97035 46.9362 1.64111 46.1413 1.64111 45.3125V4.6875C1.64111 3.8587 1.97035 3.06384 2.5564 2.47779C3.14246 1.89174 3.93731 1.5625 4.76611 1.5625H26.9099C27.7381 1.56268 28.5324 1.89163 29.1182 2.47708L41.3515 14.7104C41.937 15.2962 42.2659 16.0905 42.2661 16.9188V45.3125Z" stroke="#2E56FF" stroke-width="3" stroke-linecap="square" stroke-linejoin="round"></path><path d="M41.311 17.1875H29.5751C28.797 17.1875 28.0507 16.8784 27.5005 16.3281C26.9502 15.7779 26.6411 15.0316 26.6411 14.2535V2.51758" stroke="#2E56FF" stroke-width="3" stroke-linecap="square" stroke-linejoin="round"></path><path d="M8.95361 16.25H21.4536" stroke="#2E56FF" stroke-width="3" stroke-linecap="square" stroke-linejoin="round"></path><path d="M9 31H35" stroke="#2E56FF" stroke-width="3" stroke-linecap="square" stroke-linejoin="round"></path><path d="M9 24H35" stroke="#2E56FF" stroke-width="3" stroke-linecap="square" stroke-linejoin="round"></path><path d="M9 38H35" stroke="#2E56FF" stroke-width="3" stroke-linecap="square" stroke-linejoin="round"></path></svg> 