<?xml version="1.0" encoding="UTF-8"?> <svg xmlns="http://www.w3.org/2000/svg" width="55" height="54" viewBox="0 0 55 54" fill="none"><path d="M15.4536 16.0625H27.9536" stroke="#2E56FF" stroke-width="3" stroke-linecap="square" stroke-linejoin="round"></path><path d="M15.4536 25.4375H23.2661" stroke="#2E56FF" stroke-width="3" stroke-linecap="square" stroke-linejoin="round"></path><path d="M15.4536 34.8125H23.2661" stroke="#2E56FF" stroke-width="3" stroke-linecap="square" stroke-linejoin="round"></path><path d="M37.3286 16.0625H40.4536" stroke="#2E56FF" stroke-width="3" stroke-linecap="square" stroke-linejoin="round"></path><path d="M31.8953 36.5084C32.3462 37.1014 32.9335 37.5768 33.6074 37.8941C34.2813 38.2115 35.0219 38.3615 35.7662 38.3313C38.1391 38.3313 40.062 36.8876 40.062 35.1084C40.062 33.3292 38.1391 31.8855 35.7662 31.8855C33.3933 31.8855 31.4683 30.4417 31.4683 28.6605C31.4683 26.8792 33.3933 25.4375 35.7662 25.4375C36.5104 25.4077 37.2509 25.5579 37.9247 25.8752C38.5986 26.1926 39.1859 26.6677 39.637 27.2605" stroke="#2E56FF" stroke-width="3" stroke-linecap="square" stroke-linejoin="round"></path><path d="M35.7661 38.3313V40.4771" stroke="#2E56FF" stroke-width="3" stroke-linecap="square" stroke-linejoin="round"></path><path d="M35.7661 23.2917V25.4376" stroke="#2E56FF" stroke-width="3" stroke-linecap="square" stroke-linejoin="round"></path><path d="M37.3286 50.4375C37.8066 49.6183 38.4909 48.9387 39.3134 48.4664C40.1358 47.994 41.0677 47.7455 42.0161 47.7455C42.9645 47.7455 43.8964 47.994 44.7189 48.4664C45.5413 48.9387 46.2256 49.6183 46.7036 50.4375V3.5625C46.2244 4.38074 45.5399 5.05968 44.7177 5.53214C43.8956 6.0046 42.9643 6.2542 42.0161 6.25625C41.0678 6.25441 40.1365 6.00489 39.3143 5.53241C38.4921 5.05993 37.8076 4.38088 37.3286 3.5625C36.8494 4.38074 36.1649 5.05968 35.3427 5.53214C34.5206 6.0046 33.5893 6.2542 32.6411 6.25625C31.6928 6.25441 30.7615 6.00489 29.9393 5.53241C29.1171 5.05993 28.4326 4.38088 27.9536 3.5625C27.4744 4.38074 26.7899 5.05968 25.9677 5.53214C25.1456 6.0046 24.2143 6.2542 23.2661 6.25625C22.3178 6.25441 21.3865 6.00489 20.5643 5.53241C19.7421 5.05993 19.0576 4.38088 18.5786 3.5625C18.0994 4.38074 17.4149 5.05968 16.5927 5.53214C15.7706 6.0046 14.8393 6.2542 13.8911 6.25625C12.9428 6.25441 12.0115 6.00489 11.1893 5.53241C10.3671 5.05993 9.68265 4.38088 9.20361 3.5625V50.4375C9.68159 49.6183 10.3659 48.9387 11.1884 48.4664C12.0108 47.994 12.9427 47.7455 13.8911 47.7455C14.8395 47.7455 15.7714 47.994 16.5939 48.4664C17.4163 48.9387 18.1006 49.6183 18.5786 50.4375C19.0566 49.6183 19.7409 48.9387 20.5634 48.4664C21.3858 47.994 22.3177 47.7455 23.2661 47.7455C24.2145 47.7455 25.1464 47.994 25.9689 48.4664C26.7913 48.9387 27.4756 49.6183 27.9536 50.4375" stroke="#2E56FF" stroke-width="3" stroke-linecap="square" stroke-linejoin="round"></path><path d="M27.9536 50.4375C28.4316 49.6183 29.1159 48.9386 29.9384 48.4662C30.7608 47.9939 31.6927 47.7454 32.6411 47.7454C33.5895 47.7454 34.5214 47.9939 35.3439 48.4662C36.1663 48.9386 36.8506 49.6183 37.3286 50.4375" stroke="#2E56FF" stroke-width="3" stroke-linecap="square" stroke-linejoin="round"></path></svg> 