<?xml version="1.0" encoding="UTF-8"?> <svg xmlns="http://www.w3.org/2000/svg" width="55" height="47" viewBox="0 0 55 47" fill="none"><path d="M53.3686 39.1747L31.6023 2.30774C30.6975 0.87613 29.1514 0.0114529 27.4563 0H27.4277C25.7441 0 24.198 0.841791 23.2818 2.25623L0.919931 39.0945C-0.0764722 40.6349 -0.150897 42.5247 0.725251 44.1338C1.6014 45.7487 3.22199 46.7107 5.06018 46.7107H49.1653C50.9921 46.7107 52.607 45.7544 53.4888 44.1624C54.3707 42.5647 54.3192 40.6922 53.3628 39.1747H53.3686ZM51.4903 43.0572C51.015 43.9162 50.1503 44.4258 49.1711 44.4258H5.06592C4.08096 44.4258 3.21054 43.9105 2.74098 43.0458C2.27141 42.1811 2.31147 41.1675 2.86121 40.3142L25.2116 3.49312C25.7098 2.73151 26.5115 2.29631 27.422 2.29631H27.4392C28.3611 2.30204 29.1686 2.75442 29.6439 3.50459L51.4101 40.3715C51.9312 41.2019 51.9599 42.204 51.4846 43.0629L51.4903 43.0572Z" fill="#0A3AF3"></path><path d="M32.9595 14.6484L19.1358 28.14H27.8687L18.5976 41.5857L35.9545 25.2023H27.7714L32.9595 14.6484Z" fill="#0A3AF3"></path></svg> 