<?xml version="1.0" encoding="UTF-8"?> <svg xmlns="http://www.w3.org/2000/svg" width="68" height="51" viewBox="0 0 68 51" fill="none"><path d="M35.0242 39.8348L25.8685 45.1017L33.7162 24.034L14.0968 31.9344L2.3252 20.0838L11.4809 16.1336L19.3287 20.0838L55.0883 4.41474C57.7565 3.30869 60.8171 4.57275 61.9158 7.25888C63.0145 9.94501 61.7589 13.0262 59.0906 14.1322L46.7958 18.7408L45.4879 21.3742" stroke="#2E56FF" stroke-width="3" stroke-linecap="round" stroke-linejoin="round"></path><path d="M43.3167 9.576L25.8947 2.33398L16.2419 6.36318L33.8732 13.7105" stroke="#2E56FF" stroke-width="3" stroke-linecap="round" stroke-linejoin="round"></path><path d="M65.8397 44.575H52.4985L48.0514 49.0519V44.575H40.256V26.6675H65.8397V44.575Z" stroke="#2E56FF" stroke-width="3" stroke-linecap="round" stroke-linejoin="round"></path><path d="M53.0479 36.8848V31.0122" stroke="#2E56FF" stroke-width="3" stroke-linecap="round" stroke-linejoin="round"></path><path d="M54.5379 40.75C54.5379 41.6071 53.8284 42.25 53.0479 42.25C52.1964 42.25 51.5579 41.5357 51.5579 40.75C51.5579 39.8929 52.2674 39.25 53.0479 39.25C53.8993 39.25 54.5379 39.9643 54.5379 40.75Z" fill="#2E56FF"></path></svg> 