<?xml version="1.0" encoding="UTF-8"?> <svg xmlns="http://www.w3.org/2000/svg" width="56" height="56" viewBox="0 0 56 56" fill="none"><path d="M10.0198 29.125C12.5051 29.125 14.5198 27.1103 14.5198 24.625C14.5198 22.1397 12.5051 20.125 10.0198 20.125C7.53449 20.125 5.51978 22.1397 5.51978 24.625C5.51978 27.1103 7.53449 29.125 10.0198 29.125Z" stroke="#2E56FF" stroke-width="3" stroke-linejoin="round"></path><path d="M10.0198 33.625H17.8948C17.8948 39.61 17.3323 43.75 13.3948 44.7625V53.875H6.64478V44.7625C2.70728 43.75 2.14478 39.61 2.14478 33.625H10.0198Z" stroke="#2E56FF" stroke-width="3" stroke-linejoin="round"></path><path d="M46.0198 29.125C48.5051 29.125 50.5198 27.1103 50.5198 24.625C50.5198 22.1397 48.5051 20.125 46.0198 20.125C43.5345 20.125 41.5198 22.1397 41.5198 24.625C41.5198 27.1103 43.5345 29.125 46.0198 29.125Z" stroke="#2E56FF" stroke-width="3" stroke-linejoin="round"></path><path d="M46.0198 33.625H53.8948C53.8948 39.61 53.3323 43.75 49.3948 44.7625V53.875H42.6448V44.7625C38.7073 43.75 38.1448 39.61 38.1448 33.625H46.0198Z" stroke="#2E56FF" stroke-width="3" stroke-linejoin="round"></path><path d="M28.0198 11.125C30.5051 11.125 32.5198 9.11028 32.5198 6.625C32.5198 4.13972 30.5051 2.125 28.0198 2.125C25.5345 2.125 23.5198 4.13972 23.5198 6.625C23.5198 9.11028 25.5345 11.125 28.0198 11.125Z" stroke="#2E56FF" stroke-width="3" stroke-linejoin="round"></path><path d="M28.0198 15.625H35.8948C35.8948 21.61 35.3323 25.75 31.3948 26.7625V35.875H24.6448V26.7625C20.7073 25.75 20.1448 21.61 20.1448 15.625H28.0198V15.625Z" stroke="#2E56FF" stroke-width="3" stroke-linejoin="round"></path></svg> 