<?xml version="1.0" encoding="UTF-8"?> <svg xmlns="http://www.w3.org/2000/svg" width="49" height="49" viewBox="0 0 49 49" fill="none"><path d="M9.531 28.3755L2.29004 40.8862L9.80425 39.6175L12.4196 46.7804L18.8213 36.0068" stroke="#2E56FF" stroke-width="3" stroke-linejoin="round"></path><path d="M39.7049 28.5508L46.8678 40.8858L39.3536 39.6172L36.7383 46.7801L30.3561 36.0845" stroke="#2E56FF" stroke-width="3" stroke-linejoin="round"></path><path d="M24.7351 37.021C34.4364 37.021 42.3008 29.1566 42.3008 19.4553C42.3008 9.75407 34.4364 1.88965 24.7351 1.88965C15.0339 1.88965 7.16943 9.75407 7.16943 19.4553C7.16943 29.1566 15.0339 37.021 24.7351 37.021Z" stroke="#2E56FF" stroke-width="3" stroke-linejoin="round"></path><path d="M24.7351 10.6724L27.6627 16.5276H33.518L28.6386 20.4311L30.5903 27.2622L24.7351 23.5929L18.8799 27.2622L20.8316 20.4311L15.9523 16.5276H21.8075L24.7351 10.6724Z" stroke="#2E56FF" stroke-width="3" stroke-linejoin="round"></path></svg> 