<?xml version="1.0" encoding="UTF-8"?> <svg xmlns="http://www.w3.org/2000/svg" width="48" height="51" viewBox="0 0 48 51" fill="none"><path d="M6.63379 41.0079H4.17754C3.60567 41.0265 3.04976 40.8177 2.63155 40.4272C2.21334 40.0367 1.96693 39.4964 1.94629 38.9246V3.97669C1.97437 3.41201 2.22481 2.88139 2.64289 2.50078C3.06097 2.12018 3.61271 1.92052 4.17754 1.94544H43.465C44.0299 1.92052 44.5816 2.12018 44.9997 2.50078C45.4178 2.88139 45.6682 3.41201 45.6963 3.97669V38.9246C45.6756 39.4964 45.4292 40.0367 45.011 40.4272C44.5928 40.8177 44.0369 41.0265 43.465 41.0079H41.0088" stroke="#2E56FF" stroke-width="3" stroke-linecap="square" stroke-linejoin="round"></path><path d="M9.75879 9.75781H37.8838" stroke="#2E56FF" stroke-width="3" stroke-linecap="square" stroke-linejoin="round"></path><path d="M9.68994 17.5703H30.0712" stroke="#2E56FF" stroke-width="3" stroke-linecap="square" stroke-linejoin="round"></path><path d="M23.8213 48.8203C30.2934 48.8203 35.54 43.5736 35.54 37.1016C35.54 30.6295 30.2934 25.3828 23.8213 25.3828C17.3492 25.3828 12.1025 30.6295 12.1025 37.1016C12.1025 43.5736 17.3492 48.8203 23.8213 48.8203Z" stroke="#2E56FF" stroke-width="3" stroke-linecap="square" stroke-linejoin="round"></path><path d="M28.5276 33.9956L23.4484 40.7685C23.3354 40.9186 23.1916 41.0427 23.0267 41.1325C22.8617 41.2223 22.6794 41.2757 22.4921 41.2891C22.3048 41.3026 22.1167 41.2757 21.9406 41.2103C21.7645 41.1449 21.6045 41.0426 21.4713 40.9102L18.8442 38.2831" stroke="#2E56FF" stroke-width="3" stroke-linecap="square" stroke-linejoin="round"></path></svg> 