<?xml version="1.0" encoding="UTF-8"?> <svg xmlns="http://www.w3.org/2000/svg" width="45" height="40" viewBox="0 0 45 40" fill="none"><path d="M1.97305 24.9084C1.47831 24.9084 0.980535 24.7236 0.598099 24.3509C-0.181949 23.5934 -0.200161 22.3451 0.558641 21.5665L20.9704 0.596922C21.7292 -0.181748 22.9767 -0.199927 23.7598 0.557534C24.5398 1.31499 24.558 2.56329 23.7992 3.34196L3.38746 24.3115C3.00198 24.7084 2.486 24.9084 1.97305 24.9084Z" fill="#2E56FF"></path><path d="M43.0271 24.9084C42.5112 24.9084 41.9982 24.7084 41.6127 24.3115L21.1979 3.34196C20.4391 2.56329 20.4573 1.31499 21.2374 0.557534C22.0205 -0.199927 23.2679 -0.181748 24.0267 0.596922L44.4416 21.5665C45.2004 22.3482 45.1821 23.5934 44.4021 24.3509C44.0197 24.7236 43.5219 24.9084 43.0271 24.9084Z" fill="#2E56FF"></path><path d="M8.54405 17.8822C7.45441 17.8822 6.57117 17.0005 6.57117 15.9128V5.21745C6.57117 4.12973 7.45441 3.24805 8.54405 3.24805C9.63369 3.24805 10.5169 4.12973 10.5169 5.21745V15.9128C10.5169 17.0005 9.63369 17.8822 8.54405 17.8822Z" fill="#2E56FF"></path><path d="M8.24059 40.0004C7.15095 40.0004 6.2677 39.1187 6.2677 38.031V27.3356C6.2677 26.2479 7.15095 25.3662 8.24059 25.3662C9.33023 25.3662 10.2135 26.2479 10.2135 27.3356V38.031C10.2135 39.1187 9.33023 40.0004 8.24059 40.0004Z" fill="#2E56FF"></path><path d="M36.7716 40.0004C35.682 40.0004 34.7987 39.1187 34.7987 38.031V27.3356C34.7987 26.2479 35.682 25.3662 36.7716 25.3662C37.8612 25.3662 38.7445 26.2479 38.7445 27.3356V38.031C38.7445 39.1187 37.8612 40.0004 36.7716 40.0004Z" fill="#2E56FF"></path><path d="M36.7715 40.0003H8.24059C7.15095 40.0003 6.2677 39.1186 6.2677 38.0309C6.2677 36.9432 7.15095 36.0615 8.24059 36.0615H36.7715C37.8612 36.0615 38.7444 36.9432 38.7444 38.0309C38.7444 39.1186 37.8612 40.0003 36.7715 40.0003Z" fill="#2E56FF"></path></svg> 