<?xml version="1.0" encoding="UTF-8"?> <svg xmlns="http://www.w3.org/2000/svg" width="54" height="53" viewBox="0 0 54 53" fill="none"><path d="M50.5485 15.7283C50.0904 10.777 45.6474 6.52855 40.6459 6.2587C38.9954 6.17085 37.3136 6.1834 35.6945 6.18967C35.067 6.18967 34.4395 6.20223 33.8057 6.19595C29.4192 6.18968 25.0326 6.18968 20.6461 6.19595H14.2389C14.1887 6.20223 14.1071 6.2085 14.0946 6.20223C14.0946 6.20223 14.0757 6.17712 14.0506 6.09554C13.1344 2.25499 9.6453 -0.0292621 5.74827 0.661034C2.84902 1.18189 0.30746 3.9117 0.0815452 6.74819V6.83604C0.125473 7.03058 0.106647 7.06823 0.0815452 7.10589L0 7.19374V8.56806L0.0125248 8.65591C0.0564527 8.80652 0.100394 8.96341 0.144322 9.12029C0.238454 9.45917 0.332585 9.81059 0.458093 10.1495C1.56257 13.0487 4.44925 14.9502 7.46772 14.7744C10.6682 14.5862 13.2474 12.4588 14.0318 9.34621C14.1009 9.08264 14.0946 9.08264 14.2766 9.08264C19.7738 9.09519 25.2711 9.0952 30.7684 9.0952H39.6104C41.1793 9.0952 42.6603 9.5031 44.0095 10.3064C45.8921 11.4297 47.1974 13.2872 47.5802 15.4083C47.9567 17.498 47.4108 19.6567 46.0678 21.3385C44.4299 23.3843 42.2398 24.3821 39.372 24.3821H31.2327C25.3464 24.3821 19.4538 24.3821 13.5674 24.3758H13.536C10.8313 24.3758 8.51573 25.1101 6.46367 26.6224C3.70249 28.6557 2.14618 31.9314 2.30307 35.3955C2.45995 38.8595 4.31745 41.9909 7.26062 43.7669C9.1558 44.909 11.2016 45.4675 13.511 45.4675H30.875L30.6554 45.6872C29.3187 47.0238 27.9758 48.3605 26.6454 49.7034C26.0053 50.3561 25.9551 51.2221 26.5199 51.812C26.8023 52.1069 27.1474 52.2638 27.524 52.2638H27.5428C27.9507 52.2638 28.3398 52.0881 28.6849 51.7492C30.9064 49.5465 33.1154 47.3313 35.318 45.1098C36.002 44.4195 36.0021 43.6037 35.3306 42.9197C33.1216 40.6856 30.8939 38.4579 28.6661 36.2426C28.1452 35.7281 27.4361 35.6277 26.8525 35.9916C26.3191 36.3242 26.0555 36.9455 26.2061 37.5479C26.3065 37.9433 26.5513 38.2194 26.8023 38.4641L28.3084 39.9702C29.1744 40.8363 30.0341 41.7023 30.9064 42.562H30.6993L30.6052 42.3549L30.6491 42.562H26.2438C21.9012 42.562 17.5586 42.562 13.2223 42.562C12.1617 42.562 11.189 42.3863 10.3293 42.0474C7.27946 40.83 5.57257 38.7026 5.25252 35.7281C4.91992 32.6155 6.20011 30.1492 9.05542 28.4047C10.3356 27.6202 11.8668 27.2876 13.9377 27.2814C18.8137 27.2876 23.6897 27.2876 28.572 27.2876C32.1552 27.2876 35.7385 27.2876 39.328 27.2876H39.3406C41.2797 27.2876 43.0054 26.9174 44.6056 26.1581C48.5717 24.2754 50.9626 20.0897 50.561 15.7409L50.5485 15.7283ZM11.3522 7.65185C11.3522 8.77515 10.8878 9.83569 10.0658 10.6515C9.25623 11.4485 8.22077 11.8815 7.1163 11.8815C4.78812 11.8627 2.89921 9.9612 2.90548 7.6393C2.90548 6.516 3.35107 5.46173 4.15432 4.65848C4.9513 3.8615 6.00555 3.42849 7.1163 3.42849H7.12886C8.25216 3.42849 9.31896 3.88032 10.1222 4.68985C10.9192 5.4931 11.3522 6.54737 11.3459 7.65185H11.3522Z" fill="#0A3AF3"></path><path d="M51.8537 38.8974C50.4919 37.5545 48.7348 36.8328 46.8333 36.8454C42.9238 36.8893 39.7421 40.0898 39.7358 43.9805C39.7358 45.8757 40.4764 47.6579 41.8318 49.0071C43.1873 50.3626 44.9758 51.1031 46.871 51.1031H46.8835C48.785 51.1031 50.5735 50.3501 51.9227 48.9946C53.2719 47.6391 54.0062 45.8506 53.9999 43.9554C53.9936 42.0477 53.228 40.2529 51.8537 38.8974ZM46.8961 39.7509C47.9818 39.7509 49.0172 40.1839 49.8142 40.9683C50.6362 41.7779 51.0881 42.8447 51.0944 43.968C51.0944 45.0913 50.6614 46.1455 49.8707 46.9488C49.0737 47.752 48.0131 48.1913 46.8898 48.1976H46.871C44.5554 48.1976 42.6602 46.315 42.6476 43.9931C42.6351 41.7151 44.5679 39.7697 46.8647 39.7509H46.9024H46.8961Z" fill="#0A3AF3"></path></svg> 