<?xml version="1.0" encoding="UTF-8"?> <svg xmlns="http://www.w3.org/2000/svg" width="48" height="51" viewBox="0 0 48 51" fill="none"><path d="M21.4312 35.9375H5.20361C4.37481 35.9375 3.57996 35.6083 2.9939 35.0222C2.40785 34.4362 2.07861 33.6413 2.07861 32.8125V7.8125C2.07861 6.9837 2.40785 6.18884 2.9939 5.60279C3.57996 5.01674 4.37481 4.6875 5.20361 4.6875H33.3286C34.1574 4.6875 34.9523 5.01674 35.5383 5.60279C36.1244 6.18884 36.4536 6.9837 36.4536 7.8125V18.1738" stroke="#2E56FF" stroke-width="3" stroke-linecap="square" stroke-linejoin="round"></path><path d="M2.07861 14.0625H36.4536" stroke="#2E56FF" stroke-width="3" stroke-linecap="square" stroke-linejoin="round"></path><path d="M11.4536 7.8125V1.5625" stroke="#2E56FF" stroke-width="3" stroke-linecap="square" stroke-linejoin="round"></path><path d="M27.0786 7.8125V1.5625" stroke="#2E56FF" stroke-width="3" stroke-linecap="square" stroke-linejoin="round"></path><path d="M34.937 38.082C38.5495 38.082 41.478 35.1535 41.478 31.541C41.478 27.9285 38.5495 25 34.937 25C31.3245 25 28.396 27.9285 28.396 31.541C28.396 35.1535 31.3245 38.082 34.937 38.082Z" stroke="#2E56FF" stroke-width="3" stroke-linecap="square" stroke-linejoin="round"></path><path d="M45.8288 48.4227C44.7136 46.5229 43.1209 44.9478 41.2088 43.8538C39.2967 42.7598 37.1317 42.1851 34.9288 42.1865C32.7258 42.188 30.5616 42.7657 28.6509 43.8622C26.7403 44.9587 25.1497 46.536 24.0371 48.4373" stroke="#2E56FF" stroke-width="3" stroke-linecap="square" stroke-linejoin="round"></path></svg> 