<?xml version="1.0" encoding="UTF-8"?> <svg xmlns="http://www.w3.org/2000/svg" width="54" height="55" viewBox="0 0 54 55" fill="none"><path d="M52.154 40.0416C51.4296 40.1941 50.9848 40.8677 51.0992 41.6429L51.1754 42.1703C51.5313 44.3815 50.9213 46.688 49.5043 48.5052C48.081 50.3288 45.9778 51.4789 43.7349 51.6632C40.202 51.9555 36.8661 50.0111 35.4301 46.8087C33.9878 43.5872 34.7502 39.7811 37.33 37.3475C40.3164 34.5263 45.1328 34.3866 48.2907 37.0298C48.367 37.0934 48.4051 37.1379 48.4241 37.1315C48.4114 37.1506 48.386 37.1887 48.3288 37.2459C46.5497 39.1013 44.8214 40.9503 43.055 42.8438C43.0169 42.8819 42.9914 42.9073 42.9787 42.92C42.966 42.9073 42.947 42.8883 42.9216 42.8628C42.445 42.3228 41.9367 41.7954 41.4411 41.287L41.0153 40.8486C40.6722 40.4928 40.2656 40.2958 39.8589 40.2895C39.5348 40.2767 39.1917 40.4229 38.9376 40.6771C38.3593 41.2489 38.4038 42.0305 39.0392 42.7103L41.7651 45.6078C42.1908 46.0589 42.5721 46.2686 42.966 46.2686C43.3663 46.2686 43.7476 46.0526 44.186 45.5951L53.4057 35.7781C54.4351 34.6788 53.8759 33.9036 53.5836 33.6241C53.3041 33.3572 52.9991 33.2174 52.6623 33.2301C52.2556 33.2365 51.8426 33.4589 51.436 33.8909C51.2136 34.1197 50.9975 34.3548 50.7815 34.5899C50.5845 34.7996 50.3621 35.041 50.2859 35.0601C50.2223 35.0601 49.9936 34.9012 49.7839 34.7487L49.7077 34.6915C49.409 34.4819 49.3201 34.2849 49.3201 33.8592C49.3328 25.9738 49.3328 18.0884 49.3328 10.1967V5.85691C49.3328 4.47808 48.9071 4.05236 47.5028 4.05236H40.399C40.183 4.05236 39.9606 4.05236 39.9479 4.07142C39.9288 4.02059 39.9288 3.81091 39.9288 3.60758V3.12467C39.9288 2.73707 39.9288 2.34312 39.9288 1.95553C39.9034 1.11679 39.3696 0.544928 38.5944 0.538574H38.5754C37.7811 0.538574 37.241 1.11679 37.2283 1.9873C37.2156 2.66083 37.2156 3.34071 37.2283 4.01424C37.2283 4.0333 37.2283 4.04601 37.2283 4.05871C37.222 4.05871 37.222 4.05871 37.2029 4.05871C33.4731 4.04601 29.7433 4.05236 26.0134 4.05871C26.0262 3.47414 26.0262 2.89593 26.0134 2.31771V2.08261C26.0071 1.14856 25.4988 0.557638 24.6918 0.54493C24.3233 0.532222 23.9865 0.659302 23.7451 0.894401C23.4655 1.16763 23.313 1.58064 23.3066 2.08896C23.3003 2.74978 23.2939 3.40425 23.3066 4.06507C23.3066 4.06507 23.3003 4.06507 23.2939 4.06507C19.5641 4.05871 15.8343 4.05871 12.1044 4.06507C12.1172 3.38519 12.1172 2.71166 12.1044 2.03178C12.0981 1.14221 11.5771 0.563992 10.7765 0.54493C10.4016 0.538576 10.0584 0.659302 9.81064 0.894401C9.53106 1.16127 9.37856 1.54887 9.37221 2.02542V2.22875C9.3595 2.76249 9.3468 3.30894 9.37857 3.85538C9.38492 3.99517 9.37857 4.046 9.37857 4.05236C9.35951 4.05871 9.30867 4.07142 9.16253 4.07142C7.30715 4.05236 5.45812 4.05236 3.60274 4.05871H1.73466C0.457498 4.05871 0 4.51621 0 5.79337V49.9603C0 51.3518 0.425725 51.7776 1.81091 51.7776H6.09988C15.8216 51.7776 25.5432 51.7776 35.2713 51.7712C35.7161 51.7712 36.0084 51.8665 36.3197 52.108C37.959 53.3978 39.8653 54.1349 41.9875 54.3065C42.2925 54.3319 42.5975 54.3446 42.8961 54.3446C47.8205 54.3446 52.1158 51.1612 53.5137 46.3449C54.0157 44.6102 54.0729 42.8501 53.6789 41.1028C53.5137 40.3594 52.8339 39.8955 52.1286 40.0416H52.154ZM9.37857 8.55738V8.72258C9.39763 9.63756 9.93136 10.2285 10.751 10.2285H10.7574C11.5834 10.2285 12.1044 9.64392 12.1108 8.65269C12.1108 8.02999 12.1235 7.4073 12.1108 6.79095C15.8406 6.79095 19.5704 6.79095 23.2939 6.79095C23.2939 6.79095 23.3003 6.79095 23.3066 6.79095V6.80366C23.2939 7.44542 23.2939 8.08718 23.3066 8.72258C23.3193 9.65663 23.8404 10.2348 24.6664 10.2348C25.4924 10.2348 26.0134 9.65663 26.0198 8.72258V8.33499C26.0325 7.88385 26.0389 7.41365 26.0134 6.9498C26.0134 6.85449 26.0134 6.81001 26.0134 6.7973C26.0325 6.7973 26.077 6.77824 26.185 6.7846C28.2882 6.79731 30.3977 6.7973 32.5009 6.7973H35.284C35.8749 6.7973 36.4722 6.81001 37.0631 6.7846C37.0885 6.7846 37.114 6.7846 37.133 6.7846C37.1966 6.7846 37.2347 6.7846 37.241 6.7846C37.241 6.80366 37.2537 6.84814 37.241 6.93709C37.2029 7.48354 37.2156 8.03635 37.2283 8.56373V8.81789C37.2474 9.65662 37.7875 10.2285 38.569 10.2348H38.5881C39.376 10.2348 39.9161 9.67568 39.9352 8.84331C39.9542 8.2079 39.9542 7.56614 39.9352 6.8672C39.9352 6.83543 39.9352 6.81002 39.9352 6.79095C39.9479 6.79095 39.9606 6.79095 39.9923 6.79095C42.1845 6.80366 44.3766 6.80366 46.5688 6.79095C46.5815 6.79095 46.5878 6.79095 46.6005 6.79095C46.6005 6.80366 46.6005 6.81637 46.6005 6.82908C46.5878 9.15465 46.5815 11.2515 46.6005 13.4055C46.6005 13.4246 46.6005 13.4373 46.6005 13.45C46.5815 13.45 46.5624 13.45 46.5433 13.45C46.4989 13.45 46.4544 13.45 46.4163 13.45H20.5108C14.6715 13.45 8.83847 13.45 2.99911 13.4627C2.84026 13.4627 2.77672 13.45 2.76401 13.45C2.76401 13.45 2.73859 13.3992 2.73859 13.2149C2.77036 11.0355 2.75765 8.82424 2.73859 6.95615C2.73859 6.8672 2.73859 6.82272 2.73859 6.81001C2.75765 6.81001 2.80213 6.79731 2.87203 6.80366C4.74647 6.82272 6.72258 6.82272 9.28961 6.80366C9.33409 6.80366 9.36586 6.80366 9.39127 6.80366C9.39127 6.82272 9.39127 6.84178 9.39127 6.8672C9.36586 7.43906 9.37221 8.01728 9.38492 8.58279L9.37857 8.55738ZM2.76401 49.039C2.76401 49.039 2.73859 48.9881 2.73859 48.7975C2.7513 38.3006 2.75765 27.4035 2.73859 16.3983C2.73859 16.2076 2.7513 16.1632 2.7513 16.1632C2.75765 16.1632 2.80849 16.1377 2.99276 16.1377C17.4482 16.1505 31.91 16.1505 46.3654 16.1377C46.5243 16.1377 46.5751 16.1568 46.5751 16.1441C46.5751 16.1568 46.5942 16.2076 46.5942 16.3601C46.5815 20.7508 46.5815 25.1351 46.5815 29.5257V32.9569C44.5228 32.3533 42.6229 32.2071 40.8755 32.5121C41.1043 32.2579 41.225 31.9212 41.2123 31.5526C41.1869 30.7775 40.6023 30.2564 39.7636 30.2437C39.1472 30.2437 38.5309 30.2437 37.9146 30.2437H36.2816C35.6589 30.2437 35.0362 30.2437 34.4071 30.2437C33.5811 30.2564 32.9965 30.8029 32.9902 31.5844C32.9838 32.3723 33.5684 32.9505 34.3817 32.9632C35.2649 32.9696 36.1736 32.976 37.0949 32.976C37.7748 32.976 38.4674 32.976 39.16 32.9632C37.5079 33.5796 36.0147 34.6471 34.6994 36.1847C31.4398 39.9845 31.0458 44.3052 33.5303 49.0263H28.8283C20.2122 49.0263 11.6025 49.0263 2.98641 49.039C2.80214 49.039 2.77037 49.0263 2.75766 49.0263L2.76401 49.039Z" fill="#0A3AF3"></path><path d="M14.7859 30.25C13.0957 30.25 11.3992 30.25 9.70899 30.25C8.76859 30.25 8.12684 30.7901 8.11413 31.5907C8.10778 31.9529 8.2285 32.2769 8.46995 32.5184C8.76224 32.817 9.20067 32.9759 9.72805 32.9822C10.3063 32.9822 10.8845 32.9822 11.4627 32.9822H12.994C13.2546 32.9822 13.5151 32.9822 13.7756 32.9822C14.1187 32.9822 14.4682 32.9822 14.8176 32.9822C15.7263 32.9759 16.3426 32.4294 16.3553 31.6352C16.3617 31.273 16.2346 30.9489 15.9931 30.7011C15.7136 30.4152 15.2815 30.2564 14.7922 30.2564L14.7859 30.25Z" fill="#0A3AF3"></path><path d="M27.2907 30.25C26.6934 30.25 26.0898 30.25 25.4925 30.25H23.8849C23.2749 30.25 22.6586 30.25 22.0486 30.25C21.1781 30.25 20.5808 30.7901 20.5618 31.578C20.5554 31.9656 20.6761 32.3024 20.9239 32.5502C21.1908 32.8297 21.5784 32.9759 22.0486 32.9759C22.9191 32.9759 23.796 32.9822 24.6665 32.9822C25.537 32.9822 26.4138 32.9822 27.2843 32.9759C27.7482 32.9759 28.1421 32.8234 28.409 32.5502C28.6505 32.3024 28.7775 31.9656 28.7712 31.578C28.7521 30.7774 28.1739 30.2564 27.2907 30.25Z" fill="#0A3AF3"></path><path d="M14.824 38.3137C13.0957 38.3137 11.3674 38.3137 9.6391 38.3137C8.75589 38.3137 8.11414 38.8856 8.10779 39.6735C8.10779 40.4741 8.73048 41.0396 9.6264 41.046C9.97588 41.046 10.319 41.046 10.6685 41.046C10.929 41.046 11.1895 41.046 11.4437 41.046H12.994C13.604 41.046 14.2077 41.046 14.8177 41.046C15.7136 41.0396 16.3426 40.4741 16.3426 39.6798C16.3426 39.2859 16.1901 38.9364 15.9042 38.6886C15.6246 38.4472 15.2497 38.3201 14.824 38.3137Z" fill="#0A3AF3"></path><path d="M27.2651 38.3137C26.6551 38.3137 26.0515 38.3137 25.4415 38.3137H23.8974C23.2874 38.3137 22.6838 38.3137 22.0738 38.3137C21.1588 38.3137 20.5616 38.8538 20.5679 39.6798C20.5679 40.5059 21.1588 41.0396 22.0802 41.046C22.9443 41.046 23.8085 41.046 24.6726 41.046C25.5368 41.046 26.4009 41.046 27.2651 41.046C28.1801 41.046 28.7773 40.5059 28.7773 39.6798C28.7773 38.8602 28.1864 38.3264 27.2651 38.3201V38.3137Z" fill="#0A3AF3"></path><path d="M27.3034 22.1865C26.6998 22.1865 26.0898 22.1865 25.4861 22.1865H23.8913C23.2749 22.1865 22.6649 22.1865 22.0486 22.1865C21.1718 22.1865 20.5808 22.7266 20.5681 23.5209C20.5681 23.9021 20.6888 24.2389 20.9303 24.493C21.1908 24.7599 21.5657 24.9061 22.0105 24.9124C22.8683 24.9188 23.7451 24.9251 24.6347 24.9251C25.5243 24.9251 26.4138 24.9251 27.3161 24.9124C28.1803 24.9061 28.7775 24.3405 28.7712 23.5399C28.7712 22.7393 28.1739 22.1992 27.297 22.1929L27.3034 22.1865Z" fill="#0A3AF3"></path><path d="M34.3881 24.8997C35.3095 24.9124 36.2181 24.9124 37.114 24.9124C38.0099 24.9124 38.9567 24.9124 39.8399 24.8934C40.2402 24.8934 40.6024 24.7409 40.8502 24.4803C41.098 24.2262 41.2251 23.8704 41.2124 23.4891C41.187 22.7139 40.6087 22.1865 39.77 22.1802C39.1537 22.1802 38.5373 22.1802 37.921 22.1802H36.288C35.6653 22.1802 35.0426 22.1802 34.4135 22.1802C33.5875 22.1865 33.0029 22.7393 32.9902 23.5145C32.9902 23.8894 33.1173 24.2389 33.3651 24.4867C33.6193 24.7472 33.9815 24.887 34.3818 24.8934L34.3881 24.8997Z" fill="#0A3AF3"></path><path d="M14.7859 22.1865C13.0957 22.1865 11.3992 22.1865 9.709 22.1865C8.75589 22.1865 8.12684 22.7139 8.11414 23.5209C8.11414 23.8831 8.23486 24.2071 8.46996 24.4549C8.74954 24.7408 9.18162 24.9061 9.67723 24.9061C10.2682 24.9061 10.8591 24.9061 11.45 24.9061H12.994C13.2546 24.9061 13.5151 24.9061 13.7692 24.9061C14.1187 24.9061 14.4618 24.9061 14.8113 24.9061C15.7199 24.8933 16.3363 24.3533 16.349 23.559C16.349 23.1968 16.2282 22.8728 15.9931 22.6313C15.7072 22.339 15.2942 22.1865 14.7859 22.1865Z" fill="#0A3AF3"></path></svg> 