<?xml version="1.0" encoding="UTF-8"?> <svg xmlns="http://www.w3.org/2000/svg" width="53" height="54" viewBox="0 0 53 54" fill="none"><path d="M32.7899 49.3152C32.8752 48.8512 33.091 48.6853 33.4903 48.5386C36.667 47.3794 39.1563 45.3624 40.9805 42.5433C42.2412 40.5948 42.9867 38.463 43.233 36.1621C43.2685 35.8336 43.3635 35.7108 43.7225 35.7252C44.5565 35.7571 45.3938 35.7459 46.2294 35.7332C49.4335 35.6869 51.9083 33.3988 51.9598 30.3262C52.0162 26.9825 52.0129 23.6357 51.9598 20.292C51.9147 17.5064 49.7684 15.2645 46.9749 14.9568C45.9042 14.8388 44.827 14.9057 43.7547 14.9153C43.3828 14.9185 43.262 14.818 43.2314 14.4545C43.1847 13.9187 43.0881 13.3846 42.9738 12.8568C41.7228 7.07193 36.9874 2.45105 31.1057 1.39071C28.2543 0.875684 25.3528 0.893223 22.4965 1.3062C17.758 1.99343 14.19 4.50478 11.7233 8.55004C10.5979 10.3949 9.96993 12.4167 9.75095 14.5581C9.72197 14.8404 9.62375 14.9137 9.34682 14.9089C8.47736 14.8914 7.60791 14.8914 6.73684 14.9041C3.56655 14.9536 1.09504 17.2449 1.04191 20.2968C0.983944 23.6404 0.987164 26.9873 1.04191 30.331C1.08699 33.1772 3.29927 35.4764 6.16686 35.6805C7.5757 35.781 8.99581 35.7268 10.4111 35.7316C11.5655 35.7364 11.9681 35.3282 11.9681 34.1753C11.9681 28.2454 11.9729 22.3154 11.9648 16.3854C11.9616 14.2233 12.3722 12.1536 13.4091 10.2418C15.3557 6.65736 18.3441 4.42505 22.3806 3.61345C24.3192 3.2228 26.2899 3.38862 28.2462 3.38862C30.9624 3.38862 33.4565 4.15399 35.6511 5.75009C39.2722 8.38261 41.0272 11.9655 41.032 16.3998C41.0369 22.3122 41.032 28.2262 41.032 34.1387C41.032 34.7302 41.024 35.3202 40.9435 35.9086C40.2511 40.8962 37.5623 44.3626 32.8913 46.3382C32.6128 46.4562 32.4904 46.4179 32.3391 46.1564C31.3231 44.4121 29.8016 43.5893 27.7583 43.7599C25.9937 43.9082 24.353 45.1774 23.8361 46.7879C23.2179 48.7172 23.7347 50.6195 25.1693 51.8488C25.9148 52.4882 26.7939 52.7928 27.7277 52.9985H28.7518C28.8291 52.9714 28.9047 52.9331 28.9836 52.9203C30.8739 52.6253 32.4486 51.1696 32.7899 49.3136V49.3152ZM46.3679 17.2082C48.2034 17.2513 49.6058 18.5348 49.6332 20.3494C49.6831 23.7074 49.6751 27.067 49.6235 30.4266C49.5994 32.0148 48.2501 33.3191 46.6384 33.4132C45.6369 33.4722 44.6274 33.4227 43.6227 33.445C43.2266 33.4546 43.3457 33.1899 43.3457 33.0018C43.3409 30.4362 43.3425 27.8691 43.3425 25.3035C43.3425 22.7379 43.3522 20.2059 43.3313 17.6563C43.328 17.264 43.4424 17.1827 43.8127 17.1938C44.6644 17.2226 45.5162 17.1875 46.3679 17.2082ZM6.72557 33.4355C4.78701 33.41 3.38139 32.1025 3.35563 30.1795C3.31215 26.9395 3.31215 23.6962 3.35563 20.4562C3.38139 18.53 4.78218 17.2305 6.72718 17.205C7.56282 17.1938 8.39847 17.2241 9.2325 17.1938C9.61087 17.1795 9.66723 17.315 9.66562 17.6499C9.65113 20.2154 9.65757 22.781 9.65757 25.3481C9.65757 27.9153 9.65113 30.4458 9.66562 32.9954C9.66723 33.335 9.60443 33.4626 9.23089 33.4482C8.39686 33.4179 7.56121 33.4482 6.72557 33.4371V33.4355ZM28.2655 50.7024C26.9324 50.7215 25.86 49.6675 25.8632 48.3457C25.8665 47.0462 26.9227 46.0002 28.2317 45.9986C29.5439 45.997 30.6002 47.0366 30.6066 48.3361C30.6131 49.6436 29.5858 50.6832 28.2655 50.7024Z" fill="#2E56FF" stroke="#2E56FF" stroke-width="1.2"></path></svg> 