<?xml version="1.0" encoding="UTF-8"?> <svg xmlns="http://www.w3.org/2000/svg" width="55" height="43" viewBox="0 0 55 43" fill="none"><path d="M52.5173 34.6522C52.0297 34.7204 51.8828 34.5788 51.8828 34.0544C51.9038 23.986 51.8986 13.9228 51.8933 3.85432C51.8933 1.97173 50.7921 0.534871 49.0458 0.104865C48.684 0.0157177 48.3169 0.0209758 47.9446 0.0209758C34.0638 0.0209758 20.183 0.0419632 6.30743 1.13714e-05C3.92142 -0.0052326 2.31152 1.80393 2.32201 3.99067C2.36921 14.0224 2.33774 24.0541 2.35347 34.0859C2.35347 34.5264 2.2853 34.7361 1.79761 34.6574C1.57737 34.6207 1.34139 34.6365 1.1159 34.6574C0.539059 34.7204 0.145761 35.1294 0.135273 35.7062C0.119541 36.776 0.0985653 37.851 0.145761 38.9208C0.219177 40.6723 1.68225 42.1249 3.43373 42.2402C3.6802 42.256 3.92667 42.2559 4.17313 42.2559C19.4751 42.2559 34.777 42.2559 50.0789 42.2559C52.2551 42.2559 53.3092 41.5061 54.0381 39.4347C54.0486 39.4085 54.0905 39.3927 54.1168 39.3718V35.3654C53.7654 34.7256 53.1938 34.5526 52.5226 34.647L52.5173 34.6522ZM27.1208 4.06409C27.6242 4.06409 27.8392 4.41543 28.049 4.80348C32.3595 12.8268 36.67 20.8501 40.9806 28.8733C41.1694 29.2194 41.3529 29.5551 41.1379 29.9589C40.9124 30.3784 40.5401 30.436 40.1101 30.436C35.7733 30.4308 31.4313 30.436 27.0946 30.436C22.7578 30.436 18.4892 30.4098 14.1839 30.457C13.2452 30.4675 12.7575 29.7648 13.2452 28.8681C17.5872 20.8605 21.8873 12.832 26.1978 4.80873C26.4023 4.42592 26.6226 4.06934 27.126 4.06934L27.1208 4.06409ZM51.9929 38.7373C51.9562 39.5186 51.4004 40.0745 50.6243 40.1426C50.4669 40.1531 50.3096 40.1531 50.1523 40.1531C34.7927 40.1531 19.4331 40.1531 4.07874 40.1531C3.06141 40.1531 2.50555 39.8385 2.31677 39.0833C2.14372 38.3807 2.27482 37.6518 2.24335 36.9333C2.23811 36.797 2.32201 36.755 2.44787 36.7603C2.58945 36.7603 2.73104 36.7603 2.86738 36.7603C12.8467 36.7603 22.8312 36.7603 32.8105 36.7603C33.8016 36.7603 34.2736 36.4299 34.2893 35.7377C34.305 35.035 33.7859 34.6522 32.8052 34.6522C23.5444 34.6522 14.2835 34.6522 5.02266 34.6627C4.58741 34.6627 4.44058 34.5998 4.44058 34.1121C4.45631 24.0803 4.45631 14.0434 4.45631 4.01163C4.45631 2.70064 5.0279 2.13431 6.35463 2.13431C12.6789 2.13431 19.0083 2.13431 25.3326 2.13431H25.836C24.9288 2.65871 24.504 3.51872 24.0478 4.363C19.8788 12.1293 15.7046 19.8904 11.5252 27.6515C11.0899 28.4538 10.7281 29.2614 10.9798 30.2001C11.0323 30.3941 10.9431 30.4413 10.7648 30.4413C10.0464 30.436 9.32272 30.436 8.60429 30.4413C8.426 30.4413 8.34209 30.3836 8.36307 30.2001C8.37356 30.0952 8.36307 29.9903 8.36307 29.8854C8.36307 22.224 8.36832 14.5625 8.34734 6.90107C8.34734 6.41862 8.48893 6.33997 8.92942 6.34521C12.5163 6.36094 16.0979 6.3557 19.6848 6.35046C19.9313 6.35046 20.183 6.33997 20.4137 6.28228C20.9014 6.16167 21.1951 5.71595 21.1584 5.21253C21.1217 4.71435 20.7651 4.32629 20.2617 4.26337C20.1043 4.24239 19.947 4.24762 19.7897 4.24762C15.7466 4.24762 11.7087 4.24762 7.66562 4.24762C6.58012 4.24762 6.25499 4.57275 6.25499 5.65825C6.25499 14.1482 6.25499 22.633 6.25499 31.123C6.25499 32.2452 6.56439 32.5546 7.70233 32.5546C20.6549 32.5546 33.6023 32.5546 46.5549 32.5546C47.6876 32.5546 48.0023 32.2452 48.0023 31.1282C48.0023 22.6382 48.0023 14.1535 48.0023 5.6635C48.0023 4.578 47.6772 4.25287 46.5917 4.25287C42.407 4.25287 38.2275 4.25287 34.0428 4.25287C33.2457 4.25287 32.7948 4.63045 32.7843 5.2807C32.779 5.78936 33.0832 6.19837 33.5866 6.3085C33.8068 6.35569 34.0376 6.36096 34.2683 6.36096C37.9758 6.36096 41.6833 6.37143 45.3908 6.35046C45.8155 6.35046 45.8994 6.47631 45.8994 6.87486C45.889 14.573 45.889 22.2712 45.8994 29.9641C45.8994 30.3416 45.8365 30.4885 45.4222 30.4623C44.8087 30.4203 44.1952 30.4465 43.5764 30.457C43.3509 30.457 43.204 30.4465 43.2827 30.1476C43.4767 29.3872 43.2722 28.6898 42.9156 28.0238C38.5631 19.9219 34.2054 11.8199 29.8529 3.71272C29.512 3.0782 29.0506 2.57479 28.4213 2.14478H28.9352C35.2437 2.14478 41.5522 2.14478 47.8607 2.14478C49.2503 2.14478 49.7957 2.69541 49.7957 4.09031C49.7957 14.0906 49.7957 24.0856 49.8062 34.0859C49.8062 34.5683 49.6856 34.6889 49.2136 34.6784C47.5618 34.647 45.9099 34.6627 44.2581 34.6679C43.5816 34.6679 43.1201 35.0455 43.0572 35.6066C42.9786 36.2673 43.4715 36.7708 44.2319 36.7708C46.3032 36.776 48.3798 36.7708 50.4512 36.7708C50.8707 36.7708 51.2955 36.7813 51.715 36.7708C51.9458 36.7603 52.0192 36.8389 52.0139 37.0697C51.9982 37.6308 52.0244 38.1971 52.0034 38.7582L51.9929 38.7373Z" fill="#0B44E9"></path><path d="M38.8358 34.6522C38.2642 34.6417 37.766 35.1504 37.7713 35.722C37.7765 36.2936 38.238 36.7445 38.8096 36.7498C39.4074 36.7498 39.8793 36.2831 39.8741 35.6905C39.8636 35.1347 39.3916 34.6575 38.8358 34.647V34.6522Z" fill="#0B44E9"></path><path d="M26.0143 12.8423H28.7831V16.1512L28.0647 22.2342H26.7484L26.0143 16.1512V12.8423V12.8423ZM26.0772 23.2883H28.7254V25.8473H26.0772V23.2883Z" fill="#0B44E9"></path></svg> 