<?xml version="1.0" encoding="UTF-8"?> <svg xmlns="http://www.w3.org/2000/svg" width="55" height="54" viewBox="0 0 55 54" fill="none"><path d="M40.4536 7.98544C36.9162 5.12337 32.5038 3.56189 27.9536 3.56189C23.4034 3.56189 18.991 5.12337 15.4536 7.98544" stroke="#2E56FF" stroke-width="3" stroke-linecap="square" stroke-linejoin="round"></path><path d="M20.6619 15.5167C22.7256 13.8478 25.2994 12.9373 27.9535 12.9373C30.6077 12.9373 33.1815 13.8478 35.2452 15.5167" stroke="#2E56FF" stroke-width="3" stroke-linecap="square" stroke-linejoin="round"></path><path d="M9.98486 36.375C13.0052 36.375 15.4536 33.9266 15.4536 30.9062C15.4536 27.8859 13.0052 25.4375 9.98486 25.4375C6.96456 25.4375 4.51611 27.8859 4.51611 30.9062C4.51611 33.9266 6.96456 36.375 9.98486 36.375Z" stroke="#2E56FF" stroke-width="3" stroke-linecap="square" stroke-linejoin="round"></path><path d="M17.9858 43.3803C17.4578 42.1464 16.6592 41.0469 15.6493 40.163C14.6393 39.2791 13.4437 38.6333 12.1507 38.2733C10.8578 37.9134 9.50046 37.8485 8.17903 38.0834C6.8576 38.3183 5.60582 38.847 4.51611 39.6305" stroke="#2E56FF" stroke-width="3" stroke-linecap="square" stroke-linejoin="round"></path><path d="M45.9224 36.375C48.9427 36.375 51.3911 33.9266 51.3911 30.9062C51.3911 27.8859 48.9427 25.4375 45.9224 25.4375C42.9021 25.4375 40.4536 27.8859 40.4536 30.9062C40.4536 33.9266 42.9021 36.375 45.9224 36.375Z" stroke="#2E56FF" stroke-width="3" stroke-linecap="square" stroke-linejoin="round"></path><path d="M37.955 43.3668C38.4817 42.136 39.2783 41.0392 40.2857 40.1575C41.2932 39.2758 42.4858 38.6316 43.7756 38.2725C45.0653 37.9135 46.4193 37.8487 47.7374 38.083C49.0556 38.3174 50.3043 38.8448 51.3913 39.6264" stroke="#2E56FF" stroke-width="3" stroke-linecap="square" stroke-linejoin="round"></path><path d="M27.9536 36.375C31.8369 36.375 34.9849 33.227 34.9849 29.3437C34.9849 25.4605 31.8369 22.3125 27.9536 22.3125C24.0704 22.3125 20.9224 25.4605 20.9224 29.3437C20.9224 33.227 24.0704 36.375 27.9536 36.375Z" stroke="#2E56FF" stroke-width="3" stroke-linecap="square" stroke-linejoin="round"></path><path d="M40.4536 50.4375C40.0466 47.4109 38.5553 44.6347 36.2565 42.6243C33.9577 40.6139 31.0075 39.5059 27.9536 39.5059C24.8997 39.5059 21.9495 40.6139 19.6507 42.6243C17.3519 44.6347 15.8606 47.4109 15.4536 50.4375" stroke="#2E56FF" stroke-width="3" stroke-linecap="square" stroke-linejoin="round"></path></svg> 