<?xml version="1.0" encoding="UTF-8"?> <svg xmlns="http://www.w3.org/2000/svg" width="47" height="47" viewBox="0 0 47 47" fill="none"><path d="M41.1689 45.9523C41.398 45.8969 41.6279 45.845 41.8508 45.7729C44.1191 45.0406 45.4537 43.4888 45.8977 41.1599C45.9153 41.0702 45.8598 40.9454 45.9981 40.9014V40.5497C45.8281 40.4486 45.9144 40.2842 45.9144 40.1541C45.91 31.9514 45.91 23.7496 45.9144 15.5469C45.9144 15.4159 45.8316 15.2514 45.9981 15.1495V14.7099C45.9814 14.6914 45.9717 14.6721 45.9646 14.6518C45.8043 14.3494 45.8343 14.0004 45.7541 13.6786C44.9868 10.5795 42.2375 8.39915 39.0459 8.38596C37.4488 8.37893 35.8517 8.38156 34.2546 8.3886C34.0106 8.38948 33.8803 8.36574 33.8107 8.07034C33.6997 7.5991 33.3464 7.27116 32.8646 7.20171C32.521 7.1516 32.4999 6.99598 32.5051 6.7208C32.5201 5.94625 32.5192 5.17081 32.5087 4.39626C32.4849 2.68362 31.404 1.39739 29.7223 1.06242C29.6853 1.05539 29.6536 1.0211 29.6184 1H17.2045C16.9253 1.11166 16.6364 1.20573 16.3668 1.33848C15.1934 1.91874 14.5292 2.85946 14.4693 4.17207C14.4297 5.03366 14.4534 5.89877 14.4579 6.763C14.4587 6.99686 14.4649 7.14456 14.1398 7.18852C13.6271 7.25798 13.2545 7.58767 13.1286 8.10374C13.0642 8.36926 12.9295 8.39123 12.704 8.38948C11.1491 8.38156 9.59432 8.3842 8.03951 8.38508C4.05954 8.3886 1.00453 11.4385 1.00276 15.4246C0.99836 23.681 1.00012 31.9382 1.00188 40.1946C1.00188 43.0827 2.83507 45.3237 5.6628 45.9083C5.73239 45.9224 5.81168 45.9127 5.84427 45.9989H40.9804C41.0024 45.9778 41.0271 45.9593 41.0553 45.9584C41.0941 45.9567 41.1319 45.9549 41.1698 45.9523H41.1689ZM9.9969 43.3719C8.91161 43.3446 7.82545 43.3675 6.74016 43.3614C4.96248 43.3499 3.64639 42.0531 3.64551 40.2851C3.64022 31.9822 3.63846 23.6792 3.64551 15.3763C3.64815 12.89 5.5289 11.0349 8.02365 11.0226C8.71341 11.0191 9.40316 11.0393 10.092 11.0138C10.4092 11.0024 10.4726 11.107 10.4717 11.4051C10.4611 15.051 10.4647 18.6978 10.4647 22.3438V27.2197C10.4647 32.4473 10.4594 37.6748 10.4752 42.9024C10.4761 43.2972 10.3713 43.3798 9.99602 43.3701L9.9969 43.3719ZM17.098 4.46395C17.1024 3.87842 17.3393 3.63841 17.926 3.63753C19.7733 3.63313 21.6214 3.63577 23.4687 3.63577C25.2869 3.63577 27.1051 3.63489 28.9233 3.63577C29.6457 3.63577 29.8677 3.85908 29.8694 4.57913C29.8712 5.32555 29.8633 6.07197 29.8739 6.81839C29.8774 7.03642 29.8501 7.13929 29.5876 7.17885C29.0546 7.25798 28.6776 7.57888 28.5393 8.11254C28.4794 8.34288 28.3763 8.39124 28.1508 8.39124C25.042 8.38244 21.9333 8.3842 18.8245 8.3886C18.6052 8.3886 18.4731 8.38069 18.4061 8.09935C18.2854 7.58943 17.9093 7.27204 17.3931 7.18325C17.1552 7.1428 17.0847 7.07511 17.09 6.83509C17.1059 6.04471 17.0918 5.25433 17.0971 4.46395H17.098ZM33.3279 43.3719C26.7396 43.3578 20.1521 43.3596 13.5637 43.3701C13.2131 43.3701 13.0986 43.3095 13.0986 42.9279C13.1101 32.442 13.1101 21.9569 13.0995 11.471C13.0995 11.1105 13.1779 11.0103 13.5505 11.0121C16.8812 11.0279 20.212 11.0411 23.5427 11.0138C25.2385 10.9998 26.4594 11.7787 27.3298 13.1476C28.1816 14.4874 28.2354 15.9214 27.6584 17.3914C27.5544 17.656 27.3967 17.7615 27.1078 17.7888C26.0128 17.8907 24.9214 18.0226 23.829 18.1483C23.3991 18.1984 23.06 18.4033 22.8116 18.7646C21.0198 21.3679 19.221 23.9667 17.4345 26.5735C16.979 27.2381 17.1165 28.0013 17.7815 28.4628C19.561 29.699 21.3484 30.9254 23.1428 32.1404C23.8158 32.5958 24.5681 32.4525 25.0315 31.7852C26.8312 29.1873 28.6203 26.5814 30.4121 23.9782C30.6561 23.623 30.7327 23.2423 30.6182 22.8115C30.3258 21.7108 30.0571 20.603 29.7673 19.5014C29.7197 19.3212 29.7153 19.1761 29.8016 19.0029C31.1538 16.2801 30.9627 13.6724 29.2017 11.1861C29.1779 11.1527 29.163 11.114 29.1145 11.0209C30.635 11.0209 32.1017 11.027 33.5684 11.0147C33.8159 11.0129 33.867 11.1026 33.8503 11.3189C33.8344 11.5229 33.8468 11.7286 33.8468 11.9334C33.8468 22.2435 33.8433 32.5528 33.8582 42.8629C33.8582 43.3033 33.7349 43.371 33.3297 43.3701L33.3279 43.3719ZM27.7623 23.179C26.4224 25.1167 25.0808 27.0544 23.7524 29C23.6044 29.2163 23.5163 29.2119 23.3181 29.073C22.4081 28.4329 21.4902 27.8026 20.5644 27.1854C20.367 27.0535 20.3565 26.9682 20.4877 26.7783C21.839 24.8301 23.1815 22.8757 24.5276 20.9248C24.5998 20.8202 24.6597 20.705 24.82 20.6883C25.5635 20.6118 26.307 20.5256 27.0188 20.4465C27.2417 20.3876 27.2972 20.4869 27.3395 20.6593C27.5042 21.3406 27.6769 22.0211 27.8663 22.6954C27.9217 22.8915 27.8662 23.0286 27.7623 23.179ZM40.2167 43.3631C39.1014 43.3605 37.9862 43.3438 36.8718 43.3728C36.5133 43.3825 36.4807 43.2541 36.4816 42.9534C36.4904 37.6959 36.4878 32.4393 36.4878 27.1819C36.4878 21.9244 36.4939 16.7258 36.4772 11.4982C36.4754 11.0806 36.6014 10.9927 36.9837 11.0147C37.9043 11.0692 38.8319 10.9452 39.7507 11.0956C41.6878 11.4112 43.1748 13.0614 43.2875 15.0193C43.2981 15.1943 43.306 15.3701 43.306 15.546C43.306 23.732 43.3078 31.918 43.306 40.104C43.306 41.6619 42.5502 42.7723 41.213 43.2101C40.8897 43.3156 40.5593 43.364 40.2184 43.3631H40.2167Z" fill="#2E56FF" stroke="#2E56FF" stroke-width="0.5"></path></svg> 