<?xml version="1.0" encoding="UTF-8"?> <svg xmlns="http://www.w3.org/2000/svg" width="49" height="49" viewBox="0 0 49 49" fill="none"><path d="M47.5 24.5C47.5 37.2025 37.2025 47.5 24.5 47.5C11.7975 47.5 1.5 37.2025 1.5 24.5C1.5 11.7975 11.7975 1.5 24.5 1.5C37.2025 1.5 47.5 11.7975 47.5 24.5Z" stroke="#2E56FF" stroke-width="3"></path><path d="M18.08 19.168L21.28 19.456C21.12 16.768 22.592 15.232 24.992 15.232C27.104 15.232 28.544 16.48 28.544 18.464C28.544 20.384 27.2 21.632 25.728 22.88C24.16 24.288 22.496 25.76 22.496 28.288V28.704H25.792V28.288C25.792 26.656 27.008 25.6 28.352 24.448C30.016 22.976 31.936 21.312 31.936 18.336C31.936 14.848 29.184 12.384 25.216 12.384C20.8 12.384 17.984 15.072 18.08 19.168ZM24.448 36.448C25.92 36.448 27.04 35.424 27.04 33.92C27.04 32.384 25.888 31.36 24.448 31.36C23.04 31.36 21.856 32.384 21.856 33.92C21.856 35.456 23.04 36.448 24.448 36.448Z" fill="#2E56FF"></path><path d="M18.08 19.168L17.5801 19.1797L17.5906 19.626L18.0352 19.666L18.08 19.168ZM21.28 19.456L21.2352 19.954L21.8136 20.006L21.7791 19.4263L21.28 19.456ZM25.728 22.88L25.4047 22.4986L25.3992 22.5032L25.3939 22.508L25.728 22.88ZM22.496 28.704H21.996V29.204H22.496V28.704ZM25.792 28.704V29.204H26.292V28.704H25.792ZM28.352 24.448L28.6774 24.8277L28.6833 24.8225L28.352 24.448ZM18.0352 19.666L21.2352 19.954L21.3248 18.958L18.1248 18.67L18.0352 19.666ZM21.7791 19.4263C21.7047 18.1764 22.0125 17.2651 22.5476 16.6705C23.0803 16.0787 23.8998 15.732 24.992 15.732V14.732C23.6842 14.732 22.5677 15.1533 21.8044 16.0015C21.0435 16.8469 20.6953 18.0476 20.7809 19.4857L21.7791 19.4263ZM24.992 15.732C25.9513 15.732 26.7118 16.0147 27.226 16.4761C27.7345 16.9325 28.044 17.6002 28.044 18.464H29.044C29.044 17.3438 28.6335 16.3955 27.894 15.7319C27.1602 15.0733 26.1447 14.732 24.992 14.732V15.732ZM28.044 18.464C28.044 20.1229 26.8998 21.231 25.4047 22.4986L26.0513 23.2614C27.5002 22.033 29.044 20.6451 29.044 18.464H28.044ZM25.3939 22.508C23.8517 23.8929 21.996 25.5061 21.996 28.288H22.996C22.996 26.0139 24.4683 24.6831 26.0621 23.252L25.3939 22.508ZM21.996 28.288V28.704H22.996V28.288H21.996ZM22.496 29.204H25.792V28.204H22.496V29.204ZM26.292 28.704V28.288H25.292V28.704H26.292ZM26.292 28.288C26.292 26.9258 27.2887 26.018 28.6774 24.8276L28.0266 24.0684C26.7273 25.182 25.292 26.3862 25.292 28.288H26.292ZM28.6833 24.8225C30.3272 23.3683 32.436 21.5652 32.436 18.336H31.436C31.436 21.0588 29.7048 22.5837 28.0207 24.0735L28.6833 24.8225ZM32.436 18.336C32.436 16.4526 31.6895 14.8274 30.3961 13.6782C29.1069 12.5327 27.3028 11.884 25.216 11.884V12.884C27.0973 12.884 28.6531 13.4673 29.7319 14.4258C30.8065 15.3806 31.436 16.7314 31.436 18.336H32.436ZM25.216 11.884C22.9073 11.884 20.9665 12.5879 19.6113 13.8778C18.2523 15.1712 17.5293 17.0096 17.5801 19.1797L18.5799 19.1563C18.5347 17.2304 19.1717 15.6767 20.3007 14.6022C21.4335 13.5241 23.1087 12.884 25.216 12.884V11.884ZM24.448 36.948C26.1752 36.948 27.54 35.7207 27.54 33.92H26.54C26.54 35.1273 25.6648 35.948 24.448 35.948V36.948ZM27.54 33.92C27.54 32.0875 26.1433 30.86 24.448 30.86V31.86C25.6327 31.86 26.54 32.6805 26.54 33.92H27.54ZM24.448 30.86C22.7888 30.86 21.356 32.0836 21.356 33.92H22.356C22.356 32.6844 23.2912 31.86 24.448 31.86V30.86ZM21.356 33.92C21.356 35.7646 22.7975 36.948 24.448 36.948V35.948C23.2825 35.948 22.356 35.1474 22.356 33.92H21.356Z" fill="#2E56FF"></path></svg> 