<?xml version="1.0" encoding="UTF-8"?> <svg xmlns="http://www.w3.org/2000/svg" width="1239" height="349" viewBox="0 0 1239 349" fill="none"><g clip-path="url(#clip0_709_2736)"><rect width="1239" height="349" fill="white"></rect><path d="M218.337 223.648H213.825V225.904H218.337V230.608H220.665V225.904H225.177V223.648H220.665V218.968H218.337V223.648Z" fill="white"></path><rect x="495" y="63" width="156" height="151" rx="75.5" fill="#F2F2F2"></rect><rect x="259" y="63" width="156" height="151" rx="75.5" fill="#F2F2F2"></rect><rect x="19" y="59" width="160" height="155" rx="77.5" fill="#F2F2F2"></rect><path d="M37.606 250.411C37.606 253.309 39.676 255.235 42.79 255.217C45.868 255.217 47.92 253.291 47.92 250.411V241.951H46.318V250.321C46.318 252.499 44.896 253.759 42.79 253.777C40.522 253.777 39.226 252.391 39.226 250.321V241.951H37.606V250.411ZM50.8553 255.001H52.4033V250.393C52.4033 248.503 53.4473 247.423 54.9233 247.423C56.3993 247.423 56.9753 248.323 56.9753 249.979V255.001H58.5233V249.601C58.5233 247.243 57.3533 246.019 55.3013 246.019C53.9873 246.019 52.7993 246.631 52.3493 247.693L52.2233 246.253H50.8553V255.001ZM61.1745 258.691H62.7225V253.489C63.3165 254.623 64.5045 255.235 65.8545 255.235C68.3925 255.235 69.9045 253.273 69.9045 250.627C69.9045 247.981 68.3925 246.019 65.8545 246.019C64.4325 246.019 63.2085 246.703 62.6325 247.945L62.5065 246.253H61.1745V258.691ZM65.5485 253.867C63.7665 253.867 62.7765 252.517 62.7765 250.627C62.7765 248.737 63.7665 247.405 65.5485 247.405C67.3305 247.405 68.3205 248.737 68.3205 250.627C68.3205 252.517 67.3305 253.867 65.5485 253.867ZM73.7256 255.001V250.015C73.7256 248.521 74.6076 247.531 76.0656 247.531C76.3896 247.531 76.6776 247.567 76.8756 247.675V246.181C76.6956 246.091 76.4616 246.037 76.0656 246.037C75.0936 246.037 74.0856 246.559 73.6716 247.585L73.5996 246.253H72.1776V255.001H73.7256ZM78.4248 250.663C78.4248 253.435 80.2608 255.235 82.9068 255.235C84.7248 255.235 86.2908 254.317 86.8488 252.859L85.5888 252.301C85.2108 253.273 84.1308 253.921 82.9428 253.921C81.1608 253.921 80.0808 252.931 79.9908 250.987H87.0648C87.1008 250.807 87.1368 250.537 87.1368 250.231C87.1368 247.711 85.4088 246.019 82.8528 246.019C80.1708 246.019 78.4248 247.945 78.4248 250.663ZM80.0088 249.943C80.1888 248.341 81.2868 247.351 82.7988 247.351C84.4188 247.351 85.5348 248.359 85.6068 249.943H80.0088ZM92.951 255.235C94.409 255.235 95.633 254.569 96.191 253.327C96.191 253.903 96.245 254.407 96.317 255.001H97.865C97.757 254.569 97.667 253.525 97.667 252.697V241.951H96.119V247.837C95.561 246.649 94.373 246.019 92.987 246.019C90.431 246.019 88.901 247.981 88.901 250.627C88.901 253.273 90.413 255.235 92.951 255.235ZM93.257 253.867C91.475 253.867 90.503 252.517 90.503 250.627C90.503 248.755 91.475 247.405 93.257 247.405C95.057 247.405 96.029 248.755 96.029 250.627C96.029 252.517 95.057 253.867 93.257 253.867ZM101.252 244.597C101.918 244.597 102.404 244.147 102.404 243.481C102.404 242.833 101.918 242.383 101.252 242.383C100.604 242.383 100.1 242.833 100.1 243.481C100.1 244.147 100.604 244.597 101.252 244.597ZM100.478 255.001H102.026V246.253H100.478V255.001ZM104.317 250.663C104.317 253.399 106.117 255.235 108.709 255.235C110.653 255.235 112.309 254.227 112.885 252.535L111.463 251.995C111.103 253.093 110.095 253.831 108.763 253.831C107.035 253.831 105.919 252.535 105.919 250.627C105.919 248.701 107.053 247.405 108.799 247.405C110.023 247.405 111.049 248.089 111.391 249.169L112.795 248.611C112.327 247.063 110.707 246.019 108.763 246.019C106.099 246.019 104.317 247.927 104.317 250.663ZM116.887 255.001H118.435V247.585H120.793V246.253H118.435V243.571H116.887V246.253H114.421V247.585H116.887V255.001ZM125.218 255.235C126.694 255.235 127.936 254.515 128.314 253.633C128.332 254.173 128.386 254.677 128.458 255.001H129.934C129.826 254.695 129.754 253.813 129.754 253.165V249.133C129.754 246.955 128.296 246.019 126.208 246.019C124.318 246.019 122.788 246.883 122.446 248.467L123.85 248.791C123.994 247.891 124.876 247.297 126.154 247.297C127.378 247.297 128.206 247.909 128.206 249.025V249.907H125.902C123.652 249.907 122.14 250.807 122.14 252.679C122.14 254.209 123.328 255.235 125.218 255.235ZM125.614 254.101C124.39 254.101 123.706 253.489 123.706 252.553C123.706 251.455 124.516 250.915 126.064 250.915H128.206V251.995C128.206 253.255 127.126 254.101 125.614 254.101ZM137.152 255.235C139.69 255.235 141.202 253.273 141.202 250.627C141.202 247.981 139.69 246.019 137.152 246.019C135.784 246.019 134.596 246.649 134.02 247.801V241.951H132.472L132.454 255.001H133.804L133.93 253.309C134.506 254.569 135.73 255.235 137.152 255.235ZM136.846 253.867C135.1 253.867 134.074 252.553 134.074 250.627C134.074 248.719 135.1 247.405 136.846 247.405C138.628 247.405 139.618 248.755 139.618 250.627C139.618 252.517 138.628 253.867 136.846 253.867ZM145.058 255.001V241.951H143.51V255.001H145.058ZM147.384 250.663C147.384 253.435 149.22 255.235 151.866 255.235C153.684 255.235 155.25 254.317 155.808 252.859L154.548 252.301C154.17 253.273 153.09 253.921 151.902 253.921C150.12 253.921 149.04 252.931 148.95 250.987H156.024C156.06 250.807 156.096 250.537 156.096 250.231C156.096 247.711 154.368 246.019 151.812 246.019C149.13 246.019 147.384 247.945 147.384 250.663ZM148.968 249.943C149.148 248.341 150.246 247.351 151.758 247.351C153.378 247.351 154.494 248.359 154.566 249.943H148.968ZM49.5528 274.663C49.5528 277.399 51.3528 279.235 53.9448 279.235C55.8888 279.235 57.5448 278.227 58.1208 276.535L56.6988 275.995C56.3388 277.093 55.3308 277.831 53.9988 277.831C52.2708 277.831 51.1548 276.535 51.1548 274.627C51.1548 272.701 52.2888 271.405 54.0348 271.405C55.2588 271.405 56.2848 272.089 56.6268 273.169L58.0308 272.611C57.5628 271.063 55.9428 270.019 53.9988 270.019C51.3348 270.019 49.5528 271.927 49.5528 274.663ZM62.7541 279.235C64.2301 279.235 65.4721 278.515 65.8501 277.633C65.8681 278.173 65.9221 278.677 65.9941 279.001H67.4701C67.3621 278.695 67.2901 277.813 67.2901 277.165V273.133C67.2901 270.955 65.8321 270.019 63.7441 270.019C61.8541 270.019 60.3241 270.883 59.9821 272.467L61.3861 272.791C61.5301 271.891 62.4121 271.297 63.6901 271.297C64.9141 271.297 65.7421 271.909 65.7421 273.025V273.907H63.4381C61.1881 273.907 59.6761 274.807 59.6761 276.679C59.6761 278.209 60.8641 279.235 62.7541 279.235ZM63.1501 278.101C61.9261 278.101 61.2421 277.489 61.2421 276.553C61.2421 275.455 62.0521 274.915 63.6001 274.915H65.7421V275.995C65.7421 277.255 64.6621 278.101 63.1501 278.101ZM71.5379 279.001V265.951H69.9899V279.001H71.5379ZM75.8973 279.001V265.951H74.3493V279.001H75.8973ZM86.4767 279.001H88.0967L91.7147 270.253H90.0407L87.3047 277.201L84.5687 270.253H82.8407L86.4767 279.001ZM93.0055 274.627C93.0055 277.237 94.8415 279.235 97.6135 279.235C100.403 279.235 102.239 277.237 102.239 274.627C102.239 272.017 100.403 270.019 97.6135 270.019C94.8415 270.019 93.0055 272.017 93.0055 274.627ZM94.5895 274.627C94.5895 272.791 95.7595 271.405 97.6135 271.405C99.4855 271.405 100.637 272.791 100.637 274.627C100.637 276.463 99.4855 277.849 97.6135 277.849C95.7595 277.849 94.5895 276.463 94.5895 274.627ZM106.097 279.001V265.951H104.549V279.001H106.097ZM108.71 275.635C108.71 278.137 110.24 279.235 112.022 279.235C113.372 279.235 114.452 278.623 114.884 277.687C114.92 278.137 114.956 278.587 115.046 279.001H116.54C116.45 278.641 116.378 277.939 116.378 277.237V270.253H114.83V275.203C114.83 276.661 114.002 277.831 112.436 277.831C111.284 277.831 110.258 277.183 110.258 275.437V270.253H108.71V275.635ZM119.173 279.001H120.739V274.393C120.739 272.467 121.747 271.423 123.169 271.423C124.555 271.423 125.149 272.269 125.149 273.961V279.001H126.697V274.393C126.697 272.467 127.705 271.423 129.145 271.423C130.549 271.423 131.107 272.305 131.107 273.961V279.001H132.673V273.619C132.673 271.225 131.503 270.019 129.523 270.019C128.137 270.019 126.949 270.721 126.463 272.035C126.031 270.685 125.023 270.019 123.547 270.019C122.269 270.019 121.135 270.649 120.685 271.711L120.559 270.253H119.173V279.001ZM134.789 274.663C134.789 277.435 136.625 279.235 139.271 279.235C141.089 279.235 142.655 278.317 143.213 276.859L141.953 276.301C141.575 277.273 140.495 277.921 139.307 277.921C137.525 277.921 136.445 276.931 136.355 274.987H143.429C143.465 274.807 143.501 274.537 143.501 274.231C143.501 271.711 141.773 270.019 139.217 270.019C136.535 270.019 134.789 271.945 134.789 274.663ZM136.373 273.943C136.553 272.341 137.651 271.351 139.163 271.351C140.783 271.351 141.899 272.359 141.971 273.943H136.373Z" fill="#1F1F21"></path><path d="M311.554 255H313.174L314.38 251.796H320.626L321.868 255H323.524L318.556 241.95H316.396L311.554 255ZM314.848 250.446L317.458 243.426L320.14 250.446H314.848ZM329.11 258.906C332.278 258.906 333.988 258.186 333.988 256.152C333.988 254.55 332.944 253.776 330.946 253.776H328.948C327.742 253.776 327.292 253.542 327.292 253.092C327.292 252.66 327.778 252.318 328.462 252.228C328.714 252.282 329.038 252.3 329.29 252.3C331.396 252.3 332.836 251.004 332.836 249.186C332.836 248.25 332.476 247.458 331.846 246.882C332.134 246.36 332.872 246.054 333.826 246.072V244.686C332.44 244.542 331.378 245.262 331.072 246.414C330.586 246.162 329.938 246.018 329.308 246.018C327.184 246.018 325.78 247.35 325.78 249.186C325.78 250.446 326.446 251.418 327.544 251.922C326.518 252.174 325.96 252.768 325.96 253.47C325.96 254.028 326.392 254.55 327.076 254.694C325.816 254.856 324.952 255.648 324.952 256.728C324.952 258.402 326.608 258.906 329.11 258.906ZM329.308 251.13C328.03 251.13 327.184 250.338 327.184 249.186C327.184 248.016 328.03 247.206 329.308 247.206C330.568 247.206 331.414 248.016 331.414 249.186C331.414 250.356 330.568 251.13 329.308 251.13ZM329.11 257.862C327.328 257.862 326.356 257.556 326.356 256.53C326.356 255.882 326.896 255.342 327.742 255.198H330.604C331.684 255.198 332.368 255.486 332.368 256.404C332.368 257.376 331.612 257.862 329.11 257.862ZM334.878 250.662C334.878 253.434 336.714 255.234 339.36 255.234C341.178 255.234 342.744 254.316 343.302 252.858L342.042 252.3C341.664 253.272 340.584 253.92 339.396 253.92C337.614 253.92 336.534 252.93 336.444 250.986H343.518C343.554 250.806 343.59 250.536 343.59 250.23C343.59 247.71 341.862 246.018 339.306 246.018C336.624 246.018 334.878 247.944 334.878 250.662ZM336.462 249.942C336.642 248.34 337.74 247.35 339.252 247.35C340.872 247.35 341.988 248.358 342.06 249.942H336.462ZM345.822 255H347.37V250.392C347.37 248.502 348.414 247.422 349.89 247.422C351.366 247.422 351.942 248.322 351.942 249.978V255H353.49V249.6C353.49 247.242 352.32 246.018 350.268 246.018C348.954 246.018 347.766 246.63 347.316 247.692L347.19 246.252H345.822V255ZM357.836 255H359.384V247.584H361.742V246.252H359.384V243.57H357.836V246.252H355.37V247.584H357.836V255ZM295.905 276.912C296.175 278.316 297.543 279.234 299.361 279.234C301.413 279.234 302.709 278.154 302.709 276.552C302.709 275.076 301.665 274.32 300.369 274.068L299.307 273.834C298.191 273.6 297.687 273.204 297.687 272.556C297.687 271.746 298.335 271.278 299.361 271.278C300.369 271.278 301.107 271.8 301.287 272.682L302.565 272.25C302.331 270.9 301.071 270.018 299.289 270.018C297.435 270.018 296.139 271.062 296.139 272.628C296.139 273.834 296.931 274.698 298.749 275.094L299.667 275.292C300.441 275.454 301.107 275.814 301.107 276.606C301.107 277.524 300.387 277.974 299.289 277.974C298.209 277.974 297.363 277.47 297.183 276.444L295.905 276.912ZM304.989 279H306.537V274.392C306.537 272.502 307.581 271.422 309.057 271.422C310.533 271.422 311.109 272.322 311.109 273.978V279H312.657V273.6C312.657 271.242 311.487 270.018 309.435 270.018C308.157 270.018 307.005 270.594 306.537 271.62V265.95H304.989V279ZM314.768 274.626C314.768 277.236 316.604 279.234 319.376 279.234C322.166 279.234 324.002 277.236 324.002 274.626C324.002 272.016 322.166 270.018 319.376 270.018C316.604 270.018 314.768 272.016 314.768 274.626ZM316.352 274.626C316.352 272.79 317.522 271.404 319.376 271.404C321.248 271.404 322.4 272.79 322.4 274.626C322.4 276.462 321.248 277.848 319.376 277.848C317.522 277.848 316.352 276.462 316.352 274.626ZM327.823 279V274.014C327.823 272.52 328.705 271.53 330.163 271.53C330.487 271.53 330.775 271.566 330.973 271.674V270.18C330.793 270.09 330.559 270.036 330.163 270.036C329.191 270.036 328.183 270.558 327.769 271.584L327.697 270.252H326.275V279H327.823ZM335.389 279H336.937V271.584H339.295V270.252H336.937V267.57H335.389V270.252H332.923V271.584H335.389V279ZM343.72 279.234C345.196 279.234 346.438 278.514 346.816 277.632C346.834 278.172 346.888 278.676 346.96 279H348.436C348.328 278.694 348.256 277.812 348.256 277.164V273.132C348.256 270.954 346.798 270.018 344.71 270.018C342.82 270.018 341.29 270.882 340.948 272.466L342.352 272.79C342.496 271.89 343.378 271.296 344.656 271.296C345.88 271.296 346.708 271.908 346.708 273.024V273.906H344.404C342.154 273.906 340.642 274.806 340.642 276.678C340.642 278.208 341.83 279.234 343.72 279.234ZM344.116 278.1C342.892 278.1 342.208 277.488 342.208 276.552C342.208 275.454 343.018 274.914 344.566 274.914H346.708V275.994C346.708 277.254 345.628 278.1 344.116 278.1ZM354.088 282.906C357.256 282.906 358.966 282.186 358.966 280.152C358.966 278.55 357.922 277.776 355.924 277.776H353.926C352.72 277.776 352.27 277.542 352.27 277.092C352.27 276.66 352.756 276.318 353.44 276.228C353.692 276.282 354.016 276.3 354.268 276.3C356.374 276.3 357.814 275.004 357.814 273.186C357.814 272.25 357.454 271.458 356.824 270.882C357.112 270.36 357.85 270.054 358.804 270.072V268.686C357.418 268.542 356.356 269.262 356.05 270.414C355.564 270.162 354.916 270.018 354.286 270.018C352.162 270.018 350.758 271.35 350.758 273.186C350.758 274.446 351.424 275.418 352.522 275.922C351.496 276.174 350.938 276.768 350.938 277.47C350.938 278.028 351.37 278.55 352.054 278.694C350.794 278.856 349.93 279.648 349.93 280.728C349.93 282.402 351.586 282.906 354.088 282.906ZM354.286 275.13C353.008 275.13 352.162 274.338 352.162 273.186C352.162 272.016 353.008 271.206 354.286 271.206C355.546 271.206 356.392 272.016 356.392 273.186C356.392 274.356 355.546 275.13 354.286 275.13ZM354.088 281.862C352.306 281.862 351.334 281.556 351.334 280.53C351.334 279.882 351.874 279.342 352.72 279.198H355.582C356.662 279.198 357.346 279.486 357.346 280.404C357.346 281.376 356.59 281.862 354.088 281.862ZM359.856 274.662C359.856 277.434 361.692 279.234 364.338 279.234C366.156 279.234 367.722 278.316 368.28 276.858L367.02 276.3C366.642 277.272 365.562 277.92 364.374 277.92C362.592 277.92 361.512 276.93 361.422 274.986H368.496C368.532 274.806 368.568 274.536 368.568 274.23C368.568 271.71 366.84 270.018 364.284 270.018C361.602 270.018 359.856 271.944 359.856 274.662ZM361.44 273.942C361.62 272.34 362.718 271.35 364.23 271.35C365.85 271.35 366.966 272.358 367.038 273.942H361.44ZM370.243 276.912C370.513 278.316 371.881 279.234 373.699 279.234C375.751 279.234 377.047 278.154 377.047 276.552C377.047 275.076 376.003 274.32 374.707 274.068L373.645 273.834C372.529 273.6 372.025 273.204 372.025 272.556C372.025 271.746 372.673 271.278 373.699 271.278C374.707 271.278 375.445 271.8 375.625 272.682L376.903 272.25C376.669 270.9 375.409 270.018 373.627 270.018C371.773 270.018 370.477 271.062 370.477 272.628C370.477 273.834 371.269 274.698 373.087 275.094L374.005 275.292C374.779 275.454 375.445 275.814 375.445 276.606C375.445 277.524 374.725 277.974 373.627 277.974C372.547 277.974 371.701 277.47 371.521 276.444L370.243 276.912Z" fill="#1F1F21"></path><path d="M540.583 255V253.56H533.869V248.97H539.737V247.62H533.869V243.372H540.529V241.95H532.267V255H540.583ZM548.719 246.252L546.577 249.438L544.453 246.252H542.617L545.551 250.446L542.509 255H544.309L546.577 251.598L548.899 255H550.699L547.639 250.464L550.555 246.252H548.719ZM552.843 258.69H554.391V253.488C554.985 254.622 556.173 255.234 557.523 255.234C560.061 255.234 561.573 253.272 561.573 250.626C561.573 247.98 560.061 246.018 557.523 246.018C556.101 246.018 554.877 246.702 554.301 247.944L554.175 246.252H552.843V258.69ZM557.217 253.866C555.435 253.866 554.445 252.516 554.445 250.626C554.445 248.736 555.435 247.404 557.217 247.404C558.999 247.404 559.989 248.736 559.989 250.626C559.989 252.516 558.999 253.866 557.217 253.866ZM563.397 250.662C563.397 253.434 565.233 255.234 567.879 255.234C569.697 255.234 571.263 254.316 571.821 252.858L570.561 252.3C570.183 253.272 569.103 253.92 567.915 253.92C566.133 253.92 565.053 252.93 564.963 250.986H572.037C572.073 250.806 572.109 250.536 572.109 250.23C572.109 247.71 570.381 246.018 567.825 246.018C565.143 246.018 563.397 247.944 563.397 250.662ZM564.981 249.942C565.161 248.34 566.259 247.35 567.771 247.35C569.391 247.35 570.507 248.358 570.579 249.942H564.981ZM574.341 255H575.889V250.392C575.889 248.502 576.933 247.422 578.409 247.422C579.885 247.422 580.461 248.322 580.461 249.978V255H582.009V249.6C582.009 247.242 580.839 246.018 578.787 246.018C577.473 246.018 576.285 246.63 575.835 247.692L575.709 246.252H574.341V255ZM584.066 252.912C584.336 254.316 585.704 255.234 587.522 255.234C589.574 255.234 590.87 254.154 590.87 252.552C590.87 251.076 589.826 250.32 588.53 250.068L587.468 249.834C586.352 249.6 585.848 249.204 585.848 248.556C585.848 247.746 586.496 247.278 587.522 247.278C588.53 247.278 589.268 247.8 589.448 248.682L590.726 248.25C590.492 246.9 589.232 246.018 587.45 246.018C585.596 246.018 584.3 247.062 584.3 248.628C584.3 249.834 585.092 250.698 586.91 251.094L587.828 251.292C588.602 251.454 589.268 251.814 589.268 252.606C589.268 253.524 588.548 253.974 587.45 253.974C586.37 253.974 585.524 253.47 585.344 252.444L584.066 252.912ZM593.871 244.596C594.537 244.596 595.023 244.146 595.023 243.48C595.023 242.832 594.537 242.382 593.871 242.382C593.223 242.382 592.719 242.832 592.719 243.48C592.719 244.146 593.223 244.596 593.871 244.596ZM593.097 255H594.645V246.252H593.097V255ZM600.356 255H601.976L605.594 246.252H603.92L601.184 253.2L598.448 246.252H596.72L600.356 255ZM606.902 250.662C606.902 253.434 608.738 255.234 611.384 255.234C613.202 255.234 614.768 254.316 615.326 252.858L614.066 252.3C613.688 253.272 612.608 253.92 611.42 253.92C609.638 253.92 608.558 252.93 608.468 250.986H615.542C615.578 250.806 615.614 250.536 615.614 250.23C615.614 247.71 613.886 246.018 611.33 246.018C608.648 246.018 606.902 247.944 606.902 250.662ZM608.486 249.942C608.666 248.34 609.764 247.35 611.276 247.35C612.896 247.35 614.012 248.358 614.084 249.942H608.486ZM544.897 279H546.445V271.584H548.803V270.252H546.445V267.57H544.897V270.252H542.431V271.584H544.897V279ZM552.448 279V274.014C552.448 272.52 553.33 271.53 554.788 271.53C555.112 271.53 555.4 271.566 555.598 271.674V270.18C555.418 270.09 555.184 270.036 554.788 270.036C553.816 270.036 552.808 270.558 552.394 271.584L552.322 270.252H550.9V279H552.448ZM560.241 279.234C561.717 279.234 562.959 278.514 563.337 277.632C563.355 278.172 563.409 278.676 563.481 279H564.957C564.849 278.694 564.777 277.812 564.777 277.164V273.132C564.777 270.954 563.319 270.018 561.231 270.018C559.341 270.018 557.811 270.882 557.469 272.466L558.873 272.79C559.017 271.89 559.899 271.296 561.177 271.296C562.401 271.296 563.229 271.908 563.229 273.024V273.906H560.925C558.675 273.906 557.163 274.806 557.163 276.678C557.163 278.208 558.351 279.234 560.241 279.234ZM560.637 278.1C559.413 278.1 558.729 277.488 558.729 276.552C558.729 275.454 559.539 274.914 561.087 274.914H563.229V275.994C563.229 277.254 562.149 278.1 560.637 278.1ZM568.215 268.596C568.881 268.596 569.367 268.146 569.367 267.48C569.367 266.832 568.881 266.382 568.215 266.382C567.567 266.382 567.063 266.832 567.063 267.48C567.063 268.146 567.567 268.596 568.215 268.596ZM567.441 279H568.989V270.252H567.441V279ZM571.73 279H573.278V274.392C573.278 272.502 574.322 271.422 575.798 271.422C577.274 271.422 577.85 272.322 577.85 273.978V279H579.398V273.6C579.398 271.242 578.228 270.018 576.176 270.018C574.862 270.018 573.674 270.63 573.224 271.692L573.098 270.252H571.73V279ZM582.788 268.596C583.454 268.596 583.94 268.146 583.94 267.48C583.94 266.832 583.454 266.382 582.788 266.382C582.14 266.382 581.636 266.832 581.636 267.48C581.636 268.146 582.14 268.596 582.788 268.596ZM582.014 279H583.562V270.252H582.014V279ZM586.303 279H587.851V274.392C587.851 272.502 588.895 271.422 590.371 271.422C591.847 271.422 592.423 272.322 592.423 273.978V279H593.971V273.6C593.971 271.242 592.801 270.018 590.749 270.018C589.435 270.018 588.247 270.63 587.797 271.692L587.671 270.252H586.303V279ZM599.772 282.906C602.94 282.906 604.65 282.186 604.65 280.152C604.65 278.55 603.606 277.776 601.608 277.776H599.61C598.404 277.776 597.954 277.542 597.954 277.092C597.954 276.66 598.44 276.318 599.124 276.228C599.376 276.282 599.7 276.3 599.952 276.3C602.058 276.3 603.498 275.004 603.498 273.186C603.498 272.25 603.138 271.458 602.508 270.882C602.796 270.36 603.534 270.054 604.488 270.072V268.686C603.102 268.542 602.04 269.262 601.734 270.414C601.248 270.162 600.6 270.018 599.97 270.018C597.846 270.018 596.442 271.35 596.442 273.186C596.442 274.446 597.108 275.418 598.206 275.922C597.18 276.174 596.622 276.768 596.622 277.47C596.622 278.028 597.054 278.55 597.738 278.694C596.478 278.856 595.614 279.648 595.614 280.728C595.614 282.402 597.27 282.906 599.772 282.906ZM599.97 275.13C598.692 275.13 597.846 274.338 597.846 273.186C597.846 272.016 598.692 271.206 599.97 271.206C601.23 271.206 602.076 272.016 602.076 273.186C602.076 274.356 601.23 275.13 599.97 275.13ZM599.772 281.862C597.99 281.862 597.018 281.556 597.018 280.53C597.018 279.882 597.558 279.342 598.404 279.198H601.266C602.346 279.198 603.03 279.486 603.03 280.404C603.03 281.376 602.274 281.862 599.772 281.862Z" fill="#1F1F21"></path><g clip-path="url(#clip1_709_2736)"><path d="M577.83 108.5C561.34 108.5 547.97 121.92 547.97 138.46C547.97 140.53 548.18 142.55 548.58 144.5C551.36 158.15 563.41 168.42 577.84 168.42C594.33 168.42 607.7 155 607.7 138.46C607.7 128.13 602.49 119.03 594.57 113.65" stroke="#2E56FF" stroke-width="3" stroke-miterlimit="10"></path><path d="M568.36 108.5C551.87 108.5 538.5 121.92 538.5 138.46C538.5 140.53 538.71 142.55 539.11 144.5C541.89 158.15 553.94 168.42 568.37 168.42" stroke="#2E56FF" stroke-width="3" stroke-miterlimit="10" stroke-linecap="round"></path><path d="M577.83 148.75V155.12" stroke="#2E56FF" stroke-width="3" stroke-miterlimit="10"></path><path d="M577.83 121.8V128.17" stroke="#2E56FF" stroke-width="3" stroke-miterlimit="10"></path><path d="M572.7 143.6C572.7 146.44 575 148.74 577.83 148.74C580.66 148.74 582.96 146.44 582.96 143.6C582.96 140.76 580.66 138.46 577.83 138.46C575 138.46 572.7 136.16 572.7 133.32C572.7 130.48 575 128.18 577.83 128.18C580.66 128.18 582.96 130.48 582.96 133.32" stroke="#2E56FF" stroke-width="3" stroke-miterlimit="10"></path></g><rect x="731" y="63" width="156" height="151" rx="75.5" fill="#F2F2F2"></rect><path d="M793.503 255V249.186H800.775V255H802.377V241.95H800.775V247.746H793.503V241.95H791.901V255H793.503ZM806.289 244.596C806.955 244.596 807.441 244.146 807.441 243.48C807.441 242.832 806.955 242.382 806.289 242.382C805.641 242.382 805.137 242.832 805.137 243.48C805.137 244.146 805.641 244.596 806.289 244.596ZM805.515 255H807.063V246.252H805.515V255ZM812.991 258.906C816.159 258.906 817.869 258.186 817.869 256.152C817.869 254.55 816.825 253.776 814.827 253.776H812.829C811.623 253.776 811.173 253.542 811.173 253.092C811.173 252.66 811.659 252.318 812.343 252.228C812.595 252.282 812.919 252.3 813.171 252.3C815.277 252.3 816.717 251.004 816.717 249.186C816.717 248.25 816.357 247.458 815.727 246.882C816.015 246.36 816.753 246.054 817.707 246.072V244.686C816.321 244.542 815.259 245.262 814.953 246.414C814.467 246.162 813.819 246.018 813.189 246.018C811.065 246.018 809.661 247.35 809.661 249.186C809.661 250.446 810.327 251.418 811.425 251.922C810.399 252.174 809.841 252.768 809.841 253.47C809.841 254.028 810.273 254.55 810.957 254.694C809.697 254.856 808.833 255.648 808.833 256.728C808.833 258.402 810.489 258.906 812.991 258.906ZM813.189 251.13C811.911 251.13 811.065 250.338 811.065 249.186C811.065 248.016 811.911 247.206 813.189 247.206C814.449 247.206 815.295 248.016 815.295 249.186C815.295 250.356 814.449 251.13 813.189 251.13ZM812.991 257.862C811.209 257.862 810.237 257.556 810.237 256.53C810.237 255.882 810.777 255.342 811.623 255.198H814.485C815.565 255.198 816.249 255.486 816.249 256.404C816.249 257.376 815.493 257.862 812.991 257.862ZM819.948 255H821.496V250.392C821.496 248.502 822.54 247.422 824.016 247.422C825.492 247.422 826.068 248.322 826.068 249.978V255H827.616V249.6C827.616 247.242 826.446 246.018 824.394 246.018C823.116 246.018 821.964 246.594 821.496 247.62V241.95H819.948V255ZM776.08 279H777.628V271.584H779.986V270.252H777.628V267.57H776.08V270.252H773.614V271.584H776.08V279ZM781.975 275.634C781.975 278.136 783.505 279.234 785.287 279.234C786.637 279.234 787.717 278.622 788.149 277.686C788.185 278.136 788.221 278.586 788.311 279H789.805C789.715 278.64 789.643 277.938 789.643 277.236V270.252H788.095V275.202C788.095 276.66 787.267 277.83 785.701 277.83C784.549 277.83 783.523 277.182 783.523 275.436V270.252H781.975V275.634ZM793.985 279V274.014C793.985 272.52 794.867 271.53 796.325 271.53C796.649 271.53 796.937 271.566 797.135 271.674V270.18C796.955 270.09 796.721 270.036 796.325 270.036C795.353 270.036 794.345 270.558 793.931 271.584L793.859 270.252H792.437V279H793.985ZM799.24 279H800.788V274.392C800.788 272.502 801.832 271.422 803.308 271.422C804.784 271.422 805.36 272.322 805.36 273.978V279H806.908V273.6C806.908 271.242 805.738 270.018 803.686 270.018C802.372 270.018 801.184 270.63 800.734 271.692L800.608 270.252H799.24V279ZM809.038 274.626C809.038 277.236 810.874 279.234 813.646 279.234C816.436 279.234 818.272 277.236 818.272 274.626C818.272 272.016 816.436 270.018 813.646 270.018C810.874 270.018 809.038 272.016 809.038 274.626ZM810.622 274.626C810.622 272.79 811.792 271.404 813.646 271.404C815.518 271.404 816.67 272.79 816.67 274.626C816.67 276.462 815.518 277.848 813.646 277.848C811.792 277.848 810.622 276.462 810.622 274.626ZM823.198 279H824.818L828.436 270.252H826.762L824.026 277.2L821.29 270.252H819.562L823.198 279ZM829.745 274.662C829.745 277.434 831.581 279.234 834.227 279.234C836.045 279.234 837.611 278.316 838.169 276.858L836.909 276.3C836.531 277.272 835.451 277.92 834.263 277.92C832.481 277.92 831.401 276.93 831.311 274.986H838.385C838.421 274.806 838.457 274.536 838.457 274.23C838.457 271.71 836.729 270.018 834.173 270.018C831.491 270.018 829.745 271.944 829.745 274.662ZM831.329 273.942C831.509 272.34 832.607 271.35 834.119 271.35C835.739 271.35 836.855 272.358 836.927 273.942H831.329ZM842.237 279V274.014C842.237 272.52 843.119 271.53 844.577 271.53C844.901 271.53 845.189 271.566 845.387 271.674V270.18C845.207 270.09 844.973 270.036 844.577 270.036C843.605 270.036 842.597 270.558 842.183 271.584L842.111 270.252H840.689V279H842.237Z" fill="#1F1F21"></path><circle cx="219" cy="138" r="20" fill="#979797"></circle><path d="M217.066 136.472H212.434V140.336H217.066V144.968H221.026V140.336H225.562V136.472H221.026V131.792H217.066V136.472Z" fill="white"></path><circle cx="455" cy="138" r="20" fill="#979797"></circle><path d="M453.066 136.472H448.434V140.336H453.066V144.968H457.026V140.336H461.562V136.472H457.026V131.792H453.066V136.472Z" fill="white"></path><circle cx="691" cy="138" r="20" fill="#979797"></circle><path d="M689.066 136.472H684.434V140.336H689.066V144.968H693.026V140.336H697.562V136.472H693.026V131.792H689.066V136.472Z" fill="white"></path><circle cx="927" cy="142" r="20" fill="#979797"></circle><path d="M921.552 140.976H932.448V137.184H921.552V140.976ZM921.552 147.48H932.448V143.736H921.552V147.48Z" fill="white"></path><rect x="984" y="22" width="238" height="69" fill="#F2F2F2"></rect><rect x="984" y="100" width="238" height="69" fill="#F2F2F2"></rect><rect x="984" y="178" width="238" height="69" fill="#F2F2F2"></rect><rect x="984" y="256" width="238" height="69" fill="#F2F2F2"></rect><path d="M1039.1 63V61.236H1032.64V49.95H1030.66V63H1039.1ZM1040.9 58.608C1040.9 61.272 1042.76 63.252 1045.58 63.252C1048.43 63.252 1050.28 61.272 1050.28 58.608C1050.28 55.926 1048.43 53.964 1045.58 53.964C1042.76 53.964 1040.9 55.926 1040.9 58.608ZM1042.85 58.608C1042.85 56.916 1043.89 55.656 1045.58 55.656C1047.29 55.656 1048.32 56.916 1048.32 58.608C1048.32 60.282 1047.29 61.542 1045.58 61.542C1043.89 61.542 1042.85 60.282 1042.85 58.608ZM1052.41 63H1054.32V58.338C1054.32 56.646 1055.25 55.674 1056.57 55.674C1057.9 55.674 1058.4 56.502 1058.4 57.978V63H1060.31V57.51C1060.31 55.224 1059.16 53.964 1057.11 53.964C1055.83 53.964 1054.66 54.54 1054.25 55.512L1054.08 54.198H1052.41V63ZM1066.06 66.924C1069.35 66.924 1071.08 66.132 1071.08 64.08C1071.08 62.388 1069.98 61.632 1067.91 61.632H1065.89C1064.81 61.632 1064.38 61.416 1064.38 61.02C1064.38 60.624 1064.83 60.318 1065.46 60.246C1065.7 60.282 1066 60.3 1066.25 60.3C1068.45 60.3 1069.94 59.004 1069.94 57.15C1069.94 56.214 1069.57 55.422 1068.94 54.864C1069.24 54.414 1069.96 54.18 1070.84 54.198V52.542C1069.42 52.398 1068.31 53.136 1068 54.324C1067.51 54.09 1066.88 53.964 1066.27 53.964C1064.06 53.964 1062.6 55.296 1062.6 57.168C1062.6 58.446 1063.3 59.418 1064.45 59.922C1063.37 60.156 1062.78 60.786 1062.78 61.524C1062.78 62.1 1063.23 62.64 1063.91 62.784C1062.65 62.946 1061.81 63.702 1061.81 64.764C1061.81 66.438 1063.5 66.924 1066.06 66.924ZM1066.27 58.914C1065.1 58.914 1064.33 58.194 1064.33 57.15C1064.33 56.106 1065.1 55.368 1066.27 55.368C1067.42 55.368 1068.2 56.106 1068.2 57.168C1068.2 58.212 1067.42 58.914 1066.27 58.914ZM1066.06 65.718C1064.4 65.718 1063.52 65.448 1063.52 64.53C1063.52 63.954 1064 63.486 1064.71 63.36H1067.5C1068.49 63.36 1069.08 63.612 1069.08 64.422C1069.08 65.304 1068.32 65.718 1066.06 65.718ZM1077.78 63H1079.68V58.338C1079.68 56.646 1080.62 55.674 1081.93 55.674C1083.27 55.674 1083.77 56.502 1083.77 57.978V63H1085.68V57.51C1085.68 55.224 1084.53 53.964 1082.47 53.964C1081.25 53.964 1080.15 54.486 1079.68 55.404V49.95H1077.78V63ZM1087.62 58.608C1087.62 61.272 1089.48 63.252 1092.3 63.252C1095.15 63.252 1097 61.272 1097 58.608C1097 55.926 1095.15 53.964 1092.3 53.964C1089.48 53.964 1087.62 55.926 1087.62 58.608ZM1089.57 58.608C1089.57 56.916 1090.61 55.656 1092.3 55.656C1094.01 55.656 1095.04 56.916 1095.04 58.608C1095.04 60.282 1094.01 61.542 1092.3 61.542C1090.61 61.542 1089.57 60.282 1089.57 58.608ZM1101.08 63V49.95H1099.17V63H1101.08ZM1107.32 63.252C1108.74 63.252 1109.95 62.622 1110.49 61.47C1110.49 62.01 1110.54 62.478 1110.61 63H1112.5C1112.4 62.568 1112.29 61.362 1112.29 60.48V49.95H1110.38V55.584C1109.84 54.522 1108.69 53.964 1107.37 53.964C1104.82 53.964 1103.23 55.908 1103.23 58.608C1103.23 61.29 1104.78 63.252 1107.32 63.252ZM1107.75 61.56C1106.11 61.56 1105.21 60.336 1105.21 58.608C1105.21 56.88 1106.11 55.656 1107.75 55.656C1109.41 55.656 1110.31 56.88 1110.31 58.608C1110.31 60.336 1109.41 61.56 1107.75 61.56ZM1127.73 52.686C1128.46 52.686 1129.02 52.182 1129.02 51.444C1129.02 50.706 1128.45 50.22 1127.73 50.22C1127.01 50.22 1126.43 50.706 1126.43 51.444C1126.43 52.182 1127.01 52.686 1127.73 52.686ZM1121.39 63H1123.3V55.854H1126.77V63H1128.68V54.198H1123.3V51.552H1121.39V54.198H1119.1V55.854H1121.39V63ZM1131.26 63H1133.19V58.338C1133.19 56.61 1134.09 55.674 1135.37 55.674C1136.59 55.674 1137.13 56.43 1137.13 57.96V63H1139.04V58.338C1139.04 56.61 1139.94 55.674 1141.22 55.674C1142.48 55.674 1142.98 56.466 1142.98 57.96V63H1144.91V57.528C1144.91 55.206 1143.74 53.964 1141.76 53.964C1140.41 53.964 1139.26 54.648 1138.77 55.89C1138.34 54.612 1137.33 53.964 1135.89 53.964C1134.67 53.964 1133.55 54.558 1133.12 55.548L1132.96 54.198H1131.26V63ZM1146.86 58.626C1146.86 61.434 1148.74 63.252 1151.4 63.252C1153.27 63.252 1154.86 62.334 1155.41 60.858L1153.87 60.174C1153.52 61.056 1152.55 61.65 1151.47 61.65C1149.83 61.65 1148.86 60.75 1148.79 59.058H1155.61C1155.67 58.86 1155.7 58.554 1155.7 58.212C1155.7 55.674 1153.94 53.964 1151.35 53.964C1148.65 53.964 1146.86 55.872 1146.86 58.626ZM1148.79 57.834C1148.95 56.448 1149.94 55.566 1151.29 55.566C1152.71 55.566 1153.72 56.448 1153.79 57.834H1148.79ZM1157.21 60.966C1157.52 62.334 1158.94 63.252 1160.78 63.252C1162.92 63.252 1164.29 62.136 1164.29 60.48C1164.29 59.004 1163.3 58.194 1161.84 57.924L1160.9 57.726C1159.84 57.51 1159.36 57.168 1159.36 56.574C1159.36 55.854 1159.95 55.44 1160.85 55.44C1161.77 55.44 1162.45 55.926 1162.61 56.736L1164.14 56.196C1163.89 54.846 1162.58 53.964 1160.74 53.964C1158.8 53.964 1157.43 55.044 1157.43 56.664C1157.43 57.906 1158.24 58.788 1160.06 59.184L1160.99 59.382C1161.7 59.526 1162.31 59.832 1162.31 60.552C1162.31 61.344 1161.66 61.74 1160.67 61.74C1159.68 61.74 1158.91 61.272 1158.74 60.354L1157.21 60.966Z" fill="black"></path><path d="M1032.64 127.95H1030.66V141H1032.64V127.95ZM1035.24 141H1037.17V136.338C1037.17 134.61 1038.07 133.674 1039.35 133.674C1040.57 133.674 1041.11 134.43 1041.11 135.96V141H1043.02V136.338C1043.02 134.61 1043.92 133.674 1045.2 133.674C1046.46 133.674 1046.96 134.466 1046.96 135.96V141H1048.89V135.528C1048.89 133.206 1047.72 131.964 1045.74 131.964C1044.39 131.964 1043.24 132.648 1042.75 133.89C1042.32 132.612 1041.31 131.964 1039.87 131.964C1038.65 131.964 1037.53 132.558 1037.1 133.548L1036.94 132.198H1035.24V141ZM1051 144.69H1052.91V139.65C1053.49 140.676 1054.64 141.252 1055.94 141.252C1058.49 141.252 1060.04 139.29 1060.04 136.608C1060.04 133.908 1058.49 131.964 1055.94 131.964C1054.57 131.964 1053.38 132.594 1052.82 133.71L1052.66 132.198H1051V144.69ZM1055.52 139.56C1053.87 139.56 1052.95 138.336 1052.95 136.608C1052.95 134.862 1053.87 133.656 1055.52 133.656C1057.16 133.656 1058.08 134.862 1058.08 136.608C1058.08 138.336 1057.16 139.56 1055.52 139.56ZM1064.36 141.252C1065.8 141.252 1067.03 140.568 1067.4 139.704C1067.42 140.208 1067.48 140.676 1067.55 141H1069.35C1069.24 140.694 1069.15 139.74 1069.15 139.02V135.204C1069.15 132.918 1067.64 131.964 1065.46 131.964C1063.53 131.964 1061.91 132.828 1061.59 134.502L1063.3 134.898C1063.41 134.052 1064.2 133.494 1065.39 133.494C1066.49 133.494 1067.24 134.034 1067.24 135.078V135.87H1065.08C1062.87 135.87 1061.28 136.77 1061.28 138.678C1061.28 140.208 1062.47 141.252 1064.36 141.252ZM1064.92 139.884C1063.84 139.884 1063.21 139.344 1063.21 138.498C1063.21 137.526 1063.95 137.04 1065.33 137.04H1067.24V138.012C1067.24 139.146 1066.29 139.884 1064.92 139.884ZM1079.04 130.686C1079.77 130.686 1080.33 130.182 1080.33 129.444C1080.33 128.706 1079.76 128.22 1079.04 128.22C1078.32 128.22 1077.74 128.706 1077.74 129.444C1077.74 130.182 1078.32 130.686 1079.04 130.686ZM1072.7 141H1074.61V133.854H1078.08V141H1079.99V132.198H1074.61V129.552H1072.7V132.198H1070.41V133.854H1072.7V141ZM1081.76 136.626C1081.76 139.434 1083.64 141.252 1086.3 141.252C1088.17 141.252 1089.76 140.334 1090.31 138.858L1088.77 138.174C1088.42 139.056 1087.45 139.65 1086.37 139.65C1084.73 139.65 1083.76 138.75 1083.69 137.058H1090.51C1090.57 136.86 1090.6 136.554 1090.6 136.212C1090.6 133.674 1088.84 131.964 1086.25 131.964C1083.55 131.964 1081.76 133.872 1081.76 136.626ZM1083.69 135.834C1083.85 134.448 1084.84 133.566 1086.19 133.566C1087.61 133.566 1088.62 134.448 1088.69 135.834H1083.69ZM1092.33 141H1094.24V136.338C1094.24 134.646 1095.18 133.674 1096.49 133.674C1097.82 133.674 1098.33 134.502 1098.33 135.978V141H1100.23V135.51C1100.23 133.224 1099.08 131.964 1097.03 131.964C1095.75 131.964 1094.58 132.54 1094.17 133.512L1094.01 132.198H1092.33V141ZM1104.04 141H1105.95V133.854H1108.27V132.198H1105.95V129.552H1104.04V132.198H1101.61V133.854H1104.04V141ZM1113.83 136.626C1113.83 139.398 1115.66 141.252 1118.33 141.252C1120.33 141.252 1122.04 140.19 1122.59 138.48L1120.85 137.85C1120.52 138.84 1119.61 139.506 1118.38 139.506C1116.82 139.506 1115.81 138.336 1115.81 136.608C1115.81 134.844 1116.83 133.674 1118.42 133.674C1119.53 133.674 1120.47 134.286 1120.78 135.294L1122.52 134.628C1122.05 133.026 1120.4 131.964 1118.36 131.964C1115.65 131.964 1113.83 133.854 1113.83 136.626ZM1123.95 137.688C1123.95 140.082 1125.41 141.252 1127.25 141.252C1128.58 141.252 1129.62 140.658 1130.04 139.776C1130.07 140.19 1130.11 140.622 1130.2 141H1132.03C1131.94 140.64 1131.87 139.92 1131.87 139.146V132.198H1129.95V137.148C1129.95 138.48 1129.21 139.524 1127.8 139.524C1126.76 139.524 1125.86 138.912 1125.86 137.382V132.198H1123.95V137.688ZM1133.62 138.966C1133.93 140.334 1135.35 141.252 1137.18 141.252C1139.33 141.252 1140.69 140.136 1140.69 138.48C1140.69 137.004 1139.7 136.194 1138.25 135.924L1137.31 135.726C1136.25 135.51 1135.76 135.168 1135.76 134.574C1135.76 133.854 1136.36 133.44 1137.26 133.44C1138.17 133.44 1138.86 133.926 1139.02 134.736L1140.55 134.196C1140.3 132.846 1138.98 131.964 1137.15 131.964C1135.2 131.964 1133.84 133.044 1133.84 134.664C1133.84 135.906 1134.65 136.788 1136.46 137.184L1137.4 137.382C1138.1 137.526 1138.71 137.832 1138.71 138.552C1138.71 139.344 1138.07 139.74 1137.08 139.74C1136.09 139.74 1135.31 139.272 1135.15 138.354L1133.62 138.966ZM1144.28 141H1146.19V133.854H1148.51V132.198H1146.19V129.552H1144.28V132.198H1141.85V133.854H1144.28V141ZM1149.58 136.608C1149.58 139.272 1151.44 141.252 1154.26 141.252C1157.11 141.252 1158.96 139.272 1158.96 136.608C1158.96 133.926 1157.11 131.964 1154.26 131.964C1151.44 131.964 1149.58 133.926 1149.58 136.608ZM1151.53 136.608C1151.53 134.916 1152.57 133.656 1154.26 133.656C1155.97 133.656 1157 134.916 1157 136.608C1157 138.282 1155.97 139.542 1154.26 139.542C1152.57 139.542 1151.53 138.282 1151.53 136.608ZM1160.73 141H1162.66V136.338C1162.66 134.61 1163.56 133.674 1164.83 133.674C1166.06 133.674 1166.6 134.43 1166.6 135.96V141H1168.51V136.338C1168.51 134.61 1169.41 133.674 1170.68 133.674C1171.94 133.674 1172.45 134.466 1172.45 135.96V141H1174.37V135.528C1174.37 133.206 1173.2 131.964 1171.22 131.964C1169.87 131.964 1168.72 132.648 1168.24 133.89C1167.8 132.612 1166.8 131.964 1165.36 131.964C1164.13 131.964 1163.02 132.558 1162.58 133.548L1162.42 132.198H1160.73V141ZM1175.97 136.626C1175.97 139.434 1177.84 141.252 1180.51 141.252C1182.38 141.252 1183.96 140.334 1184.52 138.858L1182.97 138.174C1182.63 139.056 1181.66 139.65 1180.58 139.65C1178.94 139.65 1177.97 138.75 1177.9 137.058H1184.72C1184.77 136.86 1184.81 136.554 1184.81 136.212C1184.81 133.674 1183.04 131.964 1180.45 131.964C1177.75 131.964 1175.97 133.872 1175.97 136.626ZM1177.9 135.834C1178.06 134.448 1179.05 133.566 1180.4 133.566C1181.82 133.566 1182.83 134.448 1182.9 135.834H1177.9ZM1188.44 141V136.158C1188.44 134.736 1189.27 133.8 1190.69 133.8C1191 133.8 1191.29 133.836 1191.49 133.944V132.126C1191.32 132.036 1191.09 131.982 1190.66 131.982C1189.76 131.982 1188.77 132.45 1188.37 133.458L1188.28 132.198H1186.54V141H1188.44ZM1192.19 138.966C1192.5 140.334 1193.92 141.252 1195.76 141.252C1197.9 141.252 1199.27 140.136 1199.27 138.48C1199.27 137.004 1198.28 136.194 1196.82 135.924L1195.88 135.726C1194.82 135.51 1194.33 135.168 1194.33 134.574C1194.33 133.854 1194.93 133.44 1195.83 133.44C1196.75 133.44 1197.43 133.926 1197.59 134.736L1199.12 134.196C1198.87 132.846 1197.56 131.964 1195.72 131.964C1193.78 131.964 1192.41 133.044 1192.41 134.664C1192.41 135.906 1193.22 136.788 1195.04 137.184L1195.97 137.382C1196.67 137.526 1197.29 137.832 1197.29 138.552C1197.29 139.344 1196.64 139.74 1195.65 139.74C1194.66 139.74 1193.88 139.272 1193.72 138.354L1192.19 138.966Z" fill="black"></path><path d="M1030.66 219H1032.64V213.348H1034.83L1038.38 219H1040.68L1036.94 213.132C1039.19 212.88 1040.45 211.548 1040.45 209.568C1040.45 207.228 1038.81 205.95 1036.24 205.95H1030.66V219ZM1032.64 211.854V207.732H1035.93C1037.57 207.732 1038.29 208.506 1038.29 209.748C1038.29 211.008 1037.48 211.854 1035.93 211.854H1032.64ZM1043.99 208.686C1044.73 208.686 1045.29 208.182 1045.29 207.444C1045.29 206.706 1044.73 206.22 1043.99 206.22C1043.27 206.22 1042.7 206.706 1042.7 207.444C1042.7 208.182 1043.27 208.686 1043.99 208.686ZM1043.04 219H1044.95V210.198H1043.04V219ZM1047 216.966C1047.31 218.334 1048.73 219.252 1050.56 219.252C1052.71 219.252 1054.07 218.136 1054.07 216.48C1054.07 215.004 1053.08 214.194 1051.63 213.924L1050.69 213.726C1049.63 213.51 1049.14 213.168 1049.14 212.574C1049.14 211.854 1049.74 211.44 1050.64 211.44C1051.55 211.44 1052.24 211.926 1052.4 212.736L1053.93 212.196C1053.68 210.846 1052.36 209.964 1050.53 209.964C1048.58 209.964 1047.22 211.044 1047.22 212.664C1047.22 213.906 1048.03 214.788 1049.84 215.184L1050.78 215.382C1051.48 215.526 1052.09 215.832 1052.09 216.552C1052.09 217.344 1051.45 217.74 1050.46 217.74C1049.47 217.74 1048.69 217.272 1048.53 216.354L1047 216.966ZM1057.11 208.686C1057.85 208.686 1058.4 208.182 1058.4 207.444C1058.4 206.706 1057.85 206.22 1057.11 206.22C1056.39 206.22 1055.81 206.706 1055.81 207.444C1055.81 208.182 1056.39 208.686 1057.11 208.686ZM1056.15 219H1058.06V210.198H1056.15V219ZM1060.65 219H1062.56V214.338C1062.56 212.646 1063.5 211.674 1064.81 211.674C1066.14 211.674 1066.65 212.502 1066.65 213.978V219H1068.56V213.51C1068.56 211.224 1067.4 209.964 1065.35 209.964C1064.07 209.964 1062.9 210.54 1062.49 211.512L1062.33 210.198H1060.65V219ZM1074.3 222.924C1077.59 222.924 1079.32 222.132 1079.32 220.08C1079.32 218.388 1078.22 217.632 1076.15 217.632H1074.14C1073.06 217.632 1072.63 217.416 1072.63 217.02C1072.63 216.624 1073.08 216.318 1073.71 216.246C1073.94 216.282 1074.25 216.3 1074.5 216.3C1076.69 216.3 1078.19 215.004 1078.19 213.15C1078.19 212.214 1077.81 211.422 1077.18 210.864C1077.49 210.414 1078.21 210.18 1079.09 210.198V208.542C1077.67 208.398 1076.55 209.136 1076.24 210.324C1075.76 210.09 1075.13 209.964 1074.52 209.964C1072.3 209.964 1070.84 211.296 1070.84 213.168C1070.84 214.446 1071.55 215.418 1072.7 215.922C1071.62 216.156 1071.02 216.786 1071.02 217.524C1071.02 218.1 1071.47 218.64 1072.16 218.784C1070.9 218.946 1070.05 219.702 1070.05 220.764C1070.05 222.438 1071.74 222.924 1074.3 222.924ZM1074.52 214.914C1073.35 214.914 1072.57 214.194 1072.57 213.15C1072.57 212.106 1073.35 211.368 1074.52 211.368C1075.67 211.368 1076.44 212.106 1076.44 213.168C1076.44 214.212 1075.67 214.914 1074.52 214.914ZM1074.3 221.718C1072.64 221.718 1071.76 221.448 1071.76 220.53C1071.76 219.954 1072.25 219.486 1072.95 219.36H1075.74C1076.73 219.36 1077.32 219.612 1077.32 220.422C1077.32 221.304 1076.57 221.718 1074.3 221.718ZM1085.82 212.466C1085.82 216.516 1088.45 219.18 1092.32 219.18C1095.09 219.18 1097.36 217.812 1098.22 215.454L1096.23 214.824C1095.65 216.372 1094.21 217.344 1092.3 217.344C1089.75 217.344 1087.95 215.436 1087.95 212.466C1087.95 209.496 1089.75 207.588 1092.3 207.588C1094.17 207.588 1095.69 208.578 1096.24 210.306L1098.24 209.676C1097.45 207.264 1095.16 205.734 1092.28 205.734C1088.45 205.734 1085.82 208.398 1085.82 212.466ZM1100.02 214.608C1100.02 217.272 1101.87 219.252 1104.7 219.252C1107.54 219.252 1109.4 217.272 1109.4 214.608C1109.4 211.926 1107.54 209.964 1104.7 209.964C1101.87 209.964 1100.02 211.926 1100.02 214.608ZM1101.96 214.608C1101.96 212.916 1103.01 211.656 1104.7 211.656C1106.41 211.656 1107.43 212.916 1107.43 214.608C1107.43 216.282 1106.41 217.542 1104.7 217.542C1103.01 217.542 1101.96 216.282 1101.96 214.608ZM1110.98 216.966C1111.29 218.334 1112.71 219.252 1114.55 219.252C1116.69 219.252 1118.06 218.136 1118.06 216.48C1118.06 215.004 1117.07 214.194 1115.61 213.924L1114.67 213.726C1113.61 213.51 1113.13 213.168 1113.13 212.574C1113.13 211.854 1113.72 211.44 1114.62 211.44C1115.54 211.44 1116.22 211.926 1116.38 212.736L1117.91 212.196C1117.66 210.846 1116.35 209.964 1114.51 209.964C1112.57 209.964 1111.2 211.044 1111.2 212.664C1111.2 213.906 1112.01 214.788 1113.83 215.184L1114.76 215.382C1115.47 215.526 1116.08 215.832 1116.08 216.552C1116.08 217.344 1115.43 217.74 1114.44 217.74C1113.45 217.74 1112.68 217.272 1112.51 216.354L1110.98 216.966ZM1122.01 219H1123.92V211.854H1126.24V210.198H1123.92V207.552H1122.01V210.198H1119.58V211.854H1122.01V219ZM1127.89 216.966C1128.2 218.334 1129.62 219.252 1131.46 219.252C1133.6 219.252 1134.97 218.136 1134.97 216.48C1134.97 215.004 1133.98 214.194 1132.52 213.924L1131.58 213.726C1130.52 213.51 1130.04 213.168 1130.04 212.574C1130.04 211.854 1130.63 211.44 1131.53 211.44C1132.45 211.44 1133.13 211.926 1133.29 212.736L1134.82 212.196C1134.57 210.846 1133.26 209.964 1131.42 209.964C1129.48 209.964 1128.11 211.044 1128.11 212.664C1128.11 213.906 1128.92 214.788 1130.74 215.184L1131.67 215.382C1132.38 215.526 1132.99 215.832 1132.99 216.552C1132.99 217.344 1132.34 217.74 1131.35 217.74C1130.36 217.74 1129.59 217.272 1129.42 216.354L1127.89 216.966Z" fill="black"></path><path d="M1033.81 297H1035.95L1038.99 287.244L1042.07 297H1044.21L1048.06 283.95H1045.96L1043.09 293.976L1039.94 283.95H1038.09L1034.92 294.102L1032.1 283.95H1029.95L1033.81 297ZM1049.11 292.608C1049.11 295.272 1050.97 297.252 1053.79 297.252C1056.64 297.252 1058.49 295.272 1058.49 292.608C1058.49 289.926 1056.64 287.964 1053.79 287.964C1050.97 287.964 1049.11 289.926 1049.11 292.608ZM1051.06 292.608C1051.06 290.916 1052.1 289.656 1053.79 289.656C1055.5 289.656 1056.53 290.916 1056.53 292.608C1056.53 294.282 1055.5 295.542 1053.79 295.542C1052.1 295.542 1051.06 294.282 1051.06 292.608ZM1062.53 297V292.158C1062.53 290.736 1063.35 289.8 1064.78 289.8C1065.08 289.8 1065.37 289.836 1065.57 289.944V288.126C1065.41 288.036 1065.17 287.982 1064.74 287.982C1063.84 287.982 1062.85 288.45 1062.45 289.458L1062.36 288.198H1060.62V297H1062.53ZM1066.63 294.966C1066.94 296.334 1068.36 297.252 1070.2 297.252C1072.34 297.252 1073.71 296.136 1073.71 294.48C1073.71 293.004 1072.72 292.194 1071.26 291.924L1070.32 291.726C1069.26 291.51 1068.78 291.168 1068.78 290.574C1068.78 289.854 1069.37 289.44 1070.27 289.44C1071.19 289.44 1071.87 289.926 1072.03 290.736L1073.56 290.196C1073.31 288.846 1072 287.964 1070.16 287.964C1068.22 287.964 1066.85 289.044 1066.85 290.664C1066.85 291.906 1067.66 292.788 1069.48 293.184L1070.41 293.382C1071.12 293.526 1071.73 293.832 1071.73 294.552C1071.73 295.344 1071.08 295.74 1070.09 295.74C1069.1 295.74 1068.33 295.272 1068.16 294.354L1066.63 294.966ZM1075.37 292.626C1075.37 295.434 1077.25 297.252 1079.91 297.252C1081.78 297.252 1083.37 296.334 1083.92 294.858L1082.38 294.174C1082.03 295.056 1081.06 295.65 1079.98 295.65C1078.34 295.65 1077.37 294.75 1077.3 293.058H1084.12C1084.18 292.86 1084.21 292.554 1084.21 292.212C1084.21 289.674 1082.45 287.964 1079.86 287.964C1077.16 287.964 1075.37 289.872 1075.37 292.626ZM1077.3 291.834C1077.46 290.448 1078.45 289.566 1079.8 289.566C1081.22 289.566 1082.23 290.448 1082.3 291.834H1077.3ZM1090.87 290.466C1090.87 294.516 1093.49 297.18 1097.36 297.18C1100.14 297.18 1102.4 295.812 1103.27 293.454L1101.27 292.824C1100.69 294.372 1099.25 295.344 1097.35 295.344C1094.79 295.344 1092.99 293.436 1092.99 290.466C1092.99 287.496 1094.79 285.588 1097.35 285.588C1099.22 285.588 1100.73 286.578 1101.29 288.306L1103.29 287.676C1102.49 285.264 1100.21 283.734 1097.33 283.734C1093.49 283.734 1090.87 286.398 1090.87 290.466ZM1105.71 287.514C1105.71 289.116 1106.72 290.448 1108.75 290.988L1110.73 291.528C1111.76 291.798 1112.37 292.428 1112.37 293.436C1112.37 294.732 1111.36 295.524 1109.94 295.524C1108.52 295.524 1107.44 294.768 1107.17 293.31L1105.3 293.904C1105.69 295.902 1107.49 297.216 1109.96 297.216C1112.57 297.216 1114.53 295.704 1114.53 293.292C1114.53 291.654 1113.65 290.358 1111.58 289.8L1109.51 289.242C1108.48 288.954 1107.82 288.288 1107.82 287.388C1107.82 286.164 1108.73 285.408 1110.07 285.408C1111.4 285.408 1112.44 286.2 1112.66 287.568L1114.55 286.92C1114.17 285.066 1112.44 283.716 1110.1 283.716C1107.58 283.716 1105.71 285.264 1105.71 287.514ZM1116.44 297H1118.44L1119.53 294.03H1125.56L1126.7 297H1128.75L1123.87 283.95H1121.21L1116.44 297ZM1120.09 292.392L1122.52 285.768L1125.01 292.392H1120.09ZM1133.57 297H1135.53V285.66H1139.75V283.95H1129.34V285.66H1133.57V297ZM1146.23 294.966C1146.53 296.334 1147.96 297.252 1149.79 297.252C1151.93 297.252 1153.3 296.136 1153.3 294.48C1153.3 293.004 1152.31 292.194 1150.85 291.924L1149.92 291.726C1148.86 291.51 1148.37 291.168 1148.37 290.574C1148.37 289.854 1148.96 289.44 1149.86 289.44C1150.78 289.44 1151.47 289.926 1151.63 290.736L1153.16 290.196C1152.91 288.846 1151.59 287.964 1149.76 287.964C1147.81 287.964 1146.44 289.044 1146.44 290.664C1146.44 291.906 1147.25 292.788 1149.07 293.184L1150.01 293.382C1150.71 293.526 1151.32 293.832 1151.32 294.552C1151.32 295.344 1150.67 295.74 1149.68 295.74C1148.69 295.74 1147.92 295.272 1147.76 294.354L1146.23 294.966ZM1154.97 292.626C1154.97 295.398 1156.8 297.252 1159.47 297.252C1161.47 297.252 1163.18 296.19 1163.73 294.48L1161.99 293.85C1161.66 294.84 1160.75 295.506 1159.52 295.506C1157.96 295.506 1156.95 294.336 1156.95 292.608C1156.95 290.844 1157.97 289.674 1159.56 289.674C1160.67 289.674 1161.61 290.286 1161.92 291.294L1163.66 290.628C1163.19 289.026 1161.54 287.964 1159.5 287.964C1156.79 287.964 1154.97 289.854 1154.97 292.626ZM1165.18 292.608C1165.18 295.272 1167.03 297.252 1169.86 297.252C1172.7 297.252 1174.56 295.272 1174.56 292.608C1174.56 289.926 1172.7 287.964 1169.86 287.964C1167.03 287.964 1165.18 289.926 1165.18 292.608ZM1167.12 292.608C1167.12 290.916 1168.17 289.656 1169.86 289.656C1171.57 289.656 1172.6 290.916 1172.6 292.608C1172.6 294.282 1171.57 295.542 1169.86 295.542C1168.17 295.542 1167.12 294.282 1167.12 292.608ZM1178.59 297V292.158C1178.59 290.736 1179.42 289.8 1180.84 289.8C1181.15 289.8 1181.44 289.836 1181.64 289.944V288.126C1181.47 288.036 1181.24 287.982 1180.81 287.982C1179.91 287.982 1178.92 288.45 1178.52 289.458L1178.43 288.198H1176.69V297H1178.59ZM1183.06 292.626C1183.06 295.434 1184.93 297.252 1187.59 297.252C1189.46 297.252 1191.05 296.334 1191.61 294.858L1190.06 294.174C1189.72 295.056 1188.74 295.65 1187.66 295.65C1186.03 295.65 1185.05 294.75 1184.98 293.058H1191.8C1191.86 292.86 1191.89 292.554 1191.89 292.212C1191.89 289.674 1190.13 287.964 1187.54 287.964C1184.84 287.964 1183.06 289.872 1183.06 292.626ZM1184.98 291.834C1185.14 290.448 1186.13 289.566 1187.48 289.566C1188.91 289.566 1189.91 290.448 1189.99 291.834H1184.98ZM1193.41 294.966C1193.71 296.334 1195.14 297.252 1196.97 297.252C1199.11 297.252 1200.48 296.136 1200.48 294.48C1200.48 293.004 1199.49 292.194 1198.03 291.924L1197.1 291.726C1196.04 291.51 1195.55 291.168 1195.55 290.574C1195.55 289.854 1196.14 289.44 1197.04 289.44C1197.96 289.44 1198.65 289.926 1198.81 290.736L1200.34 290.196C1200.09 288.846 1198.77 287.964 1196.94 287.964C1194.99 287.964 1193.62 289.044 1193.62 290.664C1193.62 291.906 1194.43 292.788 1196.25 293.184L1197.19 293.382C1197.89 293.526 1198.5 293.832 1198.5 294.552C1198.5 295.344 1197.85 295.74 1196.86 295.74C1195.87 295.74 1195.1 295.272 1194.94 294.354L1193.41 294.966Z" fill="black"></path><circle cx="984.284" cy="56.2843" r="20" transform="rotate(-45 984.284 56.2843)" fill="black"></circle><path d="M981.837 56.5711L978.561 59.8464L981.293 62.5786L984.569 59.3033L987.844 62.5786L990.644 59.7785L987.369 56.5032L990.576 53.2957L987.844 50.5635L984.637 53.7709L981.327 50.4617L978.527 53.2618L981.837 56.5711Z" fill="white"></path><circle cx="984.284" cy="134.284" r="20" transform="rotate(-45 984.284 134.284)" fill="black"></circle><path d="M981.837 134.571L978.561 137.846L981.293 140.579L984.569 137.303L987.844 140.579L990.644 137.779L987.369 134.503L990.576 131.296L987.844 128.563L984.637 131.771L981.327 128.462L978.527 131.262L981.837 134.571Z" fill="white"></path><circle cx="984.284" cy="212.284" r="20" transform="rotate(-45 984.284 212.284)" fill="black"></circle><path d="M981.837 212.571L978.561 215.846L981.293 218.579L984.569 215.303L987.844 218.579L990.644 215.779L987.369 212.503L990.576 209.296L987.844 206.563L984.637 209.771L981.327 206.462L978.527 209.262L981.837 212.571Z" fill="white"></path><circle cx="984.284" cy="290" r="20" transform="rotate(-45 984.284 290)" fill="black"></circle><path d="M981.837 290.287L978.561 293.562L981.293 296.294L984.569 293.019L987.844 296.294L990.644 293.494L987.369 290.219L990.576 287.011L987.844 284.279L984.637 287.487L981.327 284.177L978.527 286.978L981.837 290.287Z" fill="white"></path><g clip-path="url(#clip2_709_2736)"><path d="M808.987 149.141C815.663 149.141 821.068 143.853 821.068 137.332C821.068 130.811 815.663 125.524 808.987 125.524C802.311 125.524 796.905 130.811 796.905 137.332C796.905 143.853 802.311 149.141 808.987 149.141Z" stroke="#2E56FF" stroke-width="3" stroke-miterlimit="10"></path><path d="M790.243 162.17C793.801 155.609 800.852 151.135 808.987 151.135C817.723 151.135 825.215 156.292 828.466 163.666" stroke="#2E56FF" stroke-width="3" stroke-miterlimit="10"></path><path d="M767.672 132.596L777.867 147.501L789.614 133.724" stroke="#2E56FF" stroke-width="3" stroke-miterlimit="10"></path><path d="M850.341 148.052L840.133 133.134L828.386 146.924" stroke="#2E56FF" stroke-width="3" stroke-miterlimit="10"></path><path d="M840.106 133.199C842.929 149.416 831.664 164.623 816.158 168.218C805.334 170.724 794.497 167.366 787.112 160.228" stroke="#2E56FF" stroke-width="3" stroke-miterlimit="10"></path><path d="M777.84 147.317C773.559 129.788 785.105 112.665 801.829 108.795C813.388 106.105 824.961 110.133 832.32 118.281" stroke="#2E56FF" stroke-width="3" stroke-miterlimit="10"></path></g><path d="M75.94 133.33V125.67C75.94 114.25 84.71 105 95.52 105H103.82C114.63 105 123.39 114.25 123.39 125.67V133.33" stroke="#2E56FF" stroke-width="3" stroke-miterlimit="10"></path><path d="M126.48 134.37C128.44 135.59 129.75 137.74 129.75 140.2V146.11C129.75 149.91 126.64 152.99 122.81 152.99V133.33" stroke="#2E56FF" stroke-width="3" stroke-miterlimit="10"></path><path d="M122.81 153.61V133.3C122.81 131.72 121.52 130.44 119.92 130.44C118.32 130.44 117.03 131.72 117.03 133.3V153.61C117.03 155.19 118.33 156.47 119.92 156.47" stroke="#2E56FF" stroke-width="3" stroke-miterlimit="10"></path><path d="M72.36 133.74C70.35 134.94 69 137.13 69 139.63V145.54C69 149.34 72.11 152.42 75.94 152.42V132.75" stroke="#2E56FF" stroke-width="3" stroke-miterlimit="10"></path><path d="M75.94 153.03V132.72C75.94 131.14 77.24 129.86 78.83 129.86C80.42 129.86 81.72 131.14 81.72 132.72V153.03C81.72 154.61 80.42 155.89 78.83 155.89" stroke="#2E56FF" stroke-width="3" stroke-miterlimit="10"></path><path d="M103.71 165.14H108.06C113.65 165.14 118.18 160.61 118.18 155.03V154.74" stroke="#2E56FF" stroke-width="3" stroke-miterlimit="10"></path><path d="M100.36 161.09H97.82C95.97 161.09 94.46 162.64 94.46 164.56C94.46 166.48 95.96 168.03 97.82 168.03H100.36C102.21 168.03 103.72 166.48 103.72 164.56" stroke="#2E56FF" stroke-width="3" stroke-miterlimit="10"></path><path d="M336.993 136.566C345.467 136.566 352.334 129.744 352.334 121.319C352.334 112.894 345.467 106.072 336.993 106.072C328.519 106.072 321.652 112.894 321.652 121.319C321.652 129.744 328.519 136.566 336.993 136.566V136.566Z" stroke="#2E56FF" stroke-width="3" stroke-miterlimit="10"></path><path d="M310.077 167.928C310.077 153.137 322.123 141.163 336.993 141.163C351.863 141.163 363.909 153.137 363.909 167.928H333.047" stroke="#2E56FF" stroke-width="3" stroke-miterlimit="10"></path></g><defs><clipPath id="clip0_709_2736"><rect width="1239" height="349" fill="white"></rect></clipPath><clipPath id="clip1_709_2736"><rect width="72.19" height="62.91" fill="white" transform="translate(537 107)"></rect></clipPath><clipPath id="clip2_709_2736"><rect width="86" height="65" fill="white" transform="translate(766 106)"></rect></clipPath></defs></svg> 