<?xml version="1.0" encoding="UTF-8"?> <svg xmlns="http://www.w3.org/2000/svg" width="407" height="458" viewBox="0 0 407 458" fill="none"><path fill-rule="evenodd" clip-rule="evenodd" d="M295.948 144.01L219.803 220.156C214.815 217.778 209.247 216.444 203.39 216.444C182.338 216.444 165.289 233.494 165.289 254.546C165.289 275.597 182.338 292.648 203.39 292.648C224.442 292.648 241.494 275.597 241.494 254.546C241.494 248.688 240.159 243.121 237.781 238.134L313.927 161.988L295.948 144.01ZM203.39 267.189C196.373 267.189 190.69 261.505 190.69 254.488C190.69 247.47 196.373 241.787 203.39 241.787C210.407 241.787 216.09 247.47 216.09 254.488C216.09 261.505 210.407 267.189 203.39 267.189Z" fill="#2E56FF"></path><path d="M69.5163 28.4531L31.4434 53.835L45.5335 74.9702L83.6064 49.5883L69.5163 28.4531Z" fill="#2E56FF"></path><path d="M337.46 28.3201L323.369 49.457L361.441 74.8385L375.533 53.7016L337.46 28.3201Z" fill="#2E56FF"></path><path fill-rule="evenodd" clip-rule="evenodd" d="M216.089 51.8521V26.1025H254.193V0.701172H152.644V26.1025H190.748V51.8521C84.503 58.4054 0.353516 146.672 0.353516 254.54C0.353516 362.409 91.2879 457.635 203.448 457.635C315.608 457.635 406.542 366.7 406.542 254.54C406.542 142.38 322.393 58.4054 216.148 51.8521H216.089ZM203.388 432.233C105.263 432.233 25.6975 352.666 25.6975 254.54C25.6975 156.415 105.263 76.8471 203.388 76.8471C301.514 76.8471 381.082 156.415 381.082 254.54C381.082 352.666 301.514 432.233 203.388 432.233Z" fill="#2E56FF"></path></svg> 