<?xml version="1.0" encoding="UTF-8"?> <svg xmlns="http://www.w3.org/2000/svg" width="458" height="429" viewBox="0 0 458 429" fill="none"><path d="M434.269 403.941V177.36C434.269 164.311 423.654 153.64 410.547 153.64H387.814C374.766 153.64 364.096 164.253 364.096 177.36V403.941H320.484V268.352C320.484 255.303 309.872 244.632 296.766 244.632H274.032C260.984 244.632 250.311 255.245 250.311 268.352V403.941H206.7V222.885C206.7 209.836 196.088 199.165 182.981 199.165H160.248C147.199 199.165 136.527 209.778 136.527 222.885V403.941H92.9151V313.877C92.9151 300.828 82.3031 290.157 69.1965 290.157H46.4634C33.4148 290.157 22.7448 300.77 22.7448 313.877V403.941H0.0117188V428.589H456.942V403.941H434.209H434.269ZM410.142 177.823V404.405H389.207V177.823H410.142ZM295.893 269.222V404.405H274.958V269.222H295.893ZM181.647 223.522V404.405H160.712V223.522H181.647ZM67.3984 314.921V404.405H46.4634V314.921H67.3984Z" fill="#2E56FF"></path><path d="M14.0463 191.277L415.886 53.7154L397.443 91.2952L431.137 79.7545L457.291 26.4585L403.995 0.361328L370.3 11.902L407.88 30.2856L6.04102 167.847L14.0463 191.277Z" fill="#2E56FF"></path></svg> 