<?xml version="1.0" encoding="UTF-8"?> <svg xmlns="http://www.w3.org/2000/svg" width="356" height="457" viewBox="0 0 356 457" fill="none"><path fill-rule="evenodd" clip-rule="evenodd" d="M165.111 327.89V368.138H190.511V327.89C205.3 322.671 215.915 308.578 215.915 291.992C215.915 270.94 198.863 253.89 177.811 253.89C156.759 253.89 139.71 270.94 139.71 291.992C139.71 308.578 150.322 322.671 165.111 327.89ZM177.811 279.291C184.828 279.291 190.511 284.975 190.511 291.992C190.511 299.009 184.828 304.693 177.811 304.693C170.794 304.693 165.111 299.009 165.111 291.992C165.111 284.975 170.794 279.291 177.811 279.291Z" fill="#2E56FF"></path><path fill-rule="evenodd" clip-rule="evenodd" d="M330.103 152.356H291.999V114.254C291.999 51.1568 240.851 0.00585938 177.753 0.00585938C114.656 0.00585938 63.5044 51.1568 63.5044 114.254V152.356H25.4034C11.3689 152.356 0 163.723 0 177.757V431.596C0 445.631 11.3689 456.997 25.4034 456.997H330.044C344.078 456.997 355.444 445.631 355.444 431.596V177.757C355.444 163.723 344.078 152.356 330.044 152.356H330.103ZM88.9644 114.254C88.9644 65.1913 128.747 25.4072 177.81 25.4072C226.873 25.4072 266.658 65.1913 266.658 114.254V152.356H88.9644V114.254ZM330.103 431.538H25.4601V177.699H330.103V431.538Z" fill="#2E56FF"></path></svg> 