<?xml version="1.0" encoding="UTF-8"?> <svg xmlns="http://www.w3.org/2000/svg" width="67" height="55" viewBox="0 0 67 55" fill="none"><path d="M3.80521 53.9336V48.7886C3.80521 47.3707 4.61544 46.4187 6.11438 46.4187C6.41822 46.4187 6.74231 46.4592 7.00564 46.5808V43.8462C6.82334 43.7449 6.56001 43.6639 6.03336 43.6639C5.16235 43.6639 4.08879 44.069 3.66342 45.1831L3.52162 43.9272H0.868103V53.9336H3.80521Z" fill="white"></path><path d="M7.7051 48.9507C7.7051 52.1916 9.91299 54.2375 12.9514 54.2375C15.1998 54.2375 17.0228 53.2449 17.6305 51.5434L15.2605 50.4901C14.9365 51.2801 14.0654 51.7865 13.0932 51.7865C11.6145 51.7865 10.7435 50.9965 10.703 49.6394H17.833C17.8938 49.4166 17.9343 48.9912 17.9343 48.4848C17.9343 45.5882 15.8682 43.6234 12.8906 43.6234C9.81171 43.6234 7.7051 45.7705 7.7051 48.9507ZM10.6625 47.8974C10.8043 46.8238 11.6753 46.0744 12.8298 46.0744C13.9844 46.0744 14.8757 46.7631 14.9567 47.8974H10.6625Z" fill="white"></path><path d="M18.6873 51.746C19.1126 53.2247 20.8141 54.2375 22.9613 54.2375C25.554 54.2375 27.2555 52.9208 27.2555 50.9358C27.2555 49.2748 26.263 48.2417 24.2576 47.9176L23.4677 47.7556C22.4144 47.553 21.9282 47.31 21.9282 46.7428C21.9282 46.1351 22.4549 45.811 23.1841 45.811C23.9943 45.811 24.6425 46.2567 24.8046 47.0264L27.0732 46.1554C26.7694 44.6362 25.1489 43.6234 22.9815 43.6234C20.5913 43.6234 18.8898 44.9198 18.8898 46.8846C18.8898 48.3633 19.8419 49.4166 21.8877 49.8217L23.0018 50.0445C23.6297 50.1863 24.1564 50.4091 24.1564 51.0371C24.1564 51.665 23.5892 51.9891 22.7385 51.9891C21.8067 51.9891 21.118 51.5434 20.9559 50.7737L18.6873 51.746Z" fill="white"></path><path d="M28.1501 48.9304C28.1501 52.0701 30.2972 54.2375 33.5989 54.2375C36.8804 54.2375 39.0275 52.0701 39.0275 48.9304C39.0275 45.7908 36.8804 43.6234 33.5989 43.6234C30.2972 43.6234 28.1501 45.7908 28.1501 48.9304ZM31.1682 48.9304C31.1682 47.3707 32.0595 46.2567 33.5989 46.2567C35.1181 46.2567 36.0296 47.3707 36.0296 48.9304C36.0296 50.4901 35.1181 51.6042 33.5989 51.6042C32.0595 51.6042 31.1682 50.4901 31.1682 48.9304Z" fill="white"></path><path d="M43.4895 53.9336V39.2481H40.5524V53.9336H43.4895Z" fill="white"></path><path d="M48.9444 53.9336H52.1245L56.2365 43.9272H52.9753L50.5648 50.5712L48.1544 43.9272H44.7716L48.9444 53.9336Z" fill="white"></path><path d="M56.4735 48.9507C56.4735 52.1916 58.6814 54.2375 61.7198 54.2375C63.9682 54.2375 65.7912 53.2449 66.3989 51.5434L64.029 50.4901C63.7049 51.2801 62.8339 51.7865 61.8616 51.7865C60.3829 51.7865 59.5119 50.9965 59.4714 49.6394H66.6015C66.6622 49.4166 66.7028 48.9912 66.7028 48.4848C66.7028 45.5882 64.6367 43.6234 61.659 43.6234C58.5801 43.6234 56.4735 45.7705 56.4735 48.9507ZM59.4309 47.8974C59.5727 46.8238 60.4437 46.0744 61.5983 46.0744C62.7529 46.0744 63.6441 46.7631 63.7251 47.8974H59.4309Z" fill="white"></path><g clip-path="url(#clip0_1_1336)"><path d="M33.4799 0.993698V34.0479H66.534V0.993698H33.4799ZM44.7591 8.41393C43.9811 8.41393 43.475 8.93262 43.475 9.7368L41.2572 9.51622C41.3609 7.62269 42.8265 6.42935 44.8889 6.42935C46.9514 6.42935 48.2352 7.5707 48.2352 9.30857C48.2352 10.6963 47.5088 11.6303 45.9005 12.6419C44.7071 13.3811 44.2143 13.7183 44.0199 14.1204C44.4219 14.0816 45.2261 14.0296 45.9912 14.0296H48.261V16.0271H41.4V15.4174C41.4 13.4199 42.3857 12.7714 44.2275 11.4614C45.3947 10.6314 45.9525 10.2423 45.9525 9.46394C45.9525 8.81543 45.5113 8.41335 44.7591 8.41335V8.41393ZM48.622 28.4806H41.761V27.8709C41.761 25.8734 42.7466 25.2249 44.5885 23.915C45.7557 23.0849 46.3134 22.6958 46.3134 21.9174C46.3134 21.2689 45.8723 20.8669 45.1201 20.8669C44.3679 20.8669 43.836 21.3855 43.836 22.1897L41.6182 21.9691C41.7219 20.0756 43.1875 18.8823 45.2499 18.8823C47.3123 18.8823 48.5961 20.0236 48.5961 21.7615C48.5961 23.1493 47.8698 24.0833 46.2614 25.0948C45.0684 25.834 44.5753 26.1712 44.3808 26.5733C44.7829 26.5345 45.5871 26.4826 46.3522 26.4826H48.622V28.4801V28.4806ZM58.2817 28.4806H51.4204V27.8709C51.4204 25.8734 52.4064 25.2249 54.2479 23.915C55.4154 23.0849 55.9732 22.6958 55.9732 21.9174C55.9732 21.2689 55.532 20.8669 54.7799 20.8669C54.0277 20.8669 53.4958 21.3855 53.4958 22.1897L51.278 21.9691C51.3817 20.0756 52.8473 18.8823 54.9094 18.8823C56.9715 18.8823 58.2559 20.0236 58.2559 21.7615C58.2559 23.1493 57.5295 24.0833 55.9212 25.0948C54.7279 25.834 54.235 26.1712 54.0406 26.5733C54.4427 26.5345 55.2468 26.4826 56.012 26.4826H58.2817V28.4801V28.4806ZM54.8339 16.196C52.3565 16.2219 50.9687 14.2376 50.9687 11.3193C50.9687 8.40101 52.4863 6.46841 54.8339 6.42964C57.2723 6.4038 58.6991 8.3364 58.6991 11.3193C58.6991 14.3022 57.1424 16.1702 54.8339 16.196Z" fill="white"></path><path d="M54.8337 14.1987C55.7291 14.1987 56.4549 12.9096 56.4549 11.3195C56.4549 9.72935 55.7291 8.44028 54.8337 8.44028C53.9383 8.44028 53.2124 9.72935 53.2124 11.3195C53.2124 12.9096 53.9383 14.1987 54.8337 14.1987Z" fill="white"></path><path d="M33.6029 12.0007V0.993393H22.3025C21.5535 0.993393 20.8695 1.28651 20.3161 1.80755L1.29768 20.8583C0.776641 21.3794 0.483521 22.0957 0.483521 22.8124V34.0476H11.4908V18.2205C11.4908 14.7686 14.2916 11.9678 17.7436 11.9678H33.6032V12.0004L33.6029 12.0007Z" fill="white"></path></g><defs><clipPath id="clip0_1_1336"><rect width="66.0505" height="33.0542" fill="white" transform="translate(0.483521 0.99292)"></rect></clipPath></defs></svg> 