<?xml version="1.0" encoding="UTF-8"?> <svg xmlns="http://www.w3.org/2000/svg" width="54" height="55" viewBox="0 0 54 55" fill="none"><path d="M22.5314 50.3918C22.2902 50.3547 22.049 50.3547 21.8387 50.3547H17.398C12.9635 50.3485 8.37429 50.3423 3.85934 50.3732H3.84081C3.35839 50.3732 2.98728 50.2495 2.73989 50.0021C2.49249 49.7547 2.36262 49.3775 2.36262 48.8888C2.38117 37.0881 2.38119 25.2936 2.38119 13.4929V4.3517C2.38119 3.21369 2.72136 2.86115 3.847 2.86115H34.6723C35.5196 2.86115 36.3608 2.86115 37.2081 2.86115C37.7586 2.86115 38.1667 3.13947 38.3337 3.60952C38.3894 3.76414 38.3832 3.94968 38.3832 4.15997V8.42134C38.3832 10.7221 38.3832 13.0291 38.3832 15.3298C38.3832 15.7875 38.5193 16.1648 38.7729 16.4184C38.9832 16.6286 39.2367 16.7276 39.5831 16.7338C40.2758 16.7214 40.7396 16.171 40.7396 15.3669V13.7403C40.7396 10.4933 40.7396 7.24621 40.7396 3.99298C40.7396 2.41584 39.7686 1.09847 38.2781 0.634601C38.2595 0.634601 38.241 0.628416 38.2224 0.622231L38.3276 0.461426H2.35643L2.48013 0.684081C0.797853 1.2469 0 2.39728 0 4.27748V49.0373C0 49.2909 1.05709e-05 49.5568 0.0494894 49.8289C0.371102 51.604 1.74414 52.7111 3.64289 52.7173C6.30238 52.7173 8.96185 52.7173 11.6275 52.7173C13.7118 52.7173 15.7961 52.7173 17.8866 52.7173H22.0799C22.2098 52.7173 22.3335 52.7173 22.4572 52.6987C23.0819 52.6245 23.4839 52.1668 23.4901 51.5483C23.4963 50.9422 23.119 50.4907 22.5252 50.398L22.5314 50.3918Z" fill="#0A3AF3"></path><path d="M53.9567 33.736C53.833 33.4391 53.796 33.1051 53.7527 32.7526C53.7279 32.5423 53.7032 32.332 53.6661 32.1279C52.7012 27.0811 49.6088 22.5971 45.199 19.8262C40.7954 17.0616 35.4393 16.2328 30.4976 17.5502C21.0038 20.0798 15.1159 29.32 16.7981 39.0488C18.1341 46.7551 24.4179 53.008 32.0871 54.2573C32.2788 54.2883 32.4705 54.3068 32.6561 54.3192C32.8973 54.3377 33.1262 54.3625 33.3364 54.412L33.0952 54.5542H37.3937L37.1154 54.3996C37.2762 54.3748 37.4494 54.3625 37.6225 54.3439C37.8514 54.3254 38.0864 54.3006 38.3152 54.2635C46.238 52.8596 52.2807 46.8664 53.7156 38.9931C53.7403 38.8447 53.7526 38.69 53.765 38.5292C53.7836 38.2571 53.8083 38.0221 53.9196 37.8427L54 37.9417V33.7051L53.9505 33.7236L53.9567 33.736ZM51.6312 35.7337C51.6312 44.7945 44.2836 52.1669 35.2475 52.1669C26.2176 52.1669 18.87 44.7945 18.8639 35.7337C18.8639 26.6791 26.2115 19.3067 35.2475 19.3005H35.2599C39.6202 19.3005 43.7332 21.0075 46.8318 24.1123C49.9304 27.2171 51.6374 31.3424 51.6374 35.7275L51.6312 35.7337Z" fill="#0A3AF3"></path><path d="M33.887 13.2454C33.9302 13.2454 33.9735 13.2454 34.0168 13.2454C34.122 13.2454 34.2333 13.2454 34.3384 13.2269C34.9013 13.1527 35.2723 12.7754 35.3404 12.2126C35.4146 11.6064 35.1054 11.1302 34.5302 10.957C34.2951 10.889 34.0725 10.8828 33.8375 10.8828C24.8756 10.8828 15.9199 10.8828 6.95806 10.8828C6.71685 10.8828 6.4633 10.889 6.20972 10.9694C5.67164 11.1364 5.36857 11.6126 5.42423 12.1816C5.47989 12.7383 5.85718 13.1341 6.40145 13.2207C6.55607 13.2454 6.71066 13.2454 6.87147 13.2392H33.8931L33.887 13.2454Z" fill="#0A3AF3"></path><path d="M19.2474 20.3211C20.5029 20.3211 20.6575 19.5171 20.6637 19.1707C20.6699 18.7625 20.5029 18.5028 20.3668 18.3543C20.1194 18.1007 19.7422 17.9647 19.235 17.9585H7.01373C6.79108 17.9585 6.54366 17.9585 6.29627 18.0203C5.73963 18.1502 5.40566 18.5894 5.41803 19.1645C5.4304 19.7583 5.80149 20.1912 6.38905 20.2964C6.56841 20.3273 6.74159 20.3273 6.89622 20.3273H14.7324C15.2952 20.3273 15.8642 20.3273 16.4271 20.3273C17.3672 20.3273 18.3073 20.3273 19.2535 20.3273L19.2474 20.3211Z" fill="#0A3AF3"></path><path d="M15.3694 26.8094C15.3817 26.3826 15.2085 26.1167 15.0663 25.9744C14.8251 25.7271 14.4663 25.6034 13.9963 25.5972C11.5966 25.5972 9.20303 25.5972 6.80331 25.5972C6.34563 25.5972 5.96835 25.7332 5.72096 25.9806C5.51067 26.1909 5.40553 26.4692 5.40553 26.7847C5.41171 27.4959 5.96218 27.9598 6.81569 27.9598C7.6692 27.9598 8.51653 27.9598 9.37004 27.9598H11.442C11.7945 27.9598 12.147 27.9598 12.4934 27.9598C13.0005 27.9598 13.5077 27.9598 14.0149 27.9598C14.9921 27.9598 15.357 27.3599 15.3755 26.8032L15.3694 26.8094Z" fill="#0A3AF3"></path><path d="M6.82808 42.661C7.52697 42.661 8.21964 42.661 8.91853 42.661H10.7616C11.0709 42.661 11.3801 42.661 11.6894 42.661C12.0852 42.661 12.4872 42.661 12.883 42.661C13.9097 42.661 14.287 42.061 14.2994 41.4982C14.2994 41.1828 14.2004 40.8983 13.9901 40.688C13.8169 40.5148 13.4891 40.3045 12.9016 40.2983C10.8668 40.2983 8.83194 40.2983 6.79712 40.2983C6.20956 40.2983 5.88176 40.5086 5.70858 40.688C5.50448 40.8983 5.39935 41.1828 5.40553 41.4982C5.40553 41.7703 5.52925 42.6486 6.82189 42.6548L6.82808 42.661Z" fill="#0A3AF3"></path><path d="M6.7044 35.3188C7.08167 35.325 7.45892 35.3312 7.8362 35.3312C8.11452 35.3312 8.39287 35.3312 8.67737 35.3312H10.3534C11.04 35.3312 11.7265 35.3312 12.4192 35.3188C12.7903 35.3126 13.1119 35.1704 13.3345 34.9292C13.5386 34.7003 13.6438 34.3973 13.6191 34.0695C13.5696 33.383 13.1057 32.9624 12.4068 32.9624H9.90196C8.82579 32.9624 7.74345 32.9624 6.6611 32.9624C6.04261 32.9624 5.72718 33.2902 5.57256 33.5685C5.36227 33.9396 5.36226 34.354 5.56018 34.7003C5.77665 35.0838 6.20958 35.3188 6.71674 35.325L6.7044 35.3188Z" fill="#0A3AF3"></path><path d="M46.1266 37.0203H44.0918C41.5684 37.0203 39.045 37.0142 36.5277 37.0327C36.4844 37.0327 36.4473 37.0327 36.4164 37.0327C36.4164 37.0018 36.4164 36.9585 36.4164 36.8967C36.4288 33.4702 36.4288 30.0376 36.4288 26.6112V24.1435C36.4288 23.9703 36.4288 23.7786 36.3917 23.5807C36.2804 23.0178 35.8721 22.6777 35.297 22.6591C34.6847 22.6282 34.2455 22.9807 34.1218 23.5745C34.0785 23.7724 34.0847 23.9703 34.0847 24.1435V37.88C34.0847 38.9933 34.4744 39.3891 35.5691 39.3891H46.1823C46.2194 39.3891 46.2565 39.3891 46.2936 39.3891C46.3864 39.3891 46.4792 39.3891 46.5719 39.3706C47.1595 39.2716 47.5306 38.8634 47.5739 38.2821C47.6172 37.7007 47.2832 37.2368 46.7018 37.076C46.4977 37.0203 46.306 37.0203 46.1328 37.0203H46.1266Z" fill="#0A3AF3"></path></svg> 