<?xml version="1.0" encoding="UTF-8"?> <svg xmlns="http://www.w3.org/2000/svg" width="55" height="53" viewBox="0 0 55 53" fill="none"><path d="M53.6915 19.7596C50.3582 6.70629 37.7763 -1.66119 24.4225 0.278695C18.1793 1.18716 12.8446 4.097 8.55502 8.93306C7.96759 9.59563 7.64653 9.95765 7.68752 10.4904C7.7285 11.0164 8.11101 11.3306 8.79407 11.877C9.70254 12.6079 10.2968 11.918 10.4949 11.6926C16.6424 4.58881 24.2585 1.93171 33.1383 3.78963C45.5153 6.38525 53.2407 18.2431 50.7271 30.7773C48.7599 40.5792 40.4812 48.0587 30.5905 48.974C24.2107 49.5682 18.4389 47.7786 13.432 43.6461C12.305 42.7172 11.902 42.7377 10.8979 43.8101C10.5564 44.1789 10.3036 44.4453 10.331 44.8688C10.3583 45.2923 10.652 45.545 10.9935 45.8319C16.1233 50.183 21.8405 52.3688 28.0358 52.3688C29.6957 52.3688 31.3965 52.2117 33.1246 51.8975C45.5358 49.6366 54.5249 38.8442 54.4976 26.2281C54.4976 24.0014 54.2243 21.8224 53.6984 19.7527L53.6915 19.7596Z" fill="#0C45E9"></path><path d="M8.24082 34.4519C10.3856 31.4669 12.5099 28.4683 14.6342 25.4628C14.6752 25.4014 14.6957 25.3877 14.6957 25.3877C14.7026 25.3877 14.7367 25.3877 14.8392 25.415C16.2258 25.8044 17.5031 25.5243 18.6233 24.5749C18.6985 24.5134 18.7258 24.5066 18.7258 24.4997C18.7258 24.4997 18.7531 24.4997 18.8351 24.5475C21.5332 26.0844 24.2312 27.6076 26.9362 29.124C27.0181 29.1719 27.0318 29.1923 27.0318 29.1923C27.0318 29.1923 27.0454 29.2197 27.025 29.3221C26.7176 31.0366 27.5577 32.7511 29.1151 33.5912C30.693 34.4382 32.5645 34.1992 33.8829 32.9697C35.167 31.7743 35.5495 29.8549 34.805 28.3044C34.6821 28.0448 34.6957 27.9628 34.9006 27.7238C36.82 25.5038 38.7804 23.2088 40.7203 20.8932C40.9252 20.6541 41.0072 20.6268 41.3009 20.7087C43.0427 21.1801 44.5522 20.6951 45.6725 19.3153C46.7722 17.9628 46.9429 16.4191 46.1779 14.8618C45.3924 13.2702 44.0126 12.4574 42.2299 12.5189C40.7886 12.5667 39.5044 13.359 38.794 14.6364C38.0632 15.9547 38.0769 17.5189 38.8282 18.8235C38.8556 18.8645 38.8829 18.9055 38.9102 18.9465C38.9375 18.9806 38.9717 19.0352 38.9785 19.0216C38.9785 19.0216 38.9717 19.0421 38.9375 19.0831C36.8815 21.4396 34.846 23.8167 32.8105 26.1937C32.7763 26.2279 32.7558 26.2483 32.7558 26.2552C32.7422 26.2552 32.7148 26.2484 32.667 26.221C31.1711 25.5585 29.7367 25.7702 28.4116 26.8494C28.3296 26.9177 28.2954 26.9246 28.2954 26.9246C28.2954 26.9246 28.2681 26.9246 28.193 26.8768C25.4949 25.3399 22.7968 23.8235 20.0919 22.3003C20.0031 22.2456 19.9826 22.2251 19.9826 22.2251C19.9826 22.2251 19.9758 22.1978 19.9826 22.1022C20.1875 20.9068 19.8801 19.7456 19.122 18.844C18.2954 17.8604 17.066 17.3208 15.6452 17.3139C14.2927 17.3481 13.0974 18.1131 12.3733 19.4041C11.5878 20.7975 11.6288 22.2525 12.4895 23.6117C12.6261 23.8303 12.6261 23.8781 12.4758 24.0899C10.3037 27.1158 8.35012 29.8686 6.49903 32.5052C6.29411 32.7989 6.25312 32.8262 5.93208 32.7101C4.72307 32.2661 3.40478 32.43 2.31871 33.1541C1.22582 33.885 0.563228 35.0461 0.501752 36.3508C0.426616 38.0926 1.39656 39.6636 2.98126 40.3467C3.50722 40.5721 4.06734 40.6882 4.62062 40.6882C5.72717 40.6882 6.80639 40.2442 7.59191 39.4246C8.81459 38.1404 9.08098 36.3371 8.27497 34.7046C8.21577 34.5862 8.20668 34.502 8.24766 34.4519H8.24082ZM6.1575 36.5625C6.17116 37.389 5.48127 38.1063 4.65476 38.1268C4.24493 38.1541 3.84191 37.9833 3.53454 37.6896C3.23399 37.4027 3.07005 37.0134 3.06322 36.6035C3.05639 35.7634 3.7258 35.0598 4.56596 35.0393H4.60694C5.00995 35.0393 5.38564 35.1896 5.67935 35.4765C5.9799 35.7702 6.15067 36.1527 6.1575 36.5694V36.5625ZM14.402 21.4874C14.3884 20.6473 15.0578 19.9437 15.8979 19.9232C16.3078 19.9096 16.7176 20.0667 17.0181 20.3604C17.3187 20.6473 17.4894 21.0366 17.4894 21.4465C17.5031 22.2866 16.8269 22.9902 15.9935 23.0175C15.5769 23.0311 15.1807 22.874 14.8802 22.5872C14.5796 22.3003 14.4089 21.9109 14.402 21.4943V21.4874ZM31.0687 31.5147C30.6656 31.5216 30.2627 31.3508 29.9689 31.0571C29.6752 30.7634 29.5113 30.3672 29.5181 29.9437C29.5181 29.1036 30.2149 28.4205 31.055 28.4205C31.4717 28.4205 31.8679 28.5844 32.1616 28.885C32.4553 29.1787 32.6124 29.5749 32.6055 29.9847C32.5987 30.8249 31.902 31.5079 31.0687 31.5079V31.5147ZM43.4867 15.6541C43.7804 15.9478 43.9443 16.3372 43.9443 16.747C43.9443 17.5872 43.2613 18.277 42.4211 18.2907C41.9976 18.2907 41.6151 18.1404 41.3145 17.8467C41.014 17.553 40.8501 17.1637 40.8501 16.7402C40.8501 15.9 41.5332 15.2101 42.3733 15.1965C42.8036 15.1965 43.1861 15.3536 43.4867 15.6473V15.6541Z" fill="#0C45E9"></path></svg> 