<?xml version="1.0" encoding="UTF-8"?> <svg xmlns="http://www.w3.org/2000/svg" width="55" height="54" viewBox="0 0 55 54" fill="none"><path d="M27.462 2.82407e-05C12.5861 0.0213608 0.483471 12.1525 0.497693 27.0213C0.511915 41.9256 12.6715 54.0425 27.5687 53.9998C42.4517 53.9572 54.5473 41.8118 54.4975 26.943C54.4549 12.0458 42.3379 -0.0213043 27.462 2.82407e-05ZM27.7607 3.05769C28.8842 3.11457 29.7731 3.68345 30.6193 4.35187C32.0841 5.51094 32.9517 7.11088 33.8121 8.71082C34.58 10.1401 35.156 11.6405 35.6111 13.1978C35.7178 13.5746 35.7035 13.7098 35.2556 13.7311C32.6743 13.8377 30.086 13.9373 27.5047 13.9586C24.9164 13.9444 22.3351 13.852 19.7539 13.724C19.4837 13.7097 19.2206 13.7453 19.3628 13.3186C20.3583 10.2041 21.5458 7.18198 23.9066 4.80695C24.9661 3.74032 26.175 2.97947 27.7678 3.0648L27.7607 3.05769ZM36.9195 25.4853C33.7836 25.4711 30.6477 25.4782 27.5118 25.4782C24.3759 25.4782 21.1974 25.4711 18.0402 25.4853C17.6348 25.4853 17.514 25.4142 17.5282 24.9804C17.6135 22.3565 17.9477 19.7611 18.3957 17.1727C18.4739 16.7248 18.673 16.6679 19.0641 16.6963C23.1386 16.9878 27.2203 17.0092 31.309 16.9167C32.8663 16.8812 34.4236 16.7888 35.9738 16.6892C36.3649 16.6679 36.5213 16.7603 36.5924 17.1514C37.0617 19.7326 37.3746 22.3352 37.4741 24.9591C37.4955 25.4426 37.3319 25.4924 36.9195 25.4853ZM37.4741 29.0336C37.3888 31.6575 37.0546 34.253 36.6066 36.8414C36.5284 37.2965 36.3151 37.3391 35.9382 37.3107C31.9632 37.0262 27.9741 36.9978 23.992 37.0831C22.3352 37.1187 20.6783 37.2111 19.0286 37.3178C18.6304 37.3462 18.4882 37.2253 18.4171 36.8485C17.9477 34.2885 17.6349 31.7073 17.5353 29.0976C17.5211 28.6425 17.6135 28.5074 18.0899 28.5145C21.2258 28.5359 24.3617 28.5288 27.4976 28.5288C30.6335 28.5288 33.8121 28.5359 36.9693 28.5217C37.3817 28.5217 37.4884 28.6141 37.4741 29.0336ZM20.465 4.08877C18.4739 6.93311 17.1086 9.89833 16.2624 13.1053C16.2056 13.3187 16.1629 13.4537 15.8856 13.4253C13.411 13.2049 10.9507 12.9347 8.38365 12.5578C11.5338 8.46904 15.4874 5.69582 20.465 4.08165V4.08877ZM3.61225 25.0871C3.9038 21.8303 4.78556 18.7514 6.29306 15.843C6.49216 15.4661 6.69124 15.3595 7.11078 15.4235C9.62091 15.8217 12.1453 16.1346 14.6839 16.355C15.4661 16.419 15.4661 16.419 15.3239 17.2012C14.8688 19.7469 14.5843 22.3139 14.5132 24.9022C14.499 25.4142 14.3354 25.4995 13.8732 25.4924C12.2519 25.464 10.6378 25.4782 9.01653 25.4782C7.39525 25.4782 5.70283 25.4782 4.046 25.4782C3.76157 25.4782 3.5767 25.4924 3.61937 25.0871H3.61225ZM6.39262 38.3417C4.79268 35.3694 3.88957 32.1909 3.60513 28.8345C3.56958 28.4505 3.81135 28.5359 4.01046 28.5288C5.68862 28.5288 7.36679 28.5288 9.04495 28.5288C10.6662 28.5288 12.2804 28.5501 13.9017 28.5145C14.4137 28.5003 14.499 28.6639 14.5132 29.1332C14.6056 31.7998 14.8687 34.445 15.3949 37.0618C15.466 37.4173 15.4376 37.588 15.011 37.6235C12.3017 37.8511 9.5996 38.1853 6.9117 38.6048C6.66282 38.6404 6.52769 38.5764 6.39969 38.3417H6.39262ZM8.37653 41.435C9.52849 41.2785 10.588 41.1221 11.6546 41.0012C13.0057 40.8519 14.3639 40.7452 15.7149 40.5888C16.0491 40.5532 16.1843 40.603 16.2909 40.9585C17.2011 44.1086 18.4028 47.1308 20.4863 49.9182C15.4945 48.304 11.5409 45.5308 8.37653 41.435ZM27.5047 50.9493C26.4879 50.9635 25.6417 50.544 24.8239 49.9893C23.4089 49.0294 22.5129 47.6428 21.681 46.1992C20.6997 44.5069 19.9459 42.7149 19.3984 40.8377C19.2775 40.4323 19.3059 40.2972 19.7752 40.2759C22.3564 40.1621 24.9448 40.0697 27.5261 40.0555C30.1144 40.0697 32.6957 40.1621 35.2769 40.2901C35.5187 40.3043 35.7746 40.2688 35.6538 40.667C34.6582 43.8029 33.4636 46.8392 31.0815 49.2285C30.1002 50.2169 28.9767 50.9422 27.5047 50.9564V50.9493ZM34.5445 49.904C35.4973 48.5103 36.3009 47.1663 36.9693 45.7441C37.659 44.2793 38.2492 42.7789 38.6332 41.2145C38.7541 40.7097 38.9319 40.539 39.4865 40.5959C41.7264 40.8092 43.9521 41.0794 46.1849 41.3639C46.2987 41.3781 46.4125 41.4136 46.6045 41.4634C43.4686 45.5308 39.5079 48.3112 34.5516 49.9111L34.5445 49.904ZM51.3901 28.9056C51.1056 32.1624 50.2168 35.2414 48.7164 38.1498C48.5244 38.5266 48.3253 38.6475 47.8987 38.5764C45.3885 38.164 42.8642 37.8653 40.3256 37.6449C39.5363 37.5738 39.5363 37.5809 39.6714 36.8058C40.1265 34.2388 40.4109 31.6504 40.4891 29.0478C40.5034 28.5928 40.6385 28.5074 41.058 28.5145C42.6793 28.543 44.2934 28.5217 45.9147 28.5217C47.5929 28.5217 49.271 28.5217 50.9492 28.5217C51.2194 28.5217 51.4256 28.4861 51.383 28.9056H51.3901ZM48.6026 15.6439C50.1955 18.6162 51.1056 21.7948 51.3901 25.1511C51.4256 25.592 51.1412 25.464 50.9421 25.464C49.2853 25.4711 47.6284 25.464 45.9716 25.464C44.3148 25.464 42.658 25.4498 41.0011 25.4711C40.6172 25.4711 40.5176 25.3644 40.5034 24.9876C40.4038 22.2641 40.1478 19.5549 39.6074 16.8812C39.5363 16.5185 39.6216 16.4048 39.9914 16.3692C42.7006 16.1345 45.4027 15.8146 48.0906 15.3879C48.3324 15.3524 48.4747 15.395 48.6098 15.6368L48.6026 15.6439ZM44.3646 12.8636C42.7006 13.0484 41.0296 13.1907 39.3657 13.3969C38.8892 13.4609 38.7683 13.2831 38.6546 12.8849C37.8297 9.99789 36.7346 7.22464 34.9996 4.74296C34.8574 4.53674 34.7009 4.33765 34.4947 4.06744C39.4296 5.62471 43.4117 8.41926 46.6116 12.5364C45.8081 12.6502 45.0899 12.7782 44.3646 12.8564V12.8636Z" fill="#0C45E9"></path></svg> 