<?xml version="1.0" encoding="UTF-8"?> <svg xmlns="http://www.w3.org/2000/svg" width="54" height="55" viewBox="0 0 54 55" fill="none"><path d="M52.154 39.9645C51.4296 40.117 50.9848 40.7905 51.0992 41.5657L51.1754 42.0931C51.5313 44.3043 50.9213 46.6108 49.5043 48.4281C48.081 50.2517 45.9778 51.4018 43.7349 51.586C40.202 51.8783 36.8661 49.934 35.4301 46.7316C33.9878 43.5101 34.7502 39.704 37.33 37.2704C40.3164 34.4492 45.1327 34.3094 48.2907 36.9527C48.367 37.0162 48.4051 37.0607 48.4241 37.0544C48.4114 37.0734 48.386 37.1115 48.3288 37.1687C46.5497 39.0241 44.8214 40.8731 43.055 42.7666C43.0169 42.8048 42.9914 42.8302 42.9787 42.8429C42.966 42.8302 42.947 42.8111 42.9216 42.7857C42.445 42.2456 41.9367 41.7182 41.4411 41.2099L41.0153 40.7715C40.6722 40.4156 40.2656 40.2187 39.8589 40.2123C39.5348 40.1996 39.1917 40.3457 38.9376 40.5999C38.3593 41.1718 38.4038 41.9533 39.0392 42.6332L41.7651 45.5306C42.1908 45.9818 42.5721 46.1915 42.966 46.1915C43.3663 46.1915 43.7476 45.9754 44.186 45.5179L53.4057 35.7009C54.4351 34.6017 53.8759 33.8265 53.5836 33.5469C53.3041 33.28 52.9991 33.1403 52.6623 33.153C52.2556 33.1593 51.8426 33.3817 51.436 33.8138C51.2136 34.0425 50.9975 34.2776 50.7815 34.5127C50.5845 34.7224 50.3621 34.9639 50.2859 34.9829C50.2223 34.9829 49.9936 34.8241 49.7839 34.6716L49.7077 34.6144C49.409 34.4047 49.3201 34.2077 49.3201 33.782C49.3328 25.8967 49.3328 18.0113 49.3328 10.1196V5.77976C49.3328 4.40093 48.9071 3.97521 47.5028 3.97521H40.399C40.183 3.97521 39.9606 3.97521 39.9479 3.99427C39.9288 3.94344 39.9288 3.73376 39.9288 3.53043V3.04752C39.9288 2.65992 39.9288 2.26597 39.9288 1.87838C39.9034 1.03964 39.3696 0.46778 38.5944 0.461426H38.5754C37.7811 0.461426 37.241 1.03965 37.2283 1.91015C37.2156 2.58368 37.2156 3.26356 37.2283 3.93709C37.2283 3.95615 37.2283 3.96886 37.2283 3.98157C37.222 3.98157 37.222 3.98157 37.2029 3.98157C33.4731 3.96886 29.7433 3.97521 26.0134 3.98157C26.0262 3.39699 26.0262 2.81878 26.0134 2.24056V2.00546C26.0071 1.07141 25.4988 0.480489 24.6918 0.467781C24.3233 0.455073 23.9865 0.582153 23.7451 0.817253C23.4655 1.09048 23.313 1.50349 23.3066 2.01181C23.3003 2.67263 23.2939 3.3271 23.3066 3.98792C23.3066 3.98792 23.3003 3.98792 23.2939 3.98792C19.5641 3.98157 15.8343 3.98157 12.1044 3.98792C12.1172 3.30804 12.1172 2.63451 12.1044 1.95463C12.0981 1.06506 11.5771 0.486843 10.7765 0.467781C10.4016 0.461427 10.0584 0.582153 9.81064 0.817253C9.53106 1.08412 9.37856 1.47172 9.37221 1.94827V2.1516C9.3595 2.68534 9.3468 3.23179 9.37857 3.77824C9.38492 3.91802 9.37857 3.96886 9.37857 3.97521C9.35951 3.98156 9.30867 3.99427 9.16253 3.99427C7.30715 3.97521 5.45812 3.97521 3.60274 3.98157H1.73466C0.457498 3.98157 0 4.43906 0 5.71622V49.8832C0 51.2747 0.425725 51.7004 1.81091 51.7004H6.09988C15.8216 51.7004 25.5432 51.7004 35.2713 51.6941C35.7161 51.6941 36.0083 51.7894 36.3197 52.0308C37.959 53.3207 39.8653 54.0578 41.9875 54.2293C42.2925 54.2547 42.5975 54.2675 42.8961 54.2675C47.8205 54.2675 52.1158 51.0841 53.5137 46.2677C54.0157 44.5331 54.0729 42.773 53.6789 41.0256C53.5137 40.2822 52.8339 39.8184 52.1286 39.9645H52.154ZM9.37857 8.48023V8.64543C9.39763 9.56042 9.93136 10.1513 10.751 10.1513H10.7574C11.5834 10.1513 12.1044 9.56677 12.1108 8.57554C12.1108 7.95284 12.1235 7.33015 12.1108 6.7138C15.8406 6.7138 19.5704 6.7138 23.2939 6.7138C23.2939 6.7138 23.3003 6.7138 23.3066 6.7138V6.72651C23.2939 7.36827 23.2939 8.01003 23.3066 8.64543C23.3193 9.57948 23.8404 10.1577 24.6664 10.1577C25.4924 10.1577 26.0134 9.57948 26.0198 8.64543V8.25784C26.0325 7.8067 26.0389 7.3365 26.0134 6.87266C26.0134 6.77735 26.0134 6.73286 26.0134 6.72016C26.0325 6.72016 26.077 6.7011 26.185 6.70745C28.2882 6.72016 30.3977 6.72016 32.5009 6.72016H35.284C35.8749 6.72016 36.4722 6.73287 37.0631 6.70745C37.0885 6.70745 37.114 6.70745 37.133 6.70745C37.1966 6.70745 37.2347 6.70745 37.241 6.70745C37.241 6.72651 37.2537 6.77099 37.241 6.85994C37.2029 7.40639 37.2156 7.9592 37.2283 8.48658V8.74074C37.2474 9.57947 37.7875 10.1513 38.569 10.1577H38.5881C39.376 10.1577 39.9161 9.59854 39.9351 8.76616C39.9542 8.13075 39.9542 7.48899 39.9351 6.79005C39.9351 6.75828 39.9351 6.73287 39.9351 6.7138C39.9479 6.7138 39.9606 6.7138 39.9923 6.7138C42.1845 6.72651 44.3766 6.72651 46.5688 6.7138C46.5815 6.7138 46.5878 6.7138 46.6005 6.7138C46.6005 6.72651 46.6005 6.73922 46.6005 6.75193C46.5878 9.07751 46.5815 11.1743 46.6005 13.3284C46.6005 13.3474 46.6005 13.3601 46.6005 13.3728C46.5815 13.3728 46.5624 13.3728 46.5433 13.3728C46.4989 13.3728 46.4544 13.3728 46.4163 13.3728H20.5108C14.6715 13.3728 8.83847 13.3728 2.99911 13.3855C2.84026 13.3855 2.77672 13.3728 2.76401 13.3728C2.76401 13.3728 2.73859 13.322 2.73859 13.1377C2.77036 10.9583 2.75765 8.74709 2.73859 6.87901C2.73859 6.79005 2.73859 6.74557 2.73859 6.73287C2.75765 6.73287 2.80213 6.72016 2.87203 6.72651C4.74647 6.74557 6.72258 6.74557 9.28961 6.72651C9.33409 6.72651 9.36585 6.72651 9.39127 6.72651C9.39127 6.74557 9.39127 6.76463 9.39127 6.79005C9.36585 7.36191 9.37221 7.94013 9.38492 8.50564L9.37857 8.48023ZM2.76401 48.9618C2.76401 48.9618 2.73859 48.911 2.73859 48.7204C2.7513 38.2235 2.75765 27.3263 2.73859 16.3211C2.73859 16.1305 2.7513 16.086 2.7513 16.086C2.75765 16.086 2.80849 16.0606 2.99276 16.0606C17.4482 16.0733 31.91 16.0733 46.3654 16.0606C46.5243 16.0606 46.5751 16.0797 46.5751 16.0669C46.5751 16.0797 46.5942 16.1305 46.5942 16.283C46.5815 20.6736 46.5815 25.0579 46.5815 29.4486V32.8797C44.5228 32.2761 42.6229 32.13 40.8755 32.435C41.1043 32.1808 41.225 31.844 41.2123 31.4755C41.1869 30.7003 40.6023 30.1793 39.7636 30.1666C39.1472 30.1666 38.5309 30.1666 37.9146 30.1666H36.2816C35.6589 30.1666 35.0362 30.1666 34.4071 30.1666C33.5811 30.1793 32.9965 30.7257 32.9902 31.5073C32.9838 32.2952 33.5684 32.8734 34.3817 32.8861C35.2649 32.8925 36.1736 32.8988 37.0949 32.8988C37.7748 32.8988 38.4674 32.8988 39.16 32.8861C37.5079 33.5024 36.0147 34.5699 34.6994 36.1076C31.4398 39.9073 31.0458 44.2281 33.5303 48.9491H28.8283C20.2122 48.9491 11.6025 48.9491 2.98641 48.9618C2.80214 48.9618 2.77037 48.9491 2.75766 48.9491L2.76401 48.9618Z" fill="#0A3AF3"></path><path d="M14.7858 30.1729C13.0957 30.1729 11.3991 30.1729 9.70896 30.1729C8.76856 30.1729 8.12681 30.7129 8.1141 31.5136C8.10775 31.8757 8.22847 32.1998 8.46992 32.4412C8.76221 32.7399 9.20064 32.8987 9.72802 32.9051C10.3062 32.9051 10.8845 32.9051 11.4627 32.9051H12.994C13.2545 32.9051 13.515 32.9051 13.7756 32.9051C14.1187 32.9051 14.4681 32.9051 14.8176 32.9051C15.7262 32.8987 16.3426 32.3523 16.3553 31.558C16.3616 31.1959 16.2346 30.8718 15.9931 30.624C15.7135 30.3381 15.2815 30.1792 14.7922 30.1792L14.7858 30.1729Z" fill="#0A3AF3"></path><path d="M27.2907 30.1729C26.6934 30.1729 26.0898 30.1729 25.4925 30.1729H23.8849C23.2749 30.1729 22.6586 30.1729 22.0486 30.1729C21.1781 30.1729 20.5808 30.7129 20.5617 31.5008C20.5554 31.8884 20.6761 32.2252 20.9239 32.473C21.1908 32.7526 21.5784 32.8987 22.0486 32.8987C22.9191 32.8987 23.7959 32.9051 24.6664 32.9051C25.5369 32.9051 26.4138 32.9051 27.2843 32.8987C27.7482 32.8987 28.1421 32.7462 28.409 32.473C28.6504 32.2252 28.7775 31.8884 28.7712 31.5008C28.7521 30.7002 28.1739 30.1792 27.2907 30.1729Z" fill="#0A3AF3"></path><path d="M14.824 38.2363C13.0957 38.2363 11.3674 38.2363 9.63914 38.2363C8.75592 38.2363 8.11417 38.8082 8.10782 39.5961C8.10782 40.3967 8.73051 40.9622 9.62643 40.9686C9.97591 40.9686 10.319 40.9686 10.6685 40.9686C10.929 40.9686 11.1895 40.9686 11.4437 40.9686H12.9941C13.6041 40.9686 14.2077 40.9686 14.8177 40.9686C15.7136 40.9622 16.3427 40.3967 16.3427 39.6024C16.3427 39.2085 16.1902 38.859 15.9042 38.6112C15.6246 38.3698 15.2498 38.2427 14.824 38.2363V38.2363Z" fill="#0A3AF3"></path><path d="M27.2651 38.2363C26.6551 38.2363 26.0515 38.2363 25.4415 38.2363H23.8975C23.2875 38.2363 22.6839 38.2363 22.0739 38.2363C21.1589 38.2363 20.5616 38.7764 20.568 39.6024C20.568 40.4285 21.1589 40.9622 22.0802 40.9686C22.9444 40.9686 23.8085 40.9686 24.6727 40.9686C25.5368 40.9686 26.401 40.9686 27.2651 40.9686C28.1801 40.9686 28.7774 40.4285 28.7774 39.6024C28.7774 38.7828 28.1865 38.249 27.2651 38.2427V38.2363Z" fill="#0A3AF3"></path><path d="M27.3033 22.1094C26.6997 22.1094 26.0897 22.1094 25.4861 22.1094H23.8912C23.2749 22.1094 22.6649 22.1094 22.0486 22.1094C21.1717 22.1094 20.5808 22.6495 20.5681 23.4437C20.5681 23.825 20.6888 24.1617 20.9302 24.4159C21.1908 24.6828 21.5656 24.8289 22.0104 24.8353C22.8682 24.8416 23.7451 24.848 24.6346 24.848C25.5242 24.848 26.4138 24.848 27.3161 24.8353C28.1802 24.8289 28.7775 24.2634 28.7711 23.4628C28.7711 22.6622 28.1738 22.1221 27.297 22.1157L27.3033 22.1094Z" fill="#0A3AF3"></path><path d="M34.3881 24.8226C35.3094 24.8353 36.2181 24.8353 37.114 24.8353C38.0099 24.8353 38.9567 24.8353 39.8399 24.8162C40.2402 24.8162 40.6024 24.6637 40.8502 24.4032C41.098 24.149 41.2251 23.7932 41.2124 23.412C41.1869 22.6368 40.6087 22.1094 39.77 22.103C39.1536 22.103 38.5373 22.103 37.921 22.103H36.288C35.6653 22.103 35.0426 22.103 34.4135 22.103C33.5875 22.1094 33.0029 22.6622 32.9902 23.4374C32.9902 23.8123 33.1173 24.1617 33.3651 24.4095C33.6193 24.6701 33.9814 24.8099 34.3817 24.8162L34.3881 24.8226Z" fill="#0A3AF3"></path><path d="M14.7859 22.1094C13.0957 22.1094 11.3992 22.1094 9.70898 22.1094C8.75588 22.1094 8.12683 22.6368 8.11412 23.4437C8.11412 23.8059 8.23485 24.13 8.46995 24.3778C8.74952 24.6637 9.1816 24.8289 9.67722 24.8289C10.2681 24.8289 10.8591 24.8289 11.45 24.8289H12.994C13.2545 24.8289 13.5151 24.8289 13.7692 24.8289C14.1187 24.8289 14.4618 24.8289 14.8113 24.8289C15.7199 24.8162 16.3363 24.2761 16.349 23.4819C16.349 23.1197 16.2282 22.7956 15.9931 22.5542C15.7072 22.2619 15.2942 22.1094 14.7859 22.1094V22.1094Z" fill="#0A3AF3"></path></svg> 