<?xml version="1.0" encoding="UTF-8"?> <svg xmlns="http://www.w3.org/2000/svg" width="54" height="55" viewBox="0 0 54 55" fill="none"><path d="M1.48447 15.1676H1.49756C2.35493 15.1611 2.96359 14.4869 2.97014 13.5314C2.97014 13.0144 2.97014 12.5039 2.97014 11.9868V10.9724C2.97014 10.4619 2.98323 10.4423 3.5199 10.4161C5.39172 10.3114 7.28971 10.0299 9.15498 9.58489C13.6185 8.52463 17.7876 6.607 21.8977 3.72075C22.2708 3.45895 22.4802 3.45895 22.8271 3.70765C24.1164 4.63047 25.5563 5.50748 27.2186 6.37793C31.7018 8.72752 36.3748 10.0823 41.1002 10.403C41.5321 10.4335 41.7503 10.6648 41.7546 11.0967V14.8142C41.7546 18.9767 41.7612 23.1392 41.7546 27.3017C41.7546 27.9496 41.7154 28.6433 41.6303 29.5531C41.5387 30.561 42.0361 31.2809 42.9065 31.3922C42.972 31.3987 43.0374 31.4053 43.1029 31.4053C43.4301 31.4053 43.7377 31.3005 43.9864 31.1042C44.3267 30.8359 44.5427 30.4105 44.5951 29.9C44.6933 28.951 44.7325 28.2179 44.7325 27.5307C44.7325 25.6262 44.7325 23.7217 44.7325 21.8237V17.0001C44.7325 14.9058 44.7325 12.818 44.7325 10.7237C44.726 8.91732 43.4432 7.57563 41.6172 7.45783C39.9286 7.34657 38.2859 7.11749 36.7282 6.76407C32.5003 5.80199 28.508 4.00217 24.5091 1.2599C22.9514 0.193096 21.793 0.193097 20.2419 1.27299C14.6853 5.12788 9.02408 7.16331 2.92433 7.47746C1.3863 7.556 0.0838813 8.90423 0.0249781 10.475C-0.00774591 11.352 -0.00120093 12.2421 0.00534387 13.0994V13.5379C0.0118887 14.0026 0.155875 14.4019 0.424211 14.6964C0.692548 14.9974 1.07215 15.1611 1.48447 15.1611V15.1676Z" fill="#0A3AF3"></path><path d="M43.2599 33.061H43.2468C37.3303 33.061 32.5003 37.8846 32.4741 43.8141C32.461 46.6808 33.5802 49.3903 35.6156 51.4323C37.6576 53.4743 40.3606 54.6 43.2403 54.6H43.2599C49.183 54.5869 54.0065 49.7568 53.9999 43.8338C53.9999 37.8976 49.1764 33.0676 43.2534 33.061H43.2599ZM51.0417 43.8534C51.0417 48.1468 47.5402 51.6352 43.2468 51.6352H43.2337C41.1525 51.6352 39.2021 50.8171 37.7361 49.3445C36.2701 47.8719 35.4651 45.9085 35.4651 43.8272C35.4651 41.7394 36.2832 39.7825 37.7492 38.3165C39.2152 36.857 41.1656 36.052 43.2403 36.052H43.2599C47.5533 36.0651 51.0417 39.56 51.0351 43.8534H51.0417Z" fill="#0A3AF3"></path><path d="M29.1166 47.5321L28.9399 47.663C26.9045 49.1094 24.8232 50.3922 22.7485 51.4786C22.4671 51.6291 22.2838 51.6291 21.9958 51.4786C19.7117 50.2743 17.565 48.9458 15.6343 47.5321C11.3016 44.3644 8.25831 41.236 6.04617 37.6691C4.27907 34.8286 3.3039 32.0013 3.06174 29.0299C2.97011 27.9042 2.9832 26.7916 2.99629 25.7182C3.00283 25.0376 3.00938 24.3897 2.99629 23.8006V22.1644C2.99629 20.8489 2.99629 19.6512 2.99629 18.4601C2.99629 17.8056 2.74759 17.3278 2.24364 17.0333C1.77896 16.7584 1.25537 16.7519 0.810325 17.0006C0.32601 17.282 0.0314941 17.8252 0.0314941 18.4535C0.0314941 21.6801 0.0314944 24.9067 0.044584 28.1333C0.0511288 29.7237 0.299831 31.3664 0.810325 33.1466C1.94258 37.1258 4.12854 40.7909 7.49911 44.3513C11.0726 48.1276 15.3791 51.3215 20.6542 54.1161C21.2432 54.4303 21.8191 54.5808 22.3951 54.5808C22.971 54.5808 23.5339 54.4303 24.1098 54.1227C25.2486 53.5206 26.5772 52.7941 27.8469 51.976C28.9006 51.2953 29.9609 50.5689 30.8706 49.934C31.3091 49.6264 31.5774 49.2468 31.656 48.8214C31.7214 48.4549 31.6363 48.0884 31.4007 47.7546C30.8837 47.015 29.9871 46.9234 29.1297 47.5255L29.1166 47.5321Z" fill="#0A3AF3"></path><path d="M28.449 15.2595C28.1218 12.3798 25.7722 10.0629 22.971 9.86658C19.8949 9.64406 17.205 11.5093 16.4524 14.4021C16.1709 15.482 16.2037 16.5685 16.2364 17.6222C16.2429 17.8905 16.256 18.1654 16.256 18.4337C16.2822 21.1302 18.1409 23.5059 20.7719 24.1997C21.3086 24.3437 21.8453 24.4091 22.3754 24.4091C24.4828 24.4091 26.4725 23.3292 27.6113 21.4509C28.5014 19.9914 28.5537 18.3748 28.5014 17.1444V16.7452C28.5014 16.2609 28.5014 15.7635 28.449 15.266V15.2595ZM19.2797 15.4493C19.4892 13.9178 20.8178 12.8052 22.4016 12.8052C22.454 12.8052 22.5063 12.8052 22.5521 12.8052C24.1294 12.8772 25.4253 14.1665 25.5038 15.7504C25.5169 16.0645 25.5169 16.3852 25.5104 16.6994V17.1379C25.5038 17.3407 25.5104 17.5436 25.5104 17.74C25.5235 18.1719 25.5366 18.5712 25.4384 18.9639C25.0719 20.5084 23.7433 21.4967 22.1333 21.4051C20.6476 21.3265 19.4368 20.1746 19.2601 18.6693C19.1292 17.5502 19.1357 16.4637 19.2732 15.4428L19.2797 15.4493Z" fill="#0A3AF3"></path><path d="M33.1221 32.0529C33.0632 29.003 30.7463 26.4768 27.7226 26.1691C26.5904 26.0513 25.4385 26.0775 24.424 26.0972C23.8154 26.1102 23.2394 26.1168 22.6962 26.0972H20.9946C19.8754 26.0906 18.861 26.0906 17.8531 26.0972C14.417 26.1364 11.8515 28.5384 11.6159 31.9286C11.557 32.7336 11.8777 33.3226 12.5125 33.591C12.7154 33.676 12.9183 33.7219 13.1212 33.7219C13.3699 33.7219 13.6055 33.6564 13.8149 33.5255C14.26 33.2506 14.5414 32.727 14.5938 32.0857C14.7246 30.3382 16.0009 29.1078 17.7025 29.0947C20.8309 29.0685 23.979 29.0685 27.042 29.0947C28.7763 29.1078 30.0591 30.3644 30.1573 32.138C30.2096 33.1066 30.8052 33.7022 31.6888 33.7022C32.5723 33.6826 33.1352 33.0281 33.1155 32.0464L33.1221 32.0529Z" fill="#0A3AF3"></path><path d="M47.2719 40.2995C46.7614 40.1228 46.3556 40.3126 45.9957 40.666C44.7653 41.8964 43.5283 43.1138 42.3175 44.3638C42.0492 44.6387 41.9052 44.6321 41.6565 44.3507C41.2703 43.9188 40.8515 43.5195 40.4326 43.1138C39.8763 42.5771 39.1695 42.5574 38.6982 43.0483C38.2401 43.5261 38.2663 44.2067 38.7899 44.7434C39.5491 45.5222 40.3213 46.288 41.0936 47.0472C41.6696 47.61 42.2979 47.6231 42.8607 47.0668C44.4707 45.4764 46.0611 43.8664 47.6646 42.2695C47.9068 42.0273 48.0442 41.7459 48.0704 41.3663C48.0704 41.3336 48.0508 41.2616 48.0377 41.1896C47.9526 40.7445 47.6973 40.4435 47.2654 40.2929L47.2719 40.2995Z" fill="#0A3AF3"></path></svg> 