<?xml version="1.0" encoding="UTF-8"?> <svg xmlns="http://www.w3.org/2000/svg" width="54" height="53" viewBox="0 0 54 53" fill="none"><path d="M50.5485 15.6512C50.0904 10.6999 45.6474 6.4514 40.6459 6.18156C38.9954 6.0937 37.3136 6.10625 35.6945 6.11253C35.067 6.11253 34.4395 6.12508 33.8057 6.1188C29.4192 6.11253 25.0326 6.11253 20.6461 6.1188H14.2389C14.1887 6.12508 14.1071 6.13136 14.0946 6.12508C14.0946 6.12508 14.0757 6.09997 14.0506 6.01839C13.1344 2.17784 9.6453 -0.106411 5.74827 0.583885C2.84902 1.10474 0.30746 3.83455 0.0815452 6.67104V6.75889C0.125473 6.95343 0.106647 6.99108 0.0815452 7.02874L0 7.11659V8.49091L0.0125248 8.57877C0.0564527 8.72938 0.100394 8.88626 0.144322 9.04315C0.238454 9.38202 0.332585 9.73345 0.458093 10.0723C1.56257 12.9716 4.44925 14.873 7.46772 14.6973C10.6682 14.509 13.2474 12.3817 14.0318 9.26906C14.1009 9.00549 14.0946 9.00549 14.2766 9.00549C19.7738 9.01804 25.2711 9.01805 30.7684 9.01805H39.6104C41.1793 9.01805 42.6603 9.42595 44.0095 10.2292C45.8921 11.3525 47.1974 13.21 47.5802 15.3311C47.9567 17.4208 47.4108 19.5796 46.0678 21.2614C44.4299 23.3072 42.2398 24.305 39.372 24.305H31.2327C25.3464 24.305 19.4538 24.305 13.5674 24.2987H13.536C10.8313 24.2987 8.51573 25.0329 6.46367 26.5453C3.70249 28.5785 2.14618 31.8543 2.30307 35.3183C2.45995 38.7823 4.31745 41.9138 7.26062 43.6897C9.1558 44.8319 11.2016 45.3904 13.511 45.3904H30.875L30.6554 45.61C29.3187 46.9467 27.9758 48.2833 26.6454 49.6263C26.0053 50.2789 25.9551 51.1449 26.5199 51.7348C26.8023 52.0298 27.1474 52.1866 27.524 52.1866H27.5428C27.9507 52.1866 28.3398 52.0109 28.6849 51.6721C30.9064 49.4694 33.1154 47.2542 35.318 45.0327C36.002 44.3424 36.0021 43.5266 35.3306 42.8425C33.1216 40.6085 30.8939 38.3807 28.6661 36.1655C28.1452 35.6509 27.4361 35.5505 26.8525 35.9145C26.3191 36.2471 26.0555 36.8683 26.2061 37.4708C26.3065 37.8661 26.5513 38.1423 26.8023 38.387L28.3084 39.8931C29.1744 40.7591 30.0341 41.6251 30.9064 42.4848H30.6993L30.6052 42.2778L30.6491 42.4848H26.2438C21.9012 42.4848 17.5586 42.4848 13.2223 42.4848C12.1617 42.4848 11.189 42.3091 10.3293 41.9703C7.27946 40.7528 5.57257 38.6255 5.25252 35.6509C4.91992 32.5383 6.20011 30.0721 9.05542 28.3275C10.3356 27.5431 11.8668 27.2105 13.9377 27.2042C18.8137 27.2105 23.6897 27.2105 28.572 27.2105C32.1552 27.2105 35.7385 27.2105 39.328 27.2105H39.3406C41.2797 27.2105 43.0054 26.8402 44.6056 26.0809C48.5717 24.1983 50.9626 20.0126 50.561 15.6637L50.5485 15.6512ZM11.3522 7.5747C11.3522 8.698 10.8878 9.75854 10.0658 10.5743C9.25623 11.3713 8.22078 11.8043 7.1163 11.8043C4.78812 11.7855 2.89921 9.88406 2.90548 7.56215C2.90548 6.43885 3.35107 5.38458 4.15432 4.58133C4.9513 3.78435 6.00555 3.35134 7.1163 3.35134H7.12886C8.25216 3.35134 9.31896 3.80317 10.1222 4.6127C10.9192 5.41596 11.3522 6.47023 11.3459 7.5747H11.3522Z" fill="#0A3AF3"></path><path d="M51.8537 38.8203C50.4919 37.4774 48.7348 36.7557 46.8333 36.7682C42.9238 36.8122 39.7421 40.0126 39.7358 43.9034C39.7358 45.7986 40.4764 47.5808 41.8318 48.93C43.1873 50.2855 44.9758 51.026 46.871 51.026H46.8835C48.785 51.026 50.5735 50.2729 51.9227 48.9174C53.2719 47.5619 54.0062 45.7735 53.9999 43.8783C53.9936 41.9706 53.228 40.1758 51.8537 38.8203V38.8203ZM46.8961 39.6737C47.9818 39.6737 49.0172 40.1067 49.8142 40.8912C50.6362 41.7007 51.0881 42.7675 51.0944 43.8908C51.0944 45.0141 50.6614 46.0684 49.8707 46.8716C49.0737 47.6749 48.0131 48.1142 46.8898 48.1205H46.871C44.5554 48.1205 42.6602 46.2378 42.6476 43.9159C42.6351 41.638 44.5679 39.6926 46.8647 39.6737H46.9024H46.8961Z" fill="#0A3AF3"></path></svg> 