<?xml version="1.0" encoding="UTF-8"?> <svg xmlns="http://www.w3.org/2000/svg" width="54" height="55" viewBox="0 0 54 55" fill="none"><path d="M45.75 13.3989C48.3388 13.3989 50.4375 11.3003 50.4375 8.71143C50.4375 6.12259 48.3388 4.02393 45.75 4.02393C43.1612 4.02393 41.0625 6.12259 41.0625 8.71143C41.0625 11.3003 43.1612 13.3989 45.75 13.3989Z" stroke="#2E56FF" stroke-width="3" stroke-linecap="square" stroke-linejoin="round"></path><path d="M45.75 32.1489C48.3388 32.1489 50.4375 30.0503 50.4375 27.4614C50.4375 24.8726 48.3388 22.7739 45.75 22.7739C43.1612 22.7739 41.0625 24.8726 41.0625 27.4614C41.0625 30.0503 43.1612 32.1489 45.75 32.1489Z" stroke="#2E56FF" stroke-width="3" stroke-linecap="square" stroke-linejoin="round"></path><path d="M31.6875 27.4614H41.0625" stroke="#2E56FF" stroke-width="3" stroke-linecap="square" stroke-linejoin="round"></path><path d="M31.6875 18.0865L41.8583 11.3219" stroke="#2E56FF" stroke-width="3" stroke-linecap="square" stroke-linejoin="round"></path><path d="M45.75 50.8989C48.3388 50.8989 50.4375 48.8003 50.4375 46.2114C50.4375 43.6226 48.3388 41.5239 45.75 41.5239C43.1612 41.5239 41.0625 43.6226 41.0625 46.2114C41.0625 48.8003 43.1612 50.8989 45.75 50.8989Z" stroke="#2E56FF" stroke-width="3" stroke-linecap="square" stroke-linejoin="round"></path><path d="M31.6875 36.8364L41.8583 43.5989" stroke="#2E56FF" stroke-width="3" stroke-linecap="square" stroke-linejoin="round"></path><path d="M22.3125 22.7739H6.6875C4.96161 22.7739 3.5625 24.173 3.5625 25.8989V35.2739C3.5625 36.9998 4.96161 38.3989 6.6875 38.3989H22.3125C24.0384 38.3989 25.4375 36.9998 25.4375 35.2739V25.8989C25.4375 24.173 24.0384 22.7739 22.3125 22.7739Z" stroke="#2E56FF" stroke-width="3" stroke-linecap="square" stroke-linejoin="round"></path><circle cx="14.5" cy="30.5864" r="1.49562" stroke="#2E56FF" stroke-width="3" stroke-linecap="square" stroke-linejoin="round"></circle><path d="M6.6875 22.7739V18.0864C6.6875 16.0144 7.5106 14.0273 8.97573 12.5622C10.4409 11.097 12.428 10.2739 14.5 10.2739C16.572 10.2739 18.5591 11.097 20.0243 12.5622C21.4894 14.0273 22.3125 16.0144 22.3125 18.0864V22.7739" stroke="#2E56FF" stroke-width="3" stroke-linecap="square" stroke-linejoin="round"></path></svg> 