<?xml version="1.0" encoding="UTF-8"?> <svg xmlns="http://www.w3.org/2000/svg" width="54" height="55" viewBox="0 0 54 55" fill="none"><path d="M27.7707 49.4199L27.7916 49.4344C29.5917 50.5806 31.7289 51.0783 33.8502 50.8454C35.9715 50.6124 37.9498 49.6627 39.4582 48.1532L40.7686 46.8428C41.059 46.5526 41.2894 46.208 41.4466 45.8287C41.6037 45.4494 41.6846 45.0429 41.6846 44.6324C41.6846 44.2218 41.6037 43.8153 41.4466 43.436C41.2894 43.0567 41.059 42.7121 40.7686 42.4219L35.2416 36.899C34.9513 36.6086 34.6068 36.3783 34.2275 36.2211C33.8482 36.0639 33.4417 35.983 33.0311 35.983C32.6206 35.983 32.2141 36.0639 31.8348 36.2211C31.4555 36.3783 31.1109 36.6086 30.8207 36.899C30.2347 37.4849 29.44 37.814 28.6113 37.814C27.7827 37.814 26.988 37.4849 26.402 36.899L17.5645 28.0594C16.9786 27.4734 16.6495 26.6787 16.6495 25.8501C16.6495 25.0214 16.9786 24.2267 17.5645 23.6407V23.6407C17.8549 23.3505 18.0852 23.0059 18.2424 22.6266C18.3996 22.2473 18.4805 21.8408 18.4805 21.4303C18.4805 21.0197 18.3996 20.6132 18.2424 20.2339C18.0852 19.8547 17.8549 19.5101 17.5645 19.2199L12.0395 13.6969C11.4534 13.1111 10.6587 12.782 9.8301 12.782C9.00146 12.782 8.20675 13.1111 7.62072 13.6969L6.30822 15.0074C4.79904 16.5161 3.84972 18.4945 3.61714 20.6158C3.38456 22.737 3.88263 24.8741 5.02906 26.674L5.04156 26.6949C11.0961 35.6527 18.8117 43.367 27.7707 49.4199V49.4199Z" stroke="#2E56FF" stroke-width="3" stroke-linecap="square" stroke-linejoin="round"></path><path d="M49.4044 5.05688L30.125 24.3363" stroke="#2E56FF" stroke-width="3" stroke-linecap="square" stroke-linejoin="round"></path><path d="M37.9375 4.02393H50.4375V16.5239" stroke="#2E56FF" stroke-width="3" stroke-linecap="square" stroke-linejoin="round"></path></svg> 