<?xml version="1.0" encoding="UTF-8"?> <svg xmlns="http://www.w3.org/2000/svg" width="54" height="55" viewBox="0 0 54 55" fill="none"><path d="M14.5 16.5239H27" stroke="#2E56FF" stroke-width="3" stroke-linecap="square" stroke-linejoin="round"></path><path d="M14.5 25.8989H22.3125" stroke="#2E56FF" stroke-width="3" stroke-linecap="square" stroke-linejoin="round"></path><path d="M14.5 35.2739H22.3125" stroke="#2E56FF" stroke-width="3" stroke-linecap="square" stroke-linejoin="round"></path><path d="M36.375 16.5239H39.5" stroke="#2E56FF" stroke-width="3" stroke-linecap="square" stroke-linejoin="round"></path><path d="M30.9417 36.9698C31.3926 37.5628 31.9799 38.0382 32.6538 38.3555C33.3277 38.6729 34.0683 38.8229 34.8126 38.7927C37.1855 38.7927 39.1084 37.349 39.1084 35.5698C39.1084 33.7906 37.1855 32.3469 34.8126 32.3469C32.4396 32.3469 30.5146 30.9031 30.5146 29.1219C30.5146 27.3406 32.4396 25.899 34.8126 25.899C35.5568 25.8692 36.2973 26.0193 36.9711 26.3366C37.645 26.654 38.2323 27.1292 38.6834 27.7219" stroke="#2E56FF" stroke-width="3" stroke-linecap="square" stroke-linejoin="round"></path><path d="M34.8125 38.7927V40.9386" stroke="#2E56FF" stroke-width="3" stroke-linecap="square" stroke-linejoin="round"></path><path d="M34.8125 23.7532V25.899" stroke="#2E56FF" stroke-width="3" stroke-linecap="square" stroke-linejoin="round"></path><path d="M36.375 50.8989C36.853 50.0797 37.5373 49.4001 38.3597 48.9278C39.1822 48.4555 40.1141 48.2069 41.0625 48.2069C42.0109 48.2069 42.9428 48.4555 43.7653 48.9278C44.5877 49.4001 45.272 50.0797 45.75 50.8989V4.02393C45.2708 4.84216 44.5863 5.5211 43.7641 5.99356C42.942 6.46602 42.0107 6.71563 41.0625 6.71768C40.1142 6.71583 39.1829 6.46632 38.3607 5.99384C37.5385 5.52136 36.854 4.84231 36.375 4.02393C35.8958 4.84216 35.2113 5.5211 34.3891 5.99356C33.567 6.46602 32.6357 6.71563 31.6875 6.71768C30.7392 6.71583 29.8079 6.46632 28.9857 5.99384C28.1635 5.52136 27.479 4.84231 27 4.02393C26.5208 4.84216 25.8363 5.5211 25.0141 5.99356C24.192 6.46602 23.2607 6.71563 22.3125 6.71768C21.3642 6.71583 20.4329 6.46632 19.6107 5.99384C18.7885 5.52136 18.104 4.84231 17.625 4.02393C17.1458 4.84216 16.4613 5.5211 15.6391 5.99356C14.817 6.46602 13.8857 6.71563 12.9375 6.71768C11.9892 6.71583 11.0579 6.46632 10.2357 5.99384C9.41353 5.52136 8.72903 4.84231 8.25 4.02393V50.8989C8.72798 50.0797 9.41229 49.4001 10.2347 48.9278C11.0572 48.4555 11.9891 48.2069 12.9375 48.2069C13.8859 48.2069 14.8178 48.4555 15.6403 48.9278C16.4627 49.4001 17.147 50.0797 17.625 50.8989C18.103 50.0797 18.7873 49.4001 19.6097 48.9278C20.4322 48.4555 21.3641 48.2069 22.3125 48.2069C23.2609 48.2069 24.1928 48.4555 25.0153 48.9278C25.8377 49.4001 26.522 50.0797 27 50.8989" stroke="#2E56FF" stroke-width="3" stroke-linecap="square" stroke-linejoin="round"></path><path d="M27 50.8989C27.478 50.0797 28.1623 49.4 28.9847 48.9277C29.8072 48.4553 30.7391 48.2068 31.6875 48.2068C32.6359 48.2068 33.5678 48.4553 34.3903 48.9277C35.2127 49.4 35.897 50.0797 36.375 50.8989" stroke="#2E56FF" stroke-width="3" stroke-linecap="square" stroke-linejoin="round"></path></svg> 