<?xml version="1.0" encoding="UTF-8"?> <svg xmlns="http://www.w3.org/2000/svg" width="54" height="55" viewBox="0 0 54 55" fill="none"><path d="M41.0625 32.1489H36.8271C36.178 32.1494 35.5493 32.3757 35.0488 32.789C34.5483 33.2023 34.2072 33.7769 34.084 34.4142C33.9608 35.0515 34.0632 35.7118 34.3737 36.2819C34.6841 36.8519 35.1832 37.2962 35.7854 37.5385L40.0854 39.2593C40.6876 39.5016 41.1867 39.9459 41.4972 40.516C41.8076 41.086 41.91 41.7463 41.7868 42.3836C41.6637 43.0209 41.3226 43.5955 40.8221 44.0089C40.3216 44.4222 39.6929 44.6485 39.0438 44.6489H34.8125" stroke="#2E56FF" stroke-width="3" stroke-linecap="square" stroke-linejoin="round"></path><path d="M37.9375 32.1489V30.5864" stroke="#2E56FF" stroke-width="3" stroke-linecap="square" stroke-linejoin="round"></path><path d="M37.9375 46.2114V44.6489" stroke="#2E56FF" stroke-width="3" stroke-linecap="square" stroke-linejoin="round"></path><path d="M37.9375 50.8989C44.8411 50.8989 50.4375 45.3025 50.4375 38.3989C50.4375 31.4954 44.8411 25.8989 37.9375 25.8989C31.0339 25.8989 25.4375 31.4954 25.4375 38.3989C25.4375 45.3025 31.0339 50.8989 37.9375 50.8989Z" stroke="#2E56FF" stroke-width="3" stroke-linecap="square" stroke-linejoin="round"></path><path d="M8.25 27.4614V7.14893C8.25 6.32012 8.57924 5.52527 9.16529 4.93922C9.75134 4.35317 10.5462 4.02393 11.375 4.02393H42.625C43.4538 4.02393 44.2487 4.35317 44.8347 4.93922C45.4208 5.52527 45.75 6.32012 45.75 7.14893V19.6489" stroke="#2E56FF" stroke-width="3" stroke-linecap="square" stroke-linejoin="round"></path><path d="M22.3125 27.4614H3.5625C3.5625 29.5334 4.3856 31.5206 5.85073 32.9857C7.31586 34.4508 9.303 35.2739 11.375 35.2739H19.1875" stroke="#2E56FF" stroke-width="3" stroke-linecap="square" stroke-linejoin="round"></path></svg> 