<?xml version="1.0" encoding="UTF-8"?> <svg xmlns="http://www.w3.org/2000/svg" width="54" height="55" viewBox="0 0 54 55" fill="none"><path d="M27.7707 47.8571L27.7916 47.8717C29.5917 49.0179 31.7289 49.5156 33.8502 49.2826C35.9715 49.0497 37.9498 48.1 39.4582 46.5904L40.7686 45.28C41.059 44.9898 41.2894 44.6452 41.4466 44.266C41.6037 43.8867 41.6846 43.4802 41.6846 43.0696C41.6846 42.6591 41.6037 42.2525 41.4466 41.8733C41.2894 41.494 41.059 41.1494 40.7686 40.8592L35.2416 35.3363C34.9513 35.0459 34.6068 34.8155 34.2275 34.6583C33.8482 34.5012 33.4417 34.4203 33.0311 34.4203C32.6206 34.4203 32.2141 34.5012 31.8348 34.6583C31.4555 34.8155 31.1109 35.0459 30.8207 35.3363V35.3363C30.2347 35.9221 29.44 36.2512 28.6113 36.2512C27.7827 36.2512 26.988 35.9221 26.402 35.3363L17.5645 26.4967C16.9786 25.9107 16.6495 25.116 16.6495 24.2873C16.6495 23.4587 16.9786 22.664 17.5645 22.0779V22.0779C17.8549 21.7877 18.0852 21.4431 18.2424 21.0639C18.3996 20.6846 18.4805 20.2781 18.4805 19.8675C18.4805 19.457 18.3996 19.0505 18.2424 18.6712C18.0852 18.2919 17.8549 17.9473 17.5645 17.6571L12.0395 12.1342C11.4534 11.5483 10.6587 11.2192 9.8301 11.2192C9.00146 11.2192 8.20675 11.5483 7.62072 12.1342L6.30822 13.4446C4.79904 14.9533 3.84972 16.9318 3.61714 19.053C3.38456 21.1743 3.88263 23.3114 5.02906 25.1113L5.04156 25.1321C11.0961 34.09 18.8117 41.8042 27.7707 47.8571V47.8571Z" stroke="#2E56FF" stroke-width="3" stroke-linecap="square" stroke-linejoin="round"></path><path d="M37.9375 5.58643H50.4375" stroke="#2E56FF" stroke-width="3" stroke-linecap="square" stroke-linejoin="round"></path><path d="M37.9375 14.9614H50.4375" stroke="#2E56FF" stroke-width="3" stroke-linecap="square" stroke-linejoin="round"></path><path d="M37.9375 24.3364H50.4375" stroke="#2E56FF" stroke-width="3" stroke-linecap="square" stroke-linejoin="round"></path><path d="M28.5625 5.58643H31.6875" stroke="#2E56FF" stroke-width="3" stroke-linecap="square" stroke-linejoin="round"></path><path d="M28.5625 14.9614H31.6875" stroke="#2E56FF" stroke-width="3" stroke-linecap="square" stroke-linejoin="round"></path><path d="M28.5625 24.3364H31.6875" stroke="#2E56FF" stroke-width="3" stroke-linecap="square" stroke-linejoin="round"></path></svg> 