<?xml version="1.0" encoding="UTF-8"?> <svg xmlns="http://www.w3.org/2000/svg" width="54" height="55" viewBox="0 0 54 55" fill="none"><path d="M12.0146 29.6323L3.5625 39.9615L11.375 41.524L14.5 50.899L22.7167 37.8615" stroke="#2E56FF" stroke-width="3" stroke-linecap="round" stroke-linejoin="round"></path><path d="M41.9854 29.6323L50.4375 39.9615L42.625 41.524L39.5 50.899L31.2833 37.8615" stroke="#2E56FF" stroke-width="3" stroke-linecap="round" stroke-linejoin="round"></path><path d="M44.1875 21.2114C44.1857 24.9545 42.9614 28.5946 40.7009 31.578C38.4403 34.5615 35.2672 36.7249 31.6641 37.7394C28.0611 38.7538 24.2253 38.5637 20.7403 37.198C17.2552 35.8322 14.3116 33.3656 12.3571 30.1733C10.4026 26.981 9.54423 23.2376 9.91255 19.5127C10.2809 15.7877 11.8557 12.285 14.3976 9.53728C16.9394 6.78955 20.3091 4.9472 23.9942 4.29044C27.6792 3.63369 31.4779 4.19848 34.8125 5.8989" stroke="#2E56FF" stroke-width="3" stroke-linecap="square" stroke-linejoin="round"></path><path d="M39.5 13.3989L28.1042 24.7948C27.9592 24.9399 27.7871 25.055 27.5977 25.1336C27.4082 25.2121 27.2051 25.2526 27 25.2526C26.7949 25.2526 26.5918 25.2121 26.4023 25.1336C26.2129 25.055 26.0408 24.9399 25.8958 24.7948L22.3125 21.2114" stroke="#2E56FF" stroke-width="3" stroke-linecap="square" stroke-linejoin="round"></path></svg> 