<?xml version="1.0" encoding="UTF-8"?> <svg xmlns="http://www.w3.org/2000/svg" width="54" height="55" viewBox="0 0 54 55" fill="none"><path d="M16.7663 38.3992H6.5387C5.70989 38.3992 4.91504 38.0699 4.32899 37.4839C3.74294 36.8978 3.4137 36.103 3.4137 35.2742V10.2742C3.4137 9.44537 3.74294 8.65051 4.32899 8.06446C4.91504 7.47841 5.70989 7.14917 6.5387 7.14917H34.6637C35.4925 7.14917 36.2874 7.47841 36.8734 8.06446C37.4595 8.65051 37.7887 9.44537 37.7887 10.2742V20.6354" stroke="#2E56FF" stroke-width="3" stroke-linecap="square" stroke-linejoin="round"></path><path d="M3.4137 16.5242H37.7887" stroke="#2E56FF" stroke-width="3" stroke-linecap="square" stroke-linejoin="round"></path><path d="M13.7887 10.2742V4.02417" stroke="#2E56FF" stroke-width="3" stroke-linecap="square" stroke-linejoin="round"></path><path d="M29.4137 10.2742V4.02417" stroke="#2E56FF" stroke-width="3" stroke-linecap="square" stroke-linejoin="round"></path><path d="M41.2435 36.403L47.2282 38.7607L49.586 32.776" stroke="#2E56FF" stroke-width="3" stroke-linecap="square" stroke-linejoin="round"></path><path d="M46.4791 36.2523C45.8194 33.6957 44.3156 31.4368 42.2115 29.8418C40.1075 28.2467 37.5264 27.4089 34.8866 27.4642C32.2469 27.5196 29.7032 28.4647 27.6677 30.1465C25.6323 31.8283 24.2245 34.1482 23.6725 36.7302C23.1204 39.3121 23.4565 42.0049 24.6262 44.372C25.7959 46.739 27.7308 48.6417 30.1171 49.7717C32.5034 50.9016 35.2014 51.1925 37.7738 50.5974C40.3462 50.0022 42.6422 48.5557 44.2896 46.4924" stroke="#2E56FF" stroke-width="3" stroke-linecap="square" stroke-linejoin="round"></path><path d="M31.7594 43.6702L35.6182 41.1347V35.2754" stroke="#2E56FF" stroke-width="3" stroke-linecap="square" stroke-linejoin="round"></path></svg> 