<?xml version="1.0" encoding="UTF-8"?> <svg xmlns="http://www.w3.org/2000/svg" width="54" height="55" viewBox="0 0 54 55" fill="none"><path d="M24.4776 38.3989H8.25C7.4212 38.3989 6.62634 38.0697 6.04029 37.4836C5.45424 36.8976 5.125 36.1027 5.125 35.2739V10.2739C5.125 9.44512 5.45424 8.65027 6.04029 8.06422C6.62634 7.47817 7.4212 7.14893 8.25 7.14893H36.375C37.2038 7.14893 37.9987 7.47817 38.5847 8.06422C39.1708 8.65027 39.5 9.44512 39.5 10.2739V20.6352" stroke="#2E56FF" stroke-width="3" stroke-linecap="square" stroke-linejoin="round"></path><path d="M5.125 16.5239H39.5" stroke="#2E56FF" stroke-width="3" stroke-linecap="square" stroke-linejoin="round"></path><path d="M14.5 10.2739V4.02393" stroke="#2E56FF" stroke-width="3" stroke-linecap="square" stroke-linejoin="round"></path><path d="M30.125 10.2739V4.02393" stroke="#2E56FF" stroke-width="3" stroke-linecap="square" stroke-linejoin="round"></path><path d="M37.9834 40.5434C41.5959 40.5434 44.5244 37.6149 44.5244 34.0024C44.5244 30.3899 41.5959 27.4614 37.9834 27.4614C34.3709 27.4614 31.4424 30.3899 31.4424 34.0024C31.4424 37.6149 34.3709 40.5434 37.9834 40.5434Z" stroke="#2E56FF" stroke-width="3" stroke-linecap="square" stroke-linejoin="round"></path><path d="M48.8752 50.8842C47.76 48.9843 46.1673 47.4092 44.2552 46.3152C42.3431 45.2213 40.1781 44.6465 37.9751 44.648C35.7722 44.6494 33.608 45.2271 31.6973 46.3236C29.7867 47.4202 28.1961 48.9974 27.0835 50.8988" stroke="#2E56FF" stroke-width="3" stroke-linecap="square" stroke-linejoin="round"></path></svg> 