<?xml version="1.0" encoding="UTF-8"?> <svg xmlns="http://www.w3.org/2000/svg" width="54" height="55" viewBox="0 0 54 55" fill="none"><path d="M17.191 21.2114C21.9372 21.2114 25.7847 17.3639 25.7847 12.6177C25.7847 7.87148 21.9372 4.02393 17.191 4.02393C12.4448 4.02393 8.59723 7.87148 8.59723 12.6177C8.59723 17.3639 12.4448 21.2114 17.191 21.2114Z" stroke="#2E56FF" stroke-width="3" stroke-linecap="round" stroke-linejoin="round"></path><path d="M17.8854 27.0063C17.4249 26.9434 16.9612 26.9075 16.4965 26.8989C13.1813 26.8989 10.0019 28.2159 7.65768 30.5601C5.31348 32.9043 3.99652 36.0837 3.99652 39.3989" stroke="#2E56FF" stroke-width="3" stroke-linecap="square" stroke-linejoin="round"></path><path d="M46.8785 25.8989H28.1285C26.4026 25.8989 25.0035 27.298 25.0035 29.0239V47.7739C25.0035 49.4998 26.4026 50.8989 28.1285 50.8989H46.8785C48.6044 50.8989 50.0035 49.4998 50.0035 47.7739V29.0239C50.0035 27.298 48.6044 25.8989 46.8785 25.8989Z" stroke="#2E56FF" stroke-width="3" stroke-linecap="round" stroke-linejoin="round"></path><path d="M31.2535 32.1489H43.7535" stroke="#2E56FF" stroke-width="3" stroke-linecap="square" stroke-linejoin="round"></path><path d="M31.2535 38.3989H43.7535" stroke="#2E56FF" stroke-width="3" stroke-linecap="square" stroke-linejoin="round"></path><path d="M31.2535 44.6489H35.941" stroke="#2E56FF" stroke-width="3" stroke-linecap="square" stroke-linejoin="round"></path></svg> 