<?xml version="1.0" encoding="UTF-8"?> <svg xmlns="http://www.w3.org/2000/svg" width="54" height="55" viewBox="0 0 54 55" fill="none"><path d="M37.9375 50.8989C44.8411 50.8989 50.4375 45.3025 50.4375 38.3989C50.4375 31.4954 44.8411 25.8989 37.9375 25.8989C31.0339 25.8989 25.4375 31.4954 25.4375 38.3989C25.4375 45.3025 31.0339 50.8989 37.9375 50.8989Z" stroke="#2E56FF" stroke-width="3" stroke-linecap="square" stroke-linejoin="round"></path><path d="M43.4625 38.3989H37.9375V32.876" stroke="#2E56FF" stroke-width="3" stroke-linecap="square" stroke-linejoin="round"></path><path d="M44.1875 19.6489V7.14893C44.1875 6.32012 43.8583 5.52527 43.2722 4.93922C42.6862 4.35317 41.8913 4.02393 41.0625 4.02393H6.6875C5.8587 4.02393 5.06384 4.35317 4.47779 4.93922C3.89174 5.52527 3.5625 6.32012 3.5625 7.14893V32.1489C3.5625 32.9777 3.89174 33.7726 4.47779 34.3586C5.06384 34.9447 5.8587 35.2739 6.6875 35.2739H19.1875" stroke="#2E56FF" stroke-width="3" stroke-linecap="square" stroke-linejoin="round"></path><path d="M3.5625 13.3989H44.1875" stroke="#2E56FF" stroke-width="3" stroke-linecap="square" stroke-linejoin="round"></path><path d="M9.8125 21.2114H22.3125" stroke="#2E56FF" stroke-width="3" stroke-linecap="square" stroke-linejoin="round"></path><path d="M9.8125 27.4614H16.0625" stroke="#2E56FF" stroke-width="3" stroke-linecap="square" stroke-linejoin="round"></path></svg> 