<?xml version="1.0" encoding="UTF-8"?> <svg xmlns="http://www.w3.org/2000/svg" width="54" height="55" viewBox="0 0 54 55" fill="none"><path d="M18.23 31.8157C21.581 31.8157 24.2974 29.0992 24.2974 25.7482C24.2974 22.3973 21.581 19.6808 18.23 19.6808C14.879 19.6808 12.1625 22.3973 12.1625 25.7482C12.1625 29.0992 14.879 31.8157 18.23 31.8157Z" stroke="#2E56FF" stroke-width="3" stroke-linecap="square" stroke-linejoin="round"></path><path d="M24.8395 33.8613C21.5918 32.8604 19.2864 32.8606 18.3964 32.8604C15.0551 32.8577 11.8265 33.8751 9.31185 35.7232C6.79725 37.5712 5.16805 40.1239 4.72766 42.9059" stroke="#2E56FF" stroke-width="3" stroke-linecap="square" stroke-linejoin="round"></path><path d="M14.185 8.89417H6.09508C5.37989 8.89417 4.69399 9.17827 4.18827 9.68399C3.68255 10.1897 3.39844 10.8756 3.39844 11.5908V41.2539C3.39844 41.9691 3.68255 42.655 4.18827 43.1607C4.69399 43.6664 5.37989 43.9506 6.09508 43.9506H17.8297M22.275 8.89417H30.3649C31.0801 8.89417 31.766 9.17827 32.2717 9.68399C32.7774 10.1897 33.0615 10.8756 33.0615 11.5908V19.1102" stroke="#2E56FF" stroke-width="3" stroke-linecap="square" stroke-linejoin="round"></path><path d="M38.4485 51.4219C45.1603 51.4219 50.6013 45.981 50.6013 39.2691C50.6013 32.5573 45.1603 27.1163 38.4485 27.1163C31.7367 27.1163 26.2957 32.5573 26.2957 39.2691C26.2957 45.981 31.7367 51.4219 38.4485 51.4219Z" stroke="#2E56FF" stroke-width="3" stroke-linecap="square" stroke-linejoin="round"></path><path d="M44.0551 35.0424L38.1711 42.889C38.0403 43.063 37.8736 43.2069 37.6824 43.311C37.4911 43.415 37.2798 43.4768 37.0626 43.4922C36.8455 43.5076 36.6275 43.4761 36.4236 43.4C36.2196 43.3239 36.0343 43.2049 35.8803 43.0511L32.8421 40.0129" stroke="#2E56FF" stroke-width="3" stroke-linecap="square" stroke-linejoin="round"></path><path d="M22.2749 7.54582C22.2749 6.47303 21.8487 5.44418 21.0901 4.6856C20.3316 3.92702 19.3027 3.50085 18.2299 3.50085C17.1571 3.50085 16.1283 3.92702 15.3697 4.6856C14.6111 5.44418 14.1849 6.47303 14.1849 7.54582V12.9391C14.1849 13.2967 14.327 13.6397 14.5799 13.8925C14.8327 14.1454 15.1757 14.2874 15.5333 14.2874H20.9266C21.2841 14.2874 21.6271 14.1454 21.88 13.8925C22.1328 13.6397 22.2749 13.2967 22.2749 12.9391V7.54582Z" stroke="#2E56FF" stroke-width="3" stroke-linecap="square" stroke-linejoin="round"></path></svg> 