<?xml version="1.0" encoding="UTF-8"?> <svg xmlns="http://www.w3.org/2000/svg" width="54" height="55" viewBox="0 0 54 55" fill="none"><path d="M3.5625 36.6281V6.06143C3.5625 5.52105 3.77716 5.0028 4.15927 4.6207C4.54138 4.23859 5.05962 4.02393 5.6 4.02393H29.65C30.1904 4.02393 30.7086 4.23859 31.0907 4.6207C31.4728 5.0028 31.6875 5.52105 31.6875 6.06143V16.5239" stroke="#2E56FF" stroke-width="3" stroke-linecap="square" stroke-linejoin="round"></path><path d="M9.8125 10.2739V29.0239" stroke="#2E56FF" stroke-width="3" stroke-linecap="square" stroke-linejoin="round"></path><path d="M19.1875 16.5239C20.9134 16.5239 22.3125 15.1248 22.3125 13.3989C22.3125 11.673 20.9134 10.2739 19.1875 10.2739C17.4616 10.2739 16.0625 11.673 16.0625 13.3989C16.0625 15.1248 17.4616 16.5239 19.1875 16.5239Z" stroke="#2E56FF" stroke-width="3" stroke-linecap="square" stroke-linejoin="round"></path><path d="M22.3125 28.9552V24.8114C22.3125 24.271 22.5272 23.7528 22.9093 23.3707C23.2914 22.9886 23.8096 22.7739 24.35 22.7739H48.4C48.9404 22.7739 49.4586 22.9886 49.8407 23.3707C50.2228 23.7528 50.4375 24.271 50.4375 24.8114V39.4843C50.4378 39.7521 50.3853 40.0173 50.283 40.2647C50.1807 40.5121 50.0307 40.737 49.8415 40.9264C49.6522 41.1158 49.4275 41.2661 49.1802 41.3686C48.9329 41.4712 48.6677 41.5239 48.4 41.5239H37.9375" stroke="#2E56FF" stroke-width="3" stroke-linecap="square" stroke-linejoin="round"></path><path d="M29.6042 35.2739H11.8958C10.7452 35.2739 9.8125 36.2067 9.8125 37.3573V48.8156C9.8125 49.9662 10.7452 50.8989 11.8958 50.8989H29.6042C30.7548 50.8989 31.6875 49.9662 31.6875 48.8156V37.3573C31.6875 36.2067 30.7548 35.2739 29.6042 35.2739Z" stroke="#2E56FF" stroke-width="3" stroke-linecap="square" stroke-linejoin="round"></path><path d="M10.8067 38.967L20.75 44.6489L30.6933 38.967" stroke="#2E56FF" stroke-width="3" stroke-linecap="square" stroke-linejoin="round"></path></svg> 