<?xml version="1.0" encoding="UTF-8"?> <svg xmlns="http://www.w3.org/2000/svg" width="55" height="55" viewBox="0 0 55 55" fill="none"><path d="M51.1553 50.8989L51.3637 48.5614C51.5011 47.0483 51.0827 45.5369 50.1866 44.3099C49.2905 43.0829 47.9781 42.2243 46.4949 41.8948L38.8887 40.2031V30.2427C38.8887 29.2067 38.4771 28.2131 37.7446 27.4805C37.012 26.748 36.0184 26.3364 34.9824 26.3364C33.9464 26.3364 32.9528 26.748 32.2203 27.4805C31.4877 28.2131 31.0762 29.2067 31.0762 30.2427V47.4093L27.9991 45.101C27.384 44.6404 26.6235 44.4169 25.8571 44.4716C25.0906 44.5263 24.3695 44.8556 23.8262 45.3989C23.2828 45.9423 22.9536 46.6633 22.8989 47.4298C22.8441 48.1963 23.0676 48.9568 23.5283 49.5718L24.5158 50.8885" stroke="#2E56FF" stroke-width="3" stroke-linecap="square" stroke-linejoin="round"></path><path d="M48.2678 35.2739V7.14893C48.2678 6.32012 47.9386 5.52527 47.3525 4.93922C46.7665 4.35317 45.9716 4.02393 45.1428 4.02393H7.64282C6.81402 4.02393 6.01916 4.35317 5.43311 4.93922C4.84706 5.52527 4.51782 6.32012 4.51782 7.14893V41.5239C4.51782 42.3527 4.84706 43.1476 5.43311 43.7336C6.01916 44.3197 6.81402 44.6489 7.64282 44.6489H17.0178" stroke="#2E56FF" stroke-width="3" stroke-linecap="square" stroke-linejoin="round"></path><path d="M4.51782 13.3989H48.2678" stroke="#2E56FF" stroke-width="3" stroke-linecap="round" stroke-linejoin="round"></path><path d="M21.7053 19.6489H12.3303C11.4674 19.6489 10.7678 20.3485 10.7678 21.2114V30.5864C10.7678 31.4494 11.4674 32.1489 12.3303 32.1489H21.7053C22.5683 32.1489 23.2678 31.4494 23.2678 30.5864V21.2114C23.2678 20.3485 22.5683 19.6489 21.7053 19.6489Z" stroke="#2E56FF" stroke-width="3" stroke-linecap="round" stroke-linejoin="round"></path><path d="M10.7678 38.3989H23.2699" stroke="#2E56FF" stroke-width="3" stroke-linecap="square" stroke-linejoin="round"></path><path d="M29.5178 19.6489H42.0199" stroke="#2E56FF" stroke-width="3" stroke-linecap="square" stroke-linejoin="round"></path></svg> 