<?xml version="1.0" encoding="UTF-8"?> <svg xmlns="http://www.w3.org/2000/svg" width="54" height="55" viewBox="0 0 54 55" fill="none"><path d="M27.7707 49.4196L27.7916 49.4342C29.5917 50.5804 31.7289 51.0781 33.8502 50.8451C35.9715 50.6122 37.9498 49.6625 39.4582 48.1529L40.7686 46.8425C41.059 46.5523 41.2894 46.2077 41.4466 45.8285C41.6037 45.4492 41.6846 45.0427 41.6846 44.6321C41.6846 44.2216 41.6037 43.815 41.4466 43.4358C41.2894 43.0565 41.059 42.7119 40.7686 42.4217L35.2416 36.8988C34.9513 36.6084 34.6068 36.378 34.2275 36.2208C33.8482 36.0637 33.4417 35.9828 33.0311 35.9828C32.6206 35.9828 32.2141 36.0637 31.8348 36.2208C31.4555 36.378 31.1109 36.6084 30.8207 36.8988C30.2347 37.4846 29.44 37.8137 28.6113 37.8137C27.7827 37.8137 26.988 37.4846 26.402 36.8988L17.5645 28.0592C16.9786 27.4732 16.6495 26.6785 16.6495 25.8498C16.6495 25.0212 16.9786 24.2265 17.5645 23.6404V23.6404C17.8549 23.3502 18.0852 23.0056 18.2424 22.6264C18.3996 22.2471 18.4805 21.8406 18.4805 21.43C18.4805 21.0195 18.3996 20.613 18.2424 20.2337C18.0852 19.8544 17.8549 19.5098 17.5645 19.2196L12.0395 13.6967C11.4534 13.1108 10.6587 12.7817 9.8301 12.7817C9.00146 12.7817 8.20675 13.1108 7.62072 13.6967L6.30822 15.0071C4.79904 16.5158 3.84972 18.4943 3.61714 20.6155C3.38456 22.7368 3.88263 24.8739 5.02906 26.6738L5.04156 26.6946C11.0961 35.6525 18.8117 43.3667 27.7707 49.4196V49.4196Z" stroke="#2E56FF" stroke-width="3" stroke-linecap="square" stroke-linejoin="round"></path><path d="M37.9375 27.4615V14.9615L26.6729 5.10498" stroke="#2E56FF" stroke-width="3" stroke-linecap="square" stroke-linejoin="round"></path><path d="M42.625 11.8365L49.2415 5.21997" stroke="#2E56FF" stroke-width="3" stroke-linecap="square" stroke-linejoin="round"></path><path d="M25.4375 11.8364V4.02393H33.25" stroke="#2E56FF" stroke-width="3" stroke-linecap="square" stroke-linejoin="round"></path><path d="M42.625 4.02393H50.4375V11.8364" stroke="#2E56FF" stroke-width="3" stroke-linecap="square" stroke-linejoin="round"></path></svg> 