<?xml version="1.0" encoding="UTF-8"?> <svg xmlns="http://www.w3.org/2000/svg" width="54" height="55" viewBox="0 0 54 55" fill="none"><path d="M37.9375 50.8989C44.8411 50.8989 50.4375 45.3025 50.4375 38.3989C50.4375 31.4954 44.8411 25.8989 37.9375 25.8989C31.0339 25.8989 25.4375 31.4954 25.4375 38.3989C25.4375 45.3025 31.0339 50.8989 37.9375 50.8989Z" stroke="#2E56FF" stroke-width="3" stroke-linecap="square" stroke-linejoin="round"></path><path d="M43.5084 34.7656L37.4563 42.8344C37.3217 43.0132 37.1503 43.1611 36.9537 43.2681C36.7571 43.3752 36.5399 43.4388 36.3166 43.4548C36.0933 43.4708 35.8692 43.4387 35.6594 43.3608C35.4495 43.2829 35.2588 43.1609 35.1001 43.0031L31.9751 39.8781" stroke="#2E56FF" stroke-width="3" stroke-linecap="square" stroke-linejoin="round"></path><path d="M19.1875 38.3989H6.6875C5.8587 38.3989 5.06384 38.0697 4.47779 37.4836C3.89174 36.8976 3.5625 36.1027 3.5625 35.2739V10.3052C3.5625 9.47637 3.89174 8.68152 4.47779 8.09547C5.06384 7.50942 5.8587 7.18018 6.6875 7.18018H34.8125C35.6413 7.18018 36.4362 7.50942 37.0222 8.09547C37.6083 8.68152 37.9375 9.47637 37.9375 10.3052V19.6489" stroke="#2E56FF" stroke-width="3" stroke-linecap="square" stroke-linejoin="round"></path><path d="M3.5625 16.5239H37.9375" stroke="#2E56FF" stroke-width="3" stroke-linecap="square" stroke-linejoin="round"></path><path d="M12.9229 10.2739V4.02393" stroke="#2E56FF" stroke-width="3" stroke-linecap="square" stroke-linejoin="round"></path><path d="M28.5479 10.2739V4.02393" stroke="#2E56FF" stroke-width="3" stroke-linecap="square" stroke-linejoin="round"></path></svg> 