<?xml version="1.0" encoding="UTF-8"?> <svg xmlns="http://www.w3.org/2000/svg" width="54" height="55" viewBox="0 0 54 55" fill="none"><path d="M19.7876 4.02393L28.9584 10.1385L20.8063 17.2718" stroke="#2E56FF" stroke-width="3" stroke-linecap="square" stroke-linejoin="round"></path><path d="M44.1875 41.3676C42.3007 44.3688 39.6636 46.8259 36.5368 48.4964C33.41 50.1669 29.9015 50.9928 26.3579 50.8928C22.8143 50.7928 19.358 49.7702 16.3304 47.926C13.3028 46.0818 10.8086 43.4798 9.09401 40.3769C7.37947 37.2741 6.5039 33.7777 6.55378 30.233C6.60365 26.6883 7.57723 23.2179 9.37838 20.1645C11.1795 17.1111 13.746 14.5803 16.8243 12.822C19.9025 11.0637 23.3862 10.1387 26.9313 10.1384" stroke="#2E56FF" stroke-width="3" stroke-linecap="square" stroke-linejoin="round"></path><path d="M47.3126 30.5176C47.3138 32.2371 47.0982 33.9499 46.6709 35.6155" stroke="#2E56FF" stroke-width="3" stroke-linecap="square" stroke-linejoin="round"></path><path d="M44.1875 19.6697C45.1177 21.1487 45.853 22.7418 46.375 24.4093" stroke="#2E56FF" stroke-width="3" stroke-linecap="square" stroke-linejoin="round"></path><path d="M36.3625 12.4468C37.7287 13.1603 39.0091 14.027 40.1792 15.0301" stroke="#2E56FF" stroke-width="3" stroke-linecap="square" stroke-linejoin="round"></path><path d="M20.75 38.9613H33.25V25.5073C33.25 25.1829 33.0854 24.8718 32.7924 24.6424C32.4993 24.413 32.1019 24.2842 31.6875 24.2842H22.3125C21.8981 24.2842 21.5007 24.413 21.2076 24.6424C20.9146 24.8718 20.75 25.1829 20.75 25.5073V38.9613Z" stroke="#2E56FF" stroke-width="3" stroke-linecap="square" stroke-linejoin="round"></path><path d="M27 32.7114H33.25" stroke="#2E56FF" stroke-width="3" stroke-linecap="square" stroke-linejoin="round"></path><path d="M36.375 38.9614H33.25" stroke="#2E56FF" stroke-width="3" stroke-linecap="square" stroke-linejoin="round"></path><path d="M20.75 38.9614H17.625" stroke="#2E56FF" stroke-width="3" stroke-linecap="square" stroke-linejoin="round"></path></svg> 