<?xml version="1.0" encoding="UTF-8"?> <svg xmlns="http://www.w3.org/2000/svg" width="54" height="55" viewBox="0 0 54 55" fill="none"><path d="M47.3125 47.7739C47.3125 48.6027 46.9833 49.3976 46.3972 49.9836C45.8112 50.5697 45.0163 50.8989 44.1875 50.8989H9.8125C8.9837 50.8989 8.18884 50.5697 7.60279 49.9836C7.01674 49.3976 6.6875 48.6027 6.6875 47.7739V7.14893C6.6875 6.32012 7.01674 5.52527 7.60279 4.93922C8.18884 4.35317 8.9837 4.02393 9.8125 4.02393H31.9562C32.7845 4.0241 33.5788 4.35305 34.1646 4.93851L46.3979 17.1718C46.9834 17.7577 47.3123 18.552 47.3125 19.3802V47.7739Z" stroke="#2E56FF" stroke-width="3" stroke-linecap="square" stroke-linejoin="round"></path><path d="M46.3574 19.6489H34.6215C33.8433 19.6489 33.0971 19.3398 32.5468 18.7896C31.9966 18.2393 31.6875 17.4931 31.6875 16.7149V4.979" stroke="#2E56FF" stroke-width="3" stroke-linecap="square" stroke-linejoin="round"></path><path d="M14.9167 26.6155C15.3678 27.2081 15.9552 27.6832 16.6291 28.0005C17.3029 28.3179 18.0433 28.4681 18.7875 28.4384C21.1604 28.4384 23.0854 26.9947 23.0854 25.2155C23.0854 23.4363 21.1667 21.9947 18.7958 21.9947C16.425 21.9947 14.5 20.5509 14.5 18.7697C14.5 16.9884 16.425 15.5468 18.7958 15.5468C19.5401 15.5166 20.2807 15.6666 20.9546 15.9839C21.6285 16.3013 22.2158 16.7767 22.6667 17.3697" stroke="#2E56FF" stroke-width="3" stroke-linecap="square" stroke-linejoin="round"></path><path d="M18.7959 28.4385V30.5864" stroke="#2E56FF" stroke-width="3" stroke-linecap="square" stroke-linejoin="round"></path><path d="M18.7959 13.3989V15.5468" stroke="#2E56FF" stroke-width="3" stroke-linecap="square" stroke-linejoin="round"></path><path d="M27 33.7114H39.5" stroke="#2E56FF" stroke-width="3" stroke-linecap="square" stroke-linejoin="round"></path><path d="M16.0625 43.0864H39.5" stroke="#2E56FF" stroke-width="3" stroke-linecap="square" stroke-linejoin="round"></path></svg> 