<?xml version="1.0" encoding="UTF-8"?> <svg xmlns="http://www.w3.org/2000/svg" width="54" height="55" viewBox="0 0 54 55" fill="none"><path d="M46.339 26.5758L50.4922 45.7775C50.6068 46.3076 50.6013 46.8567 50.476 47.3844C50.3507 47.9121 50.1088 48.405 49.7681 48.8271C49.4273 49.2491 48.9964 49.5894 48.507 49.8231C48.0175 50.0569 47.482 50.178 46.9396 50.1777H7.05654C6.52924 50.1774 6.00832 50.0624 5.52995 49.8406C5.05159 49.6187 4.62726 49.2954 4.28644 48.893C3.94561 48.4907 3.69647 48.019 3.55632 47.5106C3.41617 47.0023 3.38837 46.4696 3.47484 45.9494L7.7104 20.5215C7.85354 19.6747 8.29211 18.9059 8.94825 18.3518C9.60439 17.7976 10.4357 17.4938 11.2945 17.4944H26.0161" stroke="#2E56FF" stroke-width="3" stroke-linecap="square" stroke-linejoin="round"></path><path d="M38.9107 19.188L41.7884 16.3135C42.1735 15.9285 42.6957 15.7122 43.2402 15.7122C43.7848 15.7122 44.307 15.9285 44.6921 16.3135L45.419 17.0391C45.804 17.4242 46.0203 17.9464 46.0203 18.4909C46.0203 19.0355 45.804 19.5577 45.419 19.9428L44.7893 20.5739C44.5384 20.8247 44.2268 21.0061 43.8849 21.1007C43.543 21.1952 43.1825 21.1995 42.8384 21.1133L41.6446 20.8149C39.3624 20.2453 37.2779 19.0661 35.6141 17.4035C33.9502 15.7408 32.7696 13.6572 32.1983 11.3754L31.8999 10.1803C31.8149 9.83568 31.8207 9.47498 31.9167 9.13331C32.0127 8.79165 32.1955 8.48069 32.4475 8.23076L33.0773 7.601C33.4623 7.21603 33.9846 6.99976 34.5291 6.99976C35.0736 6.99976 35.5959 7.21603 35.981 7.601L36.7079 8.32659C36.8987 8.5173 37.0501 8.74373 37.1534 8.99297C37.2567 9.2422 37.3098 9.50934 37.3098 9.77913C37.3098 10.0489 37.2567 10.3161 37.1534 10.5653C37.0501 10.8145 36.8987 11.041 36.7079 11.2317L33.96 14.0104" stroke="#2E56FF" stroke-width="3" stroke-linecap="square" stroke-linejoin="round"></path><path d="M48.0737 8.85229V4.74521H43.9666" stroke="#2E56FF" stroke-width="3" stroke-linecap="square" stroke-linejoin="round"></path><path d="M46.8529 5.9661L41.9131 10.9058" stroke="#2E56FF" stroke-width="3" stroke-linecap="square" stroke-linejoin="round"></path><path d="M9.66937 42.9586H32.3728C32.9698 42.958 33.5607 42.8398 34.112 42.6108C34.6632 42.3817 35.164 42.0464 35.5856 41.6238C36.0072 41.2013 36.3415 40.6998 36.5694 40.1481C36.7972 39.5964 36.9142 39.0052 36.9135 38.4082V38.4082C36.9142 37.8113 36.7972 37.2201 36.5694 36.6684C36.3415 36.1166 36.0072 35.6152 35.5856 35.1926C35.164 34.7701 34.6632 34.4347 34.112 34.2057C33.5607 33.9767 32.9698 33.8585 32.3728 33.8579H27.8321C26.627 33.8566 25.4717 33.3768 24.6202 32.5239C23.7688 31.6711 23.2908 30.515 23.2915 29.3099V29.3099C23.2908 28.713 23.4078 28.1218 23.6356 27.57C23.8635 27.0183 24.1977 26.5168 24.6194 26.0943C25.041 25.6718 25.5418 25.3364 26.093 25.1074C26.6443 24.8784 27.2352 24.7602 27.8321 24.7595H32.3728" stroke="#2E56FF" stroke-width="3" stroke-linecap="square" stroke-linejoin="round"></path></svg> 