<?xml version="1.0" encoding="UTF-8"?> <svg xmlns="http://www.w3.org/2000/svg" width="54" height="55" viewBox="0 0 54 55" fill="none"><path d="M27 6.11349C24.6244 4.74195 21.9296 4.01998 19.1866 4.02014C16.4435 4.02031 13.7488 4.74261 11.3734 6.11444C8.99796 7.48626 7.02555 9.45926 5.65444 11.8351C4.28333 14.2109 3.56184 16.9058 3.5625 19.6489" stroke="#2E56FF" stroke-width="3" stroke-linecap="round" stroke-linejoin="round"></path><path d="M34.8125 19.6489C34.8152 17.4982 34.3726 15.3702 33.5125 13.3989" stroke="#2E56FF" stroke-width="3" stroke-linecap="round" stroke-linejoin="round"></path><path d="M19.1875 50.8989C20.237 50.8991 21.2838 50.7944 22.3125 50.5864" stroke="#2E56FF" stroke-width="3" stroke-linecap="round" stroke-linejoin="round"></path><path d="M3.5625 29.0239V35.2739C3.56163 38.315 4.44819 41.2901 6.11347 43.8347C7.77874 46.3792 10.1504 48.3825 12.9375 49.5989" stroke="#2E56FF" stroke-width="3" stroke-linecap="round" stroke-linejoin="round"></path><path d="M28.5625 22.7739V19.6489C28.5628 18.0031 28.1299 16.3862 27.3072 14.9608C26.4845 13.5354 25.301 12.3516 23.8758 11.5286C22.4506 10.7055 20.8338 10.2722 19.188 10.2721C17.5421 10.272 15.9253 10.7052 14.5 11.5281" stroke="#2E56FF" stroke-width="3" stroke-linecap="round" stroke-linejoin="round"></path><path d="M9.8125 19.6489V35.2739C9.8125 37.7603 10.8002 40.1449 12.5584 41.9031C14.3165 43.6612 16.7011 44.6489 19.1875 44.6489" stroke="#2E56FF" stroke-width="3" stroke-linecap="round" stroke-linejoin="round"></path><path d="M22.3125 27.4614V19.6489C22.3125 18.8201 21.9833 18.0253 21.3972 17.4392C20.8112 16.8532 20.0163 16.5239 19.1875 16.5239C18.3587 16.5239 17.5638 16.8532 16.9778 17.4392C16.3917 18.0253 16.0625 18.8201 16.0625 19.6489V25.8989" stroke="#2E56FF" stroke-width="3" stroke-linecap="round" stroke-linejoin="round"></path><path d="M16.0625 35.2739C16.0625 36.1027 16.3917 36.8976 16.9778 37.4836C17.5638 38.0697 18.3587 38.3989 19.1875 38.3989" stroke="#2E56FF" stroke-width="3" stroke-linecap="round" stroke-linejoin="round"></path><path d="M37.9312 50.8989C44.8347 50.8989 50.4312 45.3025 50.4312 38.3989C50.4312 31.4954 44.8347 25.8989 37.9312 25.8989C31.0276 25.8989 25.4312 31.4954 25.4312 38.3989C25.4312 45.3025 31.0276 50.8989 37.9312 50.8989Z" stroke="#2E56FF" stroke-width="3" stroke-linecap="round" stroke-linejoin="round"></path><path d="M43.5021 34.7635L37.45 42.8344C37.3154 43.0134 37.144 43.1614 36.9473 43.2684C36.7506 43.3754 36.5332 43.439 36.3099 43.4548C36.0865 43.4706 35.8623 43.4383 35.6525 43.36C35.4427 43.2817 35.2522 43.1593 35.0937 43.001L31.9688 39.876" stroke="#2E56FF" stroke-width="3" stroke-linecap="square" stroke-linejoin="round"></path></svg> 