<?xml version="1.0" encoding="UTF-8"?> <svg xmlns="http://www.w3.org/2000/svg" width="54" height="55" viewBox="0 0 54 55" fill="none"><path d="M48.3542 16.5469H24.3958C23.2452 16.5469 22.3125 17.4796 22.3125 18.6302V48.8385C22.3125 49.9891 23.2452 50.9219 24.3958 50.9219H48.3542C49.5048 50.9219 50.4375 49.9891 50.4375 48.8385V18.6302C50.4375 17.4796 49.5048 16.5469 48.3542 16.5469Z" stroke="#2E56FF" stroke-width="3" stroke-linecap="square" stroke-linejoin="round"></path><path d="M22.3125 44.6719H16.0625C15.2337 44.6719 14.4388 44.3426 13.8528 43.7566C13.2667 43.1705 12.9375 42.3757 12.9375 41.5469V13.4219C12.9375 12.5931 13.2667 11.7982 13.8528 11.2122C14.4388 10.6261 15.2337 10.2969 16.0625 10.2969H37.9375C38.7663 10.2969 39.5612 10.6261 40.1472 11.2122C40.7333 11.7982 41.0625 12.5931 41.0625 13.4219V16.5469" stroke="#2E56FF" stroke-width="3" stroke-linecap="square" stroke-linejoin="round"></path><path d="M12.9375 38.4219H6.6875C5.8587 38.4219 5.06384 38.0926 4.47779 37.5066C3.89174 36.9205 3.5625 36.1257 3.5625 35.2969V7.17187C3.5625 6.34307 3.89174 5.54822 4.47779 4.96217C5.06384 4.37612 5.8587 4.04688 6.6875 4.04688H28.5625C29.3913 4.04688 30.1862 4.37612 30.7722 4.96217C31.3583 5.54822 31.6875 6.34307 31.6875 7.17187V10.2969" stroke="#2E56FF" stroke-width="3" stroke-linecap="square" stroke-linejoin="round"></path><path d="M37.9375 25.9219H44.1875" stroke="#2E56FF" stroke-width="3" stroke-linecap="square" stroke-linejoin="round"></path><path d="M28.5625 24.3594L30.125 25.9219L33.25 22.7969" stroke="#2E56FF" stroke-width="3" stroke-linecap="square" stroke-linejoin="round"></path><path d="M37.9375 35.2969H44.1875" stroke="#2E56FF" stroke-width="3" stroke-linecap="square" stroke-linejoin="round"></path><path d="M28.5625 33.7344L30.125 35.2969L33.25 32.1719" stroke="#2E56FF" stroke-width="3" stroke-linecap="square" stroke-linejoin="round"></path><path d="M37.9375 44.6719H44.1875" stroke="#2E56FF" stroke-width="3" stroke-linecap="square" stroke-linejoin="round"></path><path d="M28.5625 43.1094L30.125 44.6719L33.25 41.5469" stroke="#2E56FF" stroke-width="3" stroke-linecap="square" stroke-linejoin="round"></path></svg> 