<?xml version="1.0" encoding="UTF-8"?> <svg xmlns="http://www.w3.org/2000/svg" width="54" height="55" viewBox="0 0 54 55" fill="none"><path d="M30.125 32.1448C34.4397 32.1448 37.9375 28.647 37.9375 24.3323C37.9375 20.0176 34.4397 16.5198 30.125 16.5198C25.8103 16.5198 22.3125 20.0176 22.3125 24.3323C22.3125 28.647 25.8103 32.1448 30.125 32.1448Z" stroke="#2E56FF" stroke-width="3" stroke-linecap="square" stroke-linejoin="round"></path><path d="M45.75 13.3948C48.3388 13.3948 50.4375 11.2961 50.4375 8.70728C50.4375 6.11844 48.3388 4.01978 45.75 4.01978C43.1612 4.01978 41.0625 6.11844 41.0625 8.70728C41.0625 11.2961 43.1612 13.3948 45.75 13.3948Z" stroke="#2E56FF" stroke-width="3" stroke-linecap="square" stroke-linejoin="round"></path><path d="M45.75 39.9573C48.3388 39.9573 50.4375 37.8586 50.4375 35.2698C50.4375 32.6809 48.3388 30.5823 45.75 30.5823C43.1612 30.5823 41.0625 32.6809 41.0625 35.2698C41.0625 37.8586 43.1612 39.9573 45.75 39.9573Z" stroke="#2E56FF" stroke-width="3" stroke-linecap="square" stroke-linejoin="round"></path><path d="M30.125 50.8948C32.7138 50.8948 34.8125 48.7961 34.8125 46.2073C34.8125 43.6184 32.7138 41.5198 30.125 41.5198C27.5362 41.5198 25.4375 43.6184 25.4375 46.2073C25.4375 48.7961 27.5362 50.8948 30.125 50.8948Z" stroke="#2E56FF" stroke-width="3" stroke-linecap="square" stroke-linejoin="round"></path><path d="M8.25 50.8948C10.8388 50.8948 12.9375 48.7961 12.9375 46.2073C12.9375 43.6184 10.8388 41.5198 8.25 41.5198C5.66116 41.5198 3.5625 43.6184 3.5625 46.2073C3.5625 48.7961 5.66116 50.8948 8.25 50.8948Z" stroke="#2E56FF" stroke-width="3" stroke-linecap="square" stroke-linejoin="round"></path><path d="M9.8125 18.0823C12.4013 18.0823 14.5 15.9836 14.5 13.3948C14.5 10.8059 12.4013 8.70728 9.8125 8.70728C7.22366 8.70728 5.125 10.8059 5.125 13.3948C5.125 15.9836 7.22366 18.0823 9.8125 18.0823Z" stroke="#2E56FF" stroke-width="3" stroke-linecap="square" stroke-linejoin="round"></path><path d="M35.6479 18.8114L42.4396 12.0198" stroke="#2E56FF" stroke-width="3" stroke-linecap="square" stroke-linejoin="round"></path><path d="M37.1965 28.7551L41.539 32.1447" stroke="#2E56FF" stroke-width="3" stroke-linecap="square" stroke-linejoin="round"></path><path d="M30.125 32.1448V41.5198" stroke="#2E56FF" stroke-width="3" stroke-linecap="square" stroke-linejoin="round"></path><path d="M24.6063 29.8511L11.5625 42.8948" stroke="#2E56FF" stroke-width="3" stroke-linecap="square" stroke-linejoin="round"></path><path d="M22.8354 21.5218L13.6875 16.0322" stroke="#2E56FF" stroke-width="3" stroke-linecap="square" stroke-linejoin="round"></path></svg> 