<?xml version="1.0" encoding="UTF-8"?> <svg xmlns="http://www.w3.org/2000/svg" width="54" height="55" viewBox="0 0 54 55" fill="none"><path d="M50.4375 35.7739C50.4446 39.4124 49.2095 42.9444 46.9365 45.7856C44.6635 48.6268 41.4888 50.6071 37.9375 51.3989C34.386 50.6074 31.2112 48.6272 28.9381 45.786C26.6651 42.9447 25.4301 39.4125 25.4375 35.7739V29.5239C25.4375 28.6951 25.7668 27.9003 26.3528 27.3142C26.9389 26.7282 27.7337 26.3989 28.5625 26.3989H47.3125C48.1413 26.3989 48.9362 26.7282 49.5222 27.3142C50.1083 27.9003 50.4375 28.6951 50.4375 29.5239V35.7739Z" stroke="#2E56FF" stroke-width="3" stroke-linecap="square" stroke-linejoin="round"></path><path d="M43.544 33.0424L37.66 40.889C37.5292 41.063 37.3625 41.2069 37.1713 41.311C36.98 41.415 36.7687 41.4768 36.5515 41.4922C36.3344 41.5076 36.1164 41.4761 35.9125 41.4C35.7085 41.3239 35.5232 41.2049 35.3692 41.0511L32.331 38.0129" stroke="#2E56FF" stroke-width="3" stroke-linecap="square" stroke-linejoin="round"></path><path d="M14.5 16.0239C17.9518 16.0239 20.75 13.2257 20.75 9.77393C20.75 6.32215 17.9518 3.52393 14.5 3.52393C11.0482 3.52393 8.25 6.32215 8.25 9.77393C8.25 13.2257 11.0482 16.0239 14.5 16.0239Z" stroke="#2E56FF" stroke-width="3" stroke-linecap="square" stroke-linejoin="round"></path><path d="M21.1104 22.3718C19.488 21.1411 17.5543 20.3877 15.5269 20.1965C13.4995 20.0053 11.459 20.3839 9.63514 21.2897C7.81128 22.1954 6.2765 23.5924 5.20362 25.3232C4.13074 27.0541 3.56236 29.05 3.5625 31.0864V35.7739H8.25L9.8125 51.3989H19.1875L20.125 41.9468" stroke="#2E56FF" stroke-width="3" stroke-linecap="square" stroke-linejoin="round"></path></svg> 