<?xml version="1.0" encoding="UTF-8"?> <svg xmlns="http://www.w3.org/2000/svg" width="54" height="55" viewBox="0 0 54 55" fill="none"><path d="M28.5979 18.803C29.0487 19.396 29.636 19.8714 30.3099 20.1888C30.9838 20.5061 31.7244 20.6561 32.4687 20.6259C34.8416 20.6259 36.7666 19.1822 36.7666 17.403C36.7666 15.6238 34.8416 14.1822 32.4687 14.1822C30.0958 14.1822 28.1729 12.7384 28.1729 10.9572C28.1729 9.17593 30.0958 7.73426 32.4687 7.73426C33.213 7.7041 33.9535 7.85407 34.6275 8.17144C35.3014 8.48881 35.8887 8.96419 36.3395 9.55718" stroke="#2E56FF" stroke-width="3" stroke-linecap="square" stroke-linejoin="round"></path><path d="M32.4688 20.626V22.7739" stroke="#2E56FF" stroke-width="3" stroke-linecap="square" stroke-linejoin="round"></path><path d="M32.4688 5.58643V7.73434" stroke="#2E56FF" stroke-width="3" stroke-linecap="square" stroke-linejoin="round"></path><path d="M28.5625 33.7114V47.7739C28.5625 48.6027 28.2333 49.3976 27.6472 49.9836C27.0612 50.5697 26.2663 50.8989 25.4375 50.8989H6.6875C5.8587 50.8989 5.06384 50.5697 4.47779 49.9836C3.89174 49.3976 3.5625 48.6027 3.5625 47.7739V13.3989C3.5625 12.5701 3.89174 11.7753 4.47779 11.1892C5.06384 10.6032 5.8587 10.2739 6.6875 10.2739" stroke="#2E56FF" stroke-width="3" stroke-linecap="square" stroke-linejoin="round"></path><path d="M3.5625 43.0864H28.5625" stroke="#2E56FF" stroke-width="3" stroke-linecap="square" stroke-linejoin="round"></path><path d="M39.5 4.02393H47.3125C48.1413 4.02393 48.9362 4.35317 49.5222 4.93922C50.1083 5.52527 50.4375 6.32012 50.4375 7.14893V24.3364C50.4375 25.1652 50.1083 25.9601 49.5222 26.5461C48.9362 27.1322 48.1413 27.4614 47.3125 27.4614H16.0625C15.2337 27.4614 14.4388 27.1322 13.8528 26.5461C13.2667 25.9601 12.9375 25.1652 12.9375 24.3364V7.14893C12.9375 6.32012 13.2667 5.52527 13.8528 4.93922C14.4388 4.35317 15.2337 4.02393 16.0625 4.02393H25.4375" stroke="#2E56FF" stroke-width="3" stroke-linecap="square" stroke-linejoin="round"></path></svg> 