<?xml version="1.0" encoding="UTF-8"?> <svg xmlns="http://www.w3.org/2000/svg" width="54" height="55" viewBox="0 0 54 55" fill="none"><path d="M19.1875 38.3989H6.6875C5.8587 38.3989 5.06384 38.0697 4.47779 37.4836C3.89174 36.8976 3.5625 36.1027 3.5625 35.2739V10.2739C3.5625 9.44512 3.89174 8.65027 4.47779 8.06422C5.06384 7.47817 5.8587 7.14893 6.6875 7.14893H34.8125C35.6413 7.14893 36.4362 7.47817 37.0222 8.06422C37.6083 8.65027 37.9375 9.44512 37.9375 10.2739V19.6489" stroke="#2E56FF" stroke-width="3" stroke-linecap="square" stroke-linejoin="round"></path><path d="M3.5625 16.5239H37.9375" stroke="#2E56FF" stroke-width="3" stroke-linecap="square" stroke-linejoin="round"></path><path d="M12.9375 10.2739V4.02393" stroke="#2E56FF" stroke-width="3" stroke-linecap="square" stroke-linejoin="round"></path><path d="M28.5625 10.2739V4.02393" stroke="#2E56FF" stroke-width="3" stroke-linecap="square" stroke-linejoin="round"></path><path d="M37.9375 50.8989C44.8411 50.8989 50.4375 45.3025 50.4375 38.3989C50.4375 31.4954 44.8411 25.8989 37.9375 25.8989C31.0339 25.8989 25.4375 31.4954 25.4375 38.3989C25.4375 45.3025 31.0339 50.8989 37.9375 50.8989Z" stroke="#2E56FF" stroke-width="3" stroke-linecap="square" stroke-linejoin="round"></path><path d="M43.4625 38.3989H37.9375V32.876" stroke="#2E56FF" stroke-width="3" stroke-linecap="square" stroke-linejoin="round"></path></svg> 