<?xml version="1.0" encoding="UTF-8"?> <svg xmlns="http://www.w3.org/2000/svg" width="54" height="55" viewBox="0 0 54 55" fill="none"><circle cx="13.094" cy="12.786" r="1.49562" stroke="#2E56FF" stroke-width="3" stroke-linecap="square" stroke-linejoin="round"></circle><circle cx="13.094" cy="32.0113" r="1.49564" stroke="#2E56FF" stroke-width="3" stroke-linecap="square" stroke-linejoin="round"></circle><path d="M29.1148 22.3987H13.0938C10.5444 22.3987 8.09941 21.386 6.29671 19.5833C4.494 17.7806 3.48125 15.3356 3.48125 12.7862C3.48125 10.2367 4.494 7.79175 6.29671 5.98904C8.09941 4.18634 10.5444 3.17358 13.0938 3.17358H38.7274C40.7992 3.17315 42.8157 3.8421 44.4765 5.08079C46.1372 6.31947 47.3533 8.06157 47.9436 10.0475C48.5339 12.0335 48.4667 14.157 47.7521 16.1017C47.0375 18.0464 45.7137 19.7081 43.978 20.8394" stroke="#2E56FF" stroke-width="3" stroke-linecap="square" stroke-linejoin="round"></path><path d="M19.5023 41.6238H13.0939C10.5445 41.6238 8.09946 40.6111 6.29675 38.8084C4.49404 37.0057 3.48129 34.5607 3.48129 32.0113C3.48129 29.4618 4.49404 27.0168 6.29675 25.2141C8.09946 23.4114 10.5445 22.3987 13.0939 22.3987" stroke="#2E56FF" stroke-width="3" stroke-linecap="square" stroke-linejoin="round"></path><path d="M24.3085 12.7861H38.7274" stroke="#2E56FF" stroke-width="3" stroke-linecap="square" stroke-linejoin="round"></path><path d="M38.5901 51.7492C45.1782 51.7492 50.5189 46.4086 50.5189 39.8205C50.5189 33.2324 45.1782 27.8917 38.5901 27.8917C32.0021 27.8917 26.6614 33.2324 26.6614 39.8205C26.6614 46.4086 32.0021 51.7492 38.5901 51.7492Z" stroke="#2E56FF" stroke-width="3" stroke-linecap="square" stroke-linejoin="round"></path><path d="M44.0933 35.6715L38.3178 43.3735C38.1894 43.5443 38.0258 43.6856 37.8381 43.7877C37.6504 43.8898 37.4429 43.9505 37.2298 43.9656C37.0166 43.9807 36.8027 43.9498 36.6025 43.8751C36.4023 43.8004 36.2204 43.6836 36.0692 43.5326L33.087 40.5504" stroke="#2E56FF" stroke-width="3" stroke-linecap="square" stroke-linejoin="round"></path></svg> 