<?xml version="1.0" encoding="UTF-8"?> <svg xmlns="http://www.w3.org/2000/svg" width="54" height="55" viewBox="0 0 54 55" fill="none"><path d="M34.0312 35.7114V45.2073C34.0313 45.9549 33.884 46.6952 33.5978 47.3858C33.3116 48.0765 32.8922 48.7041 32.3635 49.2326C31.8347 49.7612 31.207 50.1804 30.5162 50.4663C29.8255 50.7522 29.0851 50.8992 28.3375 50.8989H14.725C13.9774 50.8992 13.237 50.7522 12.5463 50.4663C11.8555 50.1804 11.2278 49.7612 10.699 49.2326C10.1703 48.7041 9.75086 48.0765 9.4647 47.3858C9.17854 46.6952 9.03125 45.9549 9.03125 45.2073V12.8427C9.03125 11.3326 9.63113 9.88437 10.6989 8.81659C11.7667 7.7488 13.2149 7.14893 14.725 7.14893H20.5312" stroke="#2E56FF" stroke-width="3" stroke-linecap="square" stroke-linejoin="round"></path><path d="M9.03125 41.5239H34.0312" stroke="#2E56FF" stroke-width="3" stroke-linecap="square" stroke-linejoin="round"></path><path d="M34.0312 4.02393C36.1033 4.02393 38.0904 4.84703 39.5555 6.31215C41.0207 7.77728 41.8437 9.76442 41.8437 11.8364V18.0864C41.8437 18.9152 42.173 19.7101 42.759 20.2961C43.3451 20.8822 44.1399 21.2114 44.9687 21.2114H23.0938C23.9226 21.2114 24.7174 20.8822 25.3035 20.2961C25.8895 19.7101 26.2187 18.9152 26.2187 18.0864V11.8364C26.2187 9.76442 27.0419 7.77728 28.507 6.31215C29.9721 4.84703 31.9592 4.02393 34.0312 4.02393V4.02393Z" stroke="#2E56FF" stroke-width="3" stroke-linecap="square" stroke-linejoin="round"></path><path d="M34.0313 26.3945C33.728 26.3945 33.4315 26.4845 33.1793 26.653C32.9271 26.8215 32.7306 27.061 32.6145 27.3412C32.4985 27.6214 32.4681 27.9297 32.5273 28.2272C32.5864 28.5246 32.7325 28.7979 32.9469 29.0123C33.1614 29.2268 33.4346 29.3728 33.7321 29.432C34.0296 29.4912 34.3379 29.4608 34.6181 29.3447C34.8983 29.2287 35.1378 29.0321 35.3063 28.78C35.4748 28.5278 35.5647 28.2313 35.5647 27.928C35.5647 27.5213 35.4032 27.1313 35.1156 26.8437C34.828 26.5561 34.438 26.3945 34.0313 26.3945Z" stroke="#2E56FF" stroke-width="3" stroke-linecap="square" stroke-linejoin="round"></path></svg> 