<?xml version="1.0" encoding="UTF-8"?> <svg xmlns="http://www.w3.org/2000/svg" width="54" height="55" viewBox="0 0 54 55" fill="none"><path d="M34.8125 50.8989H19.1875L20.75 44.6489H33.25L34.8125 50.8989Z" stroke="#2E56FF" stroke-width="3" stroke-linecap="round" stroke-linejoin="round"></path><path d="M14.5 50.8989H39.5" stroke="#2E56FF" stroke-width="3" stroke-linecap="square" stroke-linejoin="round"></path><path d="M3.5625 38.3989H50.4375" stroke="#2E56FF" stroke-width="3" stroke-linecap="round" stroke-linejoin="round"></path><path d="M50.4375 32.1489V38.3989C50.4375 40.0565 49.779 41.6462 48.6069 42.8183C47.4348 43.9904 45.8451 44.6489 44.1875 44.6489H9.8125C8.1549 44.6489 6.56518 43.9904 5.39308 42.8183C4.22098 41.6462 3.5625 40.0565 3.5625 38.3989V16.5239C3.5625 14.8663 4.22098 13.2766 5.39308 12.1045C6.56518 10.9324 8.1549 10.2739 9.8125 10.2739H19.1875" stroke="#2E56FF" stroke-width="3" stroke-linecap="square" stroke-linejoin="round"></path><path d="M37.9375 29.0239C44.8411 29.0239 50.4375 23.4275 50.4375 16.5239C50.4375 9.62037 44.8411 4.02393 37.9375 4.02393C31.0339 4.02393 25.4375 9.62037 25.4375 16.5239C25.4375 23.4275 31.0339 29.0239 37.9375 29.0239Z" stroke="#2E56FF" stroke-width="3" stroke-linecap="round" stroke-linejoin="round"></path><path d="M43.4625 16.5239H37.9375V10.9989" stroke="#2E56FF" stroke-width="3" stroke-linecap="round" stroke-linejoin="round"></path></svg> 