<?xml version="1.0" encoding="UTF-8"?> <svg xmlns="http://www.w3.org/2000/svg" width="54" height="55" viewBox="0 0 54 55" fill="none"><path d="M29.575 4.16357C30.0937 4.22191 30.6166 4.29482 31.1229 4.38649" stroke="#2E56FF" stroke-width="3" stroke-linecap="square" stroke-linejoin="round"></path><path d="M39.7312 7.90112L41.0104 8.79904" stroke="#2E56FF" stroke-width="3" stroke-linecap="square" stroke-linejoin="round"></path><path d="M47.2666 15.6802C47.5291 16.1302 47.7749 16.5906 48.0083 17.0573" stroke="#2E56FF" stroke-width="3" stroke-linecap="square" stroke-linejoin="round"></path><path d="M20.6439 50.0072C20.1382 49.8822 19.6419 49.7221 19.1584 49.5281" stroke="#2E56FF" stroke-width="3" stroke-linecap="square" stroke-linejoin="round"></path><path d="M11.2374 44.6656L10.1228 43.574" stroke="#2E56FF" stroke-width="3" stroke-linecap="square" stroke-linejoin="round"></path><path d="M5.07705 35.7657C4.89094 35.2754 4.72219 34.7816 4.5708 34.2844" stroke="#2E56FF" stroke-width="3" stroke-linecap="square" stroke-linejoin="round"></path><path d="M37.9375 50.8989C44.8411 50.8989 50.4375 45.3025 50.4375 38.3989C50.4375 31.4954 44.8411 25.8989 37.9375 25.8989C31.0339 25.8989 25.4375 31.4954 25.4375 38.3989C25.4375 45.3025 31.0339 50.8989 37.9375 50.8989Z" stroke="#2E56FF" stroke-width="3" stroke-linecap="square" stroke-linejoin="round"></path><path d="M43.5084 34.7634L37.4563 42.8343C37.3218 43.0132 37.1503 43.1612 36.9537 43.2683C36.757 43.3753 36.5396 43.4389 36.3162 43.4547C36.0928 43.4705 35.8687 43.4381 35.6589 43.3599C35.4491 43.2816 35.2585 43.1592 35.1001 43.0009L31.9751 39.8759" stroke="#2E56FF" stroke-width="3" stroke-linecap="square" stroke-linejoin="round"></path><path d="M19.1292 10.2739H14.8937C14.2446 10.2744 13.6159 10.5007 13.1154 10.914C12.6149 11.3273 12.2738 11.9019 12.1507 12.5392C12.0275 13.1765 12.1299 13.8368 12.4403 14.4069C12.7508 14.9769 13.2499 15.4212 13.8521 15.6635L18.1521 17.3823C18.7556 17.6237 19.2561 18.0679 19.5676 18.6384C19.8791 19.209 19.982 19.8702 19.8587 20.5084C19.7354 21.1467 19.3936 21.722 18.892 22.1354C18.3904 22.5489 17.7604 22.7747 17.1104 22.7739H12.8792" stroke="#2E56FF" stroke-width="3" stroke-linecap="square" stroke-linejoin="round"></path><path d="M16.0042 10.2739V8.71143" stroke="#2E56FF" stroke-width="3" stroke-linecap="square" stroke-linejoin="round"></path><path d="M16.0042 24.3364V22.7739" stroke="#2E56FF" stroke-width="3" stroke-linecap="square" stroke-linejoin="round"></path><path d="M16.0042 29.0239C22.9077 29.0239 28.5042 23.4275 28.5042 16.5239C28.5042 9.62037 22.9077 4.02393 16.0042 4.02393C9.10059 4.02393 3.50415 9.62037 3.50415 16.5239C3.50415 23.4275 9.10059 29.0239 16.0042 29.0239Z" stroke="#2E56FF" stroke-width="3" stroke-linecap="square" stroke-linejoin="round"></path></svg> 