<?xml version="1.0" encoding="UTF-8"?> <svg xmlns="http://www.w3.org/2000/svg" width="54" height="55" viewBox="0 0 54 55" fill="none"><path d="M39.5 8.44687C35.9626 5.5848 31.5502 4.02332 27 4.02332C22.4498 4.02332 18.0374 5.5848 14.5 8.44687" stroke="#2E56FF" stroke-width="3" stroke-linecap="square" stroke-linejoin="round"></path><path d="M19.7083 15.9781C21.772 14.3092 24.3458 13.3987 26.9999 13.3987C29.6541 13.3987 32.2279 14.3092 34.2916 15.9781" stroke="#2E56FF" stroke-width="3" stroke-linecap="square" stroke-linejoin="round"></path><path d="M9.03125 36.8364C12.0516 36.8364 14.5 34.388 14.5 31.3677C14.5 28.3474 12.0516 25.8989 9.03125 25.8989C6.01094 25.8989 3.5625 28.3474 3.5625 31.3677C3.5625 34.388 6.01094 36.8364 9.03125 36.8364Z" stroke="#2E56FF" stroke-width="3" stroke-linecap="square" stroke-linejoin="round"></path><path d="M17.0322 43.8417C16.5041 42.6079 15.7056 41.5084 14.6957 40.6244C13.6857 39.7405 12.4901 39.0947 11.1971 38.7348C9.90416 38.3748 8.54684 38.3099 7.22542 38.5448C5.90399 38.7797 4.65221 39.3085 3.5625 40.092" stroke="#2E56FF" stroke-width="3" stroke-linecap="square" stroke-linejoin="round"></path><path d="M44.9688 36.8364C47.9891 36.8364 50.4375 34.388 50.4375 31.3677C50.4375 28.3474 47.9891 25.8989 44.9688 25.8989C41.9484 25.8989 39.5 28.3474 39.5 31.3677C39.5 34.388 41.9484 36.8364 44.9688 36.8364Z" stroke="#2E56FF" stroke-width="3" stroke-linecap="square" stroke-linejoin="round"></path><path d="M37.0013 43.8283C37.5281 42.5974 38.3246 41.5007 39.3321 40.6189C40.3395 39.7372 41.5322 39.093 42.8219 38.734C44.1117 38.3749 45.4656 38.3102 46.7838 38.5445C48.1019 38.7788 49.3506 39.3062 50.4376 40.0878" stroke="#2E56FF" stroke-width="3" stroke-linecap="square" stroke-linejoin="round"></path><path d="M27 36.8364C30.8833 36.8364 34.0312 33.6884 34.0312 29.8052C34.0312 25.9219 30.8833 22.7739 27 22.7739C23.1167 22.7739 19.9688 25.9219 19.9688 29.8052C19.9688 33.6884 23.1167 36.8364 27 36.8364Z" stroke="#2E56FF" stroke-width="3" stroke-linecap="square" stroke-linejoin="round"></path><path d="M39.5 50.899C39.093 47.8723 37.6017 45.0961 35.3029 43.0857C33.0041 41.0753 30.0539 39.9673 27 39.9673C23.9461 39.9673 20.9959 41.0753 18.6971 43.0857C16.3983 45.0961 14.907 47.8723 14.5 50.899" stroke="#2E56FF" stroke-width="3" stroke-linecap="square" stroke-linejoin="round"></path></svg> 