<?xml version="1.0" encoding="UTF-8"?> <svg xmlns="http://www.w3.org/2000/svg" width="54" height="55" viewBox="0 0 54 55" fill="none"><path d="M47.3125 18.0864H6.6875C4.96161 18.0864 3.5625 19.4855 3.5625 21.2114V46.2114C3.5625 47.9373 4.96161 49.3364 6.6875 49.3364H47.3125C49.0384 49.3364 50.4375 47.9373 50.4375 46.2114V21.2114C50.4375 19.4855 49.0384 18.0864 47.3125 18.0864Z" stroke="#2E56FF" stroke-width="3" stroke-linecap="square" stroke-linejoin="round"></path><path d="M6.6875 11.8364H47.3125" stroke="#2E56FF" stroke-width="3" stroke-linecap="square" stroke-linejoin="round"></path><path d="M11.375 5.58643H42.625" stroke="#2E56FF" stroke-width="3" stroke-linecap="square" stroke-linejoin="round"></path><path d="M11.375 36.8364H19.1875" stroke="#2E56FF" stroke-width="3" stroke-linecap="square" stroke-linejoin="round"></path><path d="M11.375 43.0864H28.5625" stroke="#2E56FF" stroke-width="3" stroke-linecap="square" stroke-linejoin="round"></path><path d="M42.625 24.3364H36.375C35.5121 24.3364 34.8125 25.036 34.8125 25.8989V32.1489C34.8125 33.0119 35.5121 33.7114 36.375 33.7114H42.625C43.4879 33.7114 44.1875 33.0119 44.1875 32.1489V25.8989C44.1875 25.036 43.4879 24.3364 42.625 24.3364Z" stroke="#2E56FF" stroke-width="3" stroke-linecap="square" stroke-linejoin="round"></path></svg> 