<?xml version="1.0" encoding="UTF-8"?> <svg xmlns="http://www.w3.org/2000/svg" width="55" height="55" viewBox="0 0 55 55" fill="none"><path d="M34.2036 41.5239H26.3911V49.3364" stroke="#2E56FF" stroke-width="3" stroke-linecap="square" stroke-linejoin="round"></path><path d="M50.1765 43.051C49.349 45.4692 47.7466 47.5468 45.6178 48.9613C43.489 50.3758 40.9529 51.0482 38.403 50.8741C35.853 50.7001 33.4318 49.6894 31.5149 47.9987C29.5981 46.3081 28.2928 44.0321 27.8015 41.5239" stroke="#2E56FF" stroke-width="3" stroke-linecap="round" stroke-linejoin="round"></path><path d="M43.5786 35.2739H51.3911V27.4614" stroke="#2E56FF" stroke-width="3" stroke-linecap="square" stroke-linejoin="round"></path><path d="M27.6057 33.7468C28.4332 31.3286 30.0356 29.251 32.1644 27.8365C34.2932 26.422 36.8293 25.7496 39.3792 25.9237C41.9292 26.0977 44.3504 27.1084 46.2673 28.7991C48.1841 30.4897 49.4895 32.7656 49.9807 35.2739" stroke="#2E56FF" stroke-width="3" stroke-linecap="round" stroke-linejoin="round"></path><path d="M45.1411 19.6489V7.14893C45.1411 6.32012 44.8119 5.52527 44.2258 4.93922C43.6398 4.35317 42.8449 4.02393 42.0161 4.02393H7.64111C6.81231 4.02393 6.01746 4.35317 5.4314 4.93922C4.84535 5.52527 4.51611 6.32012 4.51611 7.14893V32.1489C4.51611 32.9777 4.84535 33.7726 5.4314 34.3586C6.01746 34.9447 6.81231 35.2739 7.64111 35.2739H20.1411" stroke="#2E56FF" stroke-width="3" stroke-linecap="square" stroke-linejoin="round"></path><path d="M10.7661 13.3867H31.9536" stroke="#2E56FF" stroke-width="3" stroke-linecap="square" stroke-linejoin="round"></path><path d="M10.7661 21.2114H23.2661" stroke="#2E56FF" stroke-width="3" stroke-linecap="square" stroke-linejoin="round"></path><path d="M10.7661 27.4614H17.0161" stroke="#2E56FF" stroke-width="3" stroke-linecap="square" stroke-linejoin="round"></path></svg> 