<?xml version="1.0" encoding="UTF-8"?> <svg xmlns="http://www.w3.org/2000/svg" width="55" height="55" viewBox="0 0 55 55" fill="none"><path d="M48.2661 21.2146V8.7146C48.2661 7.8858 47.9369 7.09094 47.3508 6.50489C46.7648 5.91884 45.9699 5.5896 45.1411 5.5896H7.64111C6.81231 5.5896 6.01746 5.91884 5.4314 6.50489C4.84535 7.09094 4.51611 7.8858 4.51611 8.7146V43.0896C4.51611 43.9184 4.84535 44.7133 5.4314 45.2993C6.01746 45.8854 6.81231 46.2146 7.64111 46.2146H23.2661" stroke="#2E56FF" stroke-width="3" stroke-linecap="square" stroke-linejoin="round"></path><path d="M4.51611 14.9646H48.2661" stroke="#2E56FF" stroke-width="3" stroke-linecap="round" stroke-linejoin="round"></path><path d="M40.4536 36.8396C43.4739 36.8396 45.9224 34.3912 45.9224 31.3708C45.9224 28.3505 43.4739 25.9021 40.4536 25.9021C37.4333 25.9021 34.9849 28.3505 34.9849 31.3708C34.9849 34.3912 37.4333 36.8396 40.4536 36.8396Z" stroke="#2E56FF" stroke-width="3" stroke-linecap="round" stroke-linejoin="round"></path><path d="M29.5161 49.3334C29.5167 46.4327 30.6692 43.6511 32.7202 41.6C34.7713 39.5489 37.553 38.3964 40.4536 38.3959C41.8899 38.3959 43.3122 38.6788 44.6392 39.2284C45.9662 39.7781 47.172 40.5838 48.1876 41.5994C49.2032 42.615 50.0089 43.8208 50.5585 45.1478C51.1082 46.4748 51.3911 47.897 51.3911 49.3334" stroke="#2E56FF" stroke-width="3" stroke-linecap="square" stroke-linejoin="round"></path><path d="M10.7661 24.3396H10.8642" stroke="#2E56FF" stroke-width="3" stroke-linecap="round" stroke-linejoin="round"></path><path d="M10.7661 30.5896H10.8642" stroke="#2E56FF" stroke-width="3" stroke-linecap="round" stroke-linejoin="round"></path><path d="M10.7661 36.8396H10.8642" stroke="#2E56FF" stroke-width="3" stroke-linecap="round" stroke-linejoin="round"></path><path d="M17.1411 24.3396H28.0786" stroke="#2E56FF" stroke-width="3" stroke-linecap="square" stroke-linejoin="round"></path><path d="M17.1411 30.5896H26.5161" stroke="#2E56FF" stroke-width="3" stroke-linecap="square" stroke-linejoin="round"></path><path d="M17.1411 36.8396H24.9536" stroke="#2E56FF" stroke-width="3" stroke-linecap="square" stroke-linejoin="round"></path></svg> 