<?xml version="1.0" encoding="UTF-8"?> <svg xmlns="http://www.w3.org/2000/svg" width="54" height="55" viewBox="0 0 54 55" fill="none"><path d="M47.3125 10.2739H6.6875C4.96161 10.2739 3.5625 11.673 3.5625 13.3989V47.7739C3.5625 49.4998 4.96161 50.8989 6.6875 50.8989H47.3125C49.0384 50.8989 50.4375 49.4998 50.4375 47.7739V13.3989C50.4375 11.673 49.0384 10.2739 47.3125 10.2739Z" stroke="#2E56FF" stroke-width="3" stroke-linecap="square" stroke-linejoin="round"></path><path d="M3.5625 22.7739H50.4375" stroke="#2E56FF" stroke-width="3" stroke-linecap="square" stroke-linejoin="round"></path><path d="M16.0625 14.9614V4.02393" stroke="#2E56FF" stroke-width="3" stroke-linecap="square" stroke-linejoin="round"></path><path d="M37.9375 14.9614V4.02393" stroke="#2E56FF" stroke-width="3" stroke-linecap="square" stroke-linejoin="round"></path><path d="M25.6333 35.2739H20.75V29.0239" stroke="#2E56FF" stroke-width="3" stroke-linecap="square" stroke-linejoin="round"></path><path d="M22.4563 41.7093C23.2807 42.7425 24.3538 43.5496 25.5751 44.0551C26.7964 44.5605 28.126 44.7479 29.4394 44.5996C30.7528 44.4513 32.0072 43.9721 33.085 43.207C34.1628 42.4419 35.0289 41.4159 35.6022 40.2249C36.1755 39.0339 36.4373 37.717 36.363 36.3973C36.2887 35.0776 35.8807 33.7983 35.1774 32.6792C34.4741 31.5601 33.4983 30.6378 32.3414 29.9985C31.1845 29.3592 29.8843 29.0239 28.5625 29.0239C26.7948 29.1067 25.1017 29.7606 23.7373 30.8876C22.682 31.7592 21.8675 32.8775 21.3605 34.1354" stroke="#2E56FF" stroke-width="3" stroke-linecap="square" stroke-linejoin="round"></path></svg> 