<?xml version="1.0" encoding="UTF-8"?> <svg xmlns="http://www.w3.org/2000/svg" width="54" height="55" viewBox="0 0 54 55" fill="none"><path d="M28.548 50.8948L22.7876 44.4177C22.216 43.7745 21.9233 42.9307 21.9739 42.0717C22.0245 41.2128 22.4142 40.4091 23.0574 39.8375C23.7005 39.2659 24.5444 38.9732 25.4033 39.0238C26.2623 39.0744 27.066 39.4641 27.6376 40.1073L31.673 44.6448V25.8948C31.673 25.066 32.0022 24.2711 32.5883 23.6851C33.1743 23.099 33.9692 22.7698 34.798 22.7698C35.6268 22.7698 36.4216 23.099 37.0077 23.6851C37.5938 24.2711 37.923 25.066 37.923 25.8948V39.9614H41.048C43.5344 39.9614 45.919 40.9492 47.6771 42.7073C49.4353 44.4655 50.423 46.85 50.423 49.3364V50.8989" stroke="#2E56FF" stroke-width="3" stroke-linecap="square" stroke-linejoin="round"></path><path d="M7.45008 50.674C6.39363 48.9312 5.54347 47.0715 4.91675 45.1323" stroke="#2E56FF" stroke-width="3" stroke-linecap="square" stroke-linejoin="round"></path><path d="M3.70621 39.4699C3.49854 37.4418 3.5223 35.3967 3.77704 33.374" stroke="#2E56FF" stroke-width="3" stroke-linecap="square" stroke-linejoin="round"></path><path d="M5.16455 27.7489C5.86256 25.8331 6.78347 24.0059 7.9083 22.3052" stroke="#2E56FF" stroke-width="3" stroke-linecap="square" stroke-linejoin="round"></path><path d="M11.5833 17.8218C13.0399 16.3984 14.657 15.1491 16.402 14.0989" stroke="#2E56FF" stroke-width="3" stroke-linecap="square" stroke-linejoin="round"></path><path d="M21.6646 11.6822C22.624 11.3382 23.609 11.07 24.6104 10.8801" stroke="#2E56FF" stroke-width="3" stroke-linecap="square" stroke-linejoin="round"></path><path d="M31.6729 4.01978L41.0479 13.3948" stroke="#2E56FF" stroke-width="3" stroke-linecap="square" stroke-linejoin="round"></path><path d="M41.0479 4.01978L31.6729 13.3948" stroke="#2E56FF" stroke-width="3" stroke-linecap="square" stroke-linejoin="round"></path></svg> 