<?xml version="1.0" encoding="UTF-8"?> <svg xmlns="http://www.w3.org/2000/svg" width="54" height="55" viewBox="0 0 54 55" fill="none"><path d="M25.4776 38.3989H8.25C7.4212 38.3989 6.62634 38.0697 6.04029 37.4836C5.45424 36.8976 5.125 36.1027 5.125 35.2739V10.2739C5.125 9.44512 5.45424 8.65027 6.04029 8.06422C6.62634 7.47817 7.4212 7.14893 8.25 7.14893H36.375C37.2038 7.14893 37.9987 7.47817 38.5847 8.06422C39.1708 8.65027 39.5 9.44512 39.5 10.2739V23.6352" stroke="#2E56FF" stroke-width="3" stroke-linecap="square" stroke-linejoin="round"></path><path d="M5.125 16.5239H39.5" stroke="#2E56FF" stroke-width="3" stroke-linecap="square" stroke-linejoin="round"></path><path d="M14.5 10.2739V4.02393" stroke="#2E56FF" stroke-width="3" stroke-linecap="square" stroke-linejoin="round"></path><path d="M30.125 10.2739V4.02393" stroke="#2E56FF" stroke-width="3" stroke-linecap="square" stroke-linejoin="round"></path><path d="M43.9665 42.902L41.8729 44.9956C39.9695 46.8992 37.8633 48.5885 35.592 50.0334H35.58C34.518 50.7093 33.2573 51.0029 32.006 50.8657C30.7546 50.7286 29.5875 50.1688 28.6972 49.2789L27.9221 48.5039C27.5765 48.1579 27.3823 47.6889 27.3823 47.1999C27.3823 46.7108 27.5765 46.2418 27.9221 45.8958L31.18 42.6379C31.526 42.2923 31.995 42.0981 32.4841 42.0981C32.9731 42.0981 33.4421 42.2923 33.7881 42.6379V42.6379C34.1344 42.9837 34.6037 43.1779 35.093 43.1779C35.5823 43.1779 36.0516 42.9837 36.3979 42.6379L41.614 37.4218C41.7856 37.2506 41.9217 37.0472 42.0146 36.8233C42.1075 36.5994 42.1553 36.3593 42.1553 36.1169C42.1553 35.8745 42.1075 35.6345 42.0146 35.4105C41.9217 35.1866 41.7856 34.9832 41.614 34.812V34.812C41.2683 34.4661 41.0742 33.997 41.0742 33.508C41.0742 33.019 41.2683 32.5499 41.614 32.204L44.8719 28.946C45.2179 28.6004 45.6869 28.4063 46.1759 28.4062C46.665 28.4062 47.134 28.6004 47.48 28.946L48.255 29.7211C49.1452 30.6113 49.7051 31.7784 49.8423 33.0298C49.9795 34.2813 49.6857 35.542 49.0095 36.6039V36.6176C47.5627 38.8901 45.8717 40.9974 43.9665 42.902V42.902Z" stroke="#2E56FF" stroke-width="3" stroke-linecap="square" stroke-linejoin="round"></path><path d="M23.4937 23.9841L33.6245 34.1149" stroke="#2E56FF" stroke-width="3" stroke-linecap="square" stroke-linejoin="round"></path><path d="M29.3905 23.1067H22.6162V29.881" stroke="#2E56FF" stroke-width="3" stroke-linecap="square" stroke-linejoin="round"></path></svg> 