<?xml version="1.0" encoding="UTF-8"?> <svg xmlns="http://www.w3.org/2000/svg" width="54" height="55" viewBox="0 0 54 55" fill="none"><path d="M19.3167 38.3989H6.6875C5.8587 38.3989 5.06384 38.0697 4.47779 37.4836C3.89174 36.8976 3.5625 36.1027 3.5625 35.2739V10.2739C3.5625 9.44512 3.89174 8.65027 4.47779 8.06422C5.06384 7.47817 5.8587 7.14893 6.6875 7.14893H34.8125C35.6413 7.14893 36.4362 7.47817 37.0222 8.06422C37.6083 8.65027 37.9375 9.44512 37.9375 10.2739V16.5239" stroke="#2E56FF" stroke-width="3" stroke-linecap="square" stroke-linejoin="round"></path><path d="M3.5625 16.5239H37.9375" stroke="#2E56FF" stroke-width="3" stroke-linecap="square" stroke-linejoin="round"></path><path d="M12.9375 10.2739V4.02393" stroke="#2E56FF" stroke-width="3" stroke-linecap="square" stroke-linejoin="round"></path><path d="M28.5625 10.2739V4.02393" stroke="#2E56FF" stroke-width="3" stroke-linecap="square" stroke-linejoin="round"></path><path d="M37.9375 39.9614C39.6634 39.9614 41.0625 38.5623 41.0625 36.8364C41.0625 35.1105 39.6634 33.7114 37.9375 33.7114C36.2116 33.7114 34.8125 35.1105 34.8125 36.8364C34.8125 38.5623 36.2116 39.9614 37.9375 39.9614Z" stroke="#2E56FF" stroke-width="3" stroke-linecap="square" stroke-linejoin="round"></path><path d="M40.5916 24.7532L41.5124 27.7782C41.6639 28.2809 42.001 28.7072 42.4551 28.9706C42.9093 29.2341 43.4466 29.315 43.9583 29.197L47.0249 28.4865C47.6062 28.3555 48.2141 28.4141 48.7596 28.6536C49.3052 28.8932 49.7597 29.3011 50.0567 29.8176C50.3536 30.3342 50.4774 30.9323 50.4098 31.5242C50.3422 32.1162 50.0869 32.671 49.6812 33.1074L47.5333 35.422C47.1748 35.8074 46.9755 36.3143 46.9755 36.8407C46.9755 37.3671 47.1748 37.874 47.5333 38.2595L49.6812 40.574C50.0878 41.0103 50.3439 41.5653 50.412 42.1577C50.4801 42.7502 50.3565 43.3489 50.0594 43.8659C49.7623 44.383 49.3073 44.7913 48.7612 45.0308C48.2151 45.2704 47.6066 45.3286 47.0249 45.197L43.9583 44.4845C43.4469 44.37 42.9111 44.4524 42.4578 44.7154C42.0045 44.9783 41.6669 45.4024 41.5124 45.9032L40.5916 48.9199C40.4205 49.4908 40.0698 49.9913 39.5917 50.3471C39.1135 50.703 38.5334 50.8951 37.9374 50.8951C37.3414 50.8951 36.7613 50.703 36.2832 50.3471C35.805 49.9913 35.4544 49.4908 35.2833 48.9199L34.3624 45.8928C34.2079 45.392 33.8703 44.9679 33.417 44.705C32.9637 44.442 32.428 44.3596 31.9166 44.474L28.8499 45.1865C28.2683 45.3182 27.6598 45.2599 27.1136 45.0204C26.5675 44.7809 26.1125 44.3726 25.8154 43.8555C25.5183 43.3385 25.3947 42.7398 25.4628 42.1473C25.5309 41.5549 25.787 40.9998 26.1937 40.5636L28.3416 38.249C28.7001 37.8636 28.8993 37.3567 28.8993 36.8303C28.8993 36.3039 28.7001 35.797 28.3416 35.4115L26.1937 33.097C25.788 32.6606 25.5326 32.1058 25.465 31.5138C25.3975 30.9218 25.5212 30.3238 25.8182 29.8072C26.1151 29.2907 26.5696 28.8827 27.1152 28.6432C27.6607 28.4037 28.2687 28.3451 28.8499 28.4761L31.9166 29.1865C32.4282 29.3046 32.9655 29.2237 33.4197 28.9602C33.8739 28.6968 34.2109 28.2705 34.3624 27.7678L35.2833 24.7428C35.4555 24.1722 35.8071 23.6724 36.286 23.3175C36.7648 22.9626 37.3453 22.7715 37.9413 22.7727C38.5373 22.7739 39.1171 22.9672 39.5945 23.324C40.0719 23.6807 40.4216 24.182 40.5916 24.7532V24.7532Z" stroke="#2E56FF" stroke-width="3" stroke-linecap="square" stroke-linejoin="round"></path></svg> 