<?xml version="1.0" encoding="UTF-8"?> <svg xmlns="http://www.w3.org/2000/svg" width="55" height="55" viewBox="0 0 55 55" fill="none"><path d="M4.52087 39.401C4.52246 37.0762 5.10013 34.788 6.20224 32.741C7.30436 30.6941 8.89656 28.9521 10.8365 27.6709C12.7764 26.3898 15.0036 25.6093 17.3189 25.3993C19.6342 25.1893 21.9654 25.5564 24.1042 26.4676" stroke="#2E56FF" stroke-width="3" stroke-linecap="square" stroke-linejoin="round"></path><path d="M18.5834 21.2134C23.3296 21.2134 27.1771 17.3658 27.1771 12.6196C27.1771 7.87343 23.3296 4.02588 18.5834 4.02588C13.8372 4.02588 9.98962 7.87343 9.98962 12.6196C9.98962 17.3658 13.8372 21.2134 18.5834 21.2134Z" stroke="#2E56FF" stroke-width="3" stroke-linecap="round" stroke-linejoin="round"></path><path d="M39.5539 40.5394C41.1888 40.5394 42.5142 39.214 42.5142 37.579C42.5142 35.9441 41.1888 34.6187 39.5539 34.6187C37.9189 34.6187 36.5935 35.9441 36.5935 37.579C36.5935 39.214 37.9189 40.5394 39.5539 40.5394Z" stroke="#2E56FF" stroke-width="3" stroke-linecap="round" stroke-linejoin="round"></path><path d="M42.0684 26.1323L42.9407 28.9999C43.0847 29.4759 43.404 29.8794 43.8341 30.1289C44.2642 30.3784 44.7731 30.4552 45.2577 30.3439L48.1628 29.6709C48.7134 29.5468 49.2893 29.6023 49.8061 29.8292C50.323 30.0561 50.7536 30.4425 51.0349 30.9319C51.3162 31.4212 51.4334 31.9878 51.3694 32.5486C51.3054 33.1094 51.0635 33.6349 50.6791 34.0483L48.6444 36.241C48.3048 36.6061 48.116 37.0863 48.116 37.585C48.116 38.0836 48.3048 38.5638 48.6444 38.929L50.6791 41.1216C51.0635 41.535 51.3054 42.0606 51.3694 42.6214C51.4334 43.1822 51.3162 43.7487 51.0349 44.2381C50.7536 44.7274 50.323 45.1138 49.8061 45.3407C49.2893 45.5677 48.7134 45.6231 48.1628 45.499L45.2577 44.826C44.7731 44.7147 44.2642 44.7916 43.8341 45.0411C43.404 45.2906 43.0847 45.6941 42.9407 46.17L42.0684 49.0258C41.9063 49.5667 41.5741 50.0408 41.1212 50.3779C40.6682 50.715 40.1187 50.897 39.554 50.897C38.9894 50.897 38.4399 50.715 37.9869 50.3779C37.534 50.0408 37.2018 49.5667 37.0397 49.0258L36.1674 46.1582C36.0234 45.6822 35.7041 45.2787 35.274 45.0292C34.8439 44.7797 34.335 44.7029 33.8504 44.8142L30.9453 45.4872C30.3947 45.6113 29.8188 45.5558 29.3019 45.3289C28.7851 45.102 28.3545 44.7156 28.0732 44.2262C27.7919 43.7369 27.6747 43.1703 27.7387 42.6095C27.8027 42.0487 28.0446 41.5232 28.429 41.1098L30.4637 38.9171C30.8033 38.552 30.9921 38.0718 30.9921 37.5731C30.9921 37.0745 30.8033 36.5943 30.4637 36.2291L28.429 34.0365C28.0446 33.6231 27.8027 33.0975 27.7387 32.5367C27.6747 31.9759 27.7919 31.4094 28.0732 30.92C28.3545 30.4307 28.7851 30.0443 29.3019 29.8174C29.8188 29.5904 30.3947 29.535 30.9453 29.6591L33.8504 30.3321C34.335 30.4434 34.8439 30.3666 35.274 30.117C35.7041 29.8675 36.0234 29.464 36.1674 28.9881L37.0397 26.1204C37.2031 25.58 37.5364 25.1066 37.9901 24.7706C38.4439 24.4346 38.9938 24.2538 39.5585 24.2551C40.1231 24.2565 40.6722 24.4398 41.1243 24.778C41.5765 25.1161 41.9076 25.5911 42.0684 26.1323Z" stroke="#2E56FF" stroke-width="3" stroke-linecap="round" stroke-linejoin="round"></path></svg> 