<?xml version="1.0" encoding="UTF-8"?> <svg xmlns="http://www.w3.org/2000/svg" width="54" height="55" viewBox="0 0 54 55" fill="none"><path d="M3.5625 32.1489V50.8989" stroke="#2E56FF" stroke-width="3" stroke-linecap="square" stroke-linejoin="round"></path><path d="M3.5625 47.7739H34.8125C34.8125 46.1163 34.154 44.5266 32.9819 43.3545C31.8098 42.1824 30.2201 41.5239 28.5625 41.5239H20.75C20.75 39.8663 20.0915 38.2766 18.9194 37.1045C17.7473 35.9324 16.1576 35.2739 14.5 35.2739H3.5625" stroke="#2E56FF" stroke-width="3" stroke-linecap="square" stroke-linejoin="round"></path><path d="M14.5 41.5239H20.75" stroke="#2E56FF" stroke-width="3" stroke-linecap="square" stroke-linejoin="round"></path><path d="M39.1438 34.4426C39.5948 35.036 40.1824 35.5118 40.8567 35.8295C41.5309 36.1472 42.2719 36.2975 43.0167 36.2676C45.3875 36.2676 47.3125 34.8238 47.3125 33.0426C47.3125 31.2613 45.3875 29.8217 43.0167 29.8217C40.6458 29.8217 38.7188 28.378 38.7188 26.5967C38.7188 24.8155 40.6437 23.3738 43.0167 23.3738C43.7606 23.344 44.5008 23.4941 45.1743 23.8115C45.8478 24.1289 46.4348 24.6041 46.8854 25.1967" stroke="#2E56FF" stroke-width="3" stroke-linecap="square" stroke-linejoin="round"></path><path d="M43.0166 36.2676V38.4134" stroke="#2E56FF" stroke-width="3" stroke-linecap="square" stroke-linejoin="round"></path><path d="M43.0166 21.2261V23.374" stroke="#2E56FF" stroke-width="3" stroke-linecap="square" stroke-linejoin="round"></path><path d="M33.2499 30.6011H25.1249C24.7496 30.5954 24.3791 30.5158 24.0346 30.3668C23.6901 30.2178 23.3784 30.0024 23.1172 29.7329C22.856 29.4634 22.6505 29.145 22.5124 28.796C22.3743 28.4471 22.3063 28.0743 22.3124 27.699V13.1907C22.3007 12.4329 22.5904 11.7015 23.1178 11.1573C23.6452 10.6131 24.3671 10.3006 25.1249 10.2886H47.6249C48.3826 10.3006 49.1046 10.6131 49.632 11.1573C50.1594 11.7015 50.4491 12.4329 50.4374 13.1907V21.2261" stroke="#2E56FF" stroke-width="3" stroke-linecap="square" stroke-linejoin="round"></path><path d="M31.6875 10.2885V8.14059C31.7704 6.97703 32.3094 5.89327 33.1872 5.12507C34.0651 4.35686 35.2107 3.96636 36.375 4.03851V4.03851C37.5393 3.96636 38.6849 4.35686 39.5628 5.12507C40.4406 5.89327 40.9796 6.97703 41.0625 8.14059V10.2885" stroke="#2E56FF" stroke-width="3" stroke-linecap="square" stroke-linejoin="round"></path></svg> 