<?xml version="1.0" encoding="UTF-8"?> <svg xmlns="http://www.w3.org/2000/svg" width="54" height="55" viewBox="0 0 54 55" fill="none"><path d="M19.1792 43.0864L27.45 34.8156C27.5951 34.6704 27.7674 34.5552 27.9571 34.4766C28.1467 34.398 28.35 34.3576 28.5552 34.3576C28.7605 34.3576 28.9638 34.398 29.1534 34.4766C29.3431 34.5552 29.5153 34.6704 29.6604 34.8156L33.7 38.8552C33.8451 39.0004 34.0174 39.1156 34.2071 39.1941C34.3967 39.2727 34.6 39.3132 34.8052 39.3132C35.0105 39.3132 35.2138 39.2727 35.4034 39.1941C35.593 39.1156 35.7653 39.0004 35.9104 38.8552L44.1792 30.5864" stroke="#2E56FF" stroke-width="3" stroke-linecap="square" stroke-linejoin="round"></path><path d="M47.3042 4.02393H6.6792C4.95331 4.02393 3.5542 5.42304 3.5542 7.14893V47.7739C3.5542 49.4998 4.95331 50.8989 6.6792 50.8989H47.3042C49.0301 50.8989 50.4292 49.4998 50.4292 47.7739V7.14893C50.4292 5.42304 49.0301 4.02393 47.3042 4.02393Z" stroke="#2E56FF" stroke-width="3" stroke-linecap="square" stroke-linejoin="round"></path><path d="M19.1792 29.0239C24.3569 29.0239 28.5542 24.8266 28.5542 19.6489C28.5542 14.4713 24.3569 10.2739 19.1792 10.2739C14.0015 10.2739 9.8042 14.4713 9.8042 19.6489C9.8042 24.8266 14.0015 29.0239 19.1792 29.0239Z" stroke="#2E56FF" stroke-width="3" stroke-linecap="square" stroke-linejoin="round"></path><path d="M19.1792 10.8975V19.5418L25.55 25.6543" stroke="#2E56FF" stroke-width="3" stroke-linecap="square" stroke-linejoin="round"></path><path d="M36.3667 13.3989H42.6167" stroke="#2E56FF" stroke-width="3" stroke-linecap="square" stroke-linejoin="round"></path><path d="M36.3667 19.6489H42.6167" stroke="#2E56FF" stroke-width="3" stroke-linecap="square" stroke-linejoin="round"></path></svg> 