<?xml version="1.0" encoding="UTF-8"?> <svg xmlns="http://www.w3.org/2000/svg" width="54" height="55" viewBox="0 0 54 55" fill="none"><path d="M41.227 29.7405C41.6785 30.3332 42.2663 30.8084 42.9404 31.1257C43.6146 31.4431 44.3554 31.5932 45.0999 31.5634C47.4708 31.5634 49.3958 30.1196 49.3958 28.3405C49.3958 26.5613 47.4708 25.1176 45.0999 25.1176C42.7291 25.1176 40.802 23.6738 40.802 21.8926C40.802 20.1113 42.727 18.6696 45.0999 18.6696C45.8438 18.6402 46.5839 18.7905 47.2573 19.1078C47.9308 19.4251 48.5178 19.9001 48.9687 20.4926" stroke="#2E56FF" stroke-width="3" stroke-linecap="square" stroke-linejoin="round"></path><path d="M45.1001 31.5635V33.7114" stroke="#2E56FF" stroke-width="3" stroke-linecap="square" stroke-linejoin="round"></path><path d="M45.1001 16.5239V18.6698" stroke="#2E56FF" stroke-width="3" stroke-linecap="square" stroke-linejoin="round"></path><path d="M4.60425 41.5239H32.7292V44.6489C32.7292 46.3065 32.0708 47.8962 30.8987 49.0683C29.7266 50.2404 28.1369 50.8989 26.4792 50.8989H10.8542C9.19664 50.8989 7.60693 50.2404 6.43483 49.0683C5.26273 47.8962 4.60425 46.3065 4.60425 44.6489V10.2739C4.60425 8.61632 5.26273 7.02661 6.43483 5.85451C7.60693 4.68241 9.19664 4.02393 10.8542 4.02393H26.4792C28.1369 4.02393 29.7266 4.68241 30.8987 5.85451C32.0708 7.02661 32.7292 8.61632 32.7292 10.2739V13.3989" stroke="#2E56FF" stroke-width="3" stroke-linecap="square" stroke-linejoin="round"></path><path d="M26.4792 19.6489H32.7292" stroke="#2E56FF" stroke-width="3" stroke-linecap="square" stroke-linejoin="round"></path><path d="M26.4792 32.1489H32.7292" stroke="#2E56FF" stroke-width="3" stroke-linecap="square" stroke-linejoin="round"></path><path d="M21.7917 25.8989H35.8542" stroke="#2E56FF" stroke-width="3" stroke-linecap="square" stroke-linejoin="round"></path><path d="M17.1042 25.8989H15.5417" stroke="#2E56FF" stroke-width="3" stroke-linecap="square" stroke-linejoin="round"></path><path d="M21.7917 19.6489H20.2292" stroke="#2E56FF" stroke-width="3" stroke-linecap="square" stroke-linejoin="round"></path><path d="M21.7917 32.1489H20.2292" stroke="#2E56FF" stroke-width="3" stroke-linecap="square" stroke-linejoin="round"></path></svg> 