<?xml version="1.0" encoding="UTF-8"?> <svg xmlns="http://www.w3.org/2000/svg" width="54" height="55" viewBox="0 0 54 55" fill="none"><path d="M37.9375 39.9614C39.6634 39.9614 41.0625 38.5623 41.0625 36.8364C41.0625 35.1105 39.6634 33.7114 37.9375 33.7114C36.2116 33.7114 34.8125 35.1105 34.8125 36.8364C34.8125 38.5623 36.2116 39.9614 37.9375 39.9614Z" stroke="#2E56FF" stroke-width="3" stroke-linecap="square" stroke-linejoin="round"></path><path d="M40.5916 24.753L41.5124 27.778C41.6639 28.2807 42.001 28.707 42.4551 28.9704C42.9093 29.2339 43.4466 29.3148 43.9583 29.1967L47.0249 28.4863C47.6062 28.3553 48.2141 28.4139 48.7596 28.6534C49.3052 28.8929 49.7597 29.3008 50.0567 29.8174C50.3536 30.3339 50.4774 30.932 50.4098 31.524C50.3422 32.116 50.0869 32.6708 49.6812 33.1071L47.5333 35.4217C47.1748 35.8072 46.9755 36.3141 46.9755 36.8405C46.9755 37.3669 47.1748 37.8737 47.5333 38.2592L49.6812 40.5738C50.0878 41.01 50.3439 41.565 50.412 42.1575C50.4801 42.75 50.3565 43.3486 50.0594 43.8657C49.7623 44.3828 49.3073 44.791 48.7612 45.0306C48.2151 45.2701 47.6066 45.3283 47.0249 45.1967L43.9583 44.4842C43.4469 44.3697 42.9111 44.4522 42.4578 44.7151C42.0045 44.9781 41.6669 45.4022 41.5124 45.903L40.5916 48.9196C40.4205 49.4905 40.0698 49.9911 39.5917 50.3469C39.1135 50.7027 38.5334 50.8949 37.9374 50.8949C37.3414 50.8949 36.7613 50.7027 36.2832 50.3469C35.805 49.9911 35.4544 49.4905 35.2833 48.9196L34.3624 45.8925C34.2079 45.3918 33.8703 44.9677 33.417 44.7047C32.9637 44.4418 32.428 44.3593 31.9166 44.4738L28.8499 45.1863C28.2683 45.3179 27.6598 45.2597 27.1136 45.0202C26.5675 44.7806 26.1125 44.3724 25.8154 43.8553C25.5183 43.3382 25.3947 42.7395 25.4628 42.1471C25.5309 41.5546 25.787 40.9996 26.1937 40.5634L28.3416 38.2488C28.7001 37.8633 28.8993 37.3564 28.8993 36.83C28.8993 36.3036 28.7001 35.7968 28.3416 35.4113L26.1937 33.0967C25.788 32.6604 25.5326 32.1056 25.465 31.5136C25.3975 30.9216 25.5212 30.3235 25.8182 29.807C26.1151 29.2904 26.5696 28.8825 27.1152 28.643C27.6607 28.4034 28.2687 28.3449 28.8499 28.4759L31.9166 29.1863C32.4282 29.3043 32.9655 29.2234 33.4197 28.96C33.8739 28.6965 34.2109 28.2703 34.3624 27.7675L35.2833 24.7425C35.4555 24.172 35.8071 23.6721 36.286 23.3172C36.7648 22.9623 37.3453 22.7713 37.9413 22.7725C38.5373 22.7736 39.1171 22.967 39.5945 23.3237C40.0719 23.6805 40.4216 24.1817 40.5916 24.753V24.753Z" stroke="#2E56FF" stroke-width="3" stroke-linecap="square" stroke-linejoin="round"></path><path d="M19.1875 44.6489H9.8125C8.1549 44.6489 6.56518 43.9904 5.39308 42.8183C4.22098 41.6462 3.5625 40.0565 3.5625 38.3989V10.2739C3.5625 8.61632 4.22098 7.02661 5.39308 5.85451C6.56518 4.68241 8.1549 4.02393 9.8125 4.02393H37.9375C39.5951 4.02393 41.1848 4.68241 42.3569 5.85451C43.529 7.02661 44.1875 8.61632 44.1875 10.2739V19.6489" stroke="#2E56FF" stroke-width="3" stroke-linecap="square" stroke-linejoin="round"></path><path d="M3.5625 38.3989H19.1875" stroke="#2E56FF" stroke-width="3" stroke-linecap="square" stroke-linejoin="round"></path><path d="M31.6875 4.02393V10.2739C31.6875 11.1027 31.3583 11.8976 30.7722 12.4836C30.1862 13.0697 29.3913 13.3989 28.5625 13.3989H19.1875" stroke="#2E56FF" stroke-width="3" stroke-linecap="square" stroke-linejoin="round"></path><path d="M19.1875 13.3989V19.6489L16.0625 22.7739L12.9375 19.6489V13.3989H19.1875Z" stroke="#2E56FF" stroke-width="3" stroke-linecap="square" stroke-linejoin="round"></path><path d="M37.9375 13.3989H44.1875" stroke="#2E56FF" stroke-width="3" stroke-linecap="square" stroke-linejoin="round"></path><path d="M3.5625 13.3989H6.6875" stroke="#2E56FF" stroke-width="3" stroke-linecap="square" stroke-linejoin="round"></path></svg> 