<?xml version="1.0" encoding="UTF-8"?> <svg xmlns="http://www.w3.org/2000/svg" width="55" height="55" viewBox="0 0 55 55" fill="none"><path d="M22.2036 29.0239H8.14111C7.31231 29.0239 6.51746 28.6947 5.9314 28.1086C5.34535 27.5226 5.01611 26.7277 5.01611 25.8989V7.14893C5.01611 6.32012 5.34535 5.52527 5.9314 4.93922C6.51746 4.35317 7.31231 4.02393 8.14111 4.02393H46.6411C47.4699 4.02393 48.2648 4.35317 48.8508 4.93922C49.4369 5.52527 49.7661 6.32012 49.7661 7.14893V25.8989C49.7661 26.7277 49.4369 27.5226 48.8508 28.1086C48.2648 28.6947 47.4699 29.0239 46.6411 29.0239" stroke="#2E56FF" stroke-width="3" stroke-linecap="square" stroke-linejoin="round"></path><path d="M29.7452 30.5052L35.7869 49.801C35.8653 50.0508 36.0052 50.2769 36.1937 50.4586C36.3822 50.6403 36.6133 50.7718 36.8658 50.8411C37.1183 50.9103 37.3842 50.9151 37.639 50.8549C37.8938 50.7948 38.1295 50.6717 38.3244 50.4968L41.5161 41.5239L50.3744 39.6489C50.5662 39.4762 50.7121 39.2586 50.7993 39.0157C50.8865 38.7728 50.9122 38.5121 50.874 38.2568C50.8358 38.0016 50.735 37.7598 50.5806 37.553C50.4261 37.3462 50.2229 37.1809 49.989 37.0718L31.8994 28.6281C31.6253 28.5 31.3198 28.4543 31.0202 28.4965C30.7206 28.5386 30.4397 28.6669 30.2115 28.8657C29.9834 29.0645 29.8179 29.3252 29.7351 29.6162C29.6524 29.9073 29.6559 30.2161 29.7452 30.5052V30.5052Z" stroke="#2E56FF" stroke-width="3" stroke-linecap="round" stroke-linejoin="round"></path><path d="M14.3911 15.7427C14.5456 15.7427 14.6967 15.7885 14.8252 15.8743C14.9536 15.9602 15.0538 16.0822 15.1129 16.225C15.172 16.3677 15.1875 16.5248 15.1574 16.6763C15.1272 16.8279 15.0528 16.9671 14.9435 17.0764C14.8343 17.1856 14.6951 17.26 14.5435 17.2902C14.392 17.3203 14.2349 17.3048 14.0921 17.2457C13.9494 17.1866 13.8274 17.0864 13.7415 16.958C13.6557 16.8295 13.6099 16.6784 13.6099 16.5239C13.6096 16.4213 13.6296 16.3195 13.6688 16.2246C13.7079 16.1297 13.7655 16.0435 13.8381 15.9709C13.9107 15.8983 13.9969 15.8408 14.0918 15.8016C14.1867 15.7624 14.2884 15.7424 14.3911 15.7427" stroke="#2E56FF" stroke-width="3" stroke-linecap="round" stroke-linejoin="round"></path><path d="M26.8911 15.7427C27.0456 15.7427 27.1967 15.7885 27.3252 15.8743C27.4536 15.9602 27.5538 16.0822 27.6129 16.225C27.672 16.3677 27.6875 16.5248 27.6574 16.6763C27.6272 16.8279 27.5528 16.9671 27.4435 17.0764C27.3343 17.1856 27.1951 17.26 27.0435 17.2902C26.892 17.3203 26.7349 17.3048 26.5921 17.2457C26.4494 17.1866 26.3274 17.0864 26.2415 16.958C26.1557 16.8295 26.1099 16.6784 26.1099 16.5239C26.1096 16.4213 26.1296 16.3195 26.1688 16.2246C26.2079 16.1297 26.2655 16.0435 26.3381 15.9709C26.4107 15.8983 26.4969 15.8408 26.5918 15.8016C26.6867 15.7624 26.7884 15.7424 26.8911 15.7427" stroke="#2E56FF" stroke-width="3" stroke-linecap="round" stroke-linejoin="round"></path><path d="M39.3911 15.7427C39.5456 15.7427 39.6967 15.7885 39.8252 15.8743C39.9536 15.9602 40.0538 16.0822 40.1129 16.225C40.172 16.3677 40.1875 16.5248 40.1574 16.6763C40.1272 16.8279 40.0528 16.9671 39.9435 17.0764C39.8343 17.1856 39.6951 17.26 39.5435 17.2902C39.392 17.3203 39.2349 17.3048 39.0921 17.2457C38.9494 17.1866 38.8274 17.0864 38.7415 16.958C38.6557 16.8295 38.6099 16.6784 38.6099 16.5239C38.6096 16.4213 38.6296 16.3195 38.6688 16.2246C38.7079 16.1297 38.7655 16.0435 38.8381 15.9709C38.9107 15.8983 38.9969 15.8408 39.0918 15.8016C39.1867 15.7624 39.2884 15.7424 39.3911 15.7427" stroke="#2E56FF" stroke-width="3" stroke-linecap="round" stroke-linejoin="round"></path></svg> 