<?xml version="1.0" encoding="UTF-8"?> <svg xmlns="http://www.w3.org/2000/svg" width="54" height="55" viewBox="0 0 54 55" fill="none"><path d="M23.0937 44.6489H5.90625" stroke="#2E56FF" stroke-width="3" stroke-linecap="square" stroke-linejoin="round"></path><path d="M5.90625 29.024H13.7188C14.4276 28.9434 15.0807 28.6009 15.55 28.0636L23.9875 19.7532L31.9646 21.349C32.2314 21.4018 32.4846 21.5083 32.709 21.6621C32.9333 21.8158 33.1241 22.0136 33.2696 22.2433C33.4152 22.473 33.5125 22.73 33.5557 22.9985C33.5989 23.267 33.587 23.5415 33.5208 23.8053L33.3542 24.4678C33.2576 24.8557 33.0474 25.2059 32.7504 25.4736C32.4535 25.7412 32.0833 25.914 31.6875 25.9698L27.7792 26.5365C27.5441 26.56 27.3162 26.6308 27.1091 26.7445C26.9021 26.8583 26.7201 27.0127 26.5742 27.1985C26.4283 27.3843 26.3214 27.5977 26.2599 27.8258C26.1985 28.0539 26.1838 28.2921 26.2167 28.5261V33.8532C26.0859 34.4604 25.7648 35.0099 25.3 35.4219L20.9729 38.8448" stroke="#2E56FF" stroke-width="3" stroke-linecap="square" stroke-linejoin="round"></path><path d="M48.0938 41.0031C48.1033 41.5455 47.8971 42.0696 47.5206 42.4602C47.144 42.8508 46.6279 43.076 46.0855 43.0864H43.0709C41.6125 43.0864 40.6938 42.9802 40.0584 41.0031C39.1 36.1862 38.4294 31.3164 38.05 26.4198C38.05 25.3781 39.0542 24.3364 41.0625 24.3364H46.0855C46.6279 24.3468 47.144 24.5721 47.5206 24.9627C47.8971 25.3533 48.1033 25.8773 48.0938 26.4198V41.0031Z" stroke="#2E56FF" stroke-width="3" stroke-linecap="square" stroke-linejoin="round"></path><path d="M44.9687 43.0864V47.7739C44.9687 48.6027 44.6395 49.3976 44.0535 49.9836C43.4674 50.5697 42.6726 50.8989 41.8437 50.8989H26.2187C25.3899 50.8989 24.5951 50.5697 24.009 49.9836C23.423 49.3976 23.0938 48.6027 23.0938 47.7739V44.6489" stroke="#2E56FF" stroke-width="3" stroke-linecap="square" stroke-linejoin="round"></path><path d="M23.0937 19.455L23.0938 14.9614C23.0938 14.1326 23.423 13.3378 24.009 12.7517C24.5951 12.1657 25.3899 11.8364 26.2188 11.8364H41.8438C42.6726 11.8364 43.4674 12.1657 44.0535 12.7517C44.6395 13.3378 44.9688 14.1326 44.9688 14.9614V24.3364" stroke="#2E56FF" stroke-width="3" stroke-linecap="square" stroke-linejoin="round"></path><path d="M14.5667 4.02393C12.2947 5.24153 10.4343 7.10495 9.22031 9.37896C8.00636 11.653 7.49331 14.2357 7.7459 16.801" stroke="#2E56FF" stroke-width="3" stroke-linecap="square" stroke-linejoin="round"></path><path d="M17.8458 8.29468C16.2717 9.13755 14.9829 10.4282 14.1422 12.0034C13.3016 13.5787 12.9468 15.3678 13.1229 17.1447" stroke="#2E56FF" stroke-width="3" stroke-linecap="square" stroke-linejoin="round"></path></svg> 