<?xml version="1.0" encoding="UTF-8"?> <svg xmlns="http://www.w3.org/2000/svg" width="54" height="55" viewBox="0 0 54 55" fill="none"><path d="M16.0625 38.1384L18.6625 40.4718" stroke="#2E56FF" stroke-width="3" stroke-linecap="square" stroke-linejoin="round"></path><path d="M35.2272 34.0447L31.6355 35.7655L23.8355 28.7634L19.4751 30.4822L25.8209 38.0572L18.6667 40.4718L22.4167 43.8488C22.8484 44.2367 23.3795 44.4967 23.9506 44.5997C24.5216 44.7028 25.1101 44.6447 25.6501 44.4322L37.5126 39.8488C38.2788 39.5416 38.8924 38.9435 39.2192 38.1854C39.546 37.4273 39.5595 36.5706 39.2568 35.8025C38.9541 35.0344 38.3597 34.4174 37.6035 34.0861C36.8473 33.7547 35.9908 33.7361 35.2209 34.0343L35.2272 34.0447Z" stroke="#2E56FF" stroke-width="3" stroke-linecap="square" stroke-linejoin="round"></path><path d="M47.3125 10.2739H6.6875C4.96161 10.2739 3.5625 11.673 3.5625 13.3989V47.7739C3.5625 49.4998 4.96161 50.8989 6.6875 50.8989H47.3125C49.0384 50.8989 50.4375 49.4998 50.4375 47.7739V13.3989C50.4375 11.673 49.0384 10.2739 47.3125 10.2739Z" stroke="#2E56FF" stroke-width="3" stroke-linecap="square" stroke-linejoin="round"></path><path d="M3.5625 22.7739H50.4375" stroke="#2E56FF" stroke-width="3" stroke-linecap="square" stroke-linejoin="round"></path><path d="M16.0625 14.9614V4.02393" stroke="#2E56FF" stroke-width="3" stroke-linecap="square" stroke-linejoin="round"></path><path d="M37.9375 14.9614V4.02393" stroke="#2E56FF" stroke-width="3" stroke-linecap="square" stroke-linejoin="round"></path></svg> 