<?xml version="1.0" encoding="UTF-8"?> <svg xmlns="http://www.w3.org/2000/svg" width="55" height="55" viewBox="0 0 55 55" fill="none"><path d="M15.4525 50.8989H7.64209C6.81329 50.8989 6.01843 50.5697 5.43238 49.9836C4.84633 49.3976 4.51709 48.6027 4.51709 47.7739V7.14893C4.51709 6.32012 4.84633 5.52527 5.43238 4.93922C6.01843 4.35317 6.81329 4.02393 7.64209 4.02393H15.4525" stroke="#2E56FF" stroke-width="3" stroke-linecap="square" stroke-linejoin="round"></path><path d="M40.4525 50.8989H48.265C49.0938 50.8989 49.8887 50.5697 50.4747 49.9836C51.0608 49.3976 51.39 48.6027 51.39 47.7739V7.14893C51.39 6.32012 51.0608 5.52527 50.4747 4.93922C49.8887 4.35317 49.0938 4.02393 48.265 4.02393H40.4525" stroke="#2E56FF" stroke-width="3" stroke-linecap="square" stroke-linejoin="round"></path><path d="M37.3296 39.9614L26.3921 50.8989L21.7046 44.6489" stroke="#2E56FF" stroke-width="3" stroke-linecap="square" stroke-linejoin="round"></path><path d="M37.3275 32.1489V19.6489C37.3316 18.0035 36.9004 16.3863 36.0775 14.9614" stroke="#2E56FF" stroke-width="3" stroke-linecap="round" stroke-linejoin="round"></path><path d="M18.5796 19.6489V32.1489" stroke="#2E56FF" stroke-width="3" stroke-linecap="round" stroke-linejoin="round"></path><path d="M31.0191 10.7948C29.0665 10.1231 26.947 10.1139 24.9886 10.7684C23.0302 11.423 21.3421 12.7049 20.1858 14.4156" stroke="#2E56FF" stroke-width="3" stroke-linecap="round" stroke-linejoin="round"></path><path d="M24.8275 21.2114V19.6489C24.8275 18.8201 25.1568 18.0253 25.7428 17.4392C26.3289 16.8532 27.1237 16.5239 27.9525 16.5239C28.7813 16.5239 29.5762 16.8532 30.1622 17.4392C30.7483 18.0253 31.0775 18.8201 31.0775 19.6489V32.1489" stroke="#2E56FF" stroke-width="3" stroke-linecap="round" stroke-linejoin="round"></path><path d="M24.8296 27.4614V32.1489" stroke="#2E56FF" stroke-width="3" stroke-linecap="round" stroke-linejoin="round"></path></svg> 