<?xml version="1.0" encoding="UTF-8"?> <svg xmlns="http://www.w3.org/2000/svg" width="54" height="55" viewBox="0 0 54 55" fill="none"><path d="M34.8125 11.8364H42.625C43.4538 11.8364 44.2487 12.1657 44.8347 12.7517C45.4208 13.3378 45.75 14.1326 45.75 14.9614V47.7739C45.75 48.6027 45.4208 49.3976 44.8347 49.9836C44.2487 50.5697 43.4538 50.8989 42.625 50.8989H11.375C10.5462 50.8989 9.75134 50.5697 9.16529 49.9836C8.57924 49.3976 8.25 48.6027 8.25 47.7739V14.9614C8.25 14.1326 8.57924 13.3378 9.16529 12.7517C9.75134 12.1657 10.5462 11.8364 11.375 11.8364H19.1875C19.1875 9.76442 20.0106 7.77728 21.4757 6.31215C22.9409 4.84703 24.928 4.02393 27 4.02393C29.072 4.02393 31.0591 4.84703 32.5243 6.31215C33.9894 7.77728 34.8125 9.76442 34.8125 11.8364V11.8364Z" stroke="#2E56FF" stroke-width="3" stroke-linecap="square" stroke-linejoin="round"></path><circle cx="27" cy="11.0552" r="0.781266" fill="#2E56FF" stroke="#2E56FF" stroke-width="3" stroke-linecap="square" stroke-linejoin="round"></circle><path d="M16.0625 24.3364H27" stroke="#2E56FF" stroke-width="3" stroke-linecap="square" stroke-linejoin="round"></path><path d="M33.25 24.3364H37.9375" stroke="#2E56FF" stroke-width="3" stroke-linecap="square" stroke-linejoin="round"></path><path d="M37.9375 32.1489H27" stroke="#2E56FF" stroke-width="3" stroke-linecap="square" stroke-linejoin="round"></path><path d="M20.75 32.1489H16.0625" stroke="#2E56FF" stroke-width="3" stroke-linecap="square" stroke-linejoin="round"></path><path d="M16.0625 39.9614H27" stroke="#2E56FF" stroke-width="3" stroke-linecap="square" stroke-linejoin="round"></path><path d="M33.25 39.9614H37.9375" stroke="#2E56FF" stroke-width="3" stroke-linecap="square" stroke-linejoin="round"></path></svg> 