<?xml version="1.0" encoding="UTF-8"?> <svg xmlns="http://www.w3.org/2000/svg" width="54" height="55" viewBox="0 0 54 55" fill="none"><path d="M42.625 28.5375V7.05528C42.625 6.25131 42.2958 5.48028 41.7097 4.91179C41.1237 4.3433 40.3288 4.02393 39.5 4.02393H14.5C13.6712 4.02393 12.8763 4.3433 12.2903 4.91179C11.7042 5.48028 11.375 6.25131 11.375 7.05528V28.5375" stroke="#2E56FF" stroke-width="3" stroke-linecap="square" stroke-linejoin="round"></path><path d="M46.3417 26.3468C46.5717 26.1643 46.8486 26.0504 47.1404 26.0181C47.4323 25.9857 47.7273 26.0363 47.9918 26.1639C48.2562 26.2916 48.4793 26.4912 48.6355 26.7398C48.7917 26.9884 48.8747 27.276 48.875 27.5697V47.778C48.875 48.6068 48.5458 49.4017 47.9597 49.9877C47.3737 50.5738 46.5788 50.903 45.75 50.903H8.25C7.4212 50.903 6.62634 50.5738 6.04029 49.9877C5.45424 49.4017 5.125 48.6068 5.125 47.778V27.5697C5.12526 27.276 5.20825 26.9884 5.36447 26.7398C5.52068 26.4912 5.7438 26.2916 6.00824 26.1639C6.27267 26.0363 6.56773 25.9857 6.85958 26.0181C7.15143 26.0504 7.42826 26.1643 7.65833 26.3468L23.1396 38.6259C24.2406 39.4906 25.6 39.9607 27 39.9607C28.4 39.9607 29.7594 39.4906 30.8604 38.6259L46.3417 26.3468Z" stroke="#2E56FF" stroke-width="3" stroke-linecap="square" stroke-linejoin="round"></path><path d="M34.9333 36.1428L41.0625 42.272" stroke="#2E56FF" stroke-width="3" stroke-linecap="square" stroke-linejoin="round"></path><path d="M19.0667 36.1428L12.9375 42.272" stroke="#2E56FF" stroke-width="3" stroke-linecap="square" stroke-linejoin="round"></path><path d="M27.4167 23.4905C27.8678 24.0831 28.4552 24.5582 29.1291 24.8755C29.8029 25.1929 30.5433 25.3431 31.2875 25.3134C33.6604 25.3134 35.5854 23.8697 35.5854 22.0905C35.5854 20.3113 33.6667 18.8697 31.2958 18.8697C28.925 18.8697 27 17.4259 27 15.6447C27 13.8634 28.925 12.4218 31.2958 12.4218C32.0401 12.3916 32.7807 12.5416 33.4546 12.8589C34.1285 13.1763 34.7158 13.6517 35.1667 14.2447" stroke="#2E56FF" stroke-width="3" stroke-linecap="square" stroke-linejoin="round"></path><path d="M31.2959 25.3135V27.4614" stroke="#2E56FF" stroke-width="3" stroke-linecap="square" stroke-linejoin="round"></path><path d="M31.2959 10.2739V12.4218" stroke="#2E56FF" stroke-width="3" stroke-linecap="square" stroke-linejoin="round"></path><path d="M17.625 11.8364H20.75" stroke="#2E56FF" stroke-width="3" stroke-linecap="square" stroke-linejoin="round"></path><path d="M17.625 18.0864H20.75" stroke="#2E56FF" stroke-width="3" stroke-linecap="square" stroke-linejoin="round"></path><path d="M17.625 24.3364H20.75" stroke="#2E56FF" stroke-width="3" stroke-linecap="square" stroke-linejoin="round"></path></svg> 