<?xml version="1.0" encoding="UTF-8"?> <svg xmlns="http://www.w3.org/2000/svg" width="54" height="55" viewBox="0 0 54 55" fill="none"><path d="M44.1917 21.2114V13.3969C44.1917 12.568 43.8625 11.7732 43.2764 11.1871C42.6904 10.6011 41.8955 10.2719 41.0667 10.2719H33.7334" stroke="#2E56FF" stroke-width="3" stroke-linecap="square" stroke-linejoin="round"></path><path d="M14.025 10.2719H6.69165C5.86285 10.2719 5.06799 10.6011 4.48194 11.1871C3.89589 11.7732 3.56665 12.568 3.56665 13.3969V47.7719C3.56665 48.6007 3.89589 49.3955 4.48194 49.9816C5.06799 50.5676 5.86285 50.8969 6.69165 50.8969H23.875" stroke="#2E56FF" stroke-width="3" stroke-linecap="square" stroke-linejoin="round"></path><path d="M32.0479 12.3281C31.944 12.6389 31.7451 12.9093 31.4794 13.1011C31.2136 13.2928 30.8943 13.3963 30.5666 13.3969H17.1937C16.8656 13.3967 16.5459 13.2935 16.2797 13.1017C16.0135 12.9099 15.8143 12.6393 15.7104 12.3281L13.627 6.0781C13.5483 5.84316 13.5266 5.59285 13.5638 5.34788C13.6011 5.1029 13.6961 4.87031 13.8411 4.66936C13.986 4.46841 14.1768 4.30486 14.3975 4.19227C14.6182 4.07967 14.8626 4.02125 15.1104 4.02186H32.6499C32.8975 4.02158 33.1417 4.08024 33.3621 4.19298C33.5826 4.30572 33.773 4.4693 33.9178 4.67021C34.0625 4.87112 34.1573 5.10358 34.1944 5.34839C34.2315 5.5932 34.2099 5.84333 34.1312 6.0781L32.0479 12.3281Z" stroke="#2E56FF" stroke-width="3" stroke-linecap="square" stroke-linejoin="round"></path><path d="M37.9375 50.8969C44.8411 50.8969 50.4375 45.3004 50.4375 38.3969C50.4375 31.4933 44.8411 25.8969 37.9375 25.8969C31.0339 25.8969 25.4375 31.4933 25.4375 38.3969C25.4375 45.3004 31.0339 50.8969 37.9375 50.8969Z" stroke="#2E56FF" stroke-width="3" stroke-linecap="square" stroke-linejoin="round"></path><path d="M37.9375 32.1469V44.6469" stroke="#2E56FF" stroke-width="3" stroke-linecap="square" stroke-linejoin="round"></path><path d="M31.6875 38.3969H44.1875" stroke="#2E56FF" stroke-width="3" stroke-linecap="square" stroke-linejoin="round"></path><path d="M11.4485 22.7719H24.4417" stroke="#2E56FF" stroke-width="3" stroke-linecap="square" stroke-linejoin="round"></path><path d="M11.4485 32.1719H15.7795" stroke="#2E56FF" stroke-width="3" stroke-linecap="square" stroke-linejoin="round"></path><path d="M11.4485 41.5719H15.7795" stroke="#2E56FF" stroke-width="3" stroke-linecap="square" stroke-linejoin="round"></path></svg> 