<?xml version="1.0" encoding="UTF-8"?> <svg xmlns="http://www.w3.org/2000/svg" width="74" height="33" viewBox="0 0 74 33" fill="none"><path d="M18.7054 1.13599V5.73264H6.86445V10.7284H16.4266L16.4369 15.3251H6.86445V20.4539H18.9804V25.1171H0.052002V1.13599H18.7054Z" fill="#14487F"></path><path d="M34.9087 8.62983C34.5994 6.23173 32.843 5.30043 30.8804 5.30043C27.3367 5.30043 25.4428 7.99788 25.4428 13.3595C25.4428 18.3221 27.3023 20.9197 30.8117 20.9197C33.2554 20.9197 34.6647 19.7889 34.9775 17.424H42.137C42.1027 22.7524 37.9712 25.5829 30.9182 25.5829C22.59 25.5829 18.321 21.0195 18.321 13.2597C18.321 7.56549 20.7648 3.10188 25.6525 1.33573C27.1682 0.803558 28.9212 0.57073 30.9182 0.57073C38.1122 0.57073 41.9652 3.80036 41.9996 8.62983H34.9087ZM63.1861 7.99788V8.13092H56.1985V7.99788C56.1985 5.8326 55.0298 4.80151 52.8954 4.80151C50.9327 4.80151 49.661 5.89912 49.661 7.33267C49.661 8.56331 50.314 9.33164 52.2767 9.83055L56.8549 10.9614C58.5082 11.3606 59.9174 11.7929 60.9863 12.395C63.0521 13.5258 64.0489 15.292 64.0489 17.8897C64.0489 22.8854 59.8521 25.6494 53.0707 25.6494C46.0142 25.6494 42.1611 22.8854 42.1611 17.4573H49.0801C49.0801 19.9219 50.5271 21.1858 53.2459 21.1858C55.4835 21.1858 56.9615 20.321 56.9615 18.4551C56.9615 17.2577 56.3084 16.5226 54.9301 16.1568L48.6332 14.5569C45.5707 13.7919 44.2612 12.6577 43.4707 11.3938C42.8176 10.3627 42.577 9.19527 42.577 7.99788C42.577 3.46775 46.4301 0.470947 53.0397 0.470947C59.8109 0.470947 63.1861 2.90232 63.1861 7.99788ZM73.2776 1.06965V25.1139H65.2313V1.06965H73.2776Z" fill="#14487F"></path><path d="M2.87805 27.7946L3.60672 31.5664H3.2252L3.02928 30.5486H1.09417L0.461732 31.5664H0.10083L2.46903 27.7946H2.87805ZM2.60308 28.1106L1.27634 30.236H2.97773L2.60308 28.1106ZM9.61831 28.6361C9.61831 28.7193 9.60801 28.829 9.58051 28.9488H8.71089C8.72809 28.8756 8.7315 28.829 8.7315 28.7725C8.7315 28.553 8.60089 28.2769 8.09907 28.2769C7.80695 28.2769 7.54225 28.3567 7.32225 28.523C7.16074 28.6428 7.00953 28.8257 6.89604 29.0286C6.70013 29.3845 6.58672 29.8335 6.58672 30.1528C6.58672 30.5852 6.76892 30.8646 7.07824 30.9777C7.21915 31.0309 7.39104 31.0508 7.59725 31.0508C7.85506 31.0508 8.07157 31.0242 8.24347 30.9777L8.41528 30.1827H7.65915L7.80006 29.5574H9.39142L8.97559 31.4433C8.49089 31.5963 8.04066 31.6529 7.52506 31.6529C7.06104 31.6529 6.70013 31.6063 6.39769 31.4766C5.87525 31.2471 5.68964 30.8147 5.68964 30.2759C5.68964 29.89 5.78588 29.4576 5.99898 29.0386C6.41488 28.2037 7.25013 27.6915 8.25028 27.6915C9.07869 27.6848 9.61831 28.0407 9.61831 28.6361ZM11.33 27.7913L10.4982 31.5664H9.70082L10.5326 27.7913H11.33ZM14.2344 29.8834C14.2344 30.6251 13.6776 31.6595 12.4471 31.6595C11.7734 31.6595 11.3197 31.3136 11.3197 30.6584C11.3197 29.9433 11.8112 28.8656 13.0795 28.8656C13.8082 28.8656 14.2344 29.2282 14.2344 29.8834ZM12.5914 31.124C12.8079 31.124 12.9592 31.0442 13.0726 30.9211C13.3166 30.6484 13.4232 30.1162 13.4232 29.8834C13.4232 29.5541 13.2823 29.3878 12.9661 29.3878C12.4849 29.3878 12.2855 29.8268 12.1996 30.206C12.1549 30.3989 12.1343 30.5453 12.1343 30.6451C12.1343 30.9245 12.2477 31.124 12.5914 31.124ZM16.0939 27.8013L15.7742 29.2481C16.0182 29.012 16.2966 28.8922 16.6266 28.8922C17.2041 28.8922 17.5547 29.2681 17.5547 29.8701C17.5547 30.1362 17.4963 30.4122 17.376 30.695C17.1423 31.2537 16.6541 31.6196 16.0767 31.6196C15.6986 31.6196 15.4546 31.4733 15.348 31.1972C15.3171 31.3435 15.2724 31.4633 15.2415 31.5664H14.4681L15.293 27.8013H16.0939ZM15.9598 31.1107C16.2073 31.1107 16.3688 30.9843 16.4926 30.8014C16.6713 30.5386 16.7366 30.1029 16.7366 29.93C16.7366 29.5907 16.5957 29.4078 16.2932 29.4078C15.8876 29.4078 15.6711 29.7204 15.5714 30.0696C15.5164 30.2459 15.4889 30.4089 15.4889 30.5619C15.4889 30.9178 15.6642 31.1107 15.9598 31.1107ZM20.411 29.1783C20.4763 29.278 20.4969 29.3978 20.4969 29.5375C20.4969 29.604 20.49 29.6772 20.4591 29.8368L20.2322 30.8978C20.1738 31.1839 20.1498 31.3835 20.1498 31.5664H19.4279C19.4382 31.4367 19.4485 31.3203 19.4829 31.2072C19.2388 31.4533 18.9879 31.6296 18.5721 31.6296C18.1906 31.6296 17.9878 31.5265 17.8881 31.3469C17.84 31.2537 17.8125 31.1473 17.8125 31.0276C17.8125 30.6251 18.0874 30.2559 18.4964 30.063C18.8264 29.9067 19.2423 29.8734 19.6445 29.8734H19.6995C19.727 29.757 19.7441 29.6605 19.7441 29.5741C19.7441 29.4078 19.6238 29.3013 19.4313 29.3013C19.2251 29.3013 19.0154 29.4543 18.9879 29.6838H18.2043C18.3108 29.145 18.8298 28.849 19.531 28.849C19.8679 28.8523 20.2494 28.9388 20.411 29.1783ZM18.933 31.1273C19.1323 31.1273 19.3213 31.0076 19.4279 30.8247C19.5207 30.6783 19.562 30.4921 19.5998 30.3224C19.5345 30.3158 19.476 30.3158 19.421 30.3158C19.1942 30.3158 18.9776 30.369 18.8333 30.4621C18.6924 30.5553 18.6133 30.6916 18.6133 30.8313C18.6133 31.0076 18.7336 31.1273 18.933 31.1273ZM22.4251 27.7913L21.5933 31.5664H20.7959L21.6242 27.7913H22.4251ZM25.8726 27.8013C26.1957 27.8013 26.4879 27.8179 26.7181 27.9177C27.0034 28.0341 27.2028 28.2769 27.2028 28.6594C27.2028 28.8257 27.1478 29.0818 27.0343 29.3013C26.9209 29.5208 26.7491 29.7304 26.5497 29.8668C26.2748 30.0497 25.9448 30.1029 25.5666 30.1029H24.9617L24.6386 31.5697H23.7931L24.618 27.8046H25.8726V27.8013ZM25.3123 28.4133L25.0751 29.5009H25.4429C25.7248 29.5009 25.876 29.4643 26.0376 29.3645C26.2266 29.2448 26.3298 28.982 26.3298 28.7891C26.3298 28.5629 26.2232 28.4133 25.7729 28.4133H25.3123ZM29.4919 29.1783C29.5572 29.278 29.5779 29.3978 29.5779 29.5375C29.5779 29.604 29.571 29.6772 29.54 29.8368L29.3132 30.8978C29.2548 31.1839 29.2307 31.3835 29.2307 31.5664H28.5088C28.5191 31.4367 28.5295 31.3203 28.5638 31.2072C28.3198 31.4533 28.0655 31.6296 27.653 31.6296C27.2715 31.6296 27.0687 31.5265 26.969 31.3469C26.9209 31.2537 26.8934 31.1473 26.8934 31.0276C26.8934 30.6251 27.1684 30.2559 27.5774 30.063C27.9074 29.9067 28.3232 29.8734 28.7254 29.8734H28.7804C28.8079 29.757 28.8216 29.6605 28.8216 29.5741C28.8216 29.4078 28.7048 29.3013 28.5088 29.3013C28.3026 29.3013 28.093 29.4543 28.0655 29.6838H27.2818C27.3884 29.145 27.9074 28.849 28.6085 28.849C28.9488 28.8523 29.3304 28.9388 29.4919 29.1783ZM28.0139 31.1273C28.2132 31.1273 28.4023 31.0076 28.5088 30.8247C28.6016 30.6783 28.6429 30.4921 28.6807 30.3224C28.6154 30.3158 28.557 30.3158 28.502 30.3158C28.2751 30.3158 28.0586 30.369 27.9142 30.4621C27.7733 30.5553 27.6943 30.6916 27.6943 30.8313C27.6977 31.0076 27.8146 31.1273 28.0139 31.1273ZM30.9355 28.9288L31.1348 30.7581L32.1454 28.9288H32.9394L31.3411 31.5132L30.7808 32.5675H29.9765L30.5437 31.5764L30.0728 28.9288H30.9355ZM35.7372 29.3678C35.9916 29.0352 36.3146 28.8756 36.7202 28.8756C37.2048 28.8756 37.5039 29.135 37.5039 29.5608C37.5039 29.7171 37.4764 29.8601 37.4386 30.0198L37.0983 31.5664H36.294L36.6274 30.0364C36.6549 29.92 36.6721 29.8135 36.6721 29.7503C36.6721 29.5308 36.5484 29.4211 36.3043 29.4211C36.1531 29.4211 36.0397 29.4643 35.9538 29.5308C35.7853 29.6672 35.7097 29.9067 35.641 30.2193L35.3454 31.5664H34.541L34.8813 30.0264C34.9088 29.91 34.9191 29.8135 34.9191 29.7503C34.9191 29.5308 34.7988 29.4211 34.5617 29.4211C34.3554 29.4211 34.1561 29.4942 34.0392 29.7038C33.9842 29.7969 33.9464 29.93 33.9155 30.0863L33.5924 31.5697H32.7881L33.2521 29.451C33.3003 29.2248 33.3106 29.1783 33.3381 28.9355H34.1114L34.0702 29.2747C34.3142 29.012 34.6201 28.8789 34.9982 28.8789C35.4073 28.8723 35.6788 29.0452 35.7372 29.3678ZM40.6798 29.8268C40.6798 30.0198 40.6488 30.2193 40.5835 30.4422H38.755C38.7344 30.5353 38.7172 30.6251 38.7172 30.6983C38.7172 31.0209 38.8788 31.1473 39.1537 31.1473C39.4081 31.1473 39.5902 31.0276 39.7105 30.7814H40.4392C40.2708 31.3469 39.7552 31.6628 39.03 31.6628C38.8203 31.6628 38.6347 31.6329 38.4801 31.573C38.157 31.4533 37.961 31.1806 37.961 30.7315C37.961 30.4588 38.0332 30.1295 38.1776 29.8135C38.4698 29.1749 39.0747 28.8357 39.6727 28.8357C40.3086 28.839 40.6798 29.2115 40.6798 29.8268ZM39.8686 29.9566C39.8858 29.8568 39.8961 29.8036 39.8961 29.7437C39.8961 29.5142 39.7758 29.3678 39.5249 29.3678C39.2294 29.3678 38.9922 29.5807 38.8822 29.9566H39.8686ZM43.8591 29.4843C43.8591 29.6406 43.8041 29.8967 43.7285 30.2426L43.4364 31.5697H42.6218L42.9793 29.9566C42.9964 29.89 43.0102 29.8169 43.0102 29.7271C43.0102 29.5707 42.8968 29.4177 42.6665 29.4177C42.5221 29.4177 42.3331 29.4809 42.2094 29.6173C42.1269 29.7071 42.065 29.8368 42.0203 30.0231L41.6801 31.5697H40.8757L41.3501 29.4011C41.3879 29.2248 41.4154 29.0885 41.4429 28.9222H42.2094L42.1441 29.318C42.3915 29.0086 42.7387 28.859 43.127 28.859C43.5567 28.8556 43.8591 29.0685 43.8591 29.4843ZM45.8802 28.1472L45.7084 28.9454H46.3545L46.2411 29.4576H45.5949L45.3406 30.6118C45.32 30.695 45.3028 30.8114 45.3028 30.8513C45.3028 30.9877 45.3956 31.0375 45.6053 31.0375C45.6877 31.0375 45.7737 31.0309 45.8802 31.0209L45.7668 31.5265C45.5606 31.5797 45.3406 31.6096 45.1309 31.6096C44.6669 31.6096 44.4504 31.4467 44.4504 31.1307C44.4504 31.0575 44.471 30.9411 44.4951 30.8546L44.801 29.4543H44.2785L44.3919 28.9421H44.9144L45.0278 28.4266L45.8802 28.1472ZM48.7915 29.4876C48.7915 29.5342 48.7846 29.5907 48.7743 29.6439H48.0456C48.0525 29.6173 48.0525 29.5973 48.0525 29.5707C48.0525 29.4144 47.946 29.3313 47.7294 29.3313C47.4751 29.3313 47.286 29.4676 47.286 29.6506C47.286 29.7803 47.4063 29.8135 47.6057 29.8701L48.0697 29.9998C48.5646 30.1395 48.654 30.3856 48.654 30.5852C48.654 31.0442 48.1556 31.6462 47.1863 31.6462C46.8185 31.6462 46.5642 31.5631 46.4026 31.4101C46.2892 31.3003 46.2136 31.1739 46.2136 30.991C46.2136 30.9378 46.2239 30.8746 46.2342 30.8014H46.9835C46.9766 30.8213 46.9766 30.848 46.9766 30.8679C46.9766 31.0775 47.1451 31.1606 47.3548 31.1606C47.6779 31.1606 47.8497 30.9577 47.8497 30.7947C47.8497 30.7116 47.8119 30.6318 47.5473 30.5553L47.0351 30.4089C46.6157 30.2892 46.5126 30.0697 46.5126 29.8568C46.5126 29.6073 46.6536 29.308 46.9319 29.125C47.176 28.9621 47.5026 28.8623 47.9082 28.8623C48.4615 28.8656 48.7915 29.1051 48.7915 29.4876ZM54.0572 28.5164C54.0572 28.5629 54.0504 28.6328 54.0469 28.6793H53.6688V28.6228C53.6688 28.2569 53.387 28.0341 52.892 28.0341C52.5345 28.0341 52.1943 28.1538 51.9365 28.38C51.4347 28.819 51.1631 29.5973 51.1631 30.2493C51.1631 30.9444 51.5034 31.3369 52.1668 31.3369C52.6582 31.3369 53.1016 31.0741 53.2735 30.6584H53.6516C53.4145 31.2604 52.7614 31.6495 52.098 31.6495C51.2525 31.6495 50.7816 31.1739 50.7816 30.3058C50.7816 29.8568 50.8985 29.3612 51.1013 28.9621C51.469 28.2303 52.0843 27.7181 52.9641 27.7181C53.6516 27.7181 54.0572 28.0374 54.0572 28.5164ZM56.7966 29.8801C56.7966 30.2093 56.7004 30.5286 56.5491 30.7981C56.2741 31.2936 55.7929 31.6429 55.188 31.6429C54.5453 31.6429 54.1844 31.2471 54.1844 30.6185C54.1844 30.0331 54.5075 29.4011 55.0196 29.0818C55.2464 28.9421 55.5145 28.8623 55.7964 28.8623C56.446 28.8656 56.7966 29.2747 56.7966 29.8801ZM55.2533 31.3568C55.6795 31.3568 56.0129 31.0908 56.2191 30.7315C56.3532 30.4954 56.4357 30.2193 56.4357 29.9433C56.4357 29.4676 56.1985 29.155 55.7276 29.155C55.0368 29.155 54.5453 29.9067 54.5453 30.5586C54.5487 31.0542 54.8065 31.3568 55.2533 31.3568ZM59.6632 29.441C59.9966 29.0552 60.3713 28.8656 60.7253 28.8656C61.2065 28.8656 61.4814 29.0951 61.4814 29.5874C61.4814 29.6605 61.4814 29.7637 61.4127 30.073L61.0827 31.5664H60.7597L61.1308 29.8801C61.148 29.8069 61.1515 29.7337 61.1515 29.6672C61.1515 29.3379 60.9418 29.155 60.574 29.155C60.0825 29.155 59.7113 29.5375 59.591 30.0796L59.2679 31.5697H58.9448L59.316 29.8834C59.3332 29.8102 59.3367 29.737 59.3367 29.6705C59.3367 29.3412 59.127 29.1583 58.7592 29.1583C58.2746 29.1583 57.8965 29.5275 57.7762 30.083L57.4531 31.573H57.13L57.5631 29.614C57.5906 29.4942 57.6318 29.2548 57.6834 28.9521H58.0168L57.948 29.3379L57.9584 29.3479C58.223 29.0253 58.553 28.8723 58.907 28.8723C59.3298 28.8656 59.6185 29.0918 59.6632 29.441ZM64.5955 29.8169C64.5955 30.1461 64.5096 30.4588 64.3858 30.7249C64.1315 31.2737 63.695 31.6429 63.1451 31.6429C62.7463 31.6429 62.461 31.4699 62.3098 31.1573H62.2994L61.9867 32.5675H61.6636L62.3338 29.5375C62.3888 29.298 62.4026 29.1151 62.437 28.9421H62.7704L62.7016 29.3279L62.712 29.3379C62.956 29.0452 63.3581 28.8623 63.7431 28.8623C64.2999 28.8656 64.5955 29.2115 64.5955 29.8169ZM63.176 31.3568C63.6503 31.3568 63.9596 30.961 64.1212 30.4887C64.1899 30.2858 64.2449 30.0663 64.2449 29.8634C64.2449 29.4443 64.0559 29.1516 63.6022 29.1516C63.3203 29.1516 63.0901 29.2548 62.9113 29.4244C62.6191 29.6905 62.4576 30.1927 62.4576 30.6218C62.4576 31.1007 62.7051 31.3568 63.176 31.3568ZM67.2283 29.471C67.2283 29.5342 67.2215 29.6007 67.1974 29.7337L66.9053 31.0508C66.8881 31.1174 66.8606 31.287 66.8193 31.5664H66.486L66.5616 31.1806H66.5512C66.3691 31.4467 65.9463 31.6462 65.5854 31.6462C65.1282 31.6462 64.8395 31.4001 64.8395 31.0242C64.8395 30.532 65.2073 30.1827 65.6816 30.043C66.0048 29.9499 66.3725 29.9765 66.675 29.9632C66.7334 29.9632 66.7815 29.9566 66.8193 29.9566C66.8503 29.8169 66.8846 29.6905 66.8846 29.5707C66.8846 29.2847 66.7265 29.1516 66.3553 29.1516C65.9498 29.1516 65.6954 29.3046 65.5957 29.6073H65.252C65.4307 29.1217 65.8466 28.8656 66.4275 28.8656C66.9603 28.8656 67.2283 29.0752 67.2283 29.471ZM65.7057 31.3568C66.266 31.3568 66.6337 30.991 66.7575 30.2459C66.6819 30.2459 66.4997 30.2526 66.4172 30.2526C66.1079 30.2592 65.7745 30.2892 65.5442 30.4089C65.3242 30.5253 65.1935 30.7282 65.1935 30.9677C65.1935 31.2105 65.3929 31.3568 65.7057 31.3568ZM70.1706 29.5807C70.1706 29.7271 70.1534 29.8368 70.1018 30.0763L69.7719 31.5664H69.4488L69.82 29.8801C69.8372 29.8069 69.8406 29.7337 69.8406 29.6672C69.8406 29.3379 69.6309 29.155 69.2632 29.155C68.7304 29.155 68.3901 29.584 68.2801 30.0796L67.957 31.5697H67.6339L68.067 29.6206C68.0945 29.5009 68.1357 29.2381 68.1838 28.9454H68.5173L68.4485 29.3313L68.4588 29.3412C68.7167 29.0186 69.057 28.8656 69.4075 28.8656C69.9093 28.8656 70.1706 29.1051 70.1706 29.5807ZM71.1089 28.9454L71.5351 31.1373L72.9272 28.9454H73.2777L70.9851 32.5709H70.6277L71.2601 31.5697L70.7136 28.9488H71.1089V28.9454Z" fill="#58595C"></path></svg> 