<?xml version="1.0" encoding="UTF-8"?> <svg xmlns="http://www.w3.org/2000/svg" width="54" height="55" viewBox="0 0 54 55" fill="none"><path d="M52.3275 40.3075C48.7955 37.6531 45.2064 35.0843 41.6529 32.4656C39.8905 31.167 38.3064 31.4025 36.8151 32.9437C35.6663 34.1353 34.4676 35.2841 33.3045 36.4615C32.0058 37.7672 30.6216 37.91 29.0589 36.8896C24.4423 33.8642 20.6249 30.0467 17.5709 25.4515C16.5006 23.8389 16.6362 22.3619 18.0419 20.999C19.1764 19.9002 20.2467 18.7371 21.3955 17.6597C23.0509 16.1042 23.215 14.4773 21.8522 12.6435C19.2692 9.1614 16.7504 5.62938 14.1459 2.16157C12.5333 0.0209468 10.7209 -0.0932174 8.76584 1.79053C6.72511 3.7599 4.71292 5.77209 2.73641 7.81281C-0.267593 10.9096 -0.817014 14.1633 1.1809 17.9522C9.27245 33.329 21.0316 45.0668 36.3941 53.194C37.6571 53.8576 38.9629 54.3927 40.2401 54.3571C42.502 54.3856 44.3572 53.7292 45.8485 52.3449C48.2675 50.083 50.6293 47.7568 52.9126 45.3522C54.5537 43.6254 54.3183 41.8059 52.3346 40.3146L52.3275 40.3075ZM49.7302 44.2105C47.8821 45.923 46.1768 47.7854 44.3501 49.5264C42.3522 51.4244 40.3115 51.7455 37.8712 50.4611C23.1009 42.6621 11.777 31.3811 3.97799 16.6036C2.66507 14.1205 2.93621 12.1155 4.81996 10.1175C6.60381 8.22667 8.5375 6.47849 10.2999 4.5662C11.1847 3.60292 11.6057 3.90261 12.2336 4.78027C14.4385 7.84849 16.6647 10.9024 18.9481 13.9207C19.5546 14.727 19.5046 15.2479 18.7911 15.9115C17.6922 16.9247 16.6362 17.995 15.6087 19.0796C13.3824 21.4414 13.0542 24.1386 14.7738 26.8287C18.0847 32.009 22.3659 36.2545 27.5248 39.6082C28.5309 40.2646 29.6084 40.7142 30.8428 40.6642C32.8978 40.7427 34.4176 39.7438 35.8162 38.3524C38.2517 35.9358 40.8704 35.7551 43.6722 37.8101C45.6416 39.2514 47.5753 40.7498 49.5946 42.1198C50.6721 42.8548 50.6649 43.3471 49.7302 44.2177V44.2105Z" fill="#0A3AF3"></path><path d="M33.2189 23.0686L47.1758 9.11176V9.46853C47.1758 11.6234 47.1758 13.7712 47.1829 15.9189C47.1829 16.9607 47.8465 17.6957 48.7741 17.7171C49.2379 17.7242 49.6375 17.5744 49.9443 17.2747L49.9586 17.2604C50.2868 16.9322 50.4581 16.4755 50.4581 15.9261C50.4723 12.3726 50.4723 8.81207 50.4581 5.25151C50.4581 4.15265 49.8016 3.48906 48.7099 3.48192C45.1351 3.46052 41.5531 3.46052 37.9782 3.47479C37.1505 3.47479 36.4941 3.97427 36.3157 4.73062C36.1516 5.42989 36.4441 6.1363 37.0506 6.5002C37.4502 6.73567 37.8712 6.75708 38.2636 6.75708H40.6897C42.0811 6.75708 43.4725 6.75708 44.8568 6.75708L44.6927 6.92119L44.4501 6.82843L44.6498 6.95687L41.1035 10.5032C37.6143 13.9924 34.1251 17.4816 30.6288 20.9708C30.2863 21.3133 29.9295 21.613 29.5656 21.8841L31.906 24.2246C32.3555 23.8678 32.7908 23.4896 33.2118 23.0615L33.2189 23.0686Z" fill="#0A3AF3"></path></svg> 