<?xml version="1.0" encoding="UTF-8"?> <svg xmlns="http://www.w3.org/2000/svg" width="55" height="57" viewBox="0 0 55 57" fill="none"><path d="M51.995 9.64169C51.6523 9.64169 51.1532 9.8503 51.0042 9.48524C50.885 9.18723 51.3618 8.96374 51.5927 8.72533C52.7997 7.46625 52.822 5.98364 51.6151 4.74691C51.1085 4.2254 50.5944 3.71135 50.0729 3.20474C48.8511 2.02016 47.294 2.04251 46.0796 3.22709C45.8487 3.45059 45.6475 3.9274 45.3197 3.80075C44.9695 3.66664 45.1856 3.18984 45.1781 2.87693C45.1483 1.11869 44.0755 0.0309533 42.3321 0.00860273C41.602 0.00115255 40.8794 -0.00629764 40.1493 0.00860273C38.4655 0.0384035 37.415 1.11868 37.3852 2.80242C37.3852 3.14513 37.5864 3.65918 37.2362 3.79329C36.8935 3.92739 36.6775 3.4208 36.4242 3.18239C35.1949 2.02016 33.6899 2.01271 32.4904 3.18239C31.9689 3.689 31.4549 4.20305 30.9482 4.72456C29.7264 5.96129 29.7339 7.45878 30.9259 8.70296C31.1643 8.94881 31.6709 9.16489 31.507 9.51505C31.358 9.84286 30.8514 9.63424 30.5087 9.64169C28.8399 9.67149 27.7521 10.7518 27.7372 12.4281C27.7372 13.039 27.7372 13.6573 27.7372 14.2682C27.7372 16.4437 28.7132 17.4122 30.8887 17.4346C31.1122 17.4346 31.4474 17.2707 31.5443 17.5761C31.6337 17.8518 31.3133 17.9859 31.142 18.1498C30.5087 18.7458 30.0393 19.4163 30.0468 20.3327C30.0468 21.0703 30.315 21.7036 30.8365 22.2251C31.3655 22.7615 31.8944 23.2904 32.4234 23.812C33.6899 25.0636 35.1725 25.071 36.4539 23.8641C36.6998 23.6331 36.8861 23.1191 37.266 23.2904C37.5789 23.432 37.3778 23.9088 37.3852 24.2366C37.415 25.965 38.4655 27.0379 40.1865 27.0602C40.9166 27.0677 41.6393 27.0751 42.3694 27.0602C44.0755 27.0304 45.1483 25.9353 45.1781 24.2217C45.1781 23.8939 44.9844 23.4096 45.2899 23.2755C45.6549 23.1265 45.8561 23.6257 46.1019 23.8567C47.294 24.9965 48.8585 25.0189 50.0505 23.8716C50.572 23.3649 51.0861 22.8509 51.5927 22.3294C52.822 21.0628 52.8071 19.5802 51.5704 18.2988C51.3469 18.0678 50.87 17.8742 51.019 17.5389C51.1606 17.226 51.6374 17.4197 51.9652 17.4122C53.6937 17.3824 54.774 16.3394 54.8112 14.6184C54.8261 13.8659 54.8336 13.1209 54.8112 12.3685C54.7665 10.6847 53.6862 9.64914 51.995 9.61934V9.64169ZM51.0042 14.9611C49.8941 15.0133 49.1267 15.5869 48.6872 16.5853C48.2476 17.591 48.4189 18.5298 49.1118 19.3791C49.3949 19.7218 49.9984 19.9677 49.9239 20.3849C49.8568 20.7574 49.3651 21.0628 49.0522 21.3832C48.1508 22.2921 48.1508 22.2847 47.1897 21.4428C46.3255 20.6829 45.3495 20.4892 44.2841 20.966C43.256 21.4204 42.727 22.2325 42.6897 23.3649C42.645 24.5793 42.6376 24.5793 41.3934 24.5719C40.9166 24.5719 40.3429 24.706 39.9928 24.4825C39.6352 24.259 39.9108 23.6406 39.8587 23.201C39.732 22.1133 39.1882 21.3385 38.1749 20.9213C37.1543 20.5041 36.2155 20.6754 35.3886 21.4055C34.3977 22.2772 34.3977 22.2846 33.4813 21.3683C33.161 21.0479 32.6544 20.7499 32.5947 20.3774C32.5277 19.9826 33.1386 19.7292 33.4217 19.3791C34.1369 18.5 34.286 17.5314 33.8315 16.5182C33.3845 15.5273 32.5873 14.9909 31.4772 14.9537C30.2032 14.909 30.2107 14.9015 30.2107 13.6499C30.2107 12.2046 30.2107 12.212 31.5965 12.1152C32.6693 12.0407 33.4292 11.4744 33.8538 10.5059C34.2859 9.50759 34.1369 8.56141 33.4366 7.70464C33.1535 7.35448 32.5352 7.07883 32.6022 6.71377C32.6693 6.32636 33.1908 6.00601 33.526 5.67075C34.42 4.76928 34.42 4.77673 35.329 5.6037C36.1783 6.38597 37.1543 6.58712 38.2271 6.13266C39.2925 5.6782 39.8363 4.84378 39.8736 3.689C39.9108 2.50442 39.9108 2.49695 41.1103 2.51185C41.6095 2.51185 42.2055 2.31072 42.5706 2.60128C42.9207 2.88438 42.66 3.49529 42.7121 3.96465C42.8388 5.00768 43.3901 5.7229 44.3437 6.13266C45.3569 6.57222 46.2882 6.37852 47.145 5.6931C47.4951 5.41744 47.7261 4.80651 48.1507 4.88847C48.5233 4.96297 48.8213 5.45468 49.1416 5.77504C50.0506 6.67651 50.0431 6.67652 49.1789 7.64504C48.4339 8.48692 48.2476 9.448 48.6946 10.491C49.1342 11.5191 49.9388 12.0779 51.0712 12.1226C51.9056 12.1524 52.3228 12.6342 52.3228 13.568C52.3228 14.9015 52.3229 14.9015 51.0116 14.9611H51.0042Z" fill="#0C45E9"></path><path d="M37.6609 27.6339C37.0202 27.6041 36.454 27.9766 36.4093 28.6247C36.3646 29.2208 36.074 29.2208 35.6345 29.2282C34.6659 29.2506 33.9433 29.705 33.526 30.5916C33.1312 31.4409 33.2131 32.2604 33.757 33.0352C33.9507 33.3109 34.4201 33.4972 34.353 33.7952C34.286 34.1006 33.8985 34.3316 33.6527 34.5923C33.608 34.6445 33.5484 34.6817 33.5111 34.7413C33.3323 34.9947 33.1685 34.9499 32.9822 34.7413C32.6991 34.4135 32.3638 34.1379 31.9541 33.974C30.4044 33.3631 28.7505 34.488 28.6834 36.1867C28.676 36.4176 28.825 36.805 28.5568 36.8572C28.1023 36.954 27.5957 36.9615 27.1412 36.8572C26.7687 36.7752 26.9773 36.3506 26.955 36.0824C26.8805 35.0989 26.3962 34.421 25.5171 34.0187C24.6231 33.6164 23.7142 33.6909 23.0585 34.3912C22.47 35.0245 22.1273 34.8456 21.7175 34.3018C21.6505 34.2124 21.5685 34.1304 21.4791 34.0634C21.2258 33.8697 21.2035 33.7058 21.4791 33.4748C21.8665 33.147 22.1571 32.7447 22.2912 32.2455C22.7009 30.6959 21.643 29.3176 19.9667 29.2059C19.7506 29.191 19.393 29.3251 19.3558 29.1015C19.2738 28.6173 19.244 28.0958 19.3558 27.619C19.4154 27.3582 19.84 27.5296 20.1008 27.4998C21.1215 27.3955 21.8591 26.9037 22.2241 25.9427C22.5817 25.004 22.4178 24.1174 21.6877 23.4394C21.2332 23.0148 21.2482 22.754 21.7175 22.4262C21.792 22.374 21.8591 22.307 21.9112 22.2325C22.239 21.7855 22.5072 21.711 22.9468 22.1952C23.6471 22.9551 24.5709 23.0967 25.5096 22.7018C26.4558 22.3144 26.9773 21.5694 26.9699 20.5264C26.9699 20.0421 27.0444 19.8037 27.6106 19.7814C28.2215 19.759 28.594 19.3194 28.6685 18.716C28.743 18.1349 28.4674 17.6879 27.9384 17.4495C26.6868 16.8833 25.0254 17.6804 24.6082 18.9917C24.489 19.3567 24.5188 19.7367 24.4741 20.2135C24.3176 20.0645 24.2431 19.99 24.1612 19.9229C23.0064 18.8874 21.7101 18.9246 20.5925 20.0198C20.2871 20.3252 19.9816 20.6307 19.6762 20.9361C18.35 22.2623 18.3128 23.35 19.542 24.7804C19.5793 24.8251 19.5942 24.8922 19.6389 25.0114C19.4899 25.0114 19.3856 25.0114 19.2813 25.0114C17.7391 25.0561 16.8451 25.9725 16.8302 27.4998C16.8302 28.133 16.8153 28.7737 16.8302 29.407C16.86 30.5171 17.5976 31.3888 18.6853 31.6197C18.9833 31.6793 19.2888 31.7017 19.6687 31.7538C19.5421 31.8879 19.4676 31.9624 19.3931 32.0444C18.3575 33.1768 18.3798 34.4433 19.4601 35.5385C19.9071 35.993 20.3467 36.4549 20.816 36.8795C21.6579 37.6544 22.9096 37.7065 23.8185 37.036C24.0271 36.8796 24.1537 36.6188 24.4368 36.5443C24.5784 38.6304 25.3532 39.3456 27.4616 39.3456C27.7596 39.3456 28.0502 39.3456 28.3482 39.3456C30.2703 39.3456 31.1197 38.5111 31.1718 36.5443C31.4326 36.5741 31.5145 36.7604 31.6486 36.8721C32.5873 37.6693 33.906 37.6991 34.8224 36.887C35.3811 36.3878 35.9176 35.8589 36.4093 35.3001C37.2288 34.3837 37.2065 33.147 36.4242 32.1934C36.305 32.0444 36.0815 31.9624 36.0815 31.724C38.093 31.5452 39.0615 30.4873 38.8231 28.7216C38.7337 28.0585 38.2942 27.6339 37.6609 27.6041V27.6339Z" fill="#0C45E9"></path><path d="M26.5303 3.47314C24.705 3.6147 23.066 3.9127 21.5014 4.37461C11.4809 7.34724 4.73852 16.3396 4.70872 26.755C4.70872 29.0347 4.27661 31.0984 3.40494 33.0802C2.74187 34.5851 2.10114 36.1273 1.48277 37.6248L1.13264 38.4741C0.722877 39.4576 0.722877 40.4559 1.13264 41.2903C1.53495 42.1247 2.32465 42.7356 3.34532 43.0113L4.08288 43.2199C4.67145 43.3838 5.2526 43.5551 5.84862 43.6967C6.06467 43.7488 6.1168 43.8085 6.1466 44.0245C6.28815 44.926 6.43718 45.8275 6.58618 46.7289C6.86929 48.435 7.15982 50.2082 7.39823 51.9515C7.76328 54.6038 9.57368 56.3769 12.0099 56.4663H12.1813C13.6639 56.5259 15.1688 56.5781 16.6737 56.5781C18.0893 56.5781 19.5048 56.5334 20.9129 56.3844C24.6678 56.0044 27.8118 52.4432 27.7745 48.6064C27.7745 48.0029 27.4914 47.459 27.022 47.1461C26.5899 46.8556 26.0535 46.8034 25.5543 47.012C24.7274 47.3473 24.5635 48.0923 24.5188 48.7032C24.2953 51.43 22.3806 53.218 19.6315 53.2553C18.8715 53.2628 18.1116 53.2553 17.3517 53.2553H15.1017C14.2077 53.2553 13.3137 53.2553 12.4196 53.2553C11.3692 53.2404 10.7806 52.6965 10.6093 51.5939C10.3112 49.6047 9.99092 47.623 9.66311 45.6412L9.2906 43.3242C9.0671 41.9385 8.26245 41.037 6.89162 40.6496L6.22854 40.4633C5.57292 40.2771 4.92479 40.0908 4.26173 39.9195C4.13507 39.8897 4.08292 39.8599 4.07547 39.8599C4.07547 39.8599 4.07545 39.7779 4.1425 39.6513C4.53736 38.7647 4.90989 37.8707 5.2824 36.9766L5.82625 35.6803C6.58617 33.8848 7.37587 32.0372 7.71858 30.0405C7.88993 29.0794 7.89739 28.1109 7.91229 27.1722C7.91974 26.4495 7.92719 25.712 8.00915 24.9893C8.85847 17.4795 12.7847 11.944 19.6612 8.53183C21.7622 7.4888 24.1164 6.89278 26.8581 6.70652C27.3871 6.66927 27.8416 6.44578 28.1396 6.08817C28.4078 5.76036 28.527 5.34314 28.4674 4.91103C28.3482 3.9872 27.5659 3.42099 26.5229 3.49549L26.5303 3.47314Z" fill="#0C45E9"></path><path d="M49.9984 26.7549C49.1118 26.6282 48.3295 27.2615 48.1805 28.2374C48.1358 28.5503 48.0911 28.8633 48.0539 29.1762C48.0017 29.6008 47.9496 30.0329 47.8676 30.4576C47.3685 33.1993 46.3106 35.777 44.7162 38.1164C43.2485 40.2695 42.5035 42.7578 42.511 45.5144C42.511 46.4606 42.511 47.3993 42.511 48.3455V51.0425C42.511 52.2419 42.511 53.4414 42.511 54.6484C42.511 55.4679 42.8239 56.0341 43.4571 56.3395C43.6881 56.4513 43.9339 56.5109 44.1723 56.5109C44.448 56.5109 44.7088 56.4364 44.9472 56.2874C45.4538 55.9745 45.7592 55.3561 45.7592 54.6484V53.2924C45.7741 50.8264 45.789 48.2859 45.7592 45.7826C45.7294 43.5103 46.3329 41.4913 47.6069 39.599C49.7526 36.4326 51.0191 32.7523 51.3767 28.677C51.4661 27.6861 50.8924 26.9039 49.991 26.7772L49.9984 26.7549Z" fill="#0C45E9"></path><path d="M23.2224 28.3042C23.2001 30.8671 25.2638 32.9606 27.8118 32.9606C30.3374 32.9606 32.3936 30.9118 32.4085 28.3787C32.4234 25.8382 30.4045 23.7894 27.8639 23.7596C25.3458 23.7298 23.2522 25.786 23.2299 28.2968L23.2224 28.3042ZM29.9202 28.4085C29.9053 29.5335 28.9517 30.4797 27.8192 30.4871C26.6794 30.4871 25.6884 29.4962 25.6884 28.3563C25.6884 27.2016 26.6719 26.2554 27.8341 26.2628C29.0112 26.2777 29.9276 27.2239 29.9127 28.4085H29.9202Z" fill="#0C45E9"></path><path d="M41.2966 8.06998C38.3165 8.04762 35.8282 10.5062 35.7984 13.4937C35.7686 16.4961 38.2644 19.0068 41.2817 18.9994C44.2916 18.9994 46.7204 16.5632 46.7278 13.5458C46.7278 10.536 44.3139 8.09233 41.2966 8.06998V8.06998ZM41.2147 16.5036C39.5905 16.4812 38.2867 15.1551 38.2867 13.5384C38.2867 11.8621 39.6576 10.5434 41.3562 10.5807C42.9878 10.6179 44.2543 11.9366 44.2394 13.5757C44.2245 15.2296 42.8835 16.5259 41.2147 16.5036V16.5036Z" fill="#0C45E9"></path></svg> 