<?xml version="1.0" encoding="UTF-8"?> <svg xmlns="http://www.w3.org/2000/svg" width="55" height="48" viewBox="0 0 55 48" fill="none"><path d="M54.9013 4.15726C54.8895 1.5388 53.2781 0.0281396 50.6301 0.0222155C35.4761 -0.00740516 20.3222 -0.00740516 5.16829 0.0222155C2.42542 0.0222155 0.991783 1.57435 0.962163 4.37054C0.932542 7.21412 0.956242 10.0518 0.956242 12.8954C0.956242 20.0635 0.938463 27.2377 0.968083 34.4059C0.979932 37.1132 2.41358 38.5113 5.10313 38.5764C5.71332 38.5942 6.32942 38.6534 6.92775 38.5646C8.41471 38.3513 8.76424 39.0208 8.69315 40.3952C8.58652 42.5338 8.66353 44.6842 8.66353 47.2494C12.295 44.5243 15.5651 42.1368 18.7642 39.6487C19.789 38.849 20.8198 38.5468 22.1054 38.5527C31.5781 38.5942 41.0448 38.5824 50.5175 38.5705C53.3137 38.5705 54.8895 37.1428 54.9073 34.394C54.9606 24.3171 54.9606 14.2342 54.9073 4.15726H54.9013ZM50.1265 35.7388C40.5946 35.6618 31.0567 35.7329 21.5248 35.6736C19.8187 35.6618 18.4146 35.9935 17.0995 37.1428C15.5948 38.458 13.9123 39.5776 12.1291 40.9165C12.0462 40.4899 12.0284 40.4248 12.0225 40.3596C11.9692 38.8845 12.4787 36.9236 11.7263 36.0587C10.8318 35.0279 8.81163 35.7447 7.28321 35.721C3.84721 35.6677 3.84721 35.7032 3.84721 32.1962C3.84721 23.0671 3.88276 13.938 3.81167 4.80892C3.79982 3.33974 4.10195 2.85396 5.68369 2.86581C20.494 2.93097 35.2984 2.93097 50.1087 2.86581C51.6609 2.85988 52.0281 3.33381 52.0163 4.82076C51.9571 14.4889 51.9511 24.1571 52.0163 33.8253C52.0281 35.33 51.6668 35.7506 50.1265 35.7388V35.7388Z" fill="#0C45E9"></path><path d="M17.3957 20.8034C17.449 21.1944 17.5616 21.4847 17.7215 21.6743C18.0177 22.0238 18.5213 22.2015 19.2381 22.2015C19.6646 22.2015 20.0141 22.1541 20.2867 22.0653C20.7961 21.8875 21.0509 21.5558 21.0509 21.0759C21.0509 20.7916 20.9265 20.5783 20.6776 20.4243C20.4288 20.2762 20.0319 20.1399 19.4928 20.0274L18.5687 19.8259C17.6623 19.6245 17.0402 19.4053 16.6966 19.1743C16.122 18.7833 15.8317 18.1672 15.8317 17.326C15.8317 16.5617 16.1101 15.9279 16.6729 15.4243C17.2357 14.9208 18.0592 14.666 19.1492 14.666C20.0615 14.666 20.8376 14.903 21.4774 15.3828C22.1172 15.8568 22.4549 16.5499 22.4904 17.4563H20.7784C20.7487 16.9409 20.5177 16.5795 20.0912 16.3603C19.8068 16.2181 19.4514 16.147 19.0307 16.147C18.5627 16.147 18.1836 16.2418 17.9051 16.4255C17.6267 16.6091 17.4845 16.8698 17.4845 17.2015C17.4845 17.5037 17.6208 17.7347 17.8992 17.8828C18.077 17.9835 18.4561 18.102 19.0307 18.2383L20.5295 18.5937C21.1871 18.7477 21.6788 18.9551 22.0047 19.2098C22.5141 19.6127 22.7689 20.1932 22.7689 20.9515C22.7689 21.7098 22.4667 22.3792 21.8684 22.8946C21.2641 23.41 20.417 23.6648 19.3151 23.6648C18.2132 23.6648 17.3068 23.41 16.667 22.9065C16.0213 22.397 15.7014 21.7039 15.7014 20.8153H17.4016L17.3957 20.8034Z" fill="#0C45E9"></path><path d="M29.6763 14.9092H32.2415V23.434H30.5827V17.6639C30.5827 17.498 30.5827 17.267 30.5827 16.9649C30.5827 16.6627 30.5827 16.4376 30.5827 16.2717L28.9654 23.4281H27.2356L25.6301 16.2717C25.6301 16.4317 25.6301 16.6627 25.6301 16.9649C25.6301 17.267 25.6301 17.498 25.6301 17.6639V23.434H23.9714V14.9092H26.5662L28.1183 21.6153L29.6586 14.9092H29.6763Z" fill="#0C45E9"></path><path d="M35.168 20.8034C35.2213 21.1944 35.3339 21.4847 35.4938 21.6743C35.79 22.0238 36.2936 22.2015 37.0104 22.2015C37.4369 22.2015 37.7865 22.1541 38.059 22.0653C38.5684 21.8875 38.8232 21.5558 38.8232 21.0759C38.8232 20.7916 38.6988 20.5783 38.45 20.4243C38.2011 20.2762 37.8042 20.1399 37.2651 20.0274L36.341 19.8259C35.4346 19.6245 34.8125 19.4053 34.4689 19.1743C33.8943 18.7833 33.604 18.1672 33.604 17.326C33.604 16.5617 33.8825 15.9279 34.4453 15.4243C35.008 14.9208 35.8315 14.666 36.9215 14.666C37.8338 14.666 38.6099 14.903 39.2497 15.3828C39.8895 15.8568 40.2272 16.5499 40.2627 17.4563H38.5507C38.521 16.9409 38.29 16.5795 37.8635 16.3603C37.5791 16.2181 37.2237 16.147 36.8031 16.147C36.335 16.147 35.9559 16.2418 35.6775 16.4255C35.399 16.6091 35.2569 16.8698 35.2569 17.2015C35.2569 17.5037 35.3931 17.7347 35.6715 17.8828C35.8493 17.9835 36.2284 18.102 36.8031 18.2383L38.3019 18.5937C38.9594 18.7477 39.4511 18.9551 39.777 19.2098C40.2864 19.6127 40.5412 20.1932 40.5412 20.9515C40.5412 21.7098 40.239 22.3792 39.6407 22.8946C39.0364 23.41 38.1893 23.6648 37.0874 23.6648C35.9855 23.6648 35.0791 23.41 34.4393 22.9065C33.7936 22.397 33.4737 21.7039 33.4737 20.8153H35.1739L35.168 20.8034Z" fill="#0C45E9"></path></svg> 