<?xml version="1.0" encoding="UTF-8"?> <svg xmlns="http://www.w3.org/2000/svg" width="55" height="36" viewBox="0 0 55 36" fill="none"><path d="M54.2323 24.1672C54.1865 24.1168 54.1407 24.0663 54.0948 24.0113C53.9894 23.8922 53.884 23.7684 53.751 23.6767C50.8585 21.6552 47.966 19.6428 45.0734 17.6258L41.805 15.3475C41.5391 15.1641 41.1816 14.9808 40.7598 15.21C40.3977 15.4071 40.2373 15.7371 40.2831 16.2047C40.3519 16.9657 40.4206 17.7312 40.4848 18.5013L40.7002 21.0134C40.9753 24.2176 41.2503 27.4219 41.5162 30.6261C41.5483 31.0249 41.6263 31.4604 42.1259 31.6575C42.6164 31.8501 42.9739 31.5521 43.2306 31.3321C43.877 30.7911 44.5233 30.2502 45.1834 29.7001L45.7656 29.2142L46.4028 30.4886C47.1133 31.9096 47.8193 33.3169 48.5252 34.7197C48.7407 35.146 48.9469 35.3706 49.1991 35.4439C49.2632 35.4623 49.3274 35.4714 49.4008 35.4714C49.6071 35.4714 49.8454 35.3889 50.148 35.2147C51.2069 34.6051 52.2658 33.9954 53.3201 33.3811C53.7189 33.1473 53.9252 32.9273 53.9848 32.6706C54.0444 32.4093 53.9573 32.1205 53.7006 31.7263L53.2193 30.9928C52.33 29.6405 51.4132 28.2424 50.4964 26.8764C50.446 26.803 50.3451 26.6472 50.3634 26.5922C50.368 26.5738 50.4093 26.5234 50.611 26.4592C51.1748 26.2805 51.7386 26.0696 52.2887 25.8679C52.6508 25.7349 53.0084 25.602 53.3705 25.4736C53.7556 25.3407 54.0444 25.1299 54.2461 24.8411L54.2645 24.8135V24.2039L54.2323 24.1718V24.1672ZM48.0714 25.8404C47.9797 26.1108 48.0576 26.4317 48.2914 26.7939L48.4473 27.0322C49.497 28.6366 50.5789 30.2961 51.6653 31.9142C51.7478 32.0334 51.7799 32.1159 51.7707 32.1618C51.757 32.2076 51.6928 32.258 51.569 32.3222C51.0648 32.5789 50.5559 32.8723 50.0609 33.1886C49.9371 33.2665 49.8821 33.2757 49.8546 33.2665C49.8042 33.2528 49.7446 33.1427 49.7033 33.0648C49.0019 31.6438 48.2731 30.2044 47.5718 28.8108L47.0033 27.6832C46.7558 27.1927 46.5174 26.9451 46.2286 26.8855C46.1828 26.8764 46.1415 26.8718 46.0957 26.8718C45.8435 26.8718 45.5593 27.0139 45.1972 27.3164C44.7342 27.7015 44.2713 28.0911 43.7899 28.4945L43.1756 29.008L42.2222 17.8412L51.4223 24.2497L50.721 24.5018C50.0609 24.7402 49.4375 24.9648 48.8186 25.194C48.4106 25.3453 48.1539 25.5607 48.0668 25.8312L48.0714 25.8404Z" fill="#0C45E9"></path><path d="M38.2432 18.5516C38.0553 18.5195 37.8582 18.5195 37.6748 18.5195H37.5969C28.9331 18.5195 20.2738 18.5195 11.61 18.5195H9.54256C7.93814 18.5195 6.33832 18.5241 4.7339 18.5195C3.0699 18.5104 2.07519 17.511 2.07519 15.8424C2.07519 12.0469 2.07519 8.24668 2.07519 4.4511C2.07519 2.8421 3.11119 1.80152 4.71102 1.80152C19.1828 1.80152 33.6546 1.80152 48.131 1.80152C49.7354 1.80152 50.776 2.83751 50.776 4.44651C50.776 6.10135 50.776 7.7562 50.776 9.41103C50.776 11.5701 50.776 13.7292 50.776 15.8883C50.776 16.6309 50.5468 17.2452 50.0701 17.7677C49.8271 18.0336 49.7079 18.3132 49.7217 18.5837C49.7354 18.8037 49.8409 19.01 50.0288 19.1704C50.4368 19.5234 50.9456 19.4547 51.3857 18.9917C52.1787 18.1528 52.5775 17.1168 52.5775 15.9158C52.5775 13.3625 52.5775 10.8092 52.5775 8.25585V4.62987C52.5775 1.77401 50.8035 0 47.9523 0H4.84851C2.06599 0 0.264465 1.79236 0.264465 4.5657C0.264465 7.74702 0.264465 10.9238 0.264465 14.1051V15.6957C0.264465 18.5562 2.03394 20.3302 4.88063 20.3302C9.18962 20.3302 13.4986 20.3302 17.8076 20.3302C24.4361 20.3302 31.0646 20.3302 37.6932 20.3302C37.8811 20.3302 38.0919 20.3302 38.2936 20.2844C38.7291 20.1789 38.9675 19.8581 38.9538 19.3996C38.94 18.9367 38.6879 18.6341 38.2386 18.5608L38.2432 18.5516Z" fill="#0C45E9"></path><path d="M9.04752 13.239H10.4915L10.9407 11.8821H13.3702L13.8058 13.239H15.3002L12.9668 6.64258H11.4083L9.0521 13.239H9.04752ZM13.0035 10.7453H11.312L12.1692 8.15073L13.0035 10.7453V10.7453Z" fill="#0C45E9"></path><path d="M18.8482 7.69177C19.3295 7.69177 19.6962 7.83388 19.9392 8.12267C20.0767 8.28312 20.1867 8.52148 20.2784 8.83778H21.6582C21.6399 8.42522 21.4886 8.01724 21.2044 7.60468C20.6955 6.87581 19.8933 6.51367 18.7932 6.51367C17.9726 6.51367 17.2942 6.78413 16.767 7.32963C16.1573 7.95306 15.8502 8.84236 15.8502 9.99296C15.8502 11.0565 16.1207 11.8953 16.657 12.5096C17.1933 13.1193 17.9313 13.4218 18.8711 13.4218C19.632 13.4218 20.2509 13.1972 20.7368 12.748C21.2227 12.2987 21.5252 11.712 21.6444 10.9923H20.2738C20.1821 11.3315 20.0675 11.5882 19.93 11.7578C19.6825 12.0741 19.3203 12.2346 18.8482 12.2346C18.376 12.2346 18.0047 12.0512 17.7067 11.6799C17.4088 11.3132 17.2575 10.7585 17.2575 10.0159C17.2575 9.27326 17.3996 8.70484 17.6838 8.29686C17.968 7.89346 18.3531 7.69177 18.8482 7.69177V7.69177Z" fill="#0C45E9"></path><path d="M25.5821 13.239V7.8115H27.5533V6.64258H22.2083V7.8115H24.1932V13.239H25.5821Z" fill="#0C45E9"></path><path d="M29.6207 6.64258H28.2501V13.239H29.6207V6.64258Z" fill="#0C45E9"></path><path d="M31.6651 7.21055C30.9959 7.81564 30.6613 8.72328 30.6613 9.93347C30.6613 11.1437 30.9959 12.0238 31.6651 12.6564C32.1648 13.1698 32.8845 13.4265 33.8288 13.4265C34.7731 13.4265 35.4928 13.1698 35.9925 12.6564C36.6572 12.0284 36.9918 11.1207 36.9918 9.93347C36.9918 8.7462 36.6572 7.81564 35.9925 7.21055C35.4928 6.69713 34.7731 6.44043 33.8288 6.44043C32.8845 6.44043 32.1648 6.69713 31.6651 7.21055ZM35.1261 8.21445C35.447 8.61785 35.6074 9.19085 35.6074 9.93347C35.6074 10.6761 35.447 11.2491 35.1261 11.6525C34.8052 12.0559 34.3697 12.2576 33.8242 12.2576C33.2787 12.2576 32.8432 12.0559 32.5178 11.6525C32.1923 11.2491 32.0319 10.6761 32.0319 9.93347C32.0319 9.19085 32.1923 8.61785 32.5178 8.21445C32.8432 7.81106 33.2787 7.60935 33.8242 7.60935C34.3697 7.60935 34.8052 7.81106 35.1261 8.21445Z" fill="#0C45E9"></path><path d="M43.3636 13.239V6.64258H42.0801V11.245L39.4626 6.64258H38.014V13.239H39.3022V8.5587L41.9884 13.239H43.3636Z" fill="#0C45E9"></path></svg> 