<?xml version="1.0" encoding="UTF-8"?> <svg xmlns="http://www.w3.org/2000/svg" width="55" height="54" viewBox="0 0 55 54" fill="none"><path d="M53.2748 39.846C49.7427 37.1917 46.1536 34.6229 42.6002 32.0042C40.8377 30.7056 39.2537 30.941 37.7624 32.4823C36.6136 33.6739 35.4148 34.8227 34.2518 36C32.9531 37.3058 31.5689 37.4485 30.0062 36.4282C25.3896 33.4027 21.5721 29.5853 18.5182 24.9901C17.4479 23.3775 17.5835 21.9005 18.9891 20.5376C20.1237 19.4388 21.194 18.2757 22.3428 17.1983C23.9982 15.6427 24.1623 14.0159 22.7994 12.1821C20.2164 8.69999 17.6976 5.16796 15.0932 1.70015C13.4806 -0.44047 11.6682 -0.554651 9.7131 1.3291C7.67237 3.29847 5.66019 5.31066 3.68368 7.35138C0.679676 10.4481 0.13025 13.7019 2.12816 17.4908C10.2197 32.8676 21.9789 44.6053 37.3414 52.7326C38.6044 53.3962 39.9101 53.9313 41.1874 53.8956C43.4493 53.9242 45.3045 53.2677 46.7958 51.8835C49.2147 49.6215 51.5765 47.2954 53.8599 44.8908C55.501 43.164 55.2655 41.3445 53.2819 39.8532L53.2748 39.846ZM50.6775 43.7491C48.8294 45.4616 47.124 47.3239 45.2974 49.065C43.2995 50.963 41.2587 51.2841 38.8184 49.9997C24.0481 42.2007 12.7242 30.9196 4.92524 16.1422C3.61233 13.6591 3.88347 11.654 5.76722 9.65613C7.55107 7.76524 9.48477 6.01707 11.2472 4.10478C12.132 3.1415 12.553 3.44118 13.1809 4.31883C15.3857 7.38706 17.612 10.441 19.8953 13.4593C20.5018 14.2656 20.4519 14.7865 19.7383 15.4501C18.6395 16.4633 17.5835 17.5336 16.556 18.6182C14.3297 20.98 14.0015 23.6772 15.7211 26.3672C19.0319 31.5475 23.3132 35.7931 28.4721 39.1467C29.4782 39.8032 30.5556 40.2527 31.7901 40.2028C33.845 40.2813 35.3649 39.2823 36.7634 37.8909C39.199 35.4744 41.8177 35.2936 44.6195 37.3486C46.5889 38.79 48.5226 40.2884 50.5419 41.6584C51.6193 42.3934 51.6122 42.8857 50.6775 43.7562V43.7491Z" fill="#0C45E9"></path><path d="M32.2182 3.63373C33.0745 3.60519 33.9521 3.74075 34.7941 3.91914C43.642 5.81716 49.5216 12.3247 50.7988 21.7648C50.9986 23.2133 51.4339 23.777 52.9608 23.6771C54.4949 23.5772 53.8956 22.5711 53.9955 21.9075C53.6173 10.9903 43.4779 0.915136 32.4751 0.4442C31.626 0.408523 30.6841 0.144502 30.7769 1.59299C30.8411 2.62049 30.5985 3.69795 32.2253 3.63373H32.2182Z" fill="#0C45E9"></path><path d="M31.7543 12.8458C37.4127 13.7377 40.7449 17.0272 41.6154 22.707C41.8652 24.341 43.0497 23.4704 43.8132 23.606C44.755 23.7701 44.7836 23.078 44.6694 22.4287C44.4982 16.2994 38.4259 10.1201 32.2966 9.82042C31.6544 9.79188 30.6911 9.46363 30.8196 10.6552C30.8981 11.433 30.1417 12.5818 31.7615 12.8387L31.7543 12.8458Z" fill="#0C45E9"></path></svg> 