<?xml version="1.0" encoding="UTF-8"?> <svg xmlns="http://www.w3.org/2000/svg" width="55" height="51" viewBox="0 0 55 51" fill="none"><path d="M18.0286 29.942C24.8051 30.0433 31.5884 29.996 38.3649 29.969C40.9525 29.9623 42.1822 28.9353 42.2024 26.5368C42.2633 18.8077 42.2497 11.0786 42.2024 3.34942C42.1889 1.18742 41.0201 0.00506759 38.7905 0.00506759C27.0482 0.00506759 15.2991 -0.015202 3.55673 0.0253355C1.32717 0.0320917 0.266445 1.16714 0.252933 3.44399C0.212396 11.1731 0.239407 18.9023 0.239407 26.6314C0.239407 28.361 1.11773 29.4217 2.73923 29.9217C3.88103 30.273 5.53632 29.2596 6.14438 30.5973C6.62407 31.6446 6.25922 33.0769 6.27949 34.3403C6.27949 34.7186 6.32678 35.0902 6.38083 35.8469C8.75227 34.266 10.8332 32.9958 12.779 31.5432C14.3735 30.3541 16.0355 29.915 18.0218 29.942H18.0286ZM9.259 29.8947C10.0495 26.5706 7.86046 26.7328 5.75927 27.003C3.64456 27.28 3.10405 26.4828 3.15135 24.4019C3.29323 18.024 3.25269 11.6326 3.17161 5.25466C3.15135 3.61289 3.40133 2.92377 5.30659 2.94404C15.9409 3.04538 26.5752 3.0251 37.2096 2.95754C38.7635 2.95079 39.1891 3.38319 39.1689 4.92361C39.0878 11.619 39.0878 18.3212 39.1689 25.0167C39.1891 26.5909 38.7095 27.0233 37.1758 27.003C30.7979 26.9287 24.4132 27.0638 18.0353 26.9287C15.4815 26.8746 13.2317 27.2395 11.2588 28.9556C10.7724 29.3812 10.2454 29.9555 9.259 29.8879V29.8947Z" fill="#0C45E9"></path><path d="M46.6413 14.9228C46.5602 14.9228 46.4792 14.9295 46.4048 14.9228C45.2495 14.7741 45.1617 15.4768 45.1617 16.3754C45.1617 17.328 45.1684 18.1252 46.4859 18.0104C47.3439 17.936 48.229 18.0779 49.0871 17.9833C50.7086 17.8009 51.2626 18.3685 51.2423 20.0643C51.1477 26.4557 51.1072 32.8471 51.2558 39.2385C51.3031 41.4005 50.7356 42.2315 48.5466 41.9342C46.3575 41.6369 44.2969 41.691 45.2428 44.9543C44.2361 44.9678 43.7023 44.4273 43.1956 43.9949C41.162 42.272 38.8649 41.7991 36.2164 41.8667C29.9128 42.022 23.5958 41.8531 17.2922 41.9545C15.5964 41.9815 15.1167 41.4613 15.2315 39.833C15.3666 37.9008 15.2653 35.955 15.2653 33.9348C13.2114 34.7996 12.1822 36.1666 12.1777 38.0359C12.1777 38.9007 12.1777 39.7722 12.1777 40.637C12.2047 44.0354 13.1303 44.9678 16.5625 44.9813C21.927 45.0016 27.3049 45.238 32.6491 44.907C37.2163 44.63 41.1552 45.5353 44.6414 48.5486C45.5873 49.3729 46.6481 50.2241 48.1277 50.5755C48.1277 49.3729 48.229 48.3391 48.1074 47.3325C47.8844 45.4948 48.5195 44.8799 50.4248 44.9272C53.1948 44.9948 54.1542 43.8395 54.1678 40.9681C54.188 34.6578 54.0259 28.3407 54.2083 22.0303C54.438 14.1458 52.9584 14.943 46.6413 14.9295V14.9228Z" fill="#0C45E9"></path><path d="M12.4817 13.1934H10.1981C9.88844 13.1934 9.63736 13.4444 9.63736 13.7541V16.0378C9.63736 16.3475 9.88844 16.5985 10.1981 16.5985H12.4817C12.7914 16.5985 13.0425 16.3475 13.0425 16.0378V13.7541C13.0425 13.4444 12.7914 13.1934 12.4817 13.1934Z" fill="#0C45E9"></path><path d="M22.6162 13.1934H20.3326C20.0229 13.1934 19.7718 13.4444 19.7718 13.7541V16.0378C19.7718 16.3475 20.0229 16.5985 20.3326 16.5985H22.6162C22.9259 16.5985 23.1769 16.3475 23.1769 16.0378V13.7541C23.1769 13.4444 22.9259 13.1934 22.6162 13.1934Z" fill="#0C45E9"></path><path d="M32.0749 13.1934H29.7913C29.4816 13.1934 29.2305 13.4444 29.2305 13.7541V16.0378C29.2305 16.3475 29.4816 16.5985 29.7913 16.5985H32.0749C32.3846 16.5985 32.6357 16.3475 32.6357 16.0378V13.7541C32.6357 13.4444 32.3846 13.1934 32.0749 13.1934Z" fill="#0C45E9"></path></svg> 