<?xml version="1.0" standalone="no"?>
<!DOCTYPE svg PUBLIC "-//W3C//DTD SVG 20010904//EN"
 "http://www.w3.org/TR/2001/REC-SVG-20010904/DTD/svg10.dtd">
<svg version="1.0" xmlns="http://www.w3.org/2000/svg"
 width="240.000000pt" height="240.000000pt" viewBox="0 0 240.000000 240.000000"
 preserveAspectRatio="xMidYMid meet">
<metadata>
Created by potrace 1.14, written by Peter Selinger 2001-2017
</metadata>
<g transform="translate(0.000000,240.000000) scale(0.100000,-0.100000)"
fill="#000000" stroke="none">
<path d="M1052 2370 c-45 -28 -1014 -1005 -1029 -1038 -9 -19 -12 -116 -13
-329 l0 -301 277 1 278 2 2 423 c2 470 5 494 66 574 18 23 51 55 72 69 85 57
94 58 554 59 234 0 426 2 428 4 3 3 6 453 3 539 0 16 -21 17 -302 17 -284 0
-305 -1 -336 -20z"/>
<path d="M1836 1681 c-2 -3 -4 -197 -4 -429 0 -418 0 -424 -23 -485 -28 -74
-90 -141 -164 -177 l-50 -25 -439 -2 c-241 -1 -441 -4 -443 -7 -3 -3 -6 -434
-3 -538 0 -17 21 -18 303 -18 235 0 308 3 328 14 36 19 1010 999 1032 1039 15
28 17 65 17 333 l0 301 -275 1 c-151 0 -277 -3 -279 -7z"/>
</g>
</svg>
